<svg width="120" height="94" viewBox="0 0 120 94" fill="none" xmlns="http://www.w3.org/2000/svg">
<g clip-path="url(#clip0_397_268)">
<path d="M99.7881 40.3656C99.7881 40.3656 96.9668 41.9348 97.7789 43.7215C98.591 45.5081 110.123 44.0463 110.123 44.0463C110.123 44.0463 109.311 41.61 107.849 41.1227C106.387 40.6354 99.7881 40.3656 99.7881 40.3656Z" fill="#F50057"/>
<path d="M98.6882 40.7839C99.2553 40.4153 99.8856 40.1547 100.547 40.0152C102.755 39.4802 105.066 39.5522 107.235 40.2238L107.196 40.1914C108.12 40.6793 108.932 41.356 109.578 42.1776L98.6882 40.7839Z" fill="#CCCCCC"/>
<path d="M111.182 48.4673C111.143 49.0504 111.104 49.633 111.065 50.215C111.012 51.434 110.879 52.6483 110.667 53.85C110.469 54.8554 110.154 55.8526 109.59 56.7086C109.027 57.5629 108.19 58.2695 107.199 58.5293C106.591 58.6751 105.959 58.689 105.344 58.5699C104.186 57.9121 103.402 58.7535 104.558 59.6094C104.821 59.8034 105.093 59.9828 105.375 60.147L105.9 68.247L96.1547 66.1355L98.0566 55.3605C97.7653 55.0958 97.4989 54.8049 97.2608 54.4915C96.1709 53.0444 95.7957 51.1587 95.8672 49.3493C95.9403 47.5383 96.4227 45.7728 96.9018 44.0267C97.024 43.553 97.1715 43.0862 97.3436 42.6283C97.5564 42.716 97.7724 42.7956 97.9917 42.8622C99.3934 43.2877 100.883 43.3218 102.348 43.3202C104.955 43.3186 107.558 43.2168 110.159 43.0149C110.756 43.9986 111.119 45.1068 111.219 46.2535C111.261 46.9914 111.249 47.7313 111.182 48.4673Z" fill="#CCCCCC"/>
<path d="M69.5016 70.4551L84.5044 71.7869L84.6652 71.8015V7.78486C84.6116 7.7475 84.558 7.71014 84.5044 7.67279C81.3777 5.48573 77.9954 3.68903 74.4327 2.32263L73.6661 12.8963L73.5962 13.8643L72.8377 24.3502L72.6038 27.5759L69.5292 70.0815L69.5016 70.4551Z" fill="#E6E6E6"/>
<path d="M32.3997 6.59267C32.2925 6.66088 32.1853 6.7291 32.0781 6.80057V71.8015L32.3997 71.7723L47.2401 70.455L47.2125 70.0815L44.1379 27.5759L43.904 24.3502L43.1455 13.8643L43.0757 12.8962L42.2717 1.80774C38.8046 3.00955 35.4911 4.61559 32.3997 6.59267Z" fill="#E6E6E6"/>
<path d="M32.0782 6.80055C31.8621 6.94023 31.6461 7.08316 31.4333 7.22772V72.6883C31.4333 74.3239 32.403 75.6947 33.6991 76.0439C33.9109 76.1013 34.1294 76.1302 34.3488 76.13H82.5554C82.7743 76.1304 82.9923 76.1014 83.2035 76.0439C83.6853 75.9103 84.1219 75.6487 84.4671 75.2871C85.1255 74.5834 85.4853 73.6518 85.4709 72.6883V8.36629C85.2045 8.16976 84.9365 7.97486 84.6653 7.78482C84.6117 7.74747 84.5581 7.71011 84.5045 7.67275V72.6883C84.5048 72.899 84.4797 73.109 84.4297 73.3136C84.2007 74.2801 83.4455 74.9882 82.5554 74.9882H34.3488C33.2736 74.9882 32.3998 73.9568 32.3998 72.6883V6.59265C32.2926 6.66087 32.1854 6.72908 32.0782 6.80055Z" fill="#E6E6E6"/>
<path d="M84.9876 12.8969H31.9161V13.8647H84.9876V12.8969Z" fill="#E6E6E6"/>
<path d="M68.7334 0.550558C68.4118 0.470972 68.0902 0.396257 67.7654 0.326416V26.6078H68.7334V0.550558Z" fill="#E6E6E6"/>
<path d="M49.1389 0C48.8157 0.0600958 48.4925 0.121814 48.1709 0.188407V26.6078H49.1389V0Z" fill="#E6E6E6"/>
<path d="M21.5111 74.4361C21.5109 74.9915 21.6173 75.5417 21.8246 76.057C21.9042 76.2568 21.9992 76.4502 22.1088 76.6352C22.2504 76.8766 22.4146 77.104 22.5993 77.3142C23.0074 77.7792 23.51 78.1517 24.0735 78.4069C24.6371 78.662 25.2486 78.794 25.8672 78.7938H89.4243C90.5796 78.7938 91.6876 78.3349 92.5045 77.5179C93.3215 76.701 93.7804 75.593 93.7804 74.4377C93.7804 73.2824 93.3215 72.1744 92.5045 71.3574C91.6876 70.5405 90.5796 70.0815 89.4243 70.0815H25.8672C24.7126 70.0827 23.6055 70.5418 22.7888 71.3581C21.9722 72.1744 21.5127 73.2814 21.5111 74.4361Z" fill="#E6E6E6"/>
<path d="M31.9162 27.5763L84.665 27.5763V24.3501L31.9162 24.3501V27.5763Z" fill="#E6E6E6"/>
<path d="M60.549 25.1566H56.0322C56.0322 24.9236 56.0781 24.6929 56.1673 24.4776C56.2565 24.2623 56.3872 24.0667 56.5519 23.9019C56.7167 23.7371 56.9123 23.6064 57.1276 23.5173C57.3429 23.4281 57.5736 23.3822 57.8066 23.3822H58.7745C59.2451 23.3822 59.6965 23.5691 60.0292 23.9019C60.362 24.2347 60.549 24.686 60.549 25.1566Z" fill="#E6E6E6"/>
<path d="M0 76.9243C1.41099 78.5962 2.93714 80.1674 4.56728 81.6264H115.433C117.063 80.1674 118.589 78.5962 120 76.9243H0Z" fill="#3F3D56"/>
<path d="M30.0739 61.2003V77.8582H41.7438V61.2003C41.744 61.0805 41.7058 60.9638 41.6347 60.8673C41.5637 60.7708 41.4636 60.6997 41.3491 60.6643C41.2952 60.6465 41.2387 60.6377 41.1818 60.6383H30.6375C30.5635 60.6382 30.4903 60.6526 30.422 60.6808C30.3536 60.709 30.2915 60.7503 30.2392 60.8025C30.1868 60.8547 30.1453 60.9167 30.1169 60.985C30.0886 61.0532 30.0739 61.1264 30.0739 61.2003ZM34.6281 66.924C34.6312 66.5956 34.7638 66.2817 34.9971 66.0506C35.2304 65.8194 35.5455 65.6898 35.8739 65.6898C36.2023 65.6898 36.5175 65.8194 36.7507 66.0506C36.984 66.2817 37.1166 66.5956 37.1197 66.924V68.8568C37.118 69.1861 36.986 69.5014 36.7526 69.7336C36.5191 69.9659 36.2032 70.0963 35.8739 70.0963C35.5446 70.0963 35.2287 69.9659 34.9953 69.7336C34.7618 69.5014 34.6298 69.1861 34.6281 68.8568V66.924Z" fill="#2F2E41"/>
<path d="M30.0382 77.3254V78.9318C30.0385 79.015 30.0715 79.0947 30.1302 79.1537C30.1889 79.2127 30.2685 79.2462 30.3517 79.2469H41.4662C41.5495 79.2465 41.6292 79.2131 41.6879 79.154C41.7467 79.095 41.7796 79.0151 41.7796 78.9318V77.3254H30.0382Z" fill="#3F3D56"/>
<path d="M11.7155 36.103V66.518C11.7158 66.9056 11.8699 67.2772 12.1439 67.5513C12.418 67.8253 12.7896 67.9795 13.1772 67.9798H58.2491C58.6367 67.9795 59.0084 67.8254 59.2824 67.5513C59.5565 67.2772 59.7106 66.9056 59.7109 66.518V36.103C59.71 35.7157 59.5556 35.3446 59.2816 35.0709C59.0077 34.7973 58.6364 34.6433 58.2491 34.6428H13.1772C12.79 34.6433 12.4187 34.7973 12.1447 35.0709C11.8707 35.3446 11.7164 35.7157 11.7155 36.103Z" fill="#3F3D56"/>
<path d="M12.7728 36.4815V66.1428C12.7732 66.3499 12.8556 66.5484 13.002 66.6949C13.1485 66.8413 13.347 66.9237 13.5541 66.9241H57.8739C58.081 66.9237 58.2795 66.8413 58.426 66.6949C58.5724 66.5484 58.6548 66.3499 58.6552 66.1428V36.4815C58.6552 36.2741 58.5729 36.0753 58.4264 35.9285C58.28 35.7817 58.0813 35.6991 57.8739 35.6986H13.5541C13.3467 35.6991 13.148 35.7817 13.0016 35.9285C12.8551 36.0753 12.7728 36.2741 12.7728 36.4815Z" fill="#F50057"/>
<path d="M21.8099 79.6254C21.855 79.682 21.9123 79.7276 21.9776 79.7588C22.0429 79.79 22.1144 79.806 22.1867 79.8057H48.5542C48.6263 79.8056 48.6975 79.7894 48.7625 79.7584C48.8276 79.7273 48.885 79.6821 48.9304 79.6261C48.9758 79.5701 49.0082 79.5047 49.0251 79.4346C49.0421 79.3645 49.0432 79.2915 49.0284 79.221L48.6191 77.2768C48.6022 77.1975 48.5656 77.1237 48.5129 77.0622C48.4601 77.0006 48.3928 76.9532 48.317 76.9243C48.2622 76.9028 48.2038 76.8918 48.1449 76.8918H22.5944C22.5355 76.8918 22.4771 76.9028 22.4222 76.9243C22.3465 76.9532 22.2791 77.0006 22.2264 77.0622C22.1736 77.1237 22.1371 77.1975 22.1201 77.2768L21.7108 79.221C21.6963 79.2915 21.6976 79.3644 21.7147 79.4344C21.7319 79.5043 21.7644 79.5696 21.8099 79.6254Z" fill="#2F2E41"/>
<path d="M47.2248 77.7292H47.8783C47.9221 77.7292 47.9576 77.6938 47.9576 77.65V77.3213C47.9576 77.2775 47.9221 77.242 47.8783 77.242H47.2248C47.181 77.242 47.1455 77.2775 47.1455 77.3213V77.65C47.1455 77.6938 47.181 77.7292 47.2248 77.7292Z" fill="#3F3D56"/>
<path d="M45.6006 77.7292H46.2541C46.2979 77.7292 46.3334 77.6938 46.3334 77.65V77.3213C46.3334 77.2775 46.2979 77.242 46.2541 77.242H45.6006C45.5568 77.242 45.5213 77.2775 45.5213 77.3213V77.65C45.5213 77.6938 45.5568 77.7292 45.6006 77.7292Z" fill="#3F3D56"/>
<path d="M43.9764 77.7292H44.6299C44.6737 77.7292 44.7092 77.6938 44.7092 77.65V77.3213C44.7092 77.2775 44.6737 77.242 44.6299 77.242H43.9764C43.9326 77.242 43.8971 77.2775 43.8971 77.3213V77.65C43.8971 77.6938 43.9326 77.7292 43.9764 77.7292Z" fill="#3F3D56"/>
<path d="M42.3521 77.7292H43.0057C43.0495 77.7292 43.085 77.6938 43.085 77.65V77.3213C43.085 77.2775 43.0495 77.242 43.0057 77.242H42.3521C42.3084 77.242 42.2729 77.2775 42.2729 77.3213V77.65C42.2729 77.6938 42.3084 77.7292 42.3521 77.7292Z" fill="#3F3D56"/>
<path d="M40.728 77.7292H41.3815C41.4253 77.7292 41.4608 77.6938 41.4608 77.65V77.3213C41.4608 77.2775 41.4253 77.242 41.3815 77.242H40.728C40.6842 77.242 40.6487 77.2775 40.6487 77.3213V77.65C40.6487 77.6938 40.6842 77.7292 40.728 77.7292Z" fill="#3F3D56"/>
<path d="M39.1037 77.7292H39.7573C39.801 77.7292 39.8365 77.6938 39.8365 77.65V77.3213C39.8365 77.2775 39.801 77.242 39.7573 77.242H39.1037C39.0599 77.242 39.0244 77.2775 39.0244 77.3213V77.65C39.0244 77.6938 39.0599 77.7292 39.1037 77.7292Z" fill="#3F3D56"/>
<path d="M37.4795 77.7292H38.133C38.1768 77.7292 38.2123 77.6938 38.2123 77.65V77.3213C38.2123 77.2775 38.1768 77.242 38.133 77.242H37.4795C37.4357 77.242 37.4002 77.2775 37.4002 77.3213V77.65C37.4002 77.6938 37.4357 77.7292 37.4795 77.7292Z" fill="#3F3D56"/>
<path d="M35.8553 77.7292H36.5088C36.5526 77.7292 36.5881 77.6938 36.5881 77.65V77.3213C36.5881 77.2775 36.5526 77.242 36.5088 77.242H35.8553C35.8115 77.242 35.776 77.2775 35.776 77.3213V77.65C35.776 77.6938 35.8115 77.7292 35.8553 77.7292Z" fill="#3F3D56"/>
<path d="M34.2311 77.7292H34.8846C34.9284 77.7292 34.9639 77.6938 34.9639 77.65V77.3213C34.9639 77.2775 34.9284 77.242 34.8846 77.242H34.2311C34.1873 77.242 34.1518 77.2775 34.1518 77.3213V77.65C34.1518 77.6938 34.1873 77.7292 34.2311 77.7292Z" fill="#3F3D56"/>
<path d="M32.6069 77.7292H33.2604C33.3042 77.7292 33.3397 77.6938 33.3397 77.65V77.3213C33.3397 77.2775 33.3042 77.242 33.2604 77.242H32.6069C32.5631 77.242 32.5276 77.2775 32.5276 77.3213V77.65C32.5276 77.6938 32.5631 77.7292 32.6069 77.7292Z" fill="#3F3D56"/>
<path d="M30.9826 77.7292H31.6362C31.68 77.7292 31.7155 77.6938 31.7155 77.65V77.3213C31.7155 77.2775 31.68 77.242 31.6362 77.242H30.9826C30.9388 77.242 30.9033 77.2775 30.9033 77.3213V77.65C30.9033 77.6938 30.9388 77.7292 30.9826 77.7292Z" fill="#3F3D56"/>
<path d="M29.3585 77.7292H30.012C30.0558 77.7292 30.0913 77.6938 30.0913 77.65V77.3213C30.0913 77.2775 30.0558 77.242 30.012 77.242H29.3585C29.3147 77.242 29.2792 77.2775 29.2792 77.3213V77.65C29.2792 77.6938 29.3147 77.7292 29.3585 77.7292Z" fill="#3F3D56"/>
<path d="M27.7342 77.7292H28.3877C28.4315 77.7292 28.467 77.6938 28.467 77.65V77.3213C28.467 77.2775 28.4315 77.242 28.3877 77.242H27.7342C27.6904 77.242 27.6549 77.2775 27.6549 77.3213V77.65C27.6549 77.6938 27.6904 77.7292 27.7342 77.7292Z" fill="#3F3D56"/>
<path d="M26.1101 77.7292H26.7636C26.8074 77.7292 26.8429 77.6938 26.8429 77.65V77.3213C26.8429 77.2775 26.8074 77.242 26.7636 77.242H26.1101C26.0663 77.242 26.0308 77.2775 26.0308 77.3213V77.65C26.0308 77.6938 26.0663 77.7292 26.1101 77.7292Z" fill="#3F3D56"/>
<path d="M24.4858 77.7292H25.1393C25.1831 77.7292 25.2186 77.6938 25.2186 77.65V77.3213C25.2186 77.2775 25.1831 77.242 25.1393 77.242H24.4858C24.442 77.242 24.4065 77.2775 24.4065 77.3213V77.65C24.4065 77.6938 24.442 77.7292 24.4858 77.7292Z" fill="#3F3D56"/>
<path d="M22.8617 77.7292H23.5152C23.559 77.7292 23.5945 77.6938 23.5945 77.65V77.3213C23.5945 77.2775 23.559 77.242 23.5152 77.242H22.8617C22.8179 77.242 22.7824 77.2775 22.7824 77.3213V77.65C22.7824 77.6938 22.8179 77.7292 22.8617 77.7292Z" fill="#3F3D56"/>
<path d="M47.244 78.5413H47.8975C47.9413 78.5413 47.9768 78.5058 47.9768 78.462V78.1333C47.9768 78.0895 47.9413 78.054 47.8975 78.054H47.244C47.2002 78.054 47.1647 78.0895 47.1647 78.1333V78.462C47.1647 78.5058 47.2002 78.5413 47.244 78.5413Z" fill="#3F3D56"/>
<path d="M45.6197 78.5413H46.2732C46.317 78.5413 46.3525 78.5058 46.3525 78.462V78.1333C46.3525 78.0895 46.317 78.054 46.2732 78.054H45.6197C45.5759 78.054 45.5404 78.0895 45.5404 78.1333V78.462C45.5404 78.5058 45.5759 78.5413 45.6197 78.5413Z" fill="#3F3D56"/>
<path d="M43.9956 78.5413H44.6491C44.6929 78.5413 44.7284 78.5058 44.7284 78.462V78.1333C44.7284 78.0895 44.6929 78.054 44.6491 78.054H43.9956C43.9518 78.054 43.9163 78.0895 43.9163 78.1333V78.462C43.9163 78.5058 43.9518 78.5413 43.9956 78.5413Z" fill="#3F3D56"/>
<path d="M42.3713 78.5413H43.0248C43.0686 78.5413 43.1041 78.5058 43.1041 78.462V78.1333C43.1041 78.0895 43.0686 78.054 43.0248 78.054H42.3713C42.3275 78.054 42.292 78.0895 42.292 78.1333V78.462C42.292 78.5058 42.3275 78.5413 42.3713 78.5413Z" fill="#3F3D56"/>
<path d="M40.7472 78.5413H41.4007C41.4445 78.5413 41.48 78.5058 41.48 78.462V78.1333C41.48 78.0895 41.4445 78.054 41.4007 78.054H40.7472C40.7034 78.054 40.6679 78.0895 40.6679 78.1333V78.462C40.6679 78.5058 40.7034 78.5413 40.7472 78.5413Z" fill="#3F3D56"/>
<path d="M39.1229 78.5413H39.7764C39.8202 78.5413 39.8557 78.5058 39.8557 78.462V78.1333C39.8557 78.0895 39.8202 78.054 39.7764 78.054H39.1229C39.0791 78.054 39.0436 78.0895 39.0436 78.1333V78.462C39.0436 78.5058 39.0791 78.5413 39.1229 78.5413Z" fill="#3F3D56"/>
<path d="M37.4988 78.5413H38.1523C38.1961 78.5413 38.2316 78.5058 38.2316 78.462V78.1333C38.2316 78.0895 38.1961 78.054 38.1523 78.054H37.4988C37.455 78.054 37.4195 78.0895 37.4195 78.1333V78.462C37.4195 78.5058 37.455 78.5413 37.4988 78.5413Z" fill="#3F3D56"/>
<path d="M35.8745 78.5413H36.528C36.5718 78.5413 36.6073 78.5058 36.6073 78.462V78.1333C36.6073 78.0895 36.5718 78.054 36.528 78.054H35.8745C35.8307 78.054 35.7952 78.0895 35.7952 78.1333V78.462C35.7952 78.5058 35.8307 78.5413 35.8745 78.5413Z" fill="#3F3D56"/>
<path d="M34.2503 78.5413H34.9039C34.9477 78.5413 34.9832 78.5058 34.9832 78.462V78.1333C34.9832 78.0895 34.9477 78.054 34.9039 78.054H34.2503C34.2065 78.054 34.171 78.0895 34.171 78.1333V78.462C34.171 78.5058 34.2065 78.5413 34.2503 78.5413Z" fill="#3F3D56"/>
<path d="M32.6261 78.5413H33.2796C33.3234 78.5413 33.3589 78.5058 33.3589 78.462V78.1333C33.3589 78.0895 33.3234 78.054 33.2796 78.054H32.6261C32.5823 78.054 32.5468 78.0895 32.5468 78.1333V78.462C32.5468 78.5058 32.5823 78.5413 32.6261 78.5413Z" fill="#3F3D56"/>
<path d="M31.0019 78.5413H31.6554C31.6992 78.5413 31.7347 78.5058 31.7347 78.462V78.1333C31.7347 78.0895 31.6992 78.054 31.6554 78.054H31.0019C30.9581 78.054 30.9226 78.0895 30.9226 78.1333V78.462C30.9226 78.5058 30.9581 78.5413 31.0019 78.5413Z" fill="#3F3D56"/>
<path d="M29.3777 78.5413H30.0312C30.075 78.5413 30.1105 78.5058 30.1105 78.462V78.1333C30.1105 78.0895 30.075 78.054 30.0312 78.054H29.3777C29.3339 78.054 29.2984 78.0895 29.2984 78.1333V78.462C29.2984 78.5058 29.3339 78.5413 29.3777 78.5413Z" fill="#3F3D56"/>
<path d="M27.7534 78.5413H28.4069C28.4507 78.5413 28.4862 78.5058 28.4862 78.462V78.1333C28.4862 78.0895 28.4507 78.054 28.4069 78.054H27.7534C27.7096 78.054 27.6741 78.0895 27.6741 78.1333V78.462C27.6741 78.5058 27.7096 78.5413 27.7534 78.5413Z" fill="#3F3D56"/>
<path d="M26.1292 78.5413H26.7828C26.8266 78.5413 26.8621 78.5058 26.8621 78.462V78.1333C26.8621 78.0895 26.8266 78.054 26.7828 78.054H26.1292C26.0855 78.054 26.05 78.0895 26.05 78.1333V78.462C26.05 78.5058 26.0855 78.5413 26.1292 78.5413Z" fill="#3F3D56"/>
<path d="M24.505 78.5413H25.1585C25.2023 78.5413 25.2378 78.5058 25.2378 78.462V78.1333C25.2378 78.0895 25.2023 78.054 25.1585 78.054H24.505C24.4612 78.054 24.4257 78.0895 24.4257 78.1333V78.462C24.4257 78.5058 24.4612 78.5413 24.505 78.5413Z" fill="#3F3D56"/>
<path d="M22.8808 78.5413H23.5344C23.5781 78.5413 23.6136 78.5058 23.6136 78.462V78.1333C23.6136 78.0895 23.5781 78.054 23.5344 78.054H22.8808C22.837 78.054 22.8015 78.0895 22.8015 78.1333V78.462C22.8015 78.5058 22.837 78.5413 22.8808 78.5413Z" fill="#3F3D56"/>
<path d="M33.763 79.5159H40.1012C40.145 79.5159 40.1805 79.4804 40.1805 79.4366V79.1079C40.1805 79.0641 40.145 79.0286 40.1012 79.0286H33.763C33.7192 79.0286 33.6837 79.0641 33.6837 79.1079V79.4366C33.6837 79.4804 33.7192 79.5159 33.763 79.5159Z" fill="#3F3D56"/>
<path d="M15.7811 39.7845H57.251C57.2941 39.7836 57.3351 39.7658 57.3653 39.735C57.3954 39.7042 57.4123 39.6627 57.4123 39.6196C57.4123 39.5765 57.3954 39.5351 57.3653 39.5043C57.3351 39.4734 57.2941 39.4557 57.251 39.4547H15.7811C15.738 39.4557 15.6969 39.4734 15.6668 39.5043C15.6366 39.5351 15.6198 39.5765 15.6198 39.6196C15.6198 39.6627 15.6366 39.7042 15.6668 39.735C15.6969 39.7658 15.738 39.7836 15.7811 39.7845Z" fill="#3F3D56"/>
<path d="M54.4281 38.6127C54.9619 38.6127 55.3946 38.1704 55.3946 37.6247C55.3946 37.0791 54.9619 36.6367 54.4281 36.6367C53.8944 36.6367 53.4617 37.0791 53.4617 37.6247C53.4617 38.1704 53.8944 38.6127 54.4281 38.6127Z" fill="#3F3D56"/>
<path d="M51.0894 38.6127C51.6232 38.6127 52.0559 38.1704 52.0559 37.6247C52.0559 37.0791 51.6232 36.6367 51.0894 36.6367C50.5556 36.6367 50.1229 37.0791 50.1229 37.6247C50.1229 38.1704 50.5556 38.6127 51.0894 38.6127Z" fill="#3F3D56"/>
<path d="M47.7507 38.6127C48.2844 38.6127 48.7171 38.1704 48.7171 37.6247C48.7171 37.0791 48.2844 36.6367 47.7507 36.6367C47.2169 36.6367 46.7842 37.0791 46.7842 37.6247C46.7842 38.1704 47.2169 38.6127 47.7507 38.6127Z" fill="#3F3D56"/>
<path d="M17.6146 37.0613C17.6145 37.0846 17.619 37.1078 17.6278 37.1294C17.6367 37.151 17.6497 37.1707 17.6661 37.1873C17.6826 37.2039 17.7021 37.2171 17.7237 37.2261C17.7452 37.2351 17.7683 37.2398 17.7917 37.2399H20.163C20.2099 37.2388 20.2545 37.2195 20.2872 37.1859C20.32 37.1524 20.3384 37.1073 20.3384 37.0605C20.3384 37.0136 20.32 36.9685 20.2872 36.935C20.2545 36.9015 20.2099 36.8821 20.163 36.881H17.7917C17.7443 36.8816 17.6991 36.9008 17.666 36.9346C17.6328 36.9684 17.6143 37.0139 17.6146 37.0613Z" fill="#3F3D56"/>
<path d="M17.6146 37.7353C17.6145 37.7587 17.619 37.7819 17.6278 37.8035C17.6367 37.8251 17.6497 37.8448 17.6661 37.8614C17.6826 37.8779 17.7021 37.8911 17.7237 37.9002C17.7452 37.9092 17.7683 37.9139 17.7917 37.914H20.163C20.2099 37.913 20.2546 37.8936 20.2874 37.8601C20.3202 37.8265 20.3386 37.7815 20.3386 37.7345C20.3386 37.6876 20.3202 37.6425 20.2874 37.609C20.2546 37.5755 20.2099 37.5561 20.163 37.5551H17.7917C17.7443 37.5556 17.6991 37.5749 17.666 37.6087C17.6328 37.6425 17.6143 37.688 17.6146 37.7353Z" fill="#3F3D56"/>
<path d="M17.6146 38.4078C17.6143 38.4551 17.6328 38.5007 17.666 38.5344C17.6991 38.5682 17.7443 38.5875 17.7917 38.5881H20.163C20.2099 38.587 20.2545 38.5676 20.2872 38.5341C20.32 38.5005 20.3384 38.4555 20.3384 38.4086C20.3384 38.3617 20.32 38.3167 20.2872 38.2831C20.2545 38.2496 20.2099 38.2302 20.163 38.2291H17.7917C17.7683 38.2292 17.7452 38.2339 17.7237 38.243C17.7021 38.252 17.6826 38.2652 17.6661 38.2818C17.6497 38.2984 17.6367 38.318 17.6278 38.3397C17.619 38.3613 17.6145 38.3844 17.6146 38.4078Z" fill="#3F3D56"/>
<path d="M18.3474 43.6171H17.4954C17.237 43.6171 17.0276 43.8265 17.0276 44.0848C17.0276 44.3432 17.237 44.5526 17.4954 44.5526H18.3474C18.6058 44.5526 18.8152 44.3432 18.8152 44.0848C18.8152 43.8265 18.6058 43.6171 18.3474 43.6171Z" fill="#E6E6E6"/>
<path d="M28.0927 43.6171H27.2406C26.9823 43.6171 26.7728 43.8265 26.7728 44.0848C26.7728 44.3432 26.9823 44.5526 27.2406 44.5526H28.0927C28.351 44.5526 28.5605 44.3432 28.5605 44.0848C28.5605 43.8265 28.351 43.6171 28.0927 43.6171Z" fill="#E6E6E6"/>
<path d="M30.8539 43.6171H30.0018C29.7435 43.6171 29.5341 43.8265 29.5341 44.0848C29.5341 44.3432 29.7435 44.5526 30.0018 44.5526H30.8539C31.1123 44.5526 31.3217 44.3432 31.3217 44.0848C31.3217 43.8265 31.1123 43.6171 30.8539 43.6171Z" fill="#E6E6E6"/>
<path d="M25.442 43.5392H20.1461C19.8878 43.5392 19.6783 43.7486 19.6783 44.007C19.6783 44.2653 19.8878 44.4747 20.1461 44.4747H25.442C25.7003 44.4747 25.9097 44.2653 25.9097 44.007C25.9097 43.7486 25.7003 43.5392 25.442 43.5392Z" fill="#E6E6E6"/>
<path d="M38.4356 43.5392H33.1398C32.8814 43.5392 32.672 43.7486 32.672 44.007C32.672 44.2653 32.8814 44.4747 33.1398 44.4747H38.4356C38.694 44.4747 38.9034 44.2653 38.9034 44.007C38.9034 43.7486 38.694 43.5392 38.4356 43.5392Z" fill="#E6E6E6"/>
<path d="M20.9462 45.7286H20.0941C19.8358 45.7286 19.6263 45.9381 19.6263 46.1964C19.6263 46.4547 19.8358 46.6642 20.0941 46.6642H20.9462C21.2045 46.6642 21.414 46.4547 21.414 46.1964C21.414 45.9381 21.2045 45.7286 20.9462 45.7286Z" fill="#E6E6E6"/>
<path d="M30.6914 45.7286H29.8394C29.581 45.7286 29.3716 45.9381 29.3716 46.1964C29.3716 46.4547 29.581 46.6642 29.8394 46.6642H30.6914C30.9498 46.6642 31.1592 46.4547 31.1592 46.1964C31.1592 45.9381 30.9498 45.7286 30.6914 45.7286Z" fill="#E6E6E6"/>
<path d="M33.4525 45.7286H32.6005C32.3421 45.7286 32.1327 45.9381 32.1327 46.1964C32.1327 46.4547 32.3421 46.6642 32.6005 46.6642H33.4525C33.7109 46.6642 33.9203 46.4547 33.9203 46.1964C33.9203 45.9381 33.7109 45.7286 33.4525 45.7286Z" fill="#E6E6E6"/>
<path d="M28.0407 45.6506H22.7449C22.4865 45.6506 22.2771 45.8601 22.2771 46.1184C22.2771 46.3767 22.4865 46.5862 22.7449 46.5862H28.0407C28.2991 46.5862 28.5085 46.3767 28.5085 46.1184C28.5085 45.8601 28.2991 45.6506 28.0407 45.6506Z" fill="#E6E6E6"/>
<path d="M41.0344 45.6506H35.7385C35.4802 45.6506 35.2708 45.8601 35.2708 46.1184C35.2708 46.3767 35.4802 46.5862 35.7385 46.5862H41.0344C41.2927 46.5862 41.5022 46.3767 41.5022 46.1184C41.5022 45.8601 41.2927 45.6506 41.0344 45.6506Z" fill="#E6E6E6"/>
<path d="M23.545 47.8401H22.6929C22.4345 47.8401 22.2251 48.0495 22.2251 48.3079C22.2251 48.5662 22.4345 48.7756 22.6929 48.7756H23.545C23.8033 48.7756 24.0127 48.5662 24.0127 48.3079C24.0127 48.0495 23.8033 47.8401 23.545 47.8401Z" fill="#E6E6E6"/>
<path d="M33.2902 47.8401H32.4381C32.1798 47.8401 31.9703 48.0495 31.9703 48.3079C31.9703 48.5662 32.1798 48.7756 32.4381 48.7756H33.2902C33.5485 48.7756 33.758 48.5662 33.758 48.3079C33.758 48.0495 33.5485 47.8401 33.2902 47.8401Z" fill="#E6E6E6"/>
<path d="M36.0513 47.8401H35.1992C34.9409 47.8401 34.7314 48.0495 34.7314 48.3079C34.7314 48.5662 34.9409 48.7756 35.1992 48.7756H36.0513C36.3096 48.7756 36.5191 48.5662 36.5191 48.3079C36.5191 48.0495 36.3096 47.8401 36.0513 47.8401Z" fill="#E6E6E6"/>
<path d="M30.6395 47.7621H25.3436C25.0853 47.7621 24.8759 47.9715 24.8759 48.2299C24.8759 48.4882 25.0853 48.6976 25.3436 48.6976H30.6395C30.8978 48.6976 31.1073 48.4882 31.1073 48.2299C31.1073 47.9715 30.8978 47.7621 30.6395 47.7621Z" fill="#E6E6E6"/>
<path d="M43.6331 47.7621H38.3373C38.0789 47.7621 37.8695 47.9715 37.8695 48.2299C37.8695 48.4882 38.0789 48.6976 38.3373 48.6976H43.6331C43.8915 48.6976 44.1009 48.4882 44.1009 48.2299C44.1009 47.9715 43.8915 47.7621 43.6331 47.7621Z" fill="#E6E6E6"/>
<path d="M26.1437 49.9515H25.2916C25.0333 49.9515 24.8239 50.161 24.8239 50.4193C24.8239 50.6776 25.0333 50.8871 25.2916 50.8871H26.1437C26.4021 50.8871 26.6115 50.6776 26.6115 50.4193C26.6115 50.161 26.4021 49.9515 26.1437 49.9515Z" fill="#E6E6E6"/>
<path d="M35.8889 49.9515H35.0369C34.7785 49.9515 34.5691 50.161 34.5691 50.4193C34.5691 50.6776 34.7785 50.8871 35.0369 50.8871H35.8889C36.1473 50.8871 36.3567 50.6776 36.3567 50.4193C36.3567 50.161 36.1473 49.9515 35.8889 49.9515Z" fill="#E6E6E6"/>
<path d="M38.6501 49.9515H37.798C37.5396 49.9515 37.3302 50.161 37.3302 50.4193C37.3302 50.6776 37.5396 50.8871 37.798 50.8871H38.6501C38.9084 50.8871 39.1178 50.6776 39.1178 50.4193C39.1178 50.161 38.9084 49.9515 38.6501 49.9515Z" fill="#E6E6E6"/>
<path d="M33.2381 49.8735H27.9423C27.6839 49.8735 27.4745 50.083 27.4745 50.3413C27.4745 50.5996 27.6839 50.8091 27.9423 50.8091H33.2381C33.4965 50.8091 33.7059 50.5996 33.7059 50.3413C33.7059 50.083 33.4965 49.8735 33.2381 49.8735Z" fill="#E6E6E6"/>
<path d="M28.0927 58.3477H27.2406C26.9823 58.3477 26.7728 58.5571 26.7728 58.8154C26.7728 59.0738 26.9823 59.2832 27.2406 59.2832H28.0927C28.351 59.2832 28.5605 59.0738 28.5605 58.8154C28.5605 58.5571 28.351 58.3477 28.0927 58.3477Z" fill="#E6E6E6"/>
<path d="M30.8539 58.3477H30.0018C29.7435 58.3477 29.5341 58.5571 29.5341 58.8154C29.5341 59.0738 29.7435 59.2832 30.0018 59.2832H30.8539C31.1123 59.2832 31.3217 59.0738 31.3217 58.8154C31.3217 58.5571 31.1123 58.3477 30.8539 58.3477Z" fill="#E6E6E6"/>
<path d="M38.4356 58.4257H33.1398C32.8814 58.4257 32.672 58.6351 32.672 58.8934C32.672 59.1518 32.8814 59.3612 33.1398 59.3612H38.4356C38.694 59.3612 38.9034 59.1518 38.9034 58.8934C38.9034 58.6351 38.694 58.4257 38.4356 58.4257Z" fill="#E6E6E6"/>
<path d="M18.3474 58.3477H17.4954C17.237 58.3477 17.0276 58.5571 17.0276 58.8154C17.0276 59.0738 17.237 59.2832 17.4954 59.2832H18.3474C18.6058 59.2832 18.8152 59.0738 18.8152 58.8154C18.8152 58.5571 18.6058 58.3477 18.3474 58.3477Z" fill="#E6E6E6"/>
<path d="M25.442 58.4257H20.1461C19.8878 58.4257 19.6783 58.6351 19.6783 58.8934C19.6783 59.1518 19.8878 59.3612 20.1461 59.3612H25.442C25.7003 59.3612 25.9097 59.1518 25.9097 58.8934C25.9097 58.6351 25.7003 58.4257 25.442 58.4257Z" fill="#E6E6E6"/>
<path d="M20.9462 56.2362H20.0941C19.8358 56.2362 19.6263 56.4456 19.6263 56.704C19.6263 56.9623 19.8358 57.1717 20.0941 57.1717H20.9462C21.2045 57.1717 21.414 56.9623 21.414 56.704C21.414 56.4456 21.2045 56.2362 20.9462 56.2362Z" fill="#E6E6E6"/>
<path d="M30.6914 56.2362H29.8394C29.581 56.2362 29.3716 56.4456 29.3716 56.704C29.3716 56.9623 29.581 57.1717 29.8394 57.1717H30.6914C30.9498 57.1717 31.1592 56.9623 31.1592 56.704C31.1592 56.4456 30.9498 56.2362 30.6914 56.2362Z" fill="#E6E6E6"/>
<path d="M33.4525 56.2362H32.6005C32.3421 56.2362 32.1327 56.4456 32.1327 56.704C32.1327 56.9623 32.3421 57.1717 32.6005 57.1717H33.4525C33.7109 57.1717 33.9203 56.9623 33.9203 56.704C33.9203 56.4456 33.7109 56.2362 33.4525 56.2362Z" fill="#E6E6E6"/>
<path d="M28.0407 56.3142H22.7449C22.4865 56.3142 22.2771 56.5236 22.2771 56.782C22.2771 57.0403 22.4865 57.2497 22.7449 57.2497H28.0407C28.2991 57.2497 28.5085 57.0403 28.5085 56.782C28.5085 56.5236 28.2991 56.3142 28.0407 56.3142Z" fill="#E6E6E6"/>
<path d="M23.545 54.1248H22.6929C22.4345 54.1248 22.2251 54.3342 22.2251 54.5925C22.2251 54.8509 22.4345 55.0603 22.6929 55.0603H23.545C23.8033 55.0603 24.0127 54.8509 24.0127 54.5925C24.0127 54.3342 23.8033 54.1248 23.545 54.1248Z" fill="#E6E6E6"/>
<path d="M33.2902 54.1248H32.4381C32.1798 54.1248 31.9703 54.3342 31.9703 54.5925C31.9703 54.8509 32.1798 55.0603 32.4381 55.0603H33.2902C33.5485 55.0603 33.758 54.8509 33.758 54.5925C33.758 54.3342 33.5485 54.1248 33.2902 54.1248Z" fill="#E6E6E6"/>
<path d="M36.0513 54.1248H35.1992C34.9409 54.1248 34.7314 54.3342 34.7314 54.5925C34.7314 54.8509 34.9409 55.0603 35.1992 55.0603H36.0513C36.3096 55.0603 36.5191 54.8509 36.5191 54.5925C36.5191 54.3342 36.3096 54.1248 36.0513 54.1248Z" fill="#E6E6E6"/>
<path d="M30.6395 54.2028H25.3436C25.0853 54.2028 24.8759 54.4122 24.8759 54.6705C24.8759 54.9289 25.0853 55.1383 25.3436 55.1383H30.6395C30.8978 55.1383 31.1073 54.9289 31.1073 54.6705C31.1073 54.4122 30.8978 54.2028 30.6395 54.2028Z" fill="#E6E6E6"/>
<path d="M26.1437 52.0132H25.2916C25.0333 52.0132 24.8239 52.2226 24.8239 52.481C24.8239 52.7393 25.0333 52.9487 25.2916 52.9487H26.1437C26.4021 52.9487 26.6115 52.7393 26.6115 52.481C26.6115 52.2226 26.4021 52.0132 26.1437 52.0132Z" fill="#E6E6E6"/>
<path d="M35.8889 52.0132H35.0369C34.7785 52.0132 34.5691 52.2226 34.5691 52.481C34.5691 52.7393 34.7785 52.9487 35.0369 52.9487H35.8889C36.1473 52.9487 36.3567 52.7393 36.3567 52.481C36.3567 52.2226 36.1473 52.0132 35.8889 52.0132Z" fill="#E6E6E6"/>
<path d="M38.6501 52.0132H37.798C37.5396 52.0132 37.3302 52.2226 37.3302 52.481C37.3302 52.7393 37.5396 52.9487 37.798 52.9487H38.6501C38.9084 52.9487 39.1178 52.7393 39.1178 52.481C39.1178 52.2226 38.9084 52.0132 38.6501 52.0132Z" fill="#E6E6E6"/>
<path d="M33.2381 52.0912H27.9423C27.6839 52.0912 27.4745 52.3006 27.4745 52.559C27.4745 52.8173 27.6839 53.0267 27.9423 53.0267H33.2381C33.4965 53.0267 33.7059 52.8173 33.7059 52.559C33.7059 52.3006 33.4965 52.0912 33.2381 52.0912Z" fill="#E6E6E6"/>
<path d="M15.2838 88.8509C15.3829 88.9013 15.4836 88.9516 15.5827 89.0003C18.1489 90.2835 20.2019 91.0127 23.0102 91.8118C23.2473 89.1644 23.4763 84.511 23.6989 81.6264C23.7573 80.8776 23.8158 80.2491 23.8726 79.8057C23.887 79.5699 23.9351 79.3374 24.0156 79.1154L24.0058 79.8057L23.9815 81.6264L23.8402 92.0392C27.3334 92.9635 30.9219 93.4807 34.534 93.5806C34.7224 93.5855 34.9075 93.5887 35.0862 93.592C35.1495 93.5936 35.2113 93.5952 35.273 93.5952C35.476 93.5968 35.6774 93.5985 35.8804 93.5985C39.6869 93.6013 43.4797 93.1415 47.1752 92.2292C47.0956 89.6094 47.016 85.008 46.9397 81.6264C46.9235 80.9653 46.9088 80.3498 46.8926 79.8057C46.8617 78.6427 46.8293 77.8046 46.7984 77.5236C46.8257 77.5734 46.847 77.6263 46.8617 77.6812C47.0122 78.3816 47.1147 79.0914 47.1687 79.8057C47.2256 80.3498 47.2824 80.9653 47.3393 81.6264C47.6414 85.1396 47.9565 89.9164 48.2813 91.9418C50.2148 91.4139 52.1121 90.7612 53.9612 89.9878C54.9357 89.5818 55.8929 89.1438 56.8328 88.6738C56.6541 87.5044 56.4673 86.1937 56.2757 84.8342C56.1262 83.7801 55.9719 82.6967 55.8144 81.6264C55.5708 79.9729 51.9504 68.4183 51.7214 67.9798C51.5249 67.6046 51.3381 67.2505 51.161 66.924C50.7322 66.1314 50.3684 65.4996 50.0988 65.1C48.9716 63.3902 47.2935 62.1173 45.3431 61.4927L45.2944 61.4797L45.2603 61.4943L41.9388 60.4743L41.4531 60.3249L41.1267 60.2242L39.9767 59.3487L39.3514 58.8728L38.765 58.4262L37.6184 57.554L30.5189 57.9909L29.1367 61.3189L26.041 62.4509L25.9874 62.4266L25.9403 62.4071L25.8916 62.4201C23.9415 63.0453 22.2636 64.3181 21.1359 66.0275C20.9832 66.2565 20.798 66.5586 20.5885 66.924C20.4098 67.2343 20.2149 67.5883 20.0038 67.9798C19.7033 68.5369 19.3752 69.1654 19.0276 69.846C18.9513 69.9954 18.8733 70.1481 18.7954 70.3024C18.6508 70.5882 18.5041 70.8801 18.3552 71.1778C18.0093 71.8681 17.6519 72.5893 17.2946 73.3218C16.9844 73.9569 16.6709 75.2627 16.3623 76.9243C16.1073 78.3049 15.8539 79.9323 15.6087 81.6264C15.2871 83.8223 15.6298 86.4519 15.3391 88.4724C15.3212 88.6008 15.3017 88.7258 15.2838 88.8509Z" fill="#3F3D56"/>
<path opacity="0.2" d="M49.3094 76.9172L47.9293 71.5911L46.7107 76.1869L49.3094 76.9172Z" fill="black"/>
<path d="M12.5844 73.4468C13.0781 80.249 12.5665 83.2441 15.2919 88.8525C17.7717 90.0662 20.3546 91.0565 23.0102 91.8118C23.2863 91.8898 23.5629 91.9655 23.8401 92.0392C27.3334 92.9634 30.9218 93.4807 34.5339 93.5806C34.7224 93.5854 34.9075 93.5887 35.0862 93.5919C35.1495 93.5935 35.2112 93.5952 35.273 93.5952C35.476 93.5968 35.6774 93.5984 35.8804 93.5984C39.6869 93.6012 43.4796 93.1415 47.1752 92.2292C47.5455 92.1382 47.9142 92.0424 48.2813 91.9417C50.2148 91.4139 52.1121 90.7612 53.9611 89.9878C54.9357 89.5817 55.8929 89.1437 56.8328 88.6738C57.0455 88.5666 57.2583 88.4594 57.4678 88.349C58.5447 86.4551 59.157 84.152 59.17 81.3843C58.4245 76.6157 14.2313 69.3343 12.5844 73.4468Z" fill="#2F2E41"/>
<path opacity="0.2" d="M12.5857 74.6118C12.5605 74.1906 12.5323 73.7556 12.4994 73.3027C14.1463 69.1902 58.3395 76.4715 59.085 81.2402C59.083 81.6774 59.0643 82.1017 59.0329 82.5159C57.2274 77.8092 15.2433 70.8888 12.5857 74.6118Z" fill="black"/>
<path d="M2.57101 76.8554C2.64257 77.0638 2.77831 77.2441 2.95874 77.3705C3.13917 77.4968 3.35502 77.5628 3.57528 77.5588L7.87811 77.4481C8.09998 77.4438 8.3145 77.3678 8.48959 77.2315C8.66469 77.0951 8.79096 76.9058 8.84953 76.6917L9.45843 70.1807C9.67446 70.2786 9.90964 70.3269 10.1468 70.3222C10.5626 70.3114 10.9572 70.136 11.2438 69.8345C11.5304 69.5329 11.6855 69.1299 11.675 68.7141C11.6646 68.2982 11.4895 67.9035 11.1881 67.6167C10.8868 67.33 10.4839 67.1746 10.068 67.1847C9.97322 67.1844 9.87868 67.1943 9.786 67.2141C9.68521 67.105 9.56269 67.0183 9.42634 66.9595C9.28999 66.9006 9.14284 66.871 8.99435 66.8725L2.3756 67.0434C2.3207 67.0454 2.26607 67.0522 2.21234 67.0637C2.06719 67.0907 1.92952 67.1486 1.8086 67.2333C1.68768 67.318 1.58631 67.4277 1.51131 67.5548C1.43632 67.682 1.38944 67.8238 1.37383 67.9706C1.35823 68.1174 1.37425 68.2659 1.42083 68.406L2.57101 76.8554ZM9.5833 69.7386L10.0166 68.1871C10.0659 68.0078 10.067 67.8188 10.0199 67.639C10.0409 67.6389 10.0594 67.6289 10.0805 67.6289C10.3776 67.6227 10.665 67.7347 10.8797 67.9401C11.0944 68.1455 11.2188 68.4277 11.2258 68.7248C11.2327 69.0218 11.1216 69.3096 10.9168 69.5248C10.7119 69.7401 10.4301 69.8653 10.133 69.8731C9.94097 69.8791 9.75091 69.8326 9.5833 69.7386Z" fill="#2F2E41"/>
<path d="M2.2124 67.0636C2.35341 67.8699 3.93879 68.4367 5.84509 68.3382C7.59805 68.2574 9.03138 67.6419 9.29398 66.9124C9.19679 66.8836 9.09573 66.8702 8.99441 66.8724L2.37567 67.0433C2.32076 67.0454 2.26614 67.0522 2.2124 67.0636Z" fill="#3F3D56"/>
<path d="M6.19435 73.2775C6.20307 73.2753 6.21135 73.2716 6.21886 73.2667L7.1533 72.6551C7.16459 72.6477 7.17387 72.6376 7.1803 72.6258C7.18673 72.6139 7.1901 72.6007 7.19011 72.5872C7.19011 72.5737 7.18675 72.5604 7.18033 72.5486C7.17391 72.5367 7.16464 72.5266 7.15335 72.5193L6.18211 71.8831C6.17319 71.8772 6.1632 71.8731 6.15271 71.8711C6.14221 71.8691 6.13142 71.8691 6.12096 71.8713C6.11049 71.8734 6.10055 71.8776 6.09171 71.8837C6.08286 71.8897 6.07529 71.8974 6.06944 71.9063C6.06358 71.9152 6.05954 71.9252 6.05756 71.9357C6.05558 71.9463 6.05569 71.957 6.05789 71.9675C6.06009 71.978 6.06433 71.9879 6.07038 71.9967C6.07642 72.0055 6.08415 72.013 6.09311 72.0189L6.96059 72.5871L6.12997 73.1308C6.11389 73.1413 6.10206 73.1572 6.09658 73.1756C6.0911 73.1941 6.09233 73.2138 6.10006 73.2314C6.10778 73.249 6.12149 73.2633 6.13876 73.2717C6.15602 73.2802 6.17573 73.2822 6.19435 73.2775Z" fill="#F50057"/>
<path d="M4.71848 73.3456C4.73416 73.3417 4.7483 73.3331 4.75909 73.3211C4.76987 73.309 4.77681 73.294 4.77901 73.278C4.78121 73.2619 4.77857 73.2456 4.77143 73.2311C4.7643 73.2166 4.75299 73.2045 4.73896 73.1965L3.87763 72.7027L4.71014 72.0843C4.71869 72.0779 4.72591 72.0699 4.73138 72.0608C4.73685 72.0517 4.74047 72.0415 4.74202 72.031C4.74358 72.0204 4.74304 72.0097 4.74044 71.9993C4.73784 71.989 4.73323 71.9793 4.72687 71.9707C4.72052 71.9622 4.71254 71.955 4.70339 71.9495C4.69425 71.944 4.68411 71.9404 4.67357 71.9389C4.66303 71.9373 4.65228 71.9378 4.64195 71.9404C4.63161 71.943 4.62189 71.9476 4.61334 71.954L3.68126 72.6463C3.67043 72.6544 3.66177 72.665 3.65606 72.6772C3.65036 72.6894 3.64779 72.7028 3.64858 72.7163C3.64937 72.7298 3.6535 72.7428 3.66061 72.7543C3.66771 72.7657 3.67755 72.7752 3.68925 72.7819L4.65813 73.3374C4.67641 73.3478 4.69805 73.3508 4.71848 73.3456Z" fill="#F50057"/>
<path d="M6.10152 73.8135C6.10938 73.8116 6.11688 73.8084 6.12377 73.8041C6.13289 73.7986 6.14083 73.7913 6.14713 73.7827C6.15344 73.7741 6.15799 73.7643 6.16051 73.754C6.16304 73.7436 6.1635 73.7329 6.16186 73.7223C6.16022 73.7118 6.15652 73.7016 6.15098 73.6925L4.82635 71.5147C4.81509 71.4964 4.79704 71.4833 4.77615 71.4783C4.75526 71.4733 4.73323 71.4768 4.71488 71.4879C4.69653 71.4991 4.68336 71.5171 4.67824 71.538C4.67312 71.5588 4.67648 71.5809 4.68758 71.5993L6.0122 73.7771C6.02124 73.7919 6.03479 73.8034 6.05087 73.81C6.06694 73.8166 6.08469 73.8178 6.10152 73.8135Z" fill="#F50057"/>
<path d="M108.986 64.6737H94.5305V77.3426H108.986V64.6737Z" fill="#3F3D56"/>
<path d="M111.129 46.978C110.861 48.5663 111.096 50.1986 111.802 51.6464C112.063 52.179 112.386 52.8205 112.068 53.3211C111.979 53.4463 111.863 53.5499 111.729 53.6244C111.594 53.6989 111.445 53.7424 111.291 53.7517C110.984 53.768 110.677 53.7282 110.384 53.6343" fill="#CCCCCC"/>
<path d="M98.4287 42.0973C98.6978 42.0973 98.9159 41.9155 98.9159 41.6912C98.9159 41.467 98.6978 41.2852 98.4287 41.2852C98.1596 41.2852 97.9414 41.467 97.9414 41.6912C97.9414 41.9155 98.1596 42.0973 98.4287 42.0973Z" fill="#3F3D56"/>
<path d="M100.215 42.2596C100.484 42.2596 100.703 42.0778 100.703 41.8536C100.703 41.6293 100.484 41.4475 100.215 41.4475C99.9462 41.4475 99.728 41.6293 99.728 41.8536C99.728 42.0778 99.9462 42.2596 100.215 42.2596Z" fill="#3F3D56"/>
<path d="M102.002 43.0717C102.271 43.0717 102.489 42.89 102.489 42.6657C102.489 42.4414 102.271 42.2596 102.002 42.2596C101.733 42.2596 101.515 42.4414 101.515 42.6657C101.515 42.89 101.733 43.0717 102.002 43.0717Z" fill="#3F3D56"/>
<path d="M104.113 42.5844C104.382 42.5844 104.601 42.4026 104.601 42.1784C104.601 41.9541 104.382 41.7723 104.113 41.7723C103.844 41.7723 103.626 41.9541 103.626 42.1784C103.626 42.4026 103.844 42.5844 104.113 42.5844Z" fill="#3F3D56"/>
<path d="M59.7603 50.2805C62.1268 49.6236 64.7627 50.3277 66.5915 51.9404C67.5782 52.8166 68.3023 53.9495 68.6832 55.2129C69.1501 56.7168 69.2274 58.3031 69.2763 59.8663C69.3303 61.5947 69.3773 63.3234 69.4276 65.0519C69.4757 66.7 69.4813 68.3558 69.5913 70.0012C69.6835 71.3819 69.9045 72.8152 70.6434 74.0127C71.3285 75.1229 72.4108 75.8725 73.6339 76.2857C74.8736 76.7045 76.21 76.802 77.5105 76.7934C79.024 76.7886 80.5349 76.669 82.0303 76.4356C84.8705 75.9806 87.676 74.82 89.4107 72.4256C90.2094 71.3384 90.6582 70.0338 90.6975 68.6854C90.7341 67.114 90.232 65.592 89.6821 64.1405C89.147 62.7281 88.5681 61.3365 88.2294 59.8598C87.9148 58.4778 87.7649 57.0634 87.7828 55.6462C87.8118 52.8108 88.4914 50.0199 89.7691 47.4886C90.4158 46.1885 91.2362 44.9823 92.2077 43.9032C93.2096 42.813 94.4501 41.913 95.9254 41.618C96.6454 41.4689 97.391 41.4988 98.0966 41.7053C98.3977 41.7955 98.5263 41.3253 98.2262 41.2355C96.7647 40.7979 95.177 41.1306 93.8812 41.8901C92.6071 42.6369 91.6003 43.7573 90.7458 44.9452C89.104 47.2741 88.011 49.9447 87.5489 52.7564C87.0867 55.5682 87.2674 58.4481 88.0774 61.18C88.9445 64.0206 90.8305 66.9775 90.0203 70.0516C89.3111 72.7424 86.8544 74.571 84.3166 75.3971C82.7769 75.8982 81.1627 76.1102 79.5525 76.2199C78.1919 76.3125 76.8127 76.3715 75.4559 76.1966C74.2097 76.036 72.9278 75.6551 71.9616 74.8185C70.9025 73.9016 70.4184 72.584 70.2078 71.2318C69.9694 69.7018 70.0044 68.1242 69.9594 66.5804L69.8059 61.311C69.7192 58.3349 69.7939 55.0365 67.8576 52.5704C67.0835 51.6095 66.1004 50.8379 64.9831 50.3141C63.8659 49.7903 62.6439 49.5283 61.4101 49.5478C60.8084 49.5617 60.2107 49.6499 59.6308 49.8107C59.5704 49.8296 59.5198 49.8712 59.4896 49.9267C59.4593 49.9822 59.4518 50.0472 59.4686 50.1082C59.4854 50.1691 59.5252 50.2211 59.5796 50.2533C59.634 50.2854 59.6988 50.2952 59.7603 50.2805Z" fill="#3F3D56"/>
<path d="M25.1698 47.198C25.5147 49.6522 26.8198 51.8691 28.7984 53.3616C30.7769 54.8541 33.267 55.5001 35.7215 55.1576C38.1761 54.8152 40.3943 53.5123 41.8888 51.5353C43.3833 49.5583 44.0318 47.0688 43.6918 44.6139L43.6733 44.4813C43.2778 42.0595 41.9461 39.8902 39.9656 38.4414C37.9851 36.9926 35.5144 36.3805 33.0865 36.7369C30.6587 37.0934 28.4683 38.3899 26.9878 40.3469C25.5073 42.3038 24.8553 44.7643 25.1727 47.1976L25.1698 47.198Z" fill="#FFB6B6"/>
<path d="M33.413 54.9299C32.9295 53.9561 32.4327 52.9105 32.5641 51.8312C32.6954 50.7519 33.7499 49.7172 34.7899 50.0344C35.4117 50.224 35.8833 50.8359 36.5328 50.8651C37.4264 50.9053 37.9353 49.881 38.2106 49.0299L39.3316 45.5634C41.494 47.2622 38.7554 45.4812 41.434 44.8594C42.4849 44.6154 43.5457 44.1431 44.1597 43.256C44.7736 42.3689 44.7653 40.9962 43.9169 40.3298C43.501 40.003 42.9483 39.8802 42.5507 39.5314C42.304 39.315 42.1335 39.0249 42.0645 38.7041C41.9955 38.3833 42.0316 38.0488 42.1674 37.7502C42.3033 37.4515 42.5317 37.2044 42.8189 37.0456C43.106 36.8868 43.4367 36.8247 43.7619 36.8684L40.9087 36.5215L41.7533 34.9818C41.1427 35.4666 40.2907 35.5343 39.523 35.3987C38.7552 35.2631 38.0315 34.9496 37.2802 34.7415C33.6732 33.7421 29.4911 35.5147 27.701 38.8017C26.9984 38.5697 26.2419 38.5566 25.5317 38.7643C24.8215 38.9719 24.1912 39.3905 23.7243 39.9644C22.964 40.936 22.7608 42.2298 22.7353 43.4631C22.6879 45.895 23.2262 48.3026 24.3047 50.4827C24.6408 51.1603 25.0381 51.8249 25.6095 52.3205C26.1808 52.8161 32.6377 55.5616 33.3829 55.4321" fill="#2F2E41"/>
<path d="M100.865 48.5129C100.866 48.9344 100.812 49.3544 100.704 49.7619V49.7635C100.703 49.7716 100.699 49.7797 100.698 49.7879C100.37 50.9947 99.5867 51.8425 98.6723 51.8425C97.7627 51.8425 96.9831 51.0012 96.6502 49.8041C96.6274 49.7213 96.6079 49.6384 96.5901 49.5524C96.5673 49.4565 96.5495 49.3575 96.5348 49.2551C96.5218 49.1739 96.5121 49.0911 96.504 49.0066C96.4926 48.8897 96.4845 48.7727 96.4829 48.6509V48.6493C96.4796 48.6038 96.4796 48.5583 96.4796 48.5129V48.4723L96.4812 48.4706C96.4814 48.2648 96.495 48.0592 96.5218 47.8551C96.5332 47.769 96.5462 47.6861 96.5625 47.6033C96.5819 47.5026 96.6031 47.4035 96.629 47.3061C96.6502 47.22 96.6745 47.1372 96.7005 47.0543C96.7362 46.9439 96.7752 46.8367 96.8191 46.7343C96.8467 46.6678 96.8759 46.6028 96.9052 46.5394C97.3047 45.7176 97.9479 45.1832 98.6723 45.1832C99.6744 45.1832 100.519 46.2049 100.781 47.5984C100.784 47.6195 100.789 47.6407 100.79 47.6618V47.6634C100.84 47.9438 100.865 48.2281 100.865 48.5129Z" fill="#E6E6E6"/>
<path d="M96.9263 46.6109C96.9254 46.6407 96.9142 46.6692 96.8947 46.6917C96.8751 46.7142 96.8484 46.7293 96.8191 46.7343C96.8467 46.6677 96.8759 46.6028 96.9052 46.5394C96.9187 46.5608 96.926 46.5856 96.9263 46.6109Z" fill="#F50057"/>
<path d="M98.8466 46.463H97.4173C97.3475 46.463 97.291 46.5195 97.291 46.5893C97.291 46.659 97.3475 46.7155 97.4173 46.7155H98.8466C98.9163 46.7155 98.9728 46.659 98.9728 46.5893C98.9728 46.5195 98.9163 46.463 98.8466 46.463Z" fill="#F50057"/>
<path d="M96.8824 47.1794C96.8824 47.213 96.869 47.2452 96.8452 47.2689C96.8215 47.2927 96.7893 47.306 96.7557 47.3061H96.629C96.6501 47.22 96.6745 47.1372 96.7005 47.0543H96.7557C96.7891 47.0543 96.8211 47.0674 96.8448 47.0908C96.8685 47.1142 96.882 47.1461 96.8824 47.1794Z" fill="#F50057"/>
<path d="M97.5016 47.0538H97.2716C97.2019 47.0538 97.1454 47.1104 97.1454 47.1801C97.1454 47.2498 97.2019 47.3063 97.2716 47.3063H97.5016C97.5713 47.3063 97.6278 47.2498 97.6278 47.1801C97.6278 47.1104 97.5713 47.0538 97.5016 47.0538Z" fill="#F50057"/>
<path d="M99.5479 47.0328H98.1186C98.0488 47.0328 97.9923 47.0894 97.9923 47.1591C97.9923 47.2288 98.0488 47.2853 98.1186 47.2853H99.5479C99.6176 47.2853 99.6741 47.2288 99.6741 47.1591C99.6741 47.0894 99.6176 47.0328 99.5479 47.0328Z" fill="#F50057"/>
<path d="M97.4578 47.6238H97.2278C97.1581 47.6238 97.1016 47.6803 97.1016 47.75C97.1016 47.8197 97.1581 47.8763 97.2278 47.8763H97.4578C97.5275 47.8763 97.584 47.8197 97.584 47.75C97.584 47.6803 97.5275 47.6238 97.4578 47.6238Z" fill="#F50057"/>
<path d="M98.203 47.6238H97.973C97.9033 47.6238 97.8468 47.6803 97.8468 47.75C97.8468 47.8197 97.9033 47.8763 97.973 47.8763H98.203C98.2727 47.8763 98.3293 47.8197 98.3293 47.75C98.3293 47.6803 98.2727 47.6238 98.203 47.6238Z" fill="#F50057"/>
<path d="M96.8694 47.7283C96.8694 47.7619 96.856 47.7941 96.8323 47.8179C96.8085 47.8416 96.7763 47.855 96.7427 47.855H96.5219C96.5332 47.7689 96.5462 47.6861 96.5625 47.6033H96.7427C96.7593 47.6031 96.7757 47.6062 96.791 47.6124C96.8064 47.6186 96.8203 47.6278 96.8321 47.6395C96.8439 47.6511 96.8532 47.6649 96.8596 47.6802C96.866 47.6954 96.8694 47.7118 96.8694 47.7283Z" fill="#F50057"/>
<path d="M100.249 47.6027H98.82C98.7502 47.6027 98.6937 47.6592 98.6937 47.7289C98.6937 47.7986 98.7502 47.8552 98.82 47.8552H100.249C100.319 47.8552 100.376 47.7986 100.376 47.7289C100.376 47.6592 100.319 47.6027 100.249 47.6027Z" fill="#F50057"/>
<path d="M96.9263 48.5599C96.9262 48.5765 96.9229 48.5928 96.9165 48.6081C96.9101 48.6233 96.9007 48.6372 96.8889 48.6488C96.8772 48.6604 96.8632 48.6696 96.8479 48.6758C96.8325 48.682 96.8161 48.6851 96.7996 48.685H96.5706C96.5381 48.6851 96.5067 48.6729 96.4829 48.6509V48.6492C96.4796 48.6038 96.4796 48.5583 96.4796 48.5128V48.4722L96.4812 48.4706C96.4929 48.4587 96.5068 48.4493 96.5221 48.4429C96.5375 48.4365 96.5539 48.4332 96.5706 48.4332H96.7996C96.8332 48.4333 96.8654 48.4466 96.8891 48.4704C96.9129 48.4941 96.9262 48.5263 96.9263 48.5599Z" fill="#CCCCCC"/>
<path d="M98.8466 48.412H97.4173C97.3475 48.412 97.291 48.4685 97.291 48.5382C97.291 48.608 97.3475 48.6645 97.4173 48.6645H98.8466C98.9163 48.6645 98.9728 48.608 98.9728 48.5382C98.9728 48.4685 98.9163 48.412 98.8466 48.412Z" fill="#CCCCCC"/>
<path d="M96.8823 49.1284C96.8823 49.162 96.8689 49.1942 96.8452 49.2179C96.8214 49.2416 96.7892 49.255 96.7557 49.2551H96.5348C96.5218 49.1738 96.512 49.091 96.5039 49.0066C96.5112 49.0039 96.5189 49.0028 96.5266 49.0033H96.7556C96.789 49.0033 96.821 49.0164 96.8447 49.0398C96.8684 49.0632 96.882 49.095 96.8823 49.1284Z" fill="#CCCCCC"/>
<path d="M97.5016 49.0029H97.2716C97.2019 49.0029 97.1454 49.0594 97.1454 49.1292C97.1454 49.1989 97.2019 49.2554 97.2716 49.2554H97.5016C97.5713 49.2554 97.6278 49.1989 97.6278 49.1292C97.6278 49.0594 97.5713 49.0029 97.5016 49.0029Z" fill="#CCCCCC"/>
<path d="M99.5479 48.9819H98.1186C98.0488 48.9819 97.9923 49.0385 97.9923 49.1082C97.9923 49.1779 98.0488 49.2344 98.1186 49.2344H99.5479C99.6176 49.2344 99.6741 49.1779 99.6741 49.1082C99.6741 49.0385 99.6176 48.9819 99.5479 48.9819Z" fill="#CCCCCC"/>
<path d="M97.4578 49.5728H97.2278C97.1581 49.5728 97.1016 49.6293 97.1016 49.699C97.1016 49.7687 97.1581 49.8252 97.2278 49.8252H97.4578C97.5275 49.8252 97.584 49.7687 97.584 49.699C97.584 49.6293 97.5275 49.5728 97.4578 49.5728Z" fill="#CCCCCC"/>
<path d="M98.203 49.5728H97.973C97.9033 49.5728 97.8468 49.6293 97.8468 49.699C97.8468 49.7687 97.9033 49.8252 97.973 49.8252H98.203C98.2727 49.8252 98.3293 49.7687 98.3293 49.699C98.3293 49.6293 98.2727 49.5728 98.203 49.5728Z" fill="#CCCCCC"/>
<path d="M96.8693 49.6774C96.8693 49.711 96.8559 49.7432 96.8322 49.767C96.8084 49.7907 96.7762 49.8041 96.7426 49.8041H96.6501C96.6273 49.7213 96.6078 49.6385 96.59 49.5524H96.7426C96.7592 49.5522 96.7756 49.5553 96.7909 49.5615C96.8063 49.5677 96.8202 49.5769 96.832 49.5885C96.8438 49.6002 96.8531 49.614 96.8595 49.6293C96.8659 49.6445 96.8693 49.6609 96.8693 49.6774Z" fill="#CCCCCC"/>
<path d="M100.249 49.5518H98.82C98.7502 49.5518 98.6937 49.6083 98.6937 49.678C98.6937 49.7477 98.7502 49.8043 98.82 49.8043H100.249C100.319 49.8043 100.376 49.7477 100.376 49.678C100.376 49.6083 100.319 49.5518 100.249 49.5518Z" fill="#CCCCCC"/>
</g>
<defs>
<clipPath id="clip0_397_268">
<rect width="120" height="93.5984" fill="white"/>
</clipPath>
</defs>
</svg>
