<svg width="179" height="120" viewBox="0 0 179 120" fill="none" xmlns="http://www.w3.org/2000/svg">
<path d="M175.883 68.747V118.303H51.7261C45.1546 118.531 38.7615 116.14 33.9531 111.655C29.1448 107.17 26.3151 100.958 26.0866 94.3865C25.8582 87.8149 28.2496 81.4218 32.7348 76.6134C37.22 71.8051 43.4316 68.9755 50.0031 68.747C50.5776 68.7269 51.1522 68.7269 51.7271 68.747H175.883Z" fill="#F2F2F2"/>
<path d="M178.933 117.922C178.933 118.428 178.732 118.913 178.374 119.27C178.017 119.628 177.532 119.829 177.026 119.829H49.5159C42.5905 119.829 35.9487 117.078 31.0516 112.181C26.1546 107.284 23.4034 100.642 23.4034 93.7164C23.4034 86.7909 26.1546 80.1491 31.0516 75.2521C35.9487 70.355 42.5905 67.6039 49.5159 67.6039H177.028C177.284 67.5952 177.539 67.6381 177.778 67.7299C178.016 67.8218 178.234 67.9608 178.418 68.1387C178.602 68.3165 178.749 68.5296 178.849 68.7651C178.949 69.0007 179 69.254 179 69.5099C179 69.7658 178.949 70.019 178.849 70.2546C178.749 70.4902 178.602 70.7033 178.418 70.8811C178.234 71.0589 178.016 71.1979 177.778 71.2898C177.539 71.3817 177.284 71.4246 177.028 71.4159H49.5159C43.6143 71.4354 37.9612 73.7935 33.795 77.9735C29.6289 82.1534 27.2895 87.8144 27.2895 93.716C27.2895 99.6176 29.6289 105.279 33.795 109.459C37.9612 113.638 43.6143 115.997 49.5159 116.016H177.028C177.533 116.017 178.018 116.218 178.375 116.575C178.732 116.932 178.933 117.417 178.933 117.922Z" fill="#F50057"/>
<path d="M175.885 80.183H42.4648C42.3637 80.1839 42.2664 80.1447 42.1942 80.0739C42.1221 80.003 42.081 79.9065 42.0801 79.8054C42.0792 79.7043 42.1184 79.607 42.1892 79.5348C42.2601 79.4627 42.3566 79.4216 42.4577 79.4207H175.885C175.986 79.4207 176.083 79.4608 176.154 79.5323C176.226 79.6038 176.266 79.7007 176.266 79.8018C176.266 79.9029 176.226 79.9999 176.154 80.0714C176.083 80.1428 175.986 80.183 175.885 80.183Z" fill="#CCCCCC"/>
<path d="M175.885 89.3319H42.4648C42.4148 89.3324 42.3651 89.323 42.3187 89.3043C42.2723 89.2855 42.23 89.2579 42.1942 89.2228C42.1585 89.1877 42.1301 89.146 42.1105 89.0999C42.0909 89.0538 42.0806 89.0044 42.0801 88.9543C42.0796 88.9042 42.089 88.8546 42.1078 88.8082C42.1265 88.7617 42.1542 88.7195 42.1892 88.6837C42.2243 88.648 42.2661 88.6195 42.3121 88.5999C42.3582 88.5804 42.4077 88.57 42.4577 88.5696H175.885C175.986 88.5696 176.083 88.6097 176.154 88.6812C176.226 88.7527 176.266 88.8497 176.266 88.9508C176.266 89.0518 176.226 89.1488 176.154 89.2203C176.083 89.2918 175.986 89.3319 175.885 89.3319Z" fill="#CCCCCC"/>
<path d="M175.885 98.4804H42.4648C42.3637 98.4813 42.2664 98.442 42.1942 98.3712C42.1221 98.3004 42.081 98.2038 42.0801 98.1027C42.0792 98.0016 42.1184 97.9043 42.1892 97.8322C42.2601 97.76 42.3566 97.719 42.4577 97.718H175.885C175.986 97.718 176.083 97.7582 176.154 97.8297C176.226 97.9011 176.266 97.9981 176.266 98.0992C176.266 98.2003 176.226 98.2972 176.154 98.3687C176.083 98.4402 175.986 98.4804 175.885 98.4804Z" fill="#CCCCCC"/>
<path d="M175.885 107.629H42.4648C42.4148 107.63 42.3651 107.62 42.3187 107.602C42.2723 107.583 42.23 107.555 42.1942 107.52C42.1585 107.485 42.1301 107.443 42.1105 107.397C42.0909 107.351 42.0806 107.302 42.0801 107.252C42.0796 107.202 42.089 107.152 42.1078 107.106C42.1265 107.059 42.1542 107.017 42.1892 106.981C42.2243 106.945 42.2661 106.917 42.3121 106.897C42.3582 106.878 42.4077 106.867 42.4577 106.867H175.885C175.986 106.867 176.083 106.907 176.154 106.979C176.226 107.05 176.266 107.147 176.266 107.248C176.266 107.349 176.226 107.446 176.154 107.518C176.083 107.589 175.986 107.629 175.885 107.629Z" fill="#CCCCCC"/>
<path d="M152.479 16.5373V66.093H28.3223C21.7508 66.3216 15.3576 63.9303 10.5492 59.4452C5.74076 54.9601 2.91098 48.7485 2.68236 42.177C2.45375 35.6055 4.84504 29.2123 9.33016 24.4038C13.8153 19.5954 20.0268 16.7656 26.5984 16.537C27.1728 16.517 27.7474 16.517 28.3223 16.537L152.479 16.5373Z" fill="#F2F2F2"/>
<path d="M155.53 65.7118C155.53 66.2176 155.329 66.7027 154.971 67.0603C154.613 67.418 154.128 67.6189 153.623 67.6189H26.1125C19.187 67.6189 12.5452 64.8678 7.64817 59.9707C2.75113 55.0737 0 48.4319 0 41.5064C0 34.5809 2.75113 27.9391 7.64817 23.0421C12.5452 18.1451 19.187 15.3939 26.1125 15.3939H153.624C153.88 15.3852 154.135 15.4281 154.373 15.52C154.612 15.6118 154.83 15.7508 155.014 15.9287C155.198 16.1065 155.345 16.3196 155.444 16.5552C155.544 16.7907 155.596 17.044 155.596 17.2999C155.596 17.5558 155.544 17.8091 155.444 18.0447C155.345 18.2802 155.198 18.4933 155.014 18.6711C154.83 18.849 154.612 18.988 154.373 19.0799C154.135 19.1717 153.88 19.2146 153.624 19.2059H26.1125C20.2109 19.2254 14.5577 21.5835 10.3916 25.7635C6.22543 29.9435 3.88607 35.6044 3.88607 41.506C3.88607 47.4076 6.22543 53.0686 10.3916 57.2486C14.5577 61.4285 20.2109 63.7866 26.1125 63.8062H153.624C154.13 63.8062 154.615 64.0071 154.973 64.3647C155.33 64.7224 155.531 65.2075 155.531 65.7133L155.53 65.7118Z" fill="#F50057"/>
<path d="M152.479 27.973H19.0594C19.0094 27.9735 18.9597 27.9641 18.9133 27.9454C18.8669 27.9267 18.8246 27.899 18.7889 27.8639C18.7167 27.7931 18.6756 27.6965 18.6747 27.5954C18.6738 27.4943 18.713 27.397 18.7838 27.3248C18.8547 27.2527 18.9512 27.2116 19.0523 27.2107H152.479C152.58 27.2107 152.677 27.2508 152.749 27.3223C152.82 27.3938 152.86 27.4908 152.86 27.5919C152.86 27.693 152.82 27.7899 152.749 27.8614C152.677 27.9329 152.58 27.973 152.479 27.973Z" fill="#CCCCCC"/>
<path d="M152.479 37.1215H19.0594C19.0094 37.1219 18.9597 37.1125 18.9133 37.0938C18.8669 37.0751 18.8246 37.0474 18.7889 37.0123C18.7531 36.9773 18.7247 36.9355 18.7051 36.8895C18.6855 36.8434 18.6752 36.7939 18.6747 36.7439C18.6742 36.6938 18.6836 36.6441 18.7024 36.5977C18.7211 36.5513 18.7488 36.509 18.7838 36.4733C18.8189 36.4376 18.8607 36.4091 18.9067 36.3895C18.9528 36.3699 19.0023 36.3596 19.0523 36.3591H152.479C152.529 36.3591 152.579 36.369 152.625 36.3881C152.671 36.4073 152.713 36.4354 152.749 36.4708C152.784 36.5062 152.812 36.5482 152.831 36.5944C152.851 36.6407 152.86 36.6903 152.86 36.7403C152.86 36.7904 152.851 36.8399 152.831 36.8862C152.812 36.9324 152.784 36.9744 152.749 37.0098C152.713 37.0452 152.671 37.0733 152.625 37.0925C152.579 37.1116 152.529 37.1215 152.479 37.1215Z" fill="#CCCCCC"/>
<path d="M152.479 46.2704H19.0594C19.0094 46.2709 18.9597 46.2615 18.9133 46.2427C18.8669 46.224 18.8246 46.1963 18.7889 46.1613C18.7167 46.0904 18.6756 45.9939 18.6747 45.8928C18.6738 45.7917 18.713 45.6944 18.7838 45.6222C18.8547 45.5501 18.9512 45.509 19.0523 45.5081H152.479C152.58 45.5081 152.677 45.5482 152.749 45.6197C152.82 45.6912 152.86 45.7881 152.86 45.8892C152.86 45.9903 152.82 46.0873 152.749 46.1588C152.677 46.2302 152.58 46.2704 152.479 46.2704Z" fill="#CCCCCC"/>
<path d="M152.479 55.4191H19.0594C18.9583 55.42 18.861 55.3808 18.7889 55.3099C18.7167 55.2391 18.6756 55.1426 18.6747 55.0415C18.6738 54.9404 18.713 54.843 18.7838 54.7709C18.8547 54.6987 18.9512 54.6577 19.0523 54.6567H152.479C152.58 54.6567 152.677 54.6969 152.749 54.7684C152.82 54.8399 152.86 54.9368 152.86 55.0379C152.86 55.139 152.82 55.236 152.749 55.3074C152.677 55.3789 152.58 55.4191 152.479 55.4191Z" fill="#CCCCCC"/>
<path d="M130.888 0.00520054H74.321C73.7843 0.00477306 73.2546 0.128007 72.7731 0.365345L58.4958 7.51278C58.026 7.71244 57.6252 8.04594 57.3435 8.47172C57.0618 8.8975 56.9116 9.39675 56.9116 9.90728C56.9116 10.4178 57.0618 10.9171 57.3435 11.3428C57.6252 11.7686 58.026 12.1021 58.4958 12.3018L72.7729 19.4492C73.2544 19.6865 73.7842 19.8098 74.321 19.8094H130.888C131.667 19.8545 132.433 19.5907 133.02 19.0751C133.606 18.5595 133.966 17.8337 134.021 17.0548V2.76046C133.966 1.98146 133.606 1.25545 133.02 0.739734C132.433 0.224016 131.667 -0.039885 130.888 0.00520054Z" fill="#090814"/>
<path d="M134.023 2.76097V17.0556C133.968 17.8344 133.608 18.5601 133.021 19.0756C132.435 19.591 131.669 19.8546 130.889 19.8094H119.62V0.00498164H130.889C131.669 -0.0402305 132.435 0.22371 133.022 0.739597C133.608 1.25548 133.968 1.98175 134.023 2.76097Z" fill="#F50057"/>
</svg>
