<svg width="107" height="119" viewBox="0 0 107 119" fill="none" xmlns="http://www.w3.org/2000/svg">
<g clip-path="url(#clip0_522_14)">
<path d="M53.5 107C83.0472 107 107 83.0472 107 53.5C107 23.9528 83.0472 0 53.5 0C23.9528 0 0 23.9528 0 53.5C0 83.0472 23.9528 107 53.5 107Z" fill="#F2F2F2"/>
<path d="M46.9812 47.4524C46.9812 47.4524 25.9441 56.6108 40.164 70.2123C54.384 83.8138 57.7236 56.3982 57.7236 56.3982L46.9812 47.4524Z" fill="#090814"/>
<path d="M40.7334 44.0305C40.7334 36.0369 47.2064 29.5569 55.1912 29.5569C63.1761 29.5569 69.6491 36.0369 69.6491 44.0305C69.6491 50.5133 65.3913 55.9999 59.5228 57.8425L56.7279 76.3339L42.4796 64.4474C42.4796 64.4474 45.5576 60.5224 47.2083 56.0968C43.3069 53.5048 40.7334 49.0693 40.7334 44.0305Z" fill="#ED9DA0"/>
<path d="M60.1434 59.0682L45.7171 58.3494C45.7171 58.3494 45.6276 61.1871 34.9463 62.6624C34.9463 62.6624 21.9339 65.9456 21.9244 75.334L20.063 103.179L87.7558 103.309L83.3169 70.1121C83.3169 70.1121 80.7796 63.703 71.7628 62.0089C71.7628 62.0089 63.122 61.9386 60.1434 59.0682Z" fill="#F50057"/>
<path d="M62.1017 99.2577C62.1017 99.2577 52.3838 88.4376 35.5337 84.2275L32.1199 90.9584L62.9783 103.925L99.3009 93.0414C99.3009 93.0414 94.3246 87.9802 89.2571 86.0573C89.2571 86.0573 65.2761 92.3259 62.1017 99.2577Z" fill="#E6E6E6"/>
<path d="M101.789 91.4805L95.2678 102.067L90.9586 109.06L84.0261 110.983L61.2516 117.294C56.822 120.752 54.2016 117.556 54.2016 117.556L39.2322 111.824L31.4744 108.851L30.3112 108.407L30.3406 107.857L30.7664 99.585L31.2892 89.4543L61.3193 100.955C64.5916 103.37 65.8871 100.697 65.8871 100.697L101.789 91.4805Z" fill="#090814"/>
<path d="M95.6551 105.109L92.9109 109.402C92.6247 109.849 92.2088 110.199 91.7188 110.403L87.2072 112.285C86.0647 112.762 84.7449 112.369 84.0498 111.344C83.0387 109.853 82.0514 107.901 82.0257 106.813C81.9463 103.267 85.3508 100.311 89.6308 100.214C90.9138 100.183 92.776 100.643 94.3906 101.266C95.9316 101.862 96.5455 103.716 95.6551 105.109Z" fill="#ED9DA0"/>
<path d="M45.1777 107.096C44.5902 109.698 42.1696 111.495 39.2322 111.824C38.2628 111.936 37.2376 111.886 36.2007 111.651C34.2327 111.207 32.5818 110.177 31.4743 108.851C31.2335 108.569 31.0189 108.275 30.8339 107.969L29.9362 108.026C28.8999 108.093 28.0374 107.24 28.0909 106.202L28.3261 101.632C28.3758 100.667 29.2026 99.9272 30.1663 99.9861L32.5994 100.135C34.309 99.0175 36.6413 98.5793 39.0295 99.1204C43.2067 100.064 45.9591 103.634 45.1777 107.096Z" fill="#ED9DA0"/>
<path d="M20.063 103.179L25.5117 108.457C26.4365 109.353 27.9846 108.709 27.9981 107.421C28.0349 103.896 28.4937 99.0719 30.7664 99.585L21.203 97.739L20.063 103.179Z" fill="#F50057"/>
<path d="M51.3246 23.3739C48.163 22.7644 44.76 23.5396 42.1732 25.4586C39.5864 27.3776 37.8551 30.4113 37.5174 33.6166C36.1216 33.8388 35.3315 35.4207 35.3157 36.8355C35.2998 38.2503 35.8137 39.6172 35.9474 41.0257C36.0422 42.0245 35.9455 43.0416 36.1377 44.0262C36.3299 45.0108 36.902 46.0118 37.8551 46.3218C36.3483 47.0572 36.3763 49.509 37.7094 50.5263C39.0426 51.5436 41.0533 51.2377 42.367 50.1953C43.6807 49.1529 44.4152 47.5441 44.9014 45.9381C45.3875 44.3321 45.676 42.6603 46.3334 41.1166C48.2283 36.6674 53.3884 33.8742 58.1449 34.723C62.9013 35.5717 66.7795 39.9777 67.0221 44.8084C67.094 46.2411 66.9529 47.8813 67.9715 48.8904C69.3761 50.282 71.8445 49.3087 73.1331 47.8088C74.8006 45.8678 75.5334 43.1564 75.0709 40.6386C74.6084 38.1208 72.96 35.8477 70.7119 34.6275C70.2524 30.1835 67.6 26.0202 63.7686 23.729C59.9372 21.4378 55.0181 21.0733 50.8915 22.7748" fill="#090814"/>
</g>
<defs>
<clipPath id="clip0_522_14">
<rect width="107" height="118.902" fill="white"/>
</clipPath>
</defs>
</svg>
