<svg width="24" height="20" viewBox="0 0 24 20" fill="none" xmlns="http://www.w3.org/2000/svg">
<path fill-rule="evenodd" clip-rule="evenodd" d="M14.3847 0.00303464C14.3324 0.00598119 14.2897 0.0146972 14.2897 0.0224076C14.2897 0.0301357 14.1655 0.0465448 14.0137 0.0588957C13.8619 0.0712288 13.7295 0.0874437 13.7196 0.0949071C13.7096 0.102371 13.618 0.114192 13.5158 0.121179C13.4137 0.128148 13.3262 0.140182 13.3213 0.147892C13.3164 0.15562 13.2269 0.167618 13.1224 0.174552C13.0178 0.181504 12.9323 0.194172 12.9323 0.202712C12.9323 0.21127 12.8998 0.218257 12.8599 0.218257C12.8076 0.218257 12.7875 0.225614 12.7875 0.244723C12.7875 0.259279 12.7963 0.271189 12.8071 0.271189C12.8285 0.271189 13.2038 0.629327 13.2038 0.649724C13.2038 0.65664 13.2323 0.689282 13.2671 0.722276C13.302 0.755253 13.3305 0.790047 13.3305 0.799592C13.3305 0.809138 13.3529 0.840332 13.3803 0.868916C13.4665 0.958988 13.5115 1.01469 13.5115 1.03138C13.5115 1.04026 13.5257 1.06205 13.5431 1.0798C13.5988 1.13649 13.6562 1.20625 13.6562 1.21714C13.6562 1.22619 13.6874 1.267 13.7651 1.35997C13.7749 1.37168 13.7829 1.38915 13.7829 1.39878C13.7829 1.40842 13.7931 1.42264 13.8056 1.4304C13.818 1.43816 13.8402 1.46703 13.8547 1.49456C13.8693 1.52208 13.8998 1.56416 13.9226 1.58809C13.9453 1.61203 13.9639 1.63872 13.9639 1.64746C13.9639 1.65617 13.9741 1.66965 13.9865 1.67742C13.999 1.68518 14.0254 1.72264 14.0454 1.76068C14.1083 1.88098 14.117 1.89444 14.1311 1.89444C14.1387 1.89444 14.1449 1.90596 14.1449 1.92002C14.1449 1.9341 14.1556 1.95196 14.1686 1.95972C14.1816 1.96749 14.203 1.99963 14.216 2.03118C14.2291 2.06273 14.2463 2.08852 14.2542 2.08852C14.2622 2.08852 14.2741 2.11234 14.2806 2.14146C14.2872 2.17057 14.3001 2.19439 14.3092 2.19439C14.3184 2.19439 14.3259 2.20533 14.3259 2.2187C14.3259 2.23206 14.3373 2.25224 14.3513 2.26352C14.3652 2.27481 14.3873 2.31945 14.4004 2.36273C14.4135 2.40599 14.4303 2.4414 14.4376 2.4414C14.4449 2.4414 14.4563 2.46919 14.4628 2.50316C14.4693 2.53712 14.4819 2.56491 14.4908 2.56491C14.4996 2.56491 14.5069 2.64828 14.5069 2.75018C14.5069 2.86192 14.4997 2.93544 14.4888 2.93544C14.4788 2.93544 14.4704 2.95728 14.47 2.98396C14.4697 3.01064 14.4537 3.06424 14.4345 3.10306C14.4152 3.14187 14.3992 3.1809 14.3989 3.18979C14.3982 3.20807 14.3787 3.23025 14.2699 3.33684C14.2278 3.37807 14.1859 3.41183 14.1769 3.41183C14.1678 3.41183 14.1492 3.42278 14.1355 3.43618C14.1217 3.44955 14.0796 3.46617 14.0418 3.47307C14.004 3.47999 13.9672 3.49484 13.9601 3.50608C13.9428 3.53332 13.4253 3.53472 13.4068 3.50756C13.3997 3.49714 13.3551 3.47824 13.3079 3.46557C13.2606 3.4529 13.2219 3.43563 13.2219 3.42718C13.2219 3.41874 13.2115 3.41183 13.1988 3.41183C13.1861 3.41183 13.1489 3.38801 13.1162 3.35889C13.0835 3.32978 13.0496 3.30596 13.0407 3.30596C13.0319 3.30596 13.0048 3.28809 12.9804 3.26626C12.9355 3.226 12.7965 3.11151 12.772 3.09464C12.7647 3.08956 12.7389 3.05762 12.7149 3.02366C12.6908 2.98969 12.6403 2.93276 12.6026 2.89712C12.565 2.86149 12.5342 2.82116 12.5342 2.80747C12.5342 2.79379 12.5138 2.77198 12.4889 2.759C12.464 2.74601 12.4437 2.72475 12.4437 2.71173C12.4437 2.69873 12.4274 2.67448 12.4075 2.65786C12.3876 2.64124 12.3713 2.6179 12.3713 2.60597C12.3713 2.59406 12.3611 2.57797 12.3487 2.57021C12.3362 2.56244 12.306 2.5283 12.2816 2.49434C12.2287 2.42076 12.2097 2.39703 12.1677 2.35191C12.1503 2.33321 12.136 2.31107 12.136 2.30272C12.136 2.29438 12.1096 2.25886 12.0772 2.22382C12.0448 2.18876 12.0021 2.13874 11.9822 2.11266C11.9623 2.08657 11.9236 2.04207 11.8962 2.01377C11.8688 1.98547 11.8464 1.95471 11.8464 1.94543C11.8464 1.93615 11.8179 1.90076 11.7831 1.86679C11.7483 1.83283 11.7198 1.80015 11.7198 1.79419C11.7198 1.7882 11.6913 1.75632 11.6564 1.72335C11.6216 1.69035 11.5931 1.65676 11.5931 1.64866C11.5931 1.64058 11.5381 1.57895 11.4709 1.51171C11.4037 1.44446 11.3275 1.36611 11.3015 1.33758C11.2195 1.24757 11.0095 1.06616 10.9748 1.05545C10.9565 1.04978 10.9415 1.03869 10.9415 1.0308C10.9415 1.01873 10.756 0.88626 10.6561 0.826976C10.6397 0.817271 10.6152 0.799416 10.6017 0.787277C10.5881 0.775155 10.5666 0.765222 10.5539 0.765222C10.5412 0.765222 10.512 0.749342 10.4891 0.729934C10.4661 0.710525 10.4371 0.694645 10.4245 0.694645C10.4119 0.694645 10.3989 0.688682 10.3956 0.681412C10.3875 0.663768 10.196 0.571137 10.1676 0.571137C10.1553 0.571137 10.1452 0.56355 10.1452 0.554287C10.1452 0.545024 10.1167 0.532232 10.0819 0.525863C10.047 0.519493 10.0185 0.507584 10.0185 0.499397C10.0185 0.49121 9.99003 0.4793 9.9552 0.472931C9.92036 0.466561 9.89185 0.45571 9.89185 0.448811C9.89185 0.441912 9.83892 0.425503 9.77421 0.412341C9.70951 0.399178 9.65658 0.382152 9.65658 0.374512C9.65658 0.366872 9.61586 0.355351 9.56609 0.348928C9.51632 0.342488 9.4756 0.331214 9.4756 0.323874C9.4756 0.316551 9.42878 0.304889 9.37153 0.29799C9.31429 0.291073 9.25933 0.279199 9.24937 0.271594C9.22791 0.255203 8.91629 0.218257 8.79943 0.218257C8.75442 0.218257 8.71258 0.210317 8.70643 0.200612C8.69117 0.176546 7.58151 0.176546 7.56625 0.200612C7.5601 0.210317 7.50465 0.218239 7.44302 0.218239C7.28217 0.218186 6.85138 0.257285 6.85138 0.271912C6.85138 0.278705 6.78637 0.289803 6.7069 0.296561C6.62745 0.303319 6.55824 0.315475 6.5531 0.323574C6.54798 0.331672 6.4949 0.343829 6.43516 0.350587C6.37542 0.357344 6.32653 0.36846 6.32653 0.375271C6.32653 0.382099 6.26524 0.398296 6.19033 0.411265C6.1154 0.424251 6.05021 0.441012 6.04543 0.448529C6.04067 0.456045 6.00424 0.467567 5.96448 0.474113C5.92472 0.480659 5.89218 0.492374 5.89218 0.500155C5.89218 0.507919 5.86368 0.519493 5.82884 0.525863C5.794 0.532232 5.76549 0.543524 5.76549 0.550953C5.76549 0.558381 5.72477 0.574648 5.675 0.58707C5.62523 0.599509 5.58451 0.616253 5.58451 0.624299C5.58451 0.632327 5.56008 0.644148 5.53022 0.650535C5.50036 0.656923 5.47592 0.668832 5.47592 0.677001C5.47592 0.685171 5.45149 0.69708 5.42163 0.703467C5.39177 0.709855 5.36734 0.720918 5.36734 0.728046C5.36734 0.735156 5.33883 0.7519 5.30399 0.765222C5.26915 0.778543 5.24065 0.795904 5.24065 0.803809C5.24065 0.811696 5.22818 0.818154 5.21294 0.818154C5.19768 0.818154 5.18053 0.830063 5.17481 0.84462C5.16907 0.859176 5.15278 0.871086 5.13861 0.871086C5.12442 0.871086 5.10814 0.882996 5.10242 0.897552C5.09668 0.912108 5.08106 0.924018 5.06772 0.924018C5.05437 0.924018 5.02351 0.941874 4.99917 0.963717C4.97483 0.98556 4.92012 1.03121 4.8776 1.06517C4.83507 1.09913 4.78738 1.14132 4.77162 1.15891C4.75586 1.1765 4.70426 1.2315 4.65699 1.28113C4.6097 1.33077 4.57102 1.37682 4.57102 1.38349C4.57102 1.39017 4.54771 1.42165 4.51923 1.45346C4.49072 1.48529 4.4439 1.55583 4.41516 1.61025C4.3864 1.66466 4.35743 1.71324 4.35075 1.71818C4.34407 1.72313 4.33301 1.74893 4.32617 1.77552C4.31933 1.80211 4.30646 1.82386 4.2976 1.82386C4.28871 1.82386 4.28145 1.83224 4.28145 1.84248C4.28145 1.85271 4.26542 1.89539 4.24584 1.93731C4.22624 1.97925 4.20484 2.0463 4.19827 2.08632C4.1917 2.12635 4.17981 2.1591 4.17185 2.1591C4.16389 2.1591 4.15178 2.20277 4.14494 2.25614C4.1381 2.30952 4.12604 2.35318 4.11817 2.35318C4.1103 2.35318 4.09805 2.42861 4.09095 2.5208C4.08388 2.61299 4.0709 2.68842 4.06212 2.68842C4.05334 2.68842 4.04618 2.88295 4.04618 3.1207C4.04618 3.35845 4.05315 3.55298 4.06167 3.55298C4.07019 3.55298 4.08268 3.61733 4.0894 3.69595C4.10103 3.83202 4.12505 3.88822 4.17158 3.88822C4.18224 3.88822 4.19096 3.8813 4.19096 3.87285C4.19096 3.86438 4.28259 3.85173 4.39457 3.84471C4.50656 3.83768 4.60631 3.82574 4.61627 3.81817C4.68486 3.76596 5.92957 3.76354 5.96354 3.81554C5.9691 3.82403 6.00823 3.83661 6.05054 3.84349C6.09283 3.85039 6.12746 3.8624 6.12746 3.8702C6.12746 3.87802 6.14577 3.8891 6.16818 3.89487C6.36772 3.94619 6.47331 4.304 6.33685 4.46653C6.22846 4.59565 5.96832 4.82633 5.87685 4.87445C5.8511 4.88798 5.81899 4.90982 5.80551 4.92297C5.79204 4.93611 5.77286 4.94686 5.76291 4.94686C5.75295 4.94686 5.73346 4.95679 5.71958 4.96891C5.66623 5.01556 5.64597 5.0283 5.58904 5.0511C5.55668 5.06405 5.53022 5.08099 5.53022 5.08875C5.53022 5.0965 5.50579 5.10809 5.47592 5.11448C5.44606 5.12086 5.42163 5.13277 5.42163 5.14094C5.42163 5.14911 5.3972 5.16102 5.36734 5.16741C5.33747 5.1738 5.31304 5.18602 5.31304 5.19456C5.31304 5.20312 5.28047 5.21962 5.24065 5.23124C5.20083 5.24287 5.16826 5.25845 5.16826 5.26584C5.16826 5.27324 5.14383 5.28453 5.11396 5.29092C5.0841 5.2973 5.05967 5.3095 5.05967 5.31798C5.05967 5.32649 5.03116 5.33864 4.99633 5.34501C4.96149 5.35138 4.93298 5.36292 4.93298 5.37065C4.93298 5.37838 4.89226 5.39487 4.84249 5.40731C4.79272 5.41974 4.752 5.43586 4.752 5.44315C4.752 5.45042 4.71535 5.46173 4.67056 5.46827C4.62577 5.47482 4.58912 5.4862 4.58912 5.49354C4.58912 5.5009 4.5383 5.51251 4.47619 5.51937C4.41408 5.52622 4.35502 5.53799 4.34498 5.54552C4.33491 5.55305 4.26357 5.56945 4.18644 5.58195C4.10929 5.59445 4.04618 5.6108 4.04618 5.61828C4.04618 5.62575 4.0136 5.63723 3.97379 5.6438C3.93397 5.65036 3.90139 5.66206 3.90139 5.6698C3.90139 5.67757 3.87899 5.68826 3.85162 5.69357C3.78596 5.70633 3.56906 5.78001 3.55753 5.79347C3.54332 5.81007 3.2389 5.95257 3.21763 5.95257C3.20715 5.95257 3.19588 5.95851 3.19255 5.9658C3.18923 5.97307 3.14594 5.99888 3.09636 6.02314C3.04677 6.0474 2.99528 6.07719 2.98194 6.08931C2.96862 6.10143 2.94732 6.11136 2.93463 6.11136C2.92193 6.11136 2.89275 6.12724 2.8698 6.14665C2.84686 6.16606 2.81797 6.18194 2.80563 6.18194C2.79329 6.18194 2.7785 6.19385 2.77276 6.20841C2.76704 6.22296 2.74989 6.23487 2.73463 6.23487C2.71939 6.23487 2.70692 6.24184 2.70692 6.25038C2.70692 6.2589 2.68249 6.27575 2.65263 6.2878C2.62277 6.29986 2.59833 6.31671 2.59833 6.32523C2.59833 6.33377 2.58586 6.34074 2.57062 6.34074C2.55537 6.34074 2.53821 6.35265 2.53249 6.3672C2.52675 6.38176 2.51253 6.39367 2.50087 6.39367C2.48922 6.39367 2.46575 6.40955 2.4487 6.42896C2.43165 6.44836 2.4057 6.46424 2.39102 6.46424C2.37634 6.46424 2.35562 6.48012 2.34496 6.49953C2.3343 6.51894 2.31664 6.53482 2.30567 6.53482C2.29472 6.53482 2.2669 6.55467 2.24383 6.57893C2.22077 6.60319 2.19462 6.62304 2.18572 6.62304C2.17681 6.62304 2.14018 6.65083 2.10431 6.68479C2.06844 6.71876 2.03398 6.74655 2.02772 6.74655C2.02148 6.74655 1.98419 6.77633 1.94488 6.81271C1.90557 6.84911 1.84019 6.90667 1.79959 6.94063C1.759 6.9746 1.70018 7.02952 1.66889 7.06271C1.6376 7.09588 1.5967 7.13558 1.57798 7.15093C1.55929 7.16627 1.51857 7.20596 1.48749 7.23915C1.45644 7.27232 1.41581 7.31202 1.39724 7.32737C1.34197 7.37302 1.25926 7.46025 1.25917 7.47297C1.25911 7.47948 1.22243 7.52054 1.17763 7.56421C1.13284 7.60788 1.09619 7.65172 1.09619 7.66164C1.09619 7.67157 1.08181 7.69006 1.06421 7.70273C1.04662 7.71542 1.01868 7.74651 1.00212 7.77184C0.985542 7.79716 0.961254 7.82892 0.948133 7.84242C0.934994 7.8559 0.899829 7.90267 0.869968 7.94634C0.840106 7.99001 0.807529 8.03539 0.797575 8.04718C0.787621 8.05898 0.770881 8.07883 0.760366 8.09129C0.749869 8.10376 0.729545 8.13976 0.715229 8.17131C0.700914 8.20285 0.684915 8.22865 0.679666 8.22865C0.674418 8.22865 0.649949 8.26637 0.625264 8.31246C0.600596 8.35854 0.5743 8.39891 0.566825 8.40214C0.559369 8.40539 0.553252 8.4158 0.553252 8.42531C0.553252 8.44713 0.458472 8.64018 0.441822 8.65228C0.435017 8.65724 0.423832 8.68304 0.416991 8.70962C0.41015 8.73621 0.398097 8.75797 0.390206 8.75797C0.382333 8.75797 0.366118 8.79767 0.354173 8.84619C0.342228 8.89471 0.325632 8.93441 0.317289 8.93441C0.308928 8.93441 0.296603 8.97014 0.289888 9.01381C0.283174 9.05748 0.271175 9.09321 0.263212 9.09321C0.255267 9.09321 0.243051 9.12696 0.236083 9.16819C0.229097 9.20943 0.216266 9.25183 0.20756 9.26238C0.198855 9.27295 0.181915 9.3444 0.169953 9.42117C0.157972 9.49796 0.141883 9.56504 0.134173 9.57025C0.126463 9.57547 0.114717 9.65884 0.108039 9.75551C0.101361 9.8522 0.0896697 9.93924 0.0820504 9.94894C0.0744311 9.95865 0.0622511 10.0897 0.0549938 10.2401C0.0468316 10.4091 0.0340362 10.5184 0.0215304 10.5261C-0.00699213 10.5439 -0.00726358 12.2827 0.0212409 12.3006C0.0329503 12.308 0.0465239 12.4081 0.0540165 12.5422C0.0610566 12.6682 0.0732547 12.7754 0.0811273 12.7804C0.089 12.7855 0.101162 12.8648 0.10813 12.9568C0.115097 13.0487 0.127006 13.1281 0.134571 13.1332C0.142136 13.1383 0.159076 13.2219 0.172215 13.319C0.185336 13.416 0.20262 13.5035 0.210619 13.5135C0.218618 13.5234 0.230798 13.573 0.237712 13.6238C0.244607 13.6745 0.256407 13.7159 0.263936 13.7159C0.271447 13.7159 0.28321 13.7596 0.290051 13.813C0.296892 13.8664 0.308548 13.91 0.31595 13.91C0.32337 13.91 0.339948 13.9616 0.352816 14.0247C0.365683 14.0878 0.382533 14.1394 0.390279 14.1394C0.398025 14.1394 0.409861 14.1751 0.416575 14.2188C0.423289 14.2625 0.435524 14.2982 0.443758 14.2982C0.451993 14.2982 0.464082 14.326 0.470616 14.36C0.477149 14.3939 0.489257 14.4217 0.49751 14.4217C0.50578 14.4217 0.517417 14.4455 0.52339 14.4746C0.529362 14.5037 0.550736 14.5629 0.570897 14.606C0.591058 14.6491 0.607546 14.6928 0.607546 14.703C0.607546 14.7133 0.615038 14.7217 0.624214 14.7217C0.633372 14.7217 0.646239 14.7455 0.652791 14.7746C0.659342 14.8037 0.670925 14.8275 0.678508 14.8275C0.686091 14.8275 0.702072 14.8593 0.713999 14.8981C0.725925 14.9369 0.743498 14.9687 0.753054 14.9687C0.76261 14.9687 0.770428 14.98 0.770428 14.9939C0.770428 15.0077 0.781577 15.0299 0.795186 15.0432C0.808814 15.0565 0.825645 15.0849 0.832595 15.1062C0.839563 15.1276 0.852847 15.1451 0.862131 15.1451C0.871416 15.1451 0.879017 15.1556 0.879017 15.1684C0.879017 15.1881 0.978303 15.3325 1.04136 15.4046C1.05162 15.4163 1.06 15.4341 1.06 15.4442C1.06 15.4542 1.07629 15.4723 1.09619 15.4844C1.1161 15.4966 1.13239 15.5164 1.13239 15.5285C1.13239 15.5406 1.16495 15.5804 1.20475 15.6169C1.24454 15.6534 1.27712 15.6899 1.27714 15.6981C1.27719 15.7236 1.72228 16.1332 1.74991 16.1332C1.75866 16.1332 1.78115 16.1471 1.79986 16.1641C1.86009 16.2187 1.91739 16.2567 1.93949 16.2567C1.95135 16.2567 1.96572 16.2686 1.97145 16.2831C1.97717 16.2977 1.99433 16.3096 2.00958 16.3096C2.02482 16.3096 2.03729 16.3166 2.03729 16.3251C2.03729 16.3336 2.06377 16.3512 2.09611 16.3641C2.12847 16.377 2.1657 16.3978 2.17884 16.4103C2.192 16.4229 2.2144 16.4331 2.22861 16.4331C2.24283 16.4331 2.25447 16.4409 2.25447 16.4504C2.25447 16.4599 2.27483 16.4727 2.29971 16.4788C2.3246 16.4849 2.34496 16.4962 2.34496 16.504C2.34496 16.5117 2.38568 16.5283 2.43545 16.5407C2.48522 16.5531 2.52594 16.5691 2.52594 16.5762C2.52594 16.5833 2.55037 16.5944 2.58023 16.6007C2.6101 16.6071 2.63453 16.6197 2.63453 16.6286C2.63453 16.6375 2.6472 16.6449 2.66267 16.6449C2.67815 16.6449 2.726 16.6605 2.769 16.6796C2.81202 16.6987 2.88097 16.7196 2.92225 16.726C2.96352 16.7324 3.00152 16.7444 3.00668 16.7525C3.01186 16.7607 3.05647 16.7726 3.10582 16.7789C3.15517 16.7853 3.19557 16.7969 3.19557 16.8047C3.19557 16.8124 3.24239 16.8244 3.29963 16.8312C3.35686 16.8381 3.40793 16.8501 3.41309 16.8578C3.41827 16.8656 3.52821 16.882 3.65741 16.8942C3.78663 16.9064 3.89815 16.9248 3.90527 16.935C3.92336 16.9611 5.38176 16.9609 5.39968 16.9348C5.40677 16.9245 5.5468 16.9058 5.7112 16.8933C5.87544 16.8808 6.01796 16.8642 6.02792 16.8565C6.03787 16.8488 6.11117 16.8367 6.1908 16.8298C6.27043 16.8228 6.34373 16.8109 6.35368 16.8033C6.36363 16.7957 6.4349 16.7838 6.51204 16.7769C6.58919 16.7699 6.6523 16.7587 6.6523 16.752C6.6523 16.7452 6.75003 16.7291 6.86948 16.7162C6.98892 16.7032 7.08665 16.6865 7.08665 16.6791C7.08665 16.6716 7.14773 16.6599 7.22239 16.6531C7.29704 16.6463 7.35812 16.6345 7.35812 16.6269C7.35812 16.6193 7.41513 16.6076 7.48481 16.6007C7.55449 16.5939 7.6115 16.5827 7.6115 16.5759C7.6115 16.569 7.68479 16.5533 7.77438 16.5409C7.86396 16.5285 7.93726 16.5119 7.93726 16.5039C7.93726 16.4959 7.97796 16.4839 8.02773 16.4772C8.07749 16.4706 8.12233 16.4586 8.12736 16.4506C8.13241 16.4427 8.16906 16.4308 8.20882 16.4243C8.24858 16.4177 8.28112 16.4069 8.28112 16.4003C8.28112 16.3937 8.33585 16.3781 8.40274 16.3657C8.46963 16.3534 8.52867 16.3367 8.53395 16.3286C8.53922 16.3205 8.57817 16.3083 8.62046 16.3014C8.66276 16.2945 8.69738 16.2825 8.69738 16.2747C8.69738 16.267 8.72793 16.255 8.76525 16.2482C8.80258 16.2414 8.84126 16.2297 8.85121 16.2221C8.86117 16.2146 8.91206 16.1986 8.96433 16.1867C9.01659 16.1747 9.05934 16.1583 9.05934 16.1501C9.05934 16.142 9.09599 16.13 9.14078 16.1234C9.18557 16.1169 9.22222 16.1045 9.22222 16.0959C9.22222 16.0873 9.23489 16.0802 9.25037 16.0802C9.26584 16.0802 9.31268 16.0653 9.35443 16.047C9.39618 16.0287 9.45886 16.0078 9.4937 16.0006C9.52853 15.9934 9.57311 15.9766 9.59275 15.9633C9.61236 15.95 9.64699 15.9391 9.66966 15.9391C9.69232 15.9391 9.71087 15.9319 9.71087 15.923C9.71087 15.9141 9.74345 15.9015 9.78326 15.895C9.82308 15.8884 9.85566 15.8761 9.85566 15.8677C9.85566 15.8592 9.90452 15.8424 9.96424 15.8304C10.024 15.8184 10.0728 15.8031 10.0728 15.7964C10.0728 15.7897 10.1013 15.779 10.1362 15.7726C10.171 15.7663 10.1995 15.7542 10.1995 15.7458C10.1995 15.7373 10.2321 15.7251 10.2719 15.7185C10.3117 15.712 10.3443 15.701 10.3443 15.6942C10.3443 15.6873 10.3932 15.6711 10.4529 15.6582C10.5126 15.6453 10.5615 15.6285 10.5615 15.6208C10.5615 15.6132 10.5941 15.6016 10.6339 15.595C10.6737 15.5885 10.7063 15.5759 10.7063 15.567C10.7063 15.545 10.9185 15.5465 10.9325 15.5686C10.9386 15.5783 10.9553 15.5862 10.9695 15.5862C11.0132 15.5862 11.1373 15.6809 11.1487 15.723C11.1546 15.7448 11.1667 15.7627 11.1756 15.7627C11.1845 15.7627 11.1972 15.7944 11.2039 15.8331C11.2107 15.8719 11.2236 15.9081 11.2327 15.9136C11.2556 15.9274 11.2541 16.2743 11.2311 16.2743C11.2212 16.2743 11.2127 16.2962 11.2124 16.3228C11.2121 16.3495 11.1961 16.4031 11.1768 16.4419C11.1576 16.4808 11.1416 16.5225 11.1412 16.5346C11.1409 16.5467 11.1335 16.5566 11.1247 16.5566C11.116 16.5566 11.0985 16.581 11.0858 16.6107C11.0577 16.677 11.0125 16.7293 10.8149 16.925C10.6776 17.0608 10.6274 17.1029 10.5284 17.1654C10.513 17.1751 10.4837 17.1995 10.4631 17.2197C10.4426 17.2399 10.3993 17.2676 10.3669 17.2814C10.3346 17.2951 10.3081 17.3123 10.3081 17.3196C10.3081 17.327 10.2963 17.333 10.2819 17.333C10.2674 17.333 10.2491 17.3431 10.2411 17.3554C10.2332 17.3677 10.2063 17.3877 10.1814 17.3999C10.1565 17.412 10.1036 17.4414 10.0638 17.4652C10.024 17.4891 9.97713 17.5136 9.95972 17.5199C9.94231 17.5261 9.92805 17.5373 9.92805 17.5448C9.92805 17.5524 9.90769 17.5635 9.8828 17.5696C9.85792 17.5757 9.83756 17.5878 9.83756 17.5966C9.83756 17.6054 9.80905 17.6217 9.77421 17.6329C9.73938 17.6441 9.71087 17.6606 9.71087 17.6696C9.71087 17.6785 9.6999 17.6859 9.68649 17.6859C9.67308 17.6859 9.64333 17.7017 9.62038 17.7211C9.59743 17.7405 9.56768 17.7564 9.55427 17.7564C9.54086 17.7564 9.52989 17.7629 9.52989 17.7708C9.52989 17.7787 9.50139 17.796 9.46655 17.8094C9.43171 17.8227 9.4032 17.84 9.4032 17.8479C9.4032 17.8558 9.39139 17.8623 9.37696 17.8623C9.36252 17.8623 9.3442 17.8724 9.33624 17.8847C9.32828 17.897 9.3014 17.9171 9.27652 17.9292C9.25163 17.9413 9.1987 17.9707 9.15888 17.9946C9.11906 18.0184 9.07223 18.043 9.05482 18.0492C9.03741 18.0554 9.02315 18.0675 9.02315 18.0761C9.02315 18.0846 9.01218 18.0917 8.99877 18.0917C8.98536 18.0917 8.9556 18.1075 8.93265 18.127C8.90971 18.1464 8.87995 18.1622 8.86654 18.1622C8.82716 18.1622 8.83912 18.2206 8.88772 18.2655C8.91244 18.2884 8.93265 18.3135 8.93265 18.3212C8.93265 18.35 9.41589 18.8363 9.51474 18.9071C9.5787 18.9529 9.71623 19.0574 9.74844 19.0847C9.76413 19.098 9.79061 19.114 9.80726 19.1202C9.82393 19.1265 9.83756 19.1397 9.83756 19.1498C9.83756 19.1598 9.8492 19.1679 9.86342 19.1679C9.87763 19.1679 9.90003 19.1779 9.91319 19.19C9.92633 19.2021 9.96153 19.224 9.99139 19.2385C10.0213 19.253 10.0498 19.2691 10.0547 19.2741C10.0597 19.2792 10.0841 19.2931 10.109 19.3049C10.1641 19.3312 10.2235 19.3671 10.2357 19.3815C10.2407 19.3874 10.2753 19.4019 10.3126 19.4138C10.35 19.4256 10.3805 19.4418 10.3805 19.4497C10.3805 19.4576 10.4029 19.4693 10.4303 19.4756C10.4577 19.482 10.5208 19.5057 10.5705 19.5283C10.709 19.5912 10.759 19.6091 10.7976 19.6091C10.817 19.6091 10.833 19.6163 10.833 19.6251C10.833 19.634 10.8655 19.6466 10.9053 19.6532C10.9452 19.6597 10.9777 19.6713 10.9777 19.6789C10.9777 19.6865 11.0121 19.6981 11.0541 19.7047C11.0961 19.7112 11.1352 19.724 11.1409 19.7331C11.1467 19.7421 11.2141 19.7591 11.2908 19.7707C11.3675 19.7823 11.4302 19.7979 11.4302 19.8054C11.4302 19.8129 11.4791 19.8244 11.5388 19.831C11.5985 19.8376 11.6474 19.8491 11.6474 19.8565C11.6474 19.864 11.7125 19.8757 11.7921 19.8825C11.8718 19.8894 11.9369 19.9008 11.9369 19.9078C11.9369 19.9214 12.3589 19.962 12.4989 19.9619C12.5442 19.9619 12.5899 19.9703 12.6004 19.9806C12.627 20.0066 14.0422 20.0064 14.0511 19.9805C14.0546 19.9703 14.0991 19.9619 14.15 19.9619C14.3022 19.9619 14.7421 19.9221 14.7421 19.9083C14.7421 19.9013 14.8113 19.8899 14.8959 19.883C14.9805 19.8762 15.0537 19.8641 15.0587 19.8563C15.0637 19.8484 15.1248 19.8364 15.1945 19.8296C15.2642 19.8228 15.3213 19.8113 15.3213 19.8042C15.3213 19.797 15.3905 19.7807 15.4751 19.7678C15.5597 19.755 15.6289 19.7388 15.6289 19.7317C15.6289 19.7247 15.6737 19.7135 15.7285 19.7069C15.7832 19.7002 15.828 19.6881 15.828 19.68C15.828 19.6719 15.8687 19.6598 15.9185 19.6532C15.9683 19.6465 16.009 19.6353 16.009 19.6283C16.009 19.6213 16.0619 19.6053 16.1266 19.5927C16.1913 19.5802 16.2443 19.5638 16.2443 19.5562C16.2443 19.5487 16.2809 19.5371 16.3257 19.5306C16.3705 19.524 16.4072 19.5119 16.4072 19.5037C16.4072 19.4954 16.4397 19.4833 16.4795 19.4767C16.5194 19.4702 16.5519 19.4579 16.5519 19.4495C16.5519 19.4411 16.5825 19.4289 16.6198 19.4223C16.6571 19.4158 16.708 19.4007 16.7329 19.3889C16.8497 19.3334 16.9088 19.3094 16.9546 19.299C16.982 19.2927 17.0044 19.2813 17.0044 19.2737C17.0044 19.266 17.0451 19.2502 17.0949 19.2385C17.1447 19.2269 17.1854 19.2111 17.1854 19.2034C17.1854 19.1957 17.2057 19.1844 17.2306 19.1783C17.2555 19.1723 17.2759 19.1595 17.2759 19.15C17.2759 19.1404 17.2845 19.1327 17.295 19.1327C17.3346 19.1327 17.7198 18.9504 17.7464 18.9191C17.7514 18.9132 17.7878 18.8981 17.8273 18.8855C17.8669 18.873 17.9094 18.854 17.9217 18.8433C17.982 18.7913 18.0001 18.7804 18.0435 18.7698C18.0692 18.7635 18.0903 18.7522 18.0903 18.7447C18.0903 18.7372 18.1168 18.7207 18.1491 18.708C18.1814 18.6952 18.2144 18.6744 18.2224 18.6617C18.2304 18.649 18.2487 18.6386 18.2631 18.6386C18.2775 18.6386 18.2894 18.6307 18.2894 18.621C18.2894 18.6113 18.3012 18.6033 18.3156 18.6033C18.33 18.6033 18.3484 18.5934 18.3563 18.5813C18.3643 18.5692 18.4176 18.5357 18.4749 18.5069C18.5321 18.4781 18.5789 18.4484 18.5789 18.4408C18.5789 18.4331 18.5907 18.4269 18.6052 18.4269C18.6196 18.4269 18.6379 18.417 18.6459 18.4048C18.6538 18.3927 18.6835 18.3711 18.7117 18.3569C18.7399 18.3427 18.7831 18.313 18.8076 18.2908C18.8322 18.2686 18.8596 18.2505 18.8685 18.2505C18.8775 18.2505 18.8913 18.2404 18.8993 18.228C18.9072 18.2157 18.9361 18.196 18.9635 18.1843C18.9909 18.1726 19.0133 18.1549 19.0133 18.145C19.0133 18.1351 19.0257 18.127 19.041 18.127C19.0562 18.127 19.0734 18.115 19.0791 18.1005C19.0849 18.0859 19.0998 18.074 19.1122 18.074C19.1247 18.074 19.1666 18.0465 19.2053 18.0129C19.3281 17.9063 19.3348 17.9013 19.3706 17.8902C19.3898 17.8842 19.4165 17.8596 19.4297 17.8355C19.4429 17.8114 19.4642 17.7917 19.4769 17.7917C19.4896 17.7917 19.52 17.7738 19.5443 17.752C19.5833 17.7171 19.6343 17.675 19.7799 17.5576C19.8907 17.4684 20.0116 17.3616 20.1594 17.2227C20.2497 17.1378 20.3294 17.0683 20.3364 17.0683C20.3537 17.0683 20.7968 16.6384 20.8186 16.6004C20.828 16.5839 20.9103 16.4967 21.0014 16.4065C21.0924 16.3164 21.1669 16.2377 21.1669 16.2316C21.1669 16.2256 21.2097 16.1777 21.262 16.1252C21.3665 16.0201 21.48 15.8906 21.4901 15.8648C21.4937 15.8557 21.5222 15.8218 21.5535 15.7895C21.6469 15.693 21.728 15.5971 21.728 15.583C21.728 15.5757 21.7523 15.5437 21.782 15.5118C21.8755 15.4115 21.887 15.3965 21.8988 15.3602C21.9052 15.3407 21.9223 15.3203 21.9368 15.3149C21.9514 15.3095 21.9633 15.2929 21.9633 15.278C21.9633 15.2631 21.9716 15.251 21.9817 15.251C21.9919 15.251 22.0101 15.2291 22.0221 15.2025C22.0341 15.1758 22.0543 15.1476 22.0669 15.1398C22.0796 15.1321 22.0899 15.1186 22.0899 15.1099C22.0899 15.1011 22.1086 15.0744 22.1313 15.0505C22.1541 15.0266 22.1846 14.9845 22.1991 14.957C22.2137 14.9294 22.2358 14.9006 22.2483 14.8928C22.2607 14.885 22.2709 14.8678 22.2709 14.8546C22.2709 14.8413 22.277 14.8278 22.2845 14.8246C22.3046 14.8159 22.3795 14.7082 22.3795 14.688C22.3795 14.6783 22.3899 14.6641 22.4025 14.6564C22.4152 14.6486 22.4355 14.6224 22.4476 14.5981C22.4752 14.5432 22.5087 14.4919 22.5367 14.462C22.5485 14.4494 22.5638 14.4217 22.5707 14.4004C22.5777 14.379 22.5945 14.3507 22.6081 14.3375C22.6217 14.3242 22.6329 14.302 22.6329 14.2881C22.6329 14.2743 22.6396 14.2629 22.6478 14.2629C22.6561 14.2629 22.6866 14.2153 22.7157 14.1571C22.7448 14.0989 22.7747 14.0513 22.7822 14.0512C22.7897 14.0512 22.7958 14.0398 22.7958 14.026C22.7958 14.0121 22.806 13.9903 22.8185 13.9774C22.8483 13.9468 22.9406 13.7656 22.9406 13.7378C22.9406 13.7258 22.9478 13.7159 22.9567 13.7159C22.9656 13.7159 22.9784 13.6942 22.9853 13.6676C22.9921 13.641 23.0033 13.6152 23.01 13.6103C23.0317 13.5945 23.1758 13.2903 23.1758 13.2604C23.1758 13.2506 23.1819 13.2399 23.1894 13.2366C23.2069 13.229 23.3025 13.0001 23.3025 12.9657C23.3025 12.9514 23.3103 12.9396 23.3198 12.9396C23.3293 12.9396 23.3424 12.9118 23.349 12.8779C23.3555 12.8439 23.368 12.8161 23.3767 12.8161C23.3854 12.8161 23.3978 12.7843 23.4042 12.7455C23.4105 12.7067 23.4218 12.6749 23.4293 12.6749C23.4367 12.6749 23.4536 12.6273 23.4669 12.5691C23.4801 12.5109 23.4973 12.4632 23.5051 12.4632C23.5129 12.4632 23.5245 12.4315 23.5308 12.3926C23.5372 12.3538 23.5488 12.3221 23.5565 12.3221C23.5643 12.3221 23.5762 12.2824 23.583 12.2338C23.5899 12.1853 23.6021 12.1456 23.6102 12.1456C23.6184 12.1456 23.6346 12.09 23.6464 12.0221C23.6581 11.9542 23.6742 11.8986 23.6821 11.8986C23.69 11.8986 23.7021 11.8549 23.7089 11.8016C23.7158 11.7482 23.728 11.7045 23.7361 11.7045C23.7442 11.7045 23.7566 11.6589 23.7637 11.6031C23.7708 11.5473 23.7833 11.4936 23.7914 11.4839C23.7996 11.4741 23.8168 11.3828 23.8295 11.281C23.8422 11.1791 23.8587 11.0917 23.866 11.0866C23.8734 11.0816 23.8851 11.0141 23.892 10.9367C23.8989 10.8592 23.911 10.7878 23.919 10.7779C23.927 10.768 23.9392 10.6687 23.9461 10.5573C23.9531 10.4459 23.9677 10.3438 23.9786 10.3305C24.0069 10.2959 24.0072 9.02626 23.979 9.00876C23.9675 9.00165 23.953 8.91366 23.9456 8.80649C23.9384 8.70216 23.9262 8.61301 23.9185 8.60836C23.9108 8.60374 23.8986 8.52632 23.8914 8.43635C23.8842 8.34637 23.872 8.26482 23.8642 8.25511C23.8564 8.24541 23.8395 8.13228 23.8267 8.00369C23.8139 7.8751 23.7974 7.7699 23.7901 7.7699C23.7829 7.7699 23.7711 7.69845 23.764 7.61111C23.7569 7.52377 23.7448 7.45231 23.7371 7.45231C23.7294 7.45231 23.7173 7.38482 23.7103 7.30234C23.7032 7.21985 23.6913 7.15236 23.6839 7.15236C23.6765 7.15236 23.6599 7.04914 23.6471 6.92299C23.6343 6.79683 23.6177 6.69362 23.6103 6.69362C23.6028 6.69362 23.5913 6.65392 23.5847 6.6054C23.5782 6.55688 23.5658 6.51718 23.5573 6.51718C23.5488 6.51718 23.5365 6.48939 23.5299 6.45542C23.5234 6.42146 23.512 6.39367 23.5045 6.39367C23.4971 6.39367 23.4801 6.34603 23.4669 6.2878C23.4536 6.22958 23.4364 6.18194 23.4285 6.18194C23.4207 6.18194 23.4088 6.15018 23.4021 6.11136C23.3953 6.07255 23.3833 6.04079 23.3754 6.04079C23.3674 6.04079 23.3554 6.00506 23.3487 5.96139C23.342 5.91772 23.3298 5.88199 23.3215 5.88199C23.3133 5.88199 23.3009 5.85223 23.294 5.81583C23.2871 5.77944 23.2705 5.72584 23.2572 5.69673C23.2439 5.66762 23.2278 5.62395 23.2214 5.59969C23.2058 5.54042 23.1725 5.47618 23.1575 5.47618C23.1508 5.47618 23.1396 5.66845 23.1327 5.90343C23.1258 6.13843 23.1134 6.33493 23.1053 6.34012C23.0971 6.34531 23.0845 6.43688 23.0773 6.54361C23.0701 6.65034 23.0578 6.74561 23.0499 6.75534C23.0421 6.76506 23.0298 6.8405 23.0227 6.92299C23.0156 7.00548 23.0034 7.0809 22.9956 7.09061C22.9879 7.10031 22.9709 7.19758 22.9579 7.30675C22.9448 7.41593 22.9283 7.50524 22.9211 7.50524C22.9139 7.50524 22.9023 7.56082 22.8953 7.62875C22.8883 7.69668 22.8761 7.75226 22.8681 7.75226C22.8601 7.75226 22.8479 7.79992 22.841 7.85816C22.8341 7.9164 22.8218 7.96803 22.8137 7.9729C22.8056 7.97777 22.7894 8.0373 22.7777 8.10521C22.7659 8.17311 22.7499 8.22865 22.7422 8.22865C22.7344 8.22865 22.7226 8.26835 22.716 8.31687C22.7094 8.36539 22.6967 8.40509 22.6877 8.40509C22.6787 8.40509 22.6658 8.44082 22.6591 8.48449C22.6524 8.52816 22.641 8.56388 22.6337 8.56388C22.6265 8.56388 22.6098 8.60755 22.5967 8.66093C22.5836 8.7143 22.5663 8.75797 22.5584 8.75797C22.5505 8.75797 22.5387 8.78576 22.5322 8.81972C22.5256 8.85369 22.5137 8.88148 22.5056 8.88148C22.4976 8.88148 22.4856 8.9053 22.4791 8.93441C22.4725 8.96352 22.4605 8.98734 22.4524 8.98734C22.4443 8.98734 22.4323 9.00855 22.4256 9.03447C22.4189 9.06039 22.3977 9.10116 22.3784 9.12507C22.3591 9.14898 22.3433 9.17853 22.3433 9.19074C22.3433 9.20295 22.3311 9.21751 22.3162 9.2231C22.3012 9.22868 22.289 9.2454 22.289 9.26028C22.289 9.27513 22.2807 9.28729 22.2705 9.28729C22.2604 9.28729 22.242 9.30912 22.2298 9.33581C22.2066 9.38654 22.1599 9.43494 22.0794 9.49179C22.0531 9.51031 22.022 9.53342 22.0103 9.54313C21.9761 9.57132 21.9216 9.60345 21.8728 9.62417C21.8122 9.64988 21.4886 9.63687 21.4788 9.60834C21.4748 9.59673 21.4632 9.58724 21.4529 9.58724C21.4225 9.58724 21.3 9.45868 21.2847 9.4108C21.277 9.38654 21.2632 9.36198 21.254 9.35621C21.2448 9.35046 21.2326 9.30082 21.2267 9.24593C21.2209 9.19104 21.2092 9.14614 21.2006 9.14614C21.192 9.14614 21.185 9.08659 21.185 9.01381C21.185 8.94103 21.192 8.88148 21.2006 8.88148C21.2091 8.88148 21.2218 8.80033 21.2288 8.70114C21.2358 8.60194 21.2484 8.51263 21.2567 8.50264C21.265 8.49266 21.282 8.39318 21.2944 8.28158C21.3068 8.16998 21.3259 8.07301 21.337 8.06608C21.3648 8.04854 21.3652 6.92692 21.3373 6.9091C21.3261 6.90196 21.3077 6.77081 21.2946 6.6054C21.282 6.44528 21.2653 6.30633 21.2575 6.29663C21.2497 6.28692 21.2375 6.20355 21.2303 6.11136C21.2231 6.01917 21.211 5.93581 21.2033 5.9261C21.1956 5.9164 21.1835 5.837 21.1763 5.74966C21.1692 5.66232 21.157 5.58293 21.1494 5.57322C21.1418 5.56352 21.1254 5.45236 21.1131 5.3262C21.1008 5.20005 21.0843 5.08889 21.0765 5.07919C21.0687 5.06948 21.0566 5.00399 21.0495 4.93362C21.0424 4.86326 21.0303 4.80571 21.0227 4.80571C21.015 4.80571 21.0031 4.76422 20.9962 4.71352C20.9893 4.66281 20.9771 4.61319 20.9692 4.60324C20.9613 4.59329 20.9494 4.56134 20.9427 4.53222C20.9222 4.44192 20.8518 4.23273 20.8388 4.22342C20.832 4.21853 20.8207 4.18479 20.8137 4.14843C20.8067 4.11205 20.7953 4.0823 20.7883 4.0823C20.7813 4.0823 20.7648 4.04061 20.7515 3.98967C20.7383 3.93873 20.7225 3.89307 20.7164 3.88822C20.6977 3.8732 20.644 3.75843 20.6317 3.70736C20.6253 3.68069 20.6131 3.65884 20.6047 3.65884C20.5962 3.65884 20.5795 3.62708 20.5676 3.58827C20.5556 3.54945 20.5397 3.51769 20.5321 3.51769C20.5245 3.51769 20.5129 3.49387 20.5064 3.46476C20.4998 3.43565 20.4876 3.41183 20.4792 3.41183C20.4708 3.41183 20.4586 3.38801 20.4521 3.35889C20.4455 3.32978 20.4333 3.30596 20.4249 3.30596C20.4165 3.30596 20.4002 3.27817 20.3887 3.24421C20.3772 3.21024 20.3603 3.18245 20.3511 3.18245C20.3419 3.18245 20.3344 3.17111 20.3344 3.15724C20.3344 3.14339 20.3233 3.12118 20.3097 3.10791C20.296 3.09462 20.2787 3.06466 20.2711 3.0413C20.2635 3.01794 20.2482 2.98881 20.237 2.97657C20.1906 2.9255 20.178 2.90597 20.1535 2.84722C20.1394 2.81325 20.1193 2.77581 20.109 2.76403C20.0562 2.70404 20.0449 2.68902 20.0449 2.67916C20.0449 2.67327 20.0245 2.64241 19.9996 2.61059C19.9747 2.57878 19.9544 2.54358 19.9544 2.53238C19.9544 2.52116 19.9464 2.51198 19.9366 2.51198C19.9269 2.51198 19.9139 2.49271 19.9078 2.46914C19.9018 2.44559 19.8853 2.42201 19.8713 2.41677C19.8573 2.41152 19.8458 2.39507 19.8458 2.3802C19.8458 2.36534 19.8372 2.35318 19.8267 2.35318C19.8163 2.35318 19.7992 2.32937 19.7888 2.30025C19.7784 2.27114 19.7622 2.24732 19.753 2.24732C19.7437 2.24732 19.731 2.23442 19.7248 2.21868C19.7186 2.20293 19.6924 2.16738 19.6665 2.13969C19.6407 2.11201 19.5911 2.05339 19.5562 2.00943C19.5214 1.96546 19.4542 1.88932 19.4069 1.84022C19.3596 1.79112 19.3208 1.74551 19.3207 1.73887C19.3205 1.73226 19.2591 1.67124 19.1842 1.60331C19.1093 1.53538 19.0072 1.4421 18.9574 1.396C18.9075 1.34989 18.8599 1.31219 18.8514 1.31219C18.843 1.31219 18.8169 1.29248 18.7935 1.26838C18.77 1.24429 18.7452 1.22444 18.7382 1.22427C18.7313 1.22411 18.7055 1.20583 18.6809 1.18365C18.6564 1.16147 18.6132 1.13171 18.585 1.11752C18.5568 1.10332 18.5272 1.08176 18.5192 1.06962C18.5112 1.05746 18.4929 1.04753 18.4785 1.04753C18.4641 1.04753 18.4522 1.03959 18.4522 1.02988C18.4522 1.02018 18.4413 1.01224 18.4279 1.01224C18.4144 1.01224 18.3853 0.996853 18.363 0.978026C18.3408 0.959218 18.2988 0.938733 18.2698 0.932522C18.2407 0.926294 18.217 0.914543 18.217 0.906374C18.217 0.898205 18.1925 0.886295 18.1627 0.879908C18.1328 0.873521 18.1084 0.861611 18.1084 0.853442C18.1084 0.845273 18.0839 0.833363 18.0541 0.826976C18.0242 0.820589 17.9998 0.808361 17.9998 0.799822C17.9998 0.791264 17.9672 0.774767 17.9274 0.76314C17.8876 0.751512 17.855 0.735933 17.855 0.72854C17.855 0.721147 17.8306 0.709855 17.8007 0.703467C17.7708 0.69708 17.7464 0.684888 17.7464 0.676402C17.7464 0.667897 17.7179 0.65574 17.6831 0.649371C17.6482 0.643002 17.6197 0.631462 17.6197 0.623734C17.6197 0.616006 17.579 0.599509 17.5292 0.58707C17.4795 0.574648 17.4387 0.558381 17.4387 0.550953C17.4387 0.543524 17.4102 0.532232 17.3754 0.525863C17.3406 0.519493 17.3121 0.507213 17.3121 0.498603C17.3121 0.489975 17.2978 0.482864 17.2804 0.482811C17.263 0.482741 17.2267 0.471484 17.1997 0.457774C17.1728 0.444065 17.1056 0.422998 17.0504 0.410965C16.9952 0.398931 16.9501 0.382893 16.9501 0.375324C16.9501 0.367754 16.9134 0.356215 16.8687 0.349669C16.8239 0.343123 16.7872 0.331461 16.7872 0.323768C16.7872 0.316075 16.7465 0.304324 16.6967 0.297655C16.647 0.290985 16.6062 0.279146 16.6062 0.271365C16.6062 0.263566 16.537 0.247157 16.4524 0.234895C16.3678 0.222614 16.2986 0.206541 16.2986 0.199183C16.2986 0.191808 16.2456 0.180251 16.1809 0.173494C16.1162 0.166736 16.0633 0.155003 16.0633 0.147416C16.0633 0.139829 16.0042 0.127954 15.9321 0.121038C15.8599 0.114139 15.7927 0.1023 15.7828 0.0947661C15.762 0.0790805 15.3915 0.0418162 15.2561 0.0418162C15.2063 0.0418162 15.1579 0.034635 15.1484 0.0258306C15.1313 0.00988039 14.5644 -0.0070401 14.3847 0.00303464Z" fill="#A8A8A8"/>
</svg>
