<svg width="119" height="71" viewBox="0 0 119 71" fill="none" xmlns="http://www.w3.org/2000/svg">
<path d="M63.774 56.3706C64.6073 57.2046 65.024 58.1909 65.024 59.3296C65.024 60.4682 64.6073 61.4545 63.774 62.2885C62.9406 63.1224 61.9551 63.5394 60.8172 63.5394C57.1313 63.5394 54.5112 63.4432 52.9567 63.2507C49.6073 62.8498 46.9551 61.8715 45 60.3159C44.5032 59.9149 44.0064 59.4338 43.5096 58.8725C42.532 59.8508 41.3782 60.6927 40.048 61.3984C38.7339 62.1201 37.4118 62.6814 36.0817 63.0823C34.7676 63.4833 33.2612 63.796 31.5625 64.0205C29.8637 64.245 28.3173 64.3894 26.923 64.4535C25.5448 64.5177 23.9663 64.5498 22.1875 64.5498C21.883 64.5498 21.4022 64.5498 20.7452 64.5498C19.7836 64.5337 18.782 64.5337 17.7404 64.5498C16.6987 64.5818 15.5929 64.5417 14.4231 64.4295C13.2692 64.3333 12.1314 64.205 11.0096 64.0446C9.90384 63.9002 8.80608 63.6356 7.71634 63.2507C6.64262 62.8819 5.65704 62.4408 4.75961 61.9276C3.86218 61.4305 3.04487 60.7729 2.30769 59.955C1.57051 59.1531 0.993589 58.231 0.576922 57.1885C0.192307 56.2423 0 55.24 0 54.1815C0 52.674 0.3125 51.2306 0.937499 49.8514C1.57852 48.4561 2.34775 47.2613 3.24519 46.267C4.15865 45.2566 5.33653 44.2783 6.77884 43.3321C8.23717 42.3859 9.54326 41.6241 10.6971 41.0468C11.867 40.4694 13.2692 39.8841 14.9038 39.2907C16.5545 38.6973 17.7724 38.2803 18.5577 38.0398C19.359 37.7992 20.3525 37.5185 21.5384 37.1978C22.6442 36.8931 23.7099 37.0294 24.7355 37.6067C25.7612 38.1841 26.4263 39.0261 26.7307 40.1326C27.0352 41.2392 26.899 42.3057 26.3221 43.3321C25.7452 44.3585 24.9038 45.0241 23.798 45.3288C21.6186 45.9222 19.3349 46.7802 16.9471 47.9028C14.5753 49.0254 12.5801 50.1641 10.9615 51.3188C9.34294 52.4575 9.70548 53.4256 10.0571 53.9886C10.4791 54.5517 10.7131 55.0475 13.4856 55.4806C16.274 55.9136 19.1747 56.1301 22.1875 56.1301C25.9214 56.1301 29.1907 55.8254 31.9952 55.2159C34.7996 54.6065 36.6586 53.8367 37.5721 52.9065C38.5657 51.8801 39.5272 50.0679 40.4567 47.4698C41.3862 44.8557 41.8509 42.001 41.8509 38.9058C41.8509 36.1954 41.5705 34.6157 41.0096 34.1667C40.9615 34.1346 40.8734 34.0624 40.7451 33.9502C40.6169 33.8219 40.5368 33.7497 40.5048 33.7337C40.4887 33.7176 40.4166 33.6775 40.2884 33.6134C40.1602 33.5332 40.056 33.4931 39.9759 33.4931C39.9118 33.4771 39.7836 33.445 39.5913 33.3969C39.399 33.3488 39.2067 33.3247 39.0144 33.3247C38.8381 33.3247 38.5817 33.3167 38.2451 33.3007C37.9246 33.2686 37.5801 33.2526 37.2115 33.2526C36.8429 33.2526 36.3942 33.2445 35.8653 33.2285C35.7532 33.2606 35.6009 33.3007 35.4086 33.3488C35.2163 33.3969 34.8317 33.461 34.2548 33.5412C33.6939 33.6054 33.157 33.6294 32.6442 33.6134C32.1474 33.5974 31.5865 33.5011 30.9615 33.3247C30.3365 33.1323 29.7916 32.8596 29.3269 32.5068C28.8782 32.138 28.5016 31.5927 28.1971 30.871C27.8926 30.1493 27.7404 29.2833 27.7404 28.2729C27.7404 27.6956 27.8926 27.0861 28.1971 26.4446C28.5016 25.8031 28.9102 25.2899 29.423 24.905C29.6955 24.6965 30.008 24.4961 30.3605 24.3036C30.9535 23.9829 31.875 23.622 33.125 23.2211C37.4359 21.8419 90.573 -9.49571 86.5054 2.89145C82.4378 15.2786 80.7542 26.6125 73.0341 19.0112C68.6737 14.7179 63.188 18.5346 62.4144 20.0697C61.6407 21.6048 61.4761 23.2689 60.8671 24.2793C59.9528 25.1942 54.9759 25.8913 53.8701 26.18C50.3285 27.0941 47.9647 27.7116 46.7788 28.0323C48.141 29.2993 49.0624 30.8229 49.5432 32.603C50.024 34.3672 50.2644 36.4681 50.2644 38.9058C50.2644 42.8029 49.7195 46.4354 48.6298 49.8032C48.8862 51.7598 49.423 53.0669 50.2403 53.7244C50.6249 54.0131 51.8669 54.3178 53.9663 54.6386C56.0817 54.9593 58.3653 55.1197 60.8172 55.1197C61.9551 55.1197 62.9406 55.5367 63.774 56.3706Z" fill="white"/>
<path d="M68.8461 32.8917C69.9518 32.571 71.0175 32.6993 72.0432 33.2766C73.0688 33.8379 73.7339 34.6719 74.0384 35.7785C75.673 41.4397 76.4903 46.3472 76.4903 50.5009C76.4903 52.5697 76.1297 54.4702 75.4086 56.2022C74.6874 57.9343 73.6137 59.3616 72.1874 60.4843C70.697 61.671 69.0143 62.4729 67.1394 62.8899C65.2804 63.3229 63.181 63.5394 60.8413 63.5394C59.7035 63.5394 58.7179 63.1224 57.8846 62.2885C57.0512 61.4545 56.6346 60.4682 56.6346 59.3296C56.6346 58.1909 57.0512 57.2046 57.8846 56.3706C58.7179 55.5367 59.7035 55.1197 60.8413 55.1197C63.9022 55.1197 65.9374 54.7108 66.947 53.8928C67.2996 53.6202 67.572 53.2513 67.7644 52.7862C67.9727 52.3051 68.0768 51.5433 68.0768 50.5009C68.0768 47.1651 67.3717 43.0274 65.9615 38.0879C65.641 36.9813 65.7611 35.9148 66.322 34.8884C66.899 33.862 67.7403 33.1964 68.8461 32.8917ZM67.7594 29.9804C66.5575 29.9804 65.7902 28.08 65.0869 27.0243C64.5711 26.2501 63.9663 25.0253 63.9663 23.8706C63.9663 22.6357 64.3429 21.6975 65.0961 21.056C65.8493 20.3985 66.8269 20.0697 68.0288 20.0697C69.1506 20.0697 70.048 20.4225 70.7211 21.1282C71.4102 21.8178 71.7547 22.6758 71.7547 23.7022C71.7547 24.7767 71.6627 25.5463 70.9242 27.0243C70.3616 28.1504 68.9132 29.9804 67.7594 29.9804Z" fill="white"/>
<path d="M95.6112 32.8436C95.8676 33.9662 96.4926 34.8403 97.4862 35.4657C98.4797 36.0912 99.5374 36.2756 100.659 36.019C101.082 35.5336 101.459 34.169 101.816 32.8729C102.608 29.9996 103.308 27.4627 104.217 35.586C105.065 43.1634 107.436 40.919 108.982 39.4548C109.842 38.6413 110.447 38.0686 110.395 39.5553C110.395 41.576 109.577 45.2085 109.577 45.2085C109.577 45.2085 108.271 48.5042 107.294 49.8514C106.332 51.1985 105.162 52.4094 103.784 53.4839C102.406 54.5584 100.9 55.4565 99.265 56.1782C97.6464 56.8999 95.8916 57.4772 94.0006 57.9102C92.8788 58.1668 92.0054 58.7923 91.3804 59.7866C90.7554 60.7809 90.5711 61.8394 90.8275 62.9621C91.0839 64.0847 91.7089 64.9587 92.7025 65.5842C93.6961 66.2096 94.7538 66.3941 95.8756 66.1375C98.2634 65.5922 100.547 64.8224 102.727 63.8281C104.906 62.8337 106.981 61.5588 108.952 60.0031C110.94 58.4475 112.654 56.6994 114.097 54.7589C115.539 52.8023 116.685 50.5169 117.534 47.9028C118.813 45.1491 119.308 42.3436 118.808 39.5553C118.808 37.8393 118.504 36.2756 117.895 34.8643C117.302 33.437 116.517 32.2582 115.539 31.328C114.577 30.3979 113.448 29.612 112.15 28.9705C110.868 28.329 109.561 27.872 108.231 27.5993C106.901 27.3106 105.563 27.1663 104.217 27.1663C102.39 27.1663 100.579 27.3748 98.7842 27.7918C97.6624 28.0484 96.789 28.6738 96.164 29.6682C95.539 30.6625 95.3547 31.721 95.6112 32.8436Z" fill="white"/>
<path d="M75.6746 69.7541C75.6746 69.7541 64.7032 74.2586 64.2812 66.1375C72.2988 62.8567 72.3691 62.8899 76.0966 59.6192C77.884 58.0508 78.2065 56.452 78.7691 55.4806C80.0351 53.0033 80.668 51.3845 82.0811 46.635C83.2189 41.4549 83.7878 34.8715 83.7878 26.8848C83.7878 25.3291 83.7638 23.6612 83.7157 21.8811C83.6837 20.7424 89.1481 4.99467 89.4998 4.00933C90.4844 2.39055 90.0624 3.02393 90.625 2.17935C91.258 1.40515 91.9559 1.29106 92.8053 2.10897C93.6706 2.91085 93.4673 2.94105 93.4993 4.07971C93.5474 5.90798 92.2013 25.2169 92.2013 26.8848C92.2013 35.5611 91.5683 42.7539 90.3022 48.4632C89.0683 53.9962 87.4197 61.2379 83.9735 64.4295L80.2461 67.2908L75.6746 69.7541Z" fill="white"/>
</svg>
