<svg width="74" height="45" viewBox="0 0 74 45" fill="none" xmlns="http://www.w3.org/2000/svg">
<path d="M39.6578 35.7279C40.176 36.2564 40.4351 36.8816 40.4351 37.6032C40.4351 38.3249 40.176 38.9501 39.6578 39.4786C39.1396 40.0072 38.5267 40.2715 37.8191 40.2715C35.5271 40.2715 33.8977 40.2105 32.931 40.0885C30.8482 39.8344 29.199 39.2143 27.9832 38.2284C27.6742 37.9742 27.3653 37.6693 27.0564 37.3135C26.4485 37.9336 25.731 38.4672 24.9038 38.9145C24.0866 39.3719 23.2645 39.7276 22.4374 39.9818C21.6202 40.2359 20.6834 40.4341 19.6271 40.5764C18.5707 40.7187 17.6091 40.8102 16.7421 40.8508C15.885 40.8915 14.9034 40.9118 13.7973 40.9118C13.6079 40.9118 13.3089 40.9118 12.9004 40.9118C12.3024 40.9017 11.6796 40.9017 11.0318 40.9118C10.3841 40.9322 9.69644 40.9067 8.96896 40.8356C8.25145 40.7746 7.54389 40.6933 6.84631 40.5916C6.15869 40.5002 5.47605 40.3324 4.79839 40.0885C4.13071 39.8547 3.51783 39.5752 2.95976 39.2499C2.40169 38.9348 1.89345 38.5181 1.43503 37.9997C0.97662 37.4914 0.617862 36.907 0.358758 36.2463C0.119586 35.6466 0 35.0113 0 34.3404C0 33.3849 0.194328 32.4701 0.582983 31.5959C0.981603 30.7116 1.45995 29.9544 2.01802 29.3241C2.58605 28.6838 3.31852 28.0637 4.21541 27.464C5.12227 26.8643 5.93446 26.3815 6.65198 26.0156C7.37946 25.6496 8.25145 25.2786 9.26793 24.9025C10.2944 24.5265 11.0518 24.2622 11.5401 24.1097C12.0383 23.9572 12.6562 23.7794 13.3937 23.5761C14.0813 23.3829 14.744 23.4693 15.3818 23.8353C16.0196 24.2012 16.4331 24.7348 16.6225 25.4362C16.8118 26.1375 16.7271 26.8135 16.3684 27.464C16.0096 28.1146 15.4864 28.5364 14.7988 28.7295C13.4435 29.1056 12.0234 29.6494 10.5385 30.3609C9.06363 31.0725 7.82293 31.7942 6.81641 32.526C5.80989 33.2477 6.03534 33.8613 6.25401 34.2181C6.51642 34.575 6.66195 34.8893 8.38598 35.1637C10.12 35.4382 11.9237 35.5754 13.7973 35.5754C16.1192 35.5754 18.1522 35.3823 19.8961 34.996C21.6401 34.6098 22.7961 34.1219 23.3641 33.5323C23.982 32.8818 24.5799 31.7332 25.1579 30.0865C25.7359 28.4297 26.0249 26.6204 26.0249 24.6586C26.0249 22.9408 25.8505 21.9396 25.5017 21.6549C25.4719 21.6346 25.417 21.5889 25.3373 21.5177C25.2576 21.4364 25.2078 21.3907 25.1878 21.3805C25.1779 21.3703 25.133 21.3449 25.0533 21.3043C24.9736 21.2534 24.9088 21.228 24.859 21.228C24.8191 21.2179 24.7394 21.1975 24.6198 21.167C24.5002 21.1366 24.3806 21.1213 24.261 21.1213C24.1514 21.1213 23.992 21.1162 23.7827 21.1061C23.5834 21.0857 23.3691 21.0756 23.1399 21.0756C22.9107 21.0756 22.6317 21.0705 22.3028 21.0603C22.2331 21.0806 22.1384 21.1061 22.0188 21.1366C21.8992 21.167 21.66 21.2077 21.3013 21.2585C20.9525 21.2992 20.6186 21.3144 20.2998 21.3043C19.9908 21.2941 19.642 21.2331 19.2534 21.1213C18.8647 20.9993 18.5259 20.8265 18.2369 20.6029C17.9579 20.3691 17.7237 20.0235 17.5343 19.5661C17.345 19.1087 17.2503 18.5598 17.2503 17.9194C17.2503 17.5535 17.345 17.1673 17.5343 16.7607C17.7237 16.3541 17.9778 16.0288 18.2967 15.7849C18.4661 15.6527 18.6604 15.5257 18.8797 15.4037C19.2484 15.2004 19.8214 14.9717 20.5987 14.7176C23.2794 13.8434 56.3227 -6.01841 53.7933 1.83261C51.2639 9.68363 50.2169 16.8671 45.4162 12.0494C42.7046 9.32828 39.2934 11.7473 38.8123 12.7202C38.3312 13.6932 38.2288 14.7479 37.8501 15.3883C37.2816 15.9682 34.1867 16.41 33.4991 16.593C31.2967 17.1723 29.8268 17.5637 29.0893 17.767C29.9364 18.57 30.5094 19.5356 30.8084 20.6639C31.1074 21.782 31.2568 23.1136 31.2568 24.6586C31.2568 27.1286 30.918 29.4309 30.2404 31.5654C30.3998 32.8055 30.7336 33.634 31.2419 34.0507C31.4811 34.2337 32.2534 34.4268 33.5589 34.6301C34.8743 34.8334 36.2944 34.935 37.8191 34.935C38.5267 34.935 39.1396 35.1993 39.6578 35.7279Z" fill="#E91E62"/>
<path d="M42.8118 20.8469C43.4995 20.6436 44.1622 20.7249 44.8 21.0908C45.4378 21.4466 45.8513 21.9751 46.0407 22.6765C47.0572 26.2646 47.5654 29.375 47.5654 32.0076C47.5654 33.3188 47.3412 34.5234 46.8927 35.6211C46.4443 36.7189 45.7766 37.6236 44.8897 38.3351C43.9629 39.0873 42.9165 39.5955 41.7505 39.8598C40.5945 40.1342 39.289 40.2715 37.8341 40.2715C37.1265 40.2715 36.5136 40.0072 35.9954 39.4786C35.4772 38.9501 35.2181 38.3249 35.2181 37.6032C35.2181 36.8816 35.4772 36.2564 35.9954 35.7279C36.5136 35.1993 37.1265 34.935 37.8341 34.935C39.7375 34.935 41.0031 34.6758 41.6309 34.1574C41.8502 33.9846 42.0196 33.7508 42.1392 33.4561C42.2687 33.1511 42.3335 32.6683 42.3335 32.0076C42.3335 29.8934 41.895 27.2709 41.0181 24.1402C40.8187 23.4388 40.8935 22.7629 41.2423 22.1124C41.601 21.4618 42.1242 21.04 42.8118 20.8469ZM42.1361 19.0016C41.3887 19.0016 40.9115 17.7972 40.4742 17.1281C40.1535 16.6374 39.7773 15.8611 39.7773 15.1293C39.7773 14.3466 40.0115 13.752 40.4799 13.3454C40.9483 12.9286 41.5562 12.7202 42.3036 12.7202C43.0012 12.7202 43.5593 12.9439 43.9778 13.3911C44.4063 13.8282 44.6206 14.372 44.6206 15.0225C44.6206 15.7036 44.5634 16.1913 44.1041 17.1281C43.7543 17.8418 42.8536 19.0016 42.1361 19.0016Z" fill="#E91E62"/>
<path d="M59.4557 20.8164C59.6151 21.5279 60.0038 22.0819 60.6216 22.4783C61.2395 22.8747 61.8972 22.9916 62.5948 22.829C62.8578 22.5213 63.0918 21.6564 63.3141 20.835C63.8069 19.0138 64.242 17.4059 64.8072 22.5545C65.3343 27.3571 66.8087 25.9346 67.7706 25.0066C68.305 24.4909 68.6813 24.128 68.6489 25.0703C68.6489 26.351 68.1406 28.6533 68.1406 28.6533C68.1406 28.6533 67.3284 30.7421 66.7205 31.5959C66.1226 32.4498 65.3951 33.2172 64.5381 33.8982C63.6811 34.5793 62.7443 35.1485 61.7278 35.6059C60.7213 36.0633 59.6301 36.4292 58.4541 36.7037C57.7566 36.8663 57.2134 37.2627 56.8248 37.8929C56.4361 38.5231 56.3215 39.194 56.481 39.9055C56.6404 40.617 57.0291 41.171 57.6469 41.5674C58.2648 41.9639 58.9225 42.0808 59.6201 41.9181C61.105 41.5725 62.5251 41.0846 63.8804 40.4544C65.2357 39.8242 66.5262 39.0161 67.752 38.0302C68.9877 37.0442 70.054 35.9362 70.9509 34.7063C71.8478 33.4662 72.5603 32.0178 73.0885 30.3609C73.8837 28.6156 74.1915 26.8375 73.8808 25.0703C73.8808 23.9826 73.6914 22.9916 73.3127 22.0971C72.944 21.1925 72.4557 20.4454 71.8478 19.8558C71.2499 19.2663 70.5473 18.7682 69.7401 18.3616C68.9428 17.955 68.1307 17.6653 67.3035 17.4925C66.4764 17.3096 65.6443 17.2181 64.8072 17.2181C63.6711 17.2181 62.545 17.3502 61.4288 17.6145C60.7313 17.7771 60.1881 18.1736 59.7995 18.8038C59.4108 19.434 59.2962 20.1048 59.4557 20.8164Z" fill="#E91E62"/>
<path d="M47.0582 44.2104C47.0582 44.2104 40.2356 47.0653 39.9732 41.9181C44.9589 39.8388 45.0027 39.8598 47.3206 37.7868C48.4321 36.7927 48.6326 35.7794 48.9825 35.1637C49.7697 33.5936 50.1633 32.5676 51.042 29.5574C51.7496 26.2742 52.1033 22.1016 52.1033 17.0396C52.1033 16.0537 52.0884 14.9966 52.0585 13.8683C52.0386 13.1466 55.4366 3.16564 55.6553 2.54112C56.2676 1.51513 56.0052 1.91658 56.3551 1.38128C56.7487 0.89059 57.1827 0.818276 57.7108 1.33667C58.249 1.8449 58.1225 1.86404 58.1425 2.58573C58.1723 3.7445 57.3352 15.9825 57.3352 17.0396C57.3352 22.5387 56.9416 27.0975 56.1543 30.7161C55.387 34.2229 54.3618 38.8128 52.2188 40.8356L49.9009 42.6491L47.0582 44.2104Z" fill="#E91E62"/>
</svg>
