<svg width="222" height="180" viewBox="0 0 222 180" fill="none" xmlns="http://www.w3.org/2000/svg">
<g clip-path="url(#clip0_385_59)">
<path d="M105.658 174.742C134.733 174.742 158.303 173.9 158.303 172.862C158.303 171.823 134.733 170.981 105.658 170.981C76.5834 170.981 53.0137 171.823 53.0137 172.862C53.0137 173.9 76.5834 174.742 105.658 174.742Z" fill="#3F3D56"/>
<path d="M81.1174 88.8507C91.5208 88.8507 99.9545 80.4171 99.9545 70.0136C99.9545 59.6102 91.5208 51.1765 81.1174 51.1765C70.7139 51.1765 62.2803 59.6102 62.2803 70.0136C62.2803 80.4171 70.7139 88.8507 81.1174 88.8507Z" fill="#FF6584"/>
<path d="M58.9234 167.93C67.6917 167.93 74.7998 167.274 74.7998 166.466C74.7998 165.658 67.6917 165.003 58.9234 165.003C50.1552 165.003 43.0471 165.658 43.0471 166.466C43.0471 167.274 50.1552 167.93 58.9234 167.93Z" fill="#3F3D56"/>
<path d="M87.8466 172.99C87.8466 172.99 101.024 137.852 93.7594 116.228C86.4951 94.604 80.7513 95.4487 80.7513 95.4487C80.7513 95.4487 70.953 92.9147 58.7897 100.348C46.6263 107.781 43.4165 109.977 36.4901 106.936C29.5638 103.895 28.2123 99.1653 11.3187 99.6721C11.3187 99.6721 20.2723 94.773 29.057 99.1653C37.8416 103.558 43.7544 105.923 52.708 99.1653C61.6616 92.4079 73.9939 83.6232 85.9883 88.8602C85.9883 88.8602 77.2036 80.2445 74.3317 80.2445C71.4598 80.2445 57.945 78.893 53.5526 74.3317C53.5526 74.3317 47.302 69.9394 36.1523 80.7513C25.0025 91.5632 27.7055 91.5632 17.7383 90.7185C7.77105 89.8738 0 84.9747 0 84.9747C0 84.9747 11.6566 89.7049 18.7519 87.3398C25.8472 84.9747 31.9289 76.0211 38.1795 72.9803C44.4301 69.9394 48.1467 65.8849 56.5935 70.2773C56.5935 70.2773 53.0458 55.7488 46.2884 56.9314C39.531 58.1139 49.4982 53.5526 49.4982 53.5526C49.4982 53.5526 47.6399 28.888 44.0922 27.1987C40.5446 25.5093 42.7407 21.117 36.1523 20.2723C36.1523 20.2723 44.2612 19.2587 45.7816 24.8336C47.302 30.4084 57.776 60.479 57.776 60.479C57.776 60.479 64.1956 73.3181 71.2909 70.2773C78.3862 67.2364 68.5879 50.1739 68.5879 50.1739L56.4246 44.599C56.4246 44.599 65.5471 44.2612 71.122 49.4982C76.6968 54.7352 77.0347 71.6288 77.0347 71.6288C77.0347 71.6288 91.0564 73.656 94.4351 81.2581C94.4351 81.2581 96.6313 74.5007 92.4079 70.4462C91.352 69.4326 90.2434 67.6693 89.1743 65.5946C85.0861 57.6603 83.6992 48.616 84.9853 39.7836C85.6146 35.4614 86.002 31.2353 85.3126 30.2395C83.7921 28.0433 77.3726 14.5285 76.8658 10.9808C76.359 7.43317 77.3726 0 77.3726 0C77.3726 0 77.5415 9.12253 79.5687 11.9944C81.596 14.8663 87.3398 29.057 87.3398 29.057C87.3398 29.057 87.3398 46.9641 92.07 55.7488C96.8002 64.5335 105.923 74.3317 105.416 80.7513V84.4679C105.416 84.4679 115.552 74.8385 114.876 71.6288C114.201 68.419 113.356 60.8169 106.936 56.2556C100.517 51.6943 96.2934 44.4301 100.855 33.9561C105.416 23.4821 105.416 21.6238 105.416 21.6238L102.375 34.6318C102.375 34.6318 100.686 46.2884 105.416 50.3429C110.146 54.3973 116.397 61.8305 116.397 61.8305L115.045 37.5037L119.438 47.1331C119.438 47.1331 128.898 34.9697 140.048 30.9152C151.198 26.8608 158.124 12.6702 158.124 12.6702L167.584 5.237L159.813 14.5285C159.813 14.5285 157.448 25.5093 144.102 33.2803C130.756 41.0514 122.141 52.539 121.634 59.6343C121.127 66.7296 120.62 72.9802 120.62 72.9802C120.62 72.9802 145.623 72.1356 151.198 61.1547C156.772 50.1739 157.279 28.3812 162.685 24.8336C168.091 21.2859 178.227 16.8936 178.227 16.8936L166.909 26.185C166.909 26.185 164.543 33.7872 165.05 39.1931C165.557 44.599 161.334 49.6671 161.334 49.6671L158.124 59.1275L154.576 67.2364C154.576 67.2364 169.105 67.5743 176.707 76.19C184.309 84.8058 203.23 87.3398 203.23 87.3398L192.587 90.2117C192.587 90.2117 182.451 86.833 172.821 80.5824C163.192 74.3317 164.206 68.7569 152.211 75.0075C140.217 81.2581 123.83 86.4951 123.83 86.4951C123.83 86.4951 133.29 82.1028 150.353 92.7457C167.415 103.389 141.906 90.8874 134.304 94.9419C126.702 98.9964 123.154 93.9283 120.113 104.064C117.072 114.201 111.498 141.906 117.917 157.448L124.337 172.99H87.8466Z" fill="#3F3D56"/>
<path opacity="0.1" d="M151.454 61.1547C146.925 70.0759 129.572 72.3067 123.222 72.8297C123.044 75.1199 122.927 76.5681 122.927 76.5681C122.927 76.5681 147.929 75.7235 153.504 64.7426C159.079 53.7618 159.586 31.9691 164.992 28.4214C165.565 28.0452 166.192 27.6594 166.854 27.2704C167.04 26.5886 167.165 26.185 167.165 26.185L178.484 16.8936C178.484 16.8936 168.348 21.2859 162.942 24.8335C157.536 28.3812 157.029 50.1739 151.454 61.1547Z" fill="black"/>
<path opacity="0.1" d="M122.321 44.0879C122.284 48.2472 121.744 50.721 121.744 50.721C121.744 50.721 131.201 38.5629 142.347 34.5058C143.006 34.0891 143.674 33.6787 144.358 33.2804C157.704 25.5094 160.07 14.5285 160.07 14.5285L167.841 5.23706L158.38 12.6702C158.38 12.6702 151.454 26.8608 140.304 30.9153C132.704 33.679 125.89 40.2094 122.321 44.0879Z" fill="black"/>
<path opacity="0.1" d="M107.722 84.3392V88.0558C107.722 88.0558 117.859 78.4265 117.183 75.2167C116.666 72.762 116.047 67.7393 112.915 63.4714C114.327 66.6967 114.757 69.8428 115.133 71.6288C115.617 73.9305 110.542 79.533 107.632 82.5189C107.734 83.1199 107.764 83.731 107.722 84.3392Z" fill="black"/>
<path opacity="0.1" d="M94.1257 58.834C94.206 59.0052 94.2888 59.1737 94.3765 59.3366C96.9671 64.1477 100.873 69.2618 103.795 73.9594C101.433 69.3073 97.3231 63.9875 94.1257 58.834Z" fill="black"/>
<path opacity="0.1" d="M102.362 51.6419C100.999 48.3039 100.775 44.3321 102.34 39.6779C102.321 37.9911 102.418 36.3051 102.631 34.6318L105.291 23.2527C104.801 24.8937 103.679 28.0594 101.111 33.9561C97.8601 41.4211 99.0733 47.2543 102.362 51.6419Z" fill="black"/>
<path opacity="0.1" d="M176.963 76.1901C171.691 70.215 163.089 68.2217 158.311 67.5608L156.883 70.8244C156.883 70.8244 171.411 71.1623 179.013 79.778C183.229 84.5558 190.925 87.4626 196.945 89.1049L203.486 87.3399C203.486 87.3399 184.565 84.8058 176.963 76.1901Z" fill="black"/>
<path opacity="0.1" d="M73.5975 73.8651C80.6928 70.8243 70.8945 53.7618 70.8945 53.7618L70.6265 53.6389C73.0693 58.7928 76.612 68.1066 71.5473 70.2772C66.808 72.3083 62.3709 67.2551 59.9463 63.6749C60.0343 63.9281 60.0827 64.0669 60.0827 64.0669C60.0827 64.0669 66.5022 76.906 73.5975 73.8651Z" fill="black"/>
<path opacity="0.1" d="M96.7416 84.8459C96.7416 84.8459 98.8796 78.2558 94.8632 74.1869C95.8481 77.6922 94.6914 81.258 94.6914 81.258C92.0777 75.3772 83.0967 72.833 79.1628 71.9822C79.3154 73.9401 79.3412 75.2166 79.3412 75.2166C79.3412 75.2166 93.3629 77.2438 96.7416 84.8459Z" fill="black"/>
<path opacity="0.1" d="M105.292 23.2527C105.672 21.9789 105.672 21.6238 105.672 21.6238L105.292 23.2527Z" fill="black"/>
<path opacity="0.1" d="M20.9559 90.9601C20.99 90.9491 21.0246 90.9391 21.0585 90.9278C28.1538 88.5627 34.2354 79.6091 40.4861 76.5683C46.7367 73.5275 50.4533 69.473 58.9001 73.8653C58.9001 73.8653 57.4223 67.8165 54.5587 63.8425C55.5072 65.9171 56.2738 68.0702 56.8498 70.2774C48.403 65.8851 44.6864 69.9395 38.4358 72.9804C32.1852 76.0212 26.1035 84.9748 19.0082 87.3399C11.9129 89.705 0.256348 84.9748 0.256348 84.9748C0.256348 84.9748 8.02739 89.874 17.9946 90.7186C19.1348 90.8152 20.1077 90.9005 20.9559 90.9601Z" fill="black"/>
<path opacity="0.1" d="M91.3872 172.99C94.4825 163.501 101.927 137.262 96.0658 119.816C93.5347 112.281 91.1887 107.477 89.2055 104.412C90.6886 107.313 92.3102 111.151 94.0156 116.228C101.28 137.852 88.1028 172.99 88.1028 172.99H91.3872Z" fill="black"/>
<path opacity="0.1" d="M25.413 101.031C27.4842 101.241 29.5002 101.825 31.3634 102.753C38.3013 106.222 43.4489 108.422 49.7168 105.867C51.1446 105.113 52.7417 104.179 54.5835 103.068C54.7271 102.963 54.8693 102.863 55.0145 102.753C63.968 95.9958 76.3004 87.2111 88.2948 92.4481C88.2948 92.4481 85.8707 90.0713 83.1533 87.8143C72.1596 85.1174 61.1499 92.9874 52.9642 99.1653C44.0106 105.923 38.0979 103.558 29.3132 99.1653C20.5285 94.773 11.575 99.6721 11.575 99.6721C18.1022 99.4762 22.3082 100.063 25.413 101.031Z" fill="black"/>
<path opacity="0.1" d="M42.5605 25.5586C42.7532 25.8831 42.9867 26.1816 43.2553 26.4468C43.058 26.1254 42.825 25.8274 42.5605 25.5586Z" fill="black"/>
<path opacity="0.1" d="M73.4286 53.0862C73.6897 53.3331 73.9343 53.5969 74.161 53.8758C73.4209 52.0969 72.5071 50.5586 71.3783 49.4983C65.8035 44.2613 56.6809 44.5991 56.6809 44.5991L68.1215 49.8427C70.0819 50.5741 71.8836 51.6752 73.4286 53.0862Z" fill="black"/>
<path opacity="0.1" d="M85.5689 30.2395C86.2583 31.2353 85.871 35.4614 85.2416 39.7836C83.9555 48.616 85.3424 57.6604 89.4307 65.5946C89.9689 66.6594 90.5699 67.6912 91.2307 68.6846C87.3378 60.8709 86.0325 52.02 87.2919 43.3715C87.9212 39.0494 88.3086 34.8232 87.6191 33.8274C86.0987 31.6313 79.6792 18.1164 79.1724 14.5687C79.0204 13.1924 78.985 11.8057 79.0665 10.4234C77.7543 6.70008 77.6289 0 77.6289 0C77.6289 0 76.6153 7.43319 77.1221 10.9808C77.6289 14.5285 84.0485 28.0433 85.5689 30.2395Z" fill="black"/>
<path opacity="0.1" d="M101.418 6.88484C101.35 6.55094 101.247 6.22513 101.111 5.91284C101.111 5.91284 101.241 6.27744 101.418 6.88484Z" fill="black"/>
<path opacity="0.1" d="M41.7487 23.8988C43.2375 24.081 44.9502 24.5378 46.2565 25.5973C46.1713 25.309 46.097 25.0507 46.0378 24.8335C44.5174 19.2587 36.4084 20.2723 36.4084 20.2723C40.073 20.7421 41.0195 22.3095 41.7487 23.8988Z" fill="black"/>
<path d="M83.737 165.772C84.9415 170.225 89.0672 172.982 89.0672 172.982C89.0672 172.982 91.24 168.521 90.0355 164.068C88.831 159.616 84.7053 156.858 84.7053 156.858C84.7053 156.858 82.5325 161.32 83.737 165.772Z" fill="#3F3D56"/>
<path d="M85.507 164.815C88.8122 168.033 89.2159 172.979 89.2159 172.979C89.2159 172.979 84.2609 172.708 80.9557 169.491C77.6505 166.273 77.2468 161.327 77.2468 161.327C77.2468 161.327 82.2019 161.598 85.507 164.815Z" fill="#F50057"/>
<path d="M74.5523 44.0921C74.2649 48.6958 70.7759 52.2245 70.7759 52.2245C70.7759 52.2245 67.7527 48.2893 68.04 43.6856C68.3273 39.082 71.8164 35.5532 71.8164 35.5532C71.8164 35.5532 74.8396 39.4885 74.5523 44.0921Z" fill="#F50057"/>
<path d="M38.1821 14.9885C42.084 17.4485 43.5072 22.2025 43.5072 22.2025C43.5072 22.2025 38.6041 22.968 34.7023 20.508C30.8004 18.048 29.3772 13.2941 29.3772 13.2941C29.3772 13.2941 34.2802 12.5285 38.1821 14.9885Z" fill="#F50057"/>
<path d="M29.4685 71.1137C33.3704 73.5737 34.7935 78.3277 34.7935 78.3277C34.7935 78.3277 29.8905 79.0932 25.9886 76.6333C22.0868 74.1733 20.6636 69.4193 20.6636 69.4193C20.6636 69.4193 25.5666 68.6538 29.4685 71.1137Z" fill="#F50057"/>
<path d="M50.2273 92.6413C54.1292 95.1013 55.5523 99.8553 55.5523 99.8553C55.5523 99.8553 50.6493 100.621 46.7474 98.1609C42.8455 95.7009 41.4224 90.9469 41.4224 90.9469C41.4224 90.9469 46.3254 90.1814 50.2273 92.6413Z" fill="#F50057"/>
<path d="M108.792 23.1937C107.615 27.6537 103.507 30.437 103.507 30.437C103.507 30.437 101.306 25.9892 102.483 21.5292C103.66 17.0692 107.768 14.2859 107.768 14.2859C107.768 14.2859 109.969 18.7337 108.792 23.1937Z" fill="#F50057"/>
<path d="M145.911 26.6712C144.527 31.0715 140.294 33.6606 140.294 33.6606C140.294 33.6606 138.303 29.1151 139.686 24.7148C141.069 20.3144 145.302 17.7253 145.302 17.7253C145.302 17.7253 147.294 22.2708 145.911 26.6712Z" fill="#F50057"/>
<path d="M186.03 75.6454C183.524 79.5184 178.754 80.8861 178.754 80.8861C178.754 80.8861 178.046 75.9745 180.551 72.1015C183.056 68.2286 187.826 66.8608 187.826 66.8608C187.826 66.8608 188.535 71.7724 186.03 75.6454Z" fill="#F50057"/>
<path d="M123.046 107.314C123.046 107.314 122.644 108.79 123.448 109.327C124.253 109.863 124.521 112.412 124.521 112.412L122.912 116.838L118.619 117.643L117.01 114.558V109.997C117.01 109.997 117.546 107.717 117.412 107.046C117.278 106.376 123.046 107.314 123.046 107.314Z" fill="#FFB9B9"/>
<path opacity="0.2" d="M123.046 107.314C123.046 107.314 122.644 108.79 123.448 109.327C124.253 109.863 124.521 112.412 124.521 112.412L122.912 116.838L118.619 117.643L117.01 114.558V109.997C117.01 109.997 117.546 107.717 117.412 107.046C117.278 106.376 123.046 107.314 123.046 107.314Z" fill="black"/>
<path d="M127.338 132.667L130.826 133.337C130.826 133.337 131.094 137.227 130.826 138.166C130.558 139.105 130.289 140.178 130.558 140.446C130.826 140.715 129.35 147.556 129.485 147.958C129.619 148.361 129.887 149.568 129.753 150.373C129.619 151.177 129.216 150.909 129.485 151.714C129.753 152.519 130.021 152.653 129.753 153.19C129.485 153.726 128.143 166.737 127.741 166.872C127.338 167.006 123.717 167.14 123.717 166.872C123.717 166.603 124.924 164.591 124.521 164.055C124.119 163.518 124.656 154.397 124.656 153.994C124.656 153.592 125.46 152.921 125.058 152.653C124.656 152.385 124.387 152.116 124.521 151.714C124.656 151.312 124.924 151.177 124.656 150.775C124.387 150.373 124.387 142.324 123.448 142.056C123.448 142.056 122.241 147.958 122.644 149.434C123.046 150.909 122.509 151.446 122.509 151.446L124.387 153.055L121.839 157.884L119.156 154.799C119.156 154.799 119.156 153.994 118.619 153.86C118.083 153.726 117.815 153.592 117.815 153.19C117.815 152.787 116.876 150.239 116.876 150.239C116.876 150.239 114.193 141.788 115.534 137.495C116.876 133.203 117.392 133.345 117.392 133.345L127.338 132.667Z" fill="#2F2E41"/>
<path d="M129.485 160.433L130.96 162.043L130.424 166.469H129.216L127.338 162.311L129.485 160.433Z" fill="#FFB9B9"/>
<path d="M130.424 163.384C130.424 163.384 129.887 164.591 129.485 164.323C129.082 164.055 128.949 163.652 128.345 163.652C127.741 163.652 127.204 163.787 127.338 164.055C127.473 164.323 129.082 167.274 129.082 167.274C129.318 167.778 129.441 168.327 129.441 168.884C129.441 169.44 129.318 169.99 129.082 170.493C128.277 172.237 131.228 173.176 131.765 171.298C132.301 169.42 132.436 167.274 132.301 166.469C132.167 165.665 132.972 161.506 132.972 161.506C132.972 161.506 130.805 160.507 130.145 160.47C130.145 160.47 130.692 162.848 130.424 163.384Z" fill="#2F2E41"/>
<path d="M126.802 166.335L127.338 167.945C127.338 167.945 127.338 169.554 127.875 170.359C128.412 171.164 128.948 172.908 126.802 173.042C124.656 173.176 123.717 172.371 123.717 172.371C123.717 172.371 124.119 171.298 123.717 170.896C123.314 170.493 123.717 169.688 123.717 169.688L124.119 166.469L126.802 166.335Z" fill="#2F2E41"/>
<path d="M123.18 152.921H124.387L130.423 160.836C130.423 160.836 129.35 163.384 127.741 163.652C127.741 163.652 127.472 163.518 126.265 162.713C125.058 161.909 121.839 157.884 121.839 157.884L121.436 155.604L123.18 152.921Z" fill="#2F2E41"/>
<path d="M120.229 109.058C122.6 109.058 124.521 107.137 124.521 104.766C124.521 102.395 122.6 100.474 120.229 100.474C117.858 100.474 115.937 102.395 115.937 104.766C115.937 107.137 117.858 109.058 120.229 109.058Z" fill="#FFB9B9"/>
<path d="M125.46 110.266L124.119 109.729C124.119 109.729 123.985 114.424 121.436 114.424C118.888 114.424 116.205 113.753 116.205 112.412C116.205 111.07 114.059 114.826 114.059 114.826C114.059 114.826 116.071 128.24 115.937 128.374C115.802 128.508 117.412 135.618 117.412 135.618C117.412 135.618 124.253 135.886 126.533 134.947C128.814 134.008 129.484 132.264 129.484 132.264L128.545 120.46L126.668 111.339L125.46 110.266Z" fill="#F50057"/>
<path d="M123.181 109.058C123.181 109.058 123.717 108.522 124.522 109.058C125.326 109.595 130.289 110.802 130.289 111.204V116.302C130.289 116.302 130.424 117.107 130.021 117.643C129.619 118.18 128.68 120.192 129.216 121.131C129.753 122.07 131.765 132.935 131.363 134.276C130.96 135.618 129.887 136.825 129.887 136.825C129.887 136.825 124.119 124.618 124.119 121.131C124.119 117.643 124.175 113.364 124.175 113.364L123.181 109.058Z" fill="#575A89"/>
<path d="M129.082 111.339H130.289C130.289 111.339 134.85 120.058 134.85 121.801C134.85 123.545 131.899 133.203 131.631 133.337C131.362 133.471 130.558 131.862 130.558 131.862L129.887 126.496C129.887 126.496 131.228 123.277 130.826 122.74C130.423 122.204 128.411 118.046 128.411 118.046L129.082 111.339Z" fill="#575A89"/>
<path d="M117.208 109.058C117.208 109.058 115.668 110.131 115.4 110.534C115.132 110.936 111.108 113.217 110.974 113.753C110.839 114.29 114.059 118.85 114.059 118.85C114.059 118.85 115.4 126.362 115.4 126.899C115.4 127.435 115.937 136.557 115.937 136.557C115.937 136.557 121.436 138.166 121.436 137.227C121.436 136.288 121.57 122.875 120.766 119.923C119.961 116.972 117.208 109.058 117.208 109.058Z" fill="#575A89"/>
<path d="M118.083 136.825C118.083 136.825 122.643 142.995 120.229 142.861C117.814 142.727 116.205 137.496 116.205 137.496L118.083 136.825Z" fill="#FFB9B9"/>
<path d="M112.583 113.351L110.973 113.753C110.973 113.753 109.632 125.557 110.437 127.167C111.242 128.777 115.534 139.239 115.534 138.837C115.534 138.435 119.31 137.717 119.166 137.338C119.022 136.959 118.217 135.349 117.949 134.813C117.68 134.276 117.278 133.606 117.412 132.935C117.546 132.264 115.936 129.393 115.936 129.393C115.936 129.393 115.534 127.704 115.4 126.899C115.266 126.094 114.059 117.241 114.059 117.241L112.583 113.351Z" fill="#575A89"/>
<path d="M124.438 101.443C124.356 101.191 124.182 100.978 123.952 100.846C123.964 100.58 123.929 100.313 123.849 100.059C123.582 99.3154 122.949 99.358 122.352 99.0293C122.093 98.8867 122.109 98.7606 121.974 98.5264C121.793 98.2151 121.528 97.9609 121.21 97.7926C120.842 97.5311 120.416 97.3613 119.969 97.2971C119.017 97.236 118.286 98.0793 117.376 98.3499C116.975 98.4692 116.543 98.4741 116.14 98.5869C115.737 98.6997 115.334 98.969 115.274 99.361C115.246 99.542 115.295 99.7277 115.267 99.9086C115.211 100.268 114.876 100.52 114.651 100.816C114.155 101.47 114.212 102.394 114.609 103.106C114.693 103.254 114.788 103.395 114.895 103.527C114.929 103.865 115.031 104.193 115.197 104.49C115.594 105.202 116.277 105.733 116.99 106.175C116.932 105.94 116.896 105.699 116.884 105.457C116.874 105.376 116.885 105.294 116.917 105.219C116.996 105.062 117.206 105.021 117.366 104.935C117.519 104.835 117.642 104.696 117.725 104.533C117.808 104.371 117.846 104.189 117.837 104.007C117.847 103.648 117.766 103.289 117.806 102.932C117.808 102.848 117.828 102.767 117.865 102.692C117.902 102.617 117.955 102.552 118.02 102.5C118.143 102.434 118.282 102.402 118.422 102.409C119.101 102.383 119.811 102.371 120.41 102.069C120.605 101.948 120.812 101.849 121.029 101.774C121.538 101.649 122.058 101.985 122.352 102.396C122.645 102.807 122.792 103.297 123.062 103.721C123.333 104.146 123.801 104.525 124.324 104.474C124.353 104.475 124.382 104.469 124.409 104.458C124.436 104.446 124.46 104.43 124.481 104.409C124.503 104.371 124.513 104.327 124.509 104.284L124.539 102.4C124.563 102.078 124.529 101.754 124.438 101.443Z" fill="#2F2E41"/>
<path d="M195.609 179.206C210.184 179.206 222 178.364 222 177.326C222 176.288 210.184 175.446 195.609 175.446C181.034 175.446 169.219 176.288 169.219 177.326C169.219 178.364 181.034 179.206 195.609 179.206Z" fill="#3F3D56"/>
<path d="M186.372 172.919C186.372 172.919 184.119 174.817 182.933 174.698C181.747 174.58 179.494 174.58 180.443 175.884C181.392 177.188 185.305 177.9 186.965 178.018C188.625 178.137 192.301 178.256 192.064 177.544C191.827 176.833 191.59 173.512 190.641 173.275C189.692 173.038 186.372 172.919 186.372 172.919Z" fill="#575A89"/>
<path d="M199.304 171.057C199.304 171.057 197.643 173.49 196.469 173.694C195.295 173.899 193.125 174.504 194.389 175.506C195.654 176.507 199.614 176.141 201.245 175.809C202.876 175.477 206.449 174.603 206.029 173.982C205.609 173.36 204.488 170.226 203.511 170.252C202.534 170.279 199.304 171.057 199.304 171.057Z" fill="#575A89"/>
<path d="M185.053 136.261C185.053 136.261 183.526 146.713 183.882 148.61C184.238 150.508 184.475 153.472 184.475 153.472C184.475 153.472 184.238 155.962 184.475 157.148C184.712 158.334 186.135 169.599 186.135 169.836C186.135 170.074 185.898 170.785 186.135 171.378C186.372 171.971 186.847 171.497 186.135 172.445C185.424 173.394 185.898 173.631 186.017 173.631C186.135 173.631 190.76 174.105 190.997 173.631C191.234 173.157 190.878 173.038 190.997 172.445C191.116 171.852 191.234 171.734 191.471 171.615C191.708 171.497 192.183 171.734 191.827 171.141C191.471 170.548 190.641 169.836 190.878 169.481C191.116 169.125 190.76 166.516 190.76 166.516C190.76 166.516 190.523 160.706 190.404 157.148C190.286 153.591 191.471 149.915 191.471 149.915C191.619 152.826 192.7 155.611 194.554 157.86C197.638 161.536 199.179 168.413 199.179 168.413C199.179 168.413 199.891 169.481 199.535 170.429C199.179 171.378 198.112 170.785 199.179 171.378C200.246 171.971 203.922 171.141 204.278 170.785C204.634 170.429 203.804 169.955 204.041 169.006C204.278 168.058 205.227 168.295 204.397 167.821C203.567 167.346 203.329 167.465 203.329 166.99C203.329 166.516 201.195 156.2 197.875 153.235L197.638 142.444C197.638 142.444 200.602 134.855 197.519 134.144C194.436 133.432 185.053 136.261 185.053 136.261Z" fill="#2F2E41"/>
<path d="M187.202 108.174C187.202 108.174 189.218 113.155 188.744 113.866C188.27 114.578 194.554 111.495 194.554 111.495C194.554 111.495 192.539 106.514 192.539 105.921C192.539 105.328 187.202 108.174 187.202 108.174Z" fill="#A0616A"/>
<path d="M188.685 109.42C191.108 109.42 193.072 107.455 193.072 105.032C193.072 102.609 191.108 100.645 188.685 100.645C186.261 100.645 184.297 102.609 184.297 105.032C184.297 107.455 186.261 109.42 188.685 109.42Z" fill="#A0616A"/>
<path d="M194.554 109.479C194.554 109.479 191.471 109.123 189.93 111.02C188.388 112.918 188.151 113.392 188.151 113.392C188.151 113.392 184.475 119.321 185.186 122.285C185.36 122.553 185.518 122.83 185.661 123.115C185.898 123.59 185.898 130.23 185.661 131.298C185.424 132.365 185.186 132.721 185.424 134.262C185.661 135.804 183.526 138.294 186.017 138.768C188.507 139.242 190.404 138.887 191.234 137.82C192.064 136.752 191.353 136.041 193.961 136.041C195.559 136.013 197.086 135.377 198.23 134.262C198.23 134.262 196.926 132.839 197.4 132.602C197.875 132.365 197.4 131.772 197.163 131.179C196.926 130.586 196.926 130.112 197.282 130.112C197.637 130.112 197.4 129.875 197.163 129.282C196.926 128.689 201.313 118.491 198.705 115.526C196.096 112.562 194.791 110.902 194.791 110.902C194.791 110.902 195.266 109.123 194.554 109.479Z" fill="#F50057"/>
<path d="M187.795 120.744V125.961L184.001 138.531C184.001 138.531 181.51 145.053 184.001 145.053C186.491 145.053 186.357 138.828 186.357 138.828L191.708 129.4C191.708 129.4 193.843 121.93 193.606 121.337C193.368 120.744 187.795 120.744 187.795 120.744Z" fill="#A0616A"/>
<path d="M189.811 113.036C189.811 113.036 186.254 114.459 187.202 118.254C188.151 122.048 187.202 121.93 187.202 121.93C187.202 121.93 192.064 121.455 193.606 122.523L193.961 121.1C193.961 121.1 195.384 112.918 189.811 113.036Z" fill="#F50057"/>
<path d="M187.186 101.738C186.912 101.835 186.619 101.863 186.332 101.818C186.045 101.774 185.773 101.658 185.542 101.482C185.317 101.299 185.158 101.046 185.091 100.764C185.023 100.481 185.05 100.184 185.168 99.9186C185.395 99.473 185.881 99.2285 186.347 99.0462C187.374 98.6444 188.456 98.4 189.556 98.3215C190.081 98.2842 190.632 98.2901 191.1 98.5297C191.332 98.6483 191.533 98.8194 191.762 98.9422C192.184 99.168 192.675 99.2183 193.131 99.3636C193.597 99.5158 194.025 99.7663 194.386 100.098C194.747 100.43 195.033 100.836 195.224 101.288C195.348 101.595 195.434 101.915 195.482 102.243C195.618 103.14 195.523 104.057 195.205 104.906C194.7 106.252 193.639 107.429 193.58 108.865C192.931 108.394 192.69 107.545 192.17 106.935C191.783 106.484 191.255 106.177 190.671 106.065C190.51 106.055 190.355 105.999 190.225 105.902C190.134 105.794 190.077 105.662 190.061 105.522L189.617 103.425C189.527 102.999 189.413 102.534 189.062 102.274C188.844 102.135 188.596 102.047 188.339 102.019C187.726 101.912 187.106 101.856 186.485 101.85" fill="#2F2E41"/>
</g>
<defs>
<clipPath id="clip0_385_59">
<rect width="222" height="179.206" fill="white"/>
</clipPath>
</defs>
</svg>
