<svg width="60" height="90" viewBox="0 0 60 90" fill="none" xmlns="http://www.w3.org/2000/svg">
<path d="M59.7535 42.2312C59.8625 42.2895 59.9439 42.3887 59.9798 42.507C60.0158 42.6252 60.0033 42.753 59.9452 42.8621L36.6683 86.4601C36.61 86.5691 36.5108 86.6505 36.3925 86.6865C36.2742 86.7224 36.1465 86.7099 36.0374 86.6518L3.13322 69.0843C3.02422 69.026 2.94281 68.9268 2.90687 68.8085C2.87093 68.6903 2.88339 68.5626 2.94151 68.4534L26.2184 24.8554C26.2768 24.7464 26.3759 24.665 26.4942 24.629C26.6125 24.5931 26.7402 24.6056 26.8493 24.6637L59.7535 42.2312Z" fill="#3F3D56"/>
<path d="M56.6948 43.5052L35.394 83.4011L6.19157 67.8104L27.4923 27.9139L56.6948 43.5052ZM58.5452 44.493L58.5411 44.4909L58.5457 44.4932L58.5452 44.493Z" fill="white"/>
<path d="M49.3318 47.8914C49.7854 48.1336 49.882 48.8407 49.5474 49.4674C49.2128 50.0941 48.5716 50.4072 48.1179 50.165L26.7302 38.7461C26.2765 38.5039 26.1799 37.7968 26.5145 37.1702C26.8491 36.5435 27.4904 36.2303 27.944 36.4726L49.3318 47.8914Z" fill="#F50057"/>
<path d="M46.6969 52.8269C47.1505 53.0691 47.2471 53.7762 46.9125 54.4028C46.5779 55.0295 45.9367 55.3427 45.483 55.1004L24.0953 43.6816C23.6416 43.4394 23.545 42.7323 23.8796 42.1056C24.2142 41.4789 24.8555 41.1658 25.3091 41.408L46.6969 52.8269Z" fill="#F50057"/>
<path d="M44.0619 57.7627C44.5155 58.0049 44.6121 58.712 44.2775 59.3386C43.9429 59.9653 43.3017 60.2785 42.848 60.0362L21.4603 48.6174C21.0066 48.3751 20.91 47.6681 21.2446 47.0414C21.5792 46.4147 22.2205 46.1016 22.6741 46.3438L44.0619 57.7627Z" fill="#F50057"/>
<path d="M41.4265 62.6982C41.8802 62.9404 41.9767 63.6475 41.6421 64.2742C41.3075 64.9008 40.6663 65.214 40.2126 64.9718L18.8249 53.5529C18.3712 53.3107 18.2746 52.6036 18.6092 51.9769C18.9438 51.3502 19.5851 51.0371 20.0388 51.2793L41.4265 62.6982Z" fill="#F50057"/>
<path d="M38.7915 67.6338C39.2451 67.8761 39.3417 68.5831 39.0071 69.2098C38.6725 69.8365 38.0313 70.1496 37.5776 69.9074L16.1899 58.4886C15.7362 58.2464 15.6396 57.5393 15.9742 56.9126C16.3088 56.2859 16.9501 55.9728 17.4037 56.215L38.7915 67.6338Z" fill="#F50057"/>
<path d="M34.6383 23.3953L15.2586 24.5787L9.83117 8.39316L26.8293 4.80164L34.6383 23.3953Z" fill="#2F2E41"/>
<path d="M20.6614 19.3024C16.3807 19.3024 12.9106 15.8323 12.9106 11.5516C12.9106 7.27094 16.3807 3.80078 20.6614 3.80078C24.9421 3.80078 28.4122 7.27094 28.4122 11.5516C28.4122 15.8323 24.9421 19.3024 20.6614 19.3024Z" fill="#FFB8B8"/>
<path d="M0.758202 81.0357L0.707932 81.6388C10.4646 84.9983 20.9028 85.8822 31.0855 84.2112L33.964 83.6675L31.2248 77.5929L29.4292 73.611L30.0757 59.8352L30.1442 58.4096L30.2288 56.5912L29.0591 56.5843L20.7434 56.534L12.8183 56.4838L11.6098 56.4769C4.03195 65.7979 -2.22084 73.3734 0.758202 81.0357Z" fill="#2F2E41"/>
<path d="M11.724 56.3629L30.2288 58.419L30.9142 45.6256C33.0858 40.0868 31.6522 35.1432 27.1452 30.7067L26.2289 27.0799C25.9884 26.1279 25.4915 25.2601 24.7922 24.5708C24.0929 23.8816 23.218 23.3972 22.2626 23.1705C19.2336 21.4333 15.8024 20.6053 11.9525 20.7241C10.415 21.3245 9.11132 22.4034 8.23408 23.8015C7.35683 25.1997 6.9525 26.8429 7.0808 28.4885C7.87708 38.5426 9.30645 47.9542 11.724 56.3629Z" fill="#F50057"/>
<path d="M26.525 2.39411C26.525 2.39411 30.5327 3.85664 30.6357 9.17385C30.6414 10.0686 30.5219 10.9598 30.2808 11.8215C30.021 12.7987 29.8125 14.919 31.56 17.7455C32.7019 19.5801 33.7343 21.4807 34.6517 23.4372L30.1391 23.8726L29.3929 16.3919C29.0311 12.7651 28.1373 9.21134 26.7402 5.8449L26.7111 5.77463C26.7111 5.77463 24.6408 9.37286 20.7061 9.26202L22.1509 7.89636C22.1509 7.89636 17.2227 9.75224 14.5429 10.1249C14.2371 10.1674 13.9487 10.2927 13.7087 10.487C13.4688 10.6814 13.2864 10.9375 13.1813 11.2279C13.0761 11.5182 13.0522 11.8317 13.112 12.1346C13.1719 12.4376 13.3132 12.7184 13.5208 12.947C13.5366 12.9642 13.5526 12.9815 13.569 12.9988C15.2078 14.7326 18.4696 18.7623 16.4151 21.7984C14.3607 24.8346 16.0233 25.7252 16.0233 25.7252L12.9792 23.9518L11.5977 23.0691L11.566 24.1933L4.2825 23.1443C4.2825 23.1443 2.32307 22.8078 6.6734 18.1487C6.6734 18.1487 7.83889 16.3247 7.39692 14.7107C7.03096 13.4833 6.96225 12.1864 7.19643 10.9271C8.2893 5.68499 12.2898 -4.6856 26.525 2.39411Z" fill="#2F2E41"/>
<path d="M24.746 34.6595L24.9835 36.1308L27.4874 51.5651L29.0592 56.5843L29.612 58.3502L30.0757 59.8352L35.7118 77.8374L37.2581 81.4704C38.1065 81.7842 38.8357 82.3553 39.3436 83.1039C39.8515 83.8525 40.1128 84.7411 40.0909 85.6455C40.069 86.5498 39.765 87.4247 39.2214 88.1478C38.6778 88.8709 37.9218 89.4061 37.0592 89.6784C36.1965 89.9508 35.2703 89.9467 34.4101 89.6668C33.5498 89.3869 32.7986 88.8452 32.2614 88.1173C31.7242 87.3895 31.4278 86.512 31.4138 85.6075C31.3999 84.7029 31.6689 83.8166 32.1833 83.0725L21.1523 57.4113L20.7435 56.534L19.4915 53.8497L17.127 36.0097L16.9785 34.888L24.746 34.6595Z" fill="#FFB8B8"/>
<path d="M15.6079 36.4873C19.1982 35.1971 22.6424 35.06 25.8883 36.4873L24.8288 27.3045C24.8677 26.1578 24.4551 25.0416 23.6796 24.196C22.9041 23.3504 21.8277 22.8429 20.6819 22.7825C19.522 22.7215 18.3853 23.1237 17.5219 23.9008C16.6585 24.6778 16.1392 25.766 16.0781 26.9259L16.0774 26.941L15.6079 36.4873Z" fill="#F50057"/>
</svg>
