<svg width="24" height="24" viewBox="0 0 24 24" fill="none" xmlns="http://www.w3.org/2000/svg">
<path d="M6.66667 0C2.98533 0 0 2.98533 0 6.66667V17.3333C0 21.0147 2.98533 24 6.66667 24H17.3333C21.0147 24 24 21.0147 24 17.3333V6.66667C24 2.98533 21.0147 0 17.3333 0H6.66667ZM6.66667 2.66667H17.3333C19.5427 2.66667 21.3333 4.45733 21.3333 6.66667V17.3333C21.3333 19.5427 19.5427 21.3333 17.3333 21.3333H6.66667C4.45733 21.3333 2.66667 19.5427 2.66667 17.3333V6.66667C2.66667 4.45733 4.45733 2.66667 6.66667 2.66667ZM17.3333 5.33333C16.5973 5.33333 16 5.93067 16 6.66667C16 7.40267 16.5973 8 17.3333 8C18.0693 8 18.6667 7.40267 18.6667 6.66667C18.6667 5.93067 18.0693 5.33333 17.3333 5.33333ZM12 6.66667C9.05467 6.66667 6.66667 9.05467 6.66667 12C6.66667 14.9453 9.05467 17.3333 12 17.3333C14.9453 17.3333 17.3333 14.9453 17.3333 12C17.3333 9.05467 14.9453 6.66667 12 6.66667ZM12 9.33333C13.4733 9.33333 14.6667 10.5267 14.6667 12C14.6667 13.4733 13.4733 14.6667 12 14.6667C10.5267 14.6667 9.33333 13.4733 9.33333 12C9.33333 10.5267 10.5267 9.33333 12 9.33333Z" fill="#A8A8A8"/>
</svg>
