<svg width="182" height="141" viewBox="0 0 182 141" fill="none" xmlns="http://www.w3.org/2000/svg">
<path d="M181.449 132.715C181.449 132.903 181.073 133.054 180.604 133.054H0.844474C0.376078 133.054 0 132.903 0 132.715C0 132.527 0.376078 132.376 0.844474 132.376H180.604C181.073 132.376 181.449 132.527 181.449 132.715Z" fill="#D6D6E3"/>
<path d="M49.1479 32.5073C56.0938 32.5073 61.7245 26.8766 61.7245 19.9307C61.7245 12.9849 56.0938 7.35413 49.1479 7.35413C42.202 7.35413 36.5713 12.9849 36.5713 19.9307C36.5713 26.8766 42.202 32.5073 49.1479 32.5073Z" fill="#ED9DA0"/>
<path d="M55.1304 3.63648C57.9007 4.61002 59.4855 5.16733 60.9372 6.56594C63.3896 8.92879 63.7952 12.0864 64.1706 15.0207C64.4655 17.3159 64.8454 20.283 63.4996 23.6743C63.041 24.8311 60.8156 29.9867 56.557 30.6379C55.7206 30.7658 53.757 30.7994 54.3229 30.3816C59.5619 26.5144 61.7973 24.1801 61.6136 18.2198C61.5002 14.5173 55.8415 10.5182 52.4818 9.79935C51.6744 9.63445 50.841 9.64585 50.0385 9.83278C49.2359 10.0197 48.4832 10.3778 47.8319 10.8824C45.0079 13.2008 45.1281 22.7877 42.1503 24.7914C40.9254 25.6157 41.742 19.814 40.8787 20.7539C39.1762 22.6103 40.2681 25.451 40.5743 26.5355C42.026 31.6711 43.5457 27.8738 44.9618 32.2588C46.4922 36.9933 35.9094 42.1044 35.4526 43.1616C34.6587 45.0008 43.1688 51.8037 40.0533 53.3164C36.099 55.2379 32.9818 52.7355 31.1438 54.8815C30.1163 56.0799 30.6722 57.3508 28.8159 61.0812C28.21 62.299 27.9052 62.9078 27.6386 62.8862C26.3684 62.7842 24.3143 52.6242 27.6386 43.1626C29.0334 39.1917 30.3998 35.3021 34.0612 32.2592C35.9981 30.6508 37.6224 30.0722 38.0844 28.1938C38.745 25.5098 36.0024 24.3652 35.4533 20.1317C35.0774 17.2363 34.8134 13.0954 35.8366 10.441C36.802 7.93439 37.6401 5.7589 39.8335 3.78619C40.36 3.31212 44.6132 0.0911873 49.1225 0.000456751C51.1984 -0.0412793 52.7238 2.78906 55.1304 3.6349V3.63648Z" fill="#090814"/>
<path d="M141.755 131.793L107.842 131.627L104.472 123.723L116.387 122.859L114.311 114.194L137.878 111.139L115.31 103.294L117.304 102.82L153.592 108.74L151.593 122.263L148.736 129.695L141.755 131.793Z" fill="#F50057"/>
<path d="M161.103 125.495C161.103 125.495 158.857 128.236 160.64 132.381L142.707 140.159L140.986 140.519L140.193 137.052L140.723 132.675V130.283L161.103 125.495Z" fill="#D5D6DB"/>
<path d="M104.472 123.723L129.293 119.198L162.183 124.438L141.755 131.793L104.472 123.723Z" fill="#F50057"/>
<path d="M104.472 123.722C104.472 123.722 102.151 128.121 104.826 132.183L141.634 140.159C141.634 140.159 139.349 136.655 141.752 131.793L104.472 123.722Z" fill="#F50057"/>
<path opacity="0.1" d="M104.472 123.722C104.472 123.722 102.151 128.121 104.826 132.183L141.634 140.159C141.634 140.159 139.349 136.655 141.752 131.793L104.472 123.722Z" fill="black"/>
<path d="M141.634 140.159L162.183 131.39C162.183 131.39 163.332 131.638 162.589 132.479C161.846 133.32 142.03 141 142.03 141L104.826 132.183L141.634 140.159Z" fill="#F50057"/>
<path opacity="0.1" d="M141.634 140.159L162.183 131.39C162.183 131.39 163.332 131.638 162.589 132.479C161.846 133.32 142.03 141 142.03 141L104.826 132.183L141.634 140.159Z" fill="black"/>
<path opacity="0.1" d="M149.543 132.638L140.655 135.603L140.686 135.697L149.575 132.732L149.543 132.638Z" fill="black"/>
<path opacity="0.1" d="M151.323 132.343L140.652 136.401L140.687 136.494L151.358 132.436L151.323 132.343Z" fill="black"/>
<path opacity="0.1" d="M152.958 132.328L140.711 137.341L140.749 137.433L152.996 132.42L152.958 132.328Z" fill="black"/>
<path opacity="0.1" d="M154.736 131.899L140.854 138.17L140.895 138.261L154.777 131.99L154.736 131.899Z" fill="black"/>
<path opacity="0.1" d="M156.225 131.893L140.964 138.574L141.004 138.665L156.265 131.984L156.225 131.893Z" fill="black"/>
<path opacity="0.1" d="M159.498 131.346L141.195 139.251L141.234 139.342L159.537 131.437L159.498 131.346Z" fill="black"/>
<path d="M162.183 124.438C162.183 124.438 163.084 124.801 162.555 125.363C162.026 125.926 141.752 131.792 141.752 131.792L162.183 124.438Z" fill="#F50057"/>
<path d="M170.941 115.965C170.941 115.965 168.695 118.706 170.479 122.851L152.545 130.629L150.824 130.992L150.032 127.525L150.57 123.149V120.754L170.941 115.965Z" fill="#D5D6DB"/>
<path d="M114.311 114.193L139.131 109.669L172.021 114.909L151.593 122.263L114.311 114.193Z" fill="#090814"/>
<path d="M114.307 114.193C114.307 114.193 111.984 118.591 114.659 122.654L151.467 130.63C151.467 130.63 149.184 127.123 151.589 122.262L114.307 114.193Z" fill="#3A3768"/>
<path d="M114.307 114.193C114.307 114.193 111.984 118.591 114.659 122.654L151.467 130.63C151.467 130.63 149.184 127.123 151.589 122.262L139.949 119.743L114.307 114.193Z" fill="#090814"/>
<path d="M151.472 130.629L172.022 121.861C172.022 121.861 173.17 122.108 172.427 122.949C171.684 123.79 151.868 131.47 151.868 131.47L114.664 122.653L151.472 130.629Z" fill="#3A3768"/>
<path d="M151.472 130.629L172.022 121.861C172.022 121.861 173.17 122.108 172.427 122.949C171.684 123.79 151.868 131.47 151.868 131.47L114.664 122.653L151.472 130.629Z" fill="#090814"/>
<path opacity="0.1" d="M149.787 123.149C149.787 123.149 147.806 125.526 149.787 129.094V123.149Z" fill="black"/>
<path opacity="0.1" d="M159.382 123.109L150.493 126.075L150.525 126.169L159.413 123.203L159.382 123.109Z" fill="black"/>
<path opacity="0.1" d="M161.163 122.814L150.491 126.872L150.526 126.965L161.198 122.907L161.163 122.814Z" fill="black"/>
<path opacity="0.1" d="M162.797 122.798L150.55 127.811L150.587 127.903L162.834 122.89L162.797 122.798Z" fill="black"/>
<path opacity="0.1" d="M164.575 122.369L150.694 128.64L150.734 128.731L164.616 122.46L164.575 122.369Z" fill="black"/>
<path opacity="0.1" d="M166.063 122.362L150.802 129.042L150.842 129.133L166.103 122.453L166.063 122.362Z" fill="black"/>
<path opacity="0.1" d="M169.336 121.815L151.033 129.72L151.073 129.811L169.375 121.906L169.336 121.815Z" fill="black"/>
<path d="M172.022 114.908C172.022 114.908 172.922 115.271 172.394 115.833C171.866 116.394 151.594 122.262 151.594 122.262L172.022 114.908Z" fill="#3A3768"/>
<path d="M171.872 105.064C171.872 105.064 169.626 109.986 171.409 114.13L153.476 119.728L151.759 120.091L150.966 116.623L151.496 112.247V109.852L171.872 105.064Z" fill="#D5D6DB"/>
<path d="M115.245 103.292L140.066 98.7672L172.956 104.007L152.528 111.361L115.245 103.292Z" fill="#F50057"/>
<path d="M115.245 103.291C115.245 103.291 112.92 107.689 115.595 111.752L152.403 119.728C152.403 119.728 150.118 116.221 152.524 111.362L115.245 103.291Z" fill="#F50057"/>
<path opacity="0.1" d="M115.245 103.291C115.245 103.291 112.92 107.689 115.595 111.752L152.403 119.728C152.403 119.728 150.118 116.221 152.524 111.362L115.245 103.291Z" fill="black"/>
<path d="M152.407 119.727L172.956 113.139C172.956 113.139 174.105 113.386 173.362 114.227C172.619 115.068 152.803 120.569 152.803 120.569L115.599 111.752L152.407 119.727Z" fill="#F50057"/>
<path opacity="0.1" d="M152.407 119.727L172.956 113.139C172.956 113.139 174.105 113.386 173.362 114.227C172.619 115.068 152.803 120.569 152.803 120.569L115.599 111.752L152.407 119.727Z" fill="black"/>
<path opacity="0.1" d="M160.317 112.207L151.429 115.173L151.46 115.267L160.348 112.302L160.317 112.207Z" fill="black"/>
<path opacity="0.1" d="M162.098 111.913L151.427 115.971L151.462 116.063L162.133 112.005L162.098 111.913Z" fill="black"/>
<path opacity="0.1" d="M163.73 111.897L151.484 116.91L151.521 117.002L163.768 111.989L163.73 111.897Z" fill="black"/>
<path opacity="0.1" d="M165.511 111.468L151.629 117.739L151.67 117.829L165.552 111.558L165.511 111.468Z" fill="black"/>
<path opacity="0.1" d="M166.999 111.461L151.738 118.142L151.778 118.232L167.038 111.552L166.999 111.461Z" fill="black"/>
<path opacity="0.1" d="M170.272 110.915L151.969 118.82L152.008 118.911L170.311 111.006L170.272 110.915Z" fill="black"/>
<path d="M172.956 104.006C172.956 104.006 173.857 104.369 173.328 104.932C172.799 105.494 152.528 111.361 152.528 111.361L172.956 104.006Z" fill="#F50057"/>
<path opacity="0.1" d="M162.785 101.383C162.785 101.383 159.251 101.918 158.591 102.644L162.785 101.383Z" fill="black"/>
<path opacity="0.1" d="M154.288 104.864C154.645 104.595 155.026 104.359 155.425 104.157C156.004 103.844 156.567 103.501 157.11 103.128" fill="black"/>
<path d="M68.4683 84.7749C68.4683 84.7749 72.7743 96.0323 75.2227 94.9065C77.671 93.7808 77.0071 88.9964 77.4742 87.6848C77.9412 86.3733 78.4593 76.4275 78.4593 76.4275C78.4593 76.4275 78.6956 69.3915 79.1624 67.9668C79.5959 66.6581 79.9477 60.0585 80.0067 59.0199V58.882L79.5424 50.7203L76.9137 50.0646L70.8182 52.3176L69.9739 57.1386L69.6446 59.0213L69.5039 59.8233L68.4683 84.7749Z" fill="#ED9DA0"/>
<path d="M34.7945 85.2677C34.7945 85.2677 30.4885 96.5251 28.0401 95.3993C25.5917 94.2736 26.2559 89.4892 25.7886 88.1776C25.3214 86.8661 24.8035 76.9203 24.8035 76.9203C24.8035 76.9203 24.5672 69.8843 24.1003 68.4596C23.6669 67.1509 23.3151 60.5513 23.2561 59.5127V59.3748L23.7234 51.2131L26.3521 50.5574L32.448 52.8088L33.2923 57.6298L33.6216 59.5125L33.7622 60.3145L34.7945 85.2677Z" fill="#ED9DA0"/>
<path d="M33.1059 96.48C33.1059 96.48 29.8215 100.091 31.0402 100.747C32.2589 101.402 40.1418 113.693 40.1418 113.693C40.1418 113.693 66.0338 116.882 70.9179 112.097C75.8019 107.312 75.7023 98.7652 75.7023 98.7652C75.7023 98.7652 71.7782 99.6095 71.3513 99.1508C70.9244 98.6922 68.5736 96.48 68.5736 96.48C68.5736 96.48 35.3572 94.4648 33.1059 96.48Z" fill="#090814"/>
<path d="M79.7177 50.8394L71.2748 57.5939L68.7221 57.7796L67.7848 57.8477L52.0431 59.0016L35.7207 57.8078L33.2918 57.6304L30.1961 57.4052L23.7231 51.2128C23.7231 51.2128 28.305 46.3045 32.3183 42.9919C33.8999 41.6831 35.3943 40.625 36.4835 40.2085L36.6693 40.1439C37.3543 39.8767 44.0638 39.1774 44.5524 38.6269C47.7214 35.3595 44.5524 27.5693 44.5524 27.5693C44.5524 27.5693 58.5315 20.3476 56.8427 29.8208C55.154 39.294 59.8686 37.892 60.0637 37.9816L65.7547 38.1515L66.7931 38.6278L69.4413 39.8409L75.4162 42.5821C80.106 44.7408 79.7177 50.8394 79.7177 50.8394Z" fill="#ED9DA0"/>
<path opacity="0.1" d="M79.7372 59.7946H23.2556V59.6567L23.7229 51.495C23.7229 51.495 28.3048 46.5867 32.318 43.2742L67.7791 41.8678L69.4284 40.1285L75.403 42.8691C80.0944 45.0239 79.7174 51.1235 79.7174 51.1235C79.7174 51.1235 80.3591 58.1905 79.7372 59.7946Z" fill="black"/>
<path d="M79.7372 59.5131H23.2556V59.3752L23.7229 51.2135C23.7229 51.2135 28.3048 46.3052 32.318 42.9927L67.7791 41.5863L69.4284 39.847L75.403 42.5876C80.0944 44.7424 79.7174 50.842 79.7174 50.842C79.7174 50.842 80.3591 57.909 79.7372 59.5131Z" fill="#D6D6E3"/>
<path d="M66.7795 38.62L67.7225 52.9985L68.7327 57.783L69.5039 61.4417C69.5039 61.4417 71.4739 89.5854 70.9103 90.9926C70.3466 92.3999 71.1918 93.5256 71.3099 94.2741C71.4281 95.0227 71.1918 96.9028 71.2845 97.7471C71.3773 98.5913 71.2845 98.9656 69.1297 98.6646C66.9748 98.3636 63.968 97.8401 63.968 97.8401C63.968 97.8401 56.3693 98.403 53.7434 97.4658C51.1174 96.5285 46.1447 96.5258 46.1447 96.5258C46.1447 96.5258 38.6388 96.7143 36.2015 96.4331C33.7643 96.1518 32.4471 99.436 30.8543 98.496C29.2616 97.5561 32.7286 88.4601 33.8546 85.8314C34.9805 83.2027 32.3546 76.544 32.3546 76.544L35.7318 57.8082L36.4833 53.5613V40.2096L36.669 40.145C37.3541 39.8778 37.9657 39.4514 38.4532 38.9011L39.2975 52.3369L65.7525 53.2769V38.155" fill="#D6D6E3"/>
<path d="M63.8867 132.943L75.0513 133.3L73.4499 125.021L64.897 125.835L63.8867 132.943Z" fill="#ED9DA0"/>
<path d="M98.4807 113.319C97.7292 114.256 94.822 115.944 94.5405 116.507C94.259 117.07 90.789 118.759 89.0046 119.04C87.2202 119.322 81.5944 120.543 80.5614 121.199C79.8213 121.672 73.8801 123.169 69.9766 123.999C68.9193 124.25 67.8492 124.442 66.7711 124.576C65.0824 124.669 46.6033 118.384 46.6033 118.384L50.1663 114.725L50.3634 114.657C51.3709 114.317 56.0259 112.744 58.6094 111.995C61.5196 111.151 64.8968 107.68 64.8968 107.68C64.8968 107.68 69.867 105.992 70.5255 105.803C71.184 105.615 68.8368 99.2372 68.8368 99.2372C68.8368 99.2372 79.6242 97.7402 83.8459 96.4699C88.0676 95.1997 97.825 95.6706 99.6065 100.644C101.388 105.616 99.2435 112.381 98.4807 113.319Z" fill="#090814"/>
<path d="M49.3214 129.172C49.3214 129.172 47.1665 131.423 45.0069 131.237C42.8473 131.052 35.3001 131.8 35.3001 131.8C33.9322 132.346 32.6513 133.088 31.4978 134.004C29.7331 135.394 25.4949 134.707 25.4949 134.707C25.4949 134.707 26.4321 125.702 26.145 124.575C25.8578 123.449 27.9997 121.517 27.9997 121.517L30.5327 120.872L36.9494 119.229L46.144 122.417L49.3214 129.172Z" fill="#090814"/>
<path opacity="0.1" d="M69.9754 123.999C68.9181 124.249 67.848 124.442 66.7698 124.576C65.0811 124.669 46.6021 118.384 46.6021 118.384L50.165 114.725L50.3621 114.657C50.9251 115.054 51.3865 115.394 51.7158 115.653C53.2667 116.875 54.7637 115.279 55.3267 115.279C55.8897 115.279 60.7662 119.312 60.7662 119.312C60.7662 119.312 65.2692 120.345 66.0206 121.282C66.7721 122.219 69.3979 122.034 69.8651 122.689C70.0053 122.893 70.0221 123.391 69.9754 123.999Z" fill="black"/>
<path d="M35.3012 99.621C35.3012 99.621 30.7477 99.8827 28.1217 98.7767C25.4958 97.6707 16.7713 95.118 14.2384 96.9108C11.7054 98.7037 5.60673 100.288 8.42096 107.42C11.2352 114.551 12.5492 114.737 12.5492 114.737C13.42 115.39 14.1802 116.179 14.8007 117.073C15.6449 118.388 23.5253 121.388 25.4953 121.388C27.4653 121.388 30.9355 121.388 35.8127 124.765C40.69 128.142 45.1008 128.519 45.1008 128.519C45.1008 128.519 51.2932 131.052 53.2212 131.614C55.1492 132.177 63.958 134.614 66.0237 133.866C68.0894 133.117 69.4009 128.422 69.4009 128.422C69.4009 128.422 70.3382 124.201 69.8682 123.545C69.3982 122.89 66.7725 123.075 66.0237 122.139C65.275 121.203 60.7693 120.169 60.7693 120.169C60.7693 120.169 55.9032 116.133 55.3404 116.133C54.7777 116.133 53.2804 117.726 51.7296 116.507C48.6406 114.219 45.3951 112.15 42.0171 110.315C38.4534 108.438 35.3012 99.621 35.3012 99.621Z" fill="#090814"/>
<path opacity="0.1" d="M26.146 102.342C26.9568 102.177 27.7949 102.201 28.5949 102.412C29.395 102.623 30.1355 103.016 30.7587 103.561C33.0102 105.438 40.5864 109.207 40.5864 109.207" fill="black"/>
<path opacity="0.1" d="M82.439 102.224C82.439 102.224 72.4001 103.744 70.5259 105.807L82.439 102.224Z" fill="black"/>
<path d="M93.9777 133.3H93.5358C91.948 133.244 86.5702 133.075 85.5345 133.3C84.316 133.582 68.1782 133.3 68.1782 133.3L71.3331 132.645C71.3331 132.645 70.1623 128.541 70.9054 128.201C70.9054 128.201 66.6839 125.42 69.8669 123.543C73.05 121.666 76.4807 122.457 76.4807 122.457L84.4707 119.749L86.0045 119.227C86.0045 119.227 95.0095 119.697 97.4477 125.889C99.8858 132.081 93.9777 133.3 93.9777 133.3Z" fill="#090814"/>
<path d="M25.4478 51.3543L30.4291 46.8514C30.4291 46.8514 49.744 45.585 50.5434 52.1509C50.5434 52.1509 57.3908 44.3665 71.7918 46.1001L77.8848 50.9522L61.0436 58.3426L44.6781 64.0192L32.6241 58.6241L25.4478 51.3543Z" fill="#F2F2F2"/>
<path d="M23.2444 51.3544L25.4491 77.7166L48.8084 78.8902L47.7942 52.6405L47.7745 52.1986L23.2444 51.3544Z" fill="#F50057"/>
<path d="M78.9548 50.7916L54.8582 54.4052V80.8847L78.4059 77.4823L78.9548 50.7916Z" fill="#F50057"/>
<path opacity="0.3" d="M73.2725 57.2534L60.2561 58.7001L60.5403 63.1355L73.2641 61.7453L73.2725 57.2534Z" fill="white"/>
<path d="M26.7144 91.8334L28.04 95.3991C28.04 95.3991 30.01 97.0879 32.166 96.2434C34.3219 95.3989 36.2019 94.9797 37.1389 94.1579C38.0759 93.3362 39.3904 89.2075 39.3904 89.2075C39.3904 89.2075 40.7046 84.7045 42.0161 83.5788C43.3276 82.453 46.8006 66.9431 42.0161 68.4599C37.2317 69.9767 33.573 84.0488 33.573 84.0488C33.573 84.0488 32.7287 85.0788 31.51 85.1745C30.2912 85.2702 27.8513 84.986 27.3817 86.0187C26.9122 87.0515 25.3072 89.7707 26.7144 91.8334Z" fill="#ED9DA0"/>
<path d="M54.858 54.4025C53.6243 54.6805 52.3427 54.666 51.1156 54.36C49.8886 54.0541 48.7501 53.4653 47.7913 52.6407L48.8072 78.8875C48.8072 78.8875 51.1993 81.4767 54.858 80.8856V54.4025Z" fill="#F50057"/>
<path opacity="0.1" d="M54.858 54.4025C53.6243 54.6805 52.3427 54.666 51.1156 54.36C49.8886 54.0541 48.7501 53.4653 47.7913 52.6407L48.8072 78.8875C48.8072 78.8875 51.1993 81.4767 54.858 80.8856V54.4025Z" fill="black"/>
<path opacity="0.1" d="M55.4207 51.4446C55.4207 51.4446 65.2232 48.4474 67.7786 48.8695L55.4207 51.4446Z" fill="black"/>
<path opacity="0.1" d="M44.4563 50.1363C44.4563 50.1363 34.955 47.8848 33.3677 48.5235L44.4563 50.1363Z" fill="black"/>
<path opacity="0.1" d="M61.6011 51.8187C61.6011 51.8187 68.1563 49.4143 70.5255 50.5578L61.6011 51.8187Z" fill="black"/>
<path opacity="0.1" d="M58.3 112.111C59.3158 111.348 60.3969 110.677 61.531 110.104C63.2194 109.291 66.3154 107.18 66.3154 107.18" fill="black"/>
<path opacity="0.1" d="M33.3673 83.3904C33.3673 83.3904 29.2554 86.7535 28.0201 87.0491C26.7848 87.3446 26.022 89.9677 26.022 89.9677" fill="black"/>
<path d="M76.5381 91.3325L75.2266 94.9068C75.2266 94.9068 73.2566 96.5956 71.0984 95.7511C68.9401 94.9066 67.0654 94.4874 66.1254 93.6656C65.1855 92.8439 63.874 88.7152 63.874 88.7152C63.874 88.7152 62.5625 84.2122 61.2482 83.0865C59.934 81.9607 56.4638 66.4508 61.2482 67.9676C66.0327 69.4844 69.6914 83.5564 69.6914 83.5564C69.6914 83.5564 70.5356 84.5865 71.7544 84.6822C72.9731 84.7779 75.4131 84.4937 75.8826 85.5264C76.3521 86.5592 77.9445 89.2781 76.5381 91.3325Z" fill="#ED9DA0"/>
<path opacity="0.1" d="M70.7563 83.6993C70.7563 83.6993 74.3788 86.6481 75.4705 86.9076C76.5622 87.1671 77.232 89.4666 77.232 89.4666" fill="black"/>
</svg>
