<svg width="89" height="86" viewBox="0 0 89 86" fill="none" xmlns="http://www.w3.org/2000/svg">
<path d="M47.8041 85.723C25.0522 85.723 6.60821 78.4219 6.60821 69.4156C6.60821 60.4093 25.0522 53.1083 47.8041 53.1083C70.556 53.1083 89 60.4093 89 69.4156C89 78.4219 70.556 85.723 47.8041 85.723Z" fill="#D6D6E3"/>
<path d="M19.4419 16.2582C19.1701 10.4218 23.681 5.47007 29.5174 5.1982C35.3538 4.92632 40.3056 9.43726 40.5774 15.2736C40.7979 20.007 37.8724 24.1579 33.6455 25.7031L32.2316 39.2996L21.4127 31.1059C21.4127 31.1059 23.5291 28.1353 24.5851 24.8478C21.6452 23.0882 19.6133 19.9373 19.4419 16.2582Z" fill="#ED9DA0"/>
<path d="M33.4799 27.649C33.4799 27.649 40.1188 27.4182 42.2248 30.1538C44.3309 32.8894 45.6943 37.5316 45.5833 40.9738C45.4722 44.4161 37.3353 62.5371 37.3353 62.5371L7.46555 67.8671L5.69812 67.9526C2.84142 68.0908 0.386692 65.9455 0.141045 63.0961C-0.329144 57.6419 0.380051 52.1518 2.21487 46.994C4.45722 40.6907 7.68568 32.7669 10.3836 30.6471C15.0473 26.9828 23.7084 27.2049 23.7084 27.2049L23.6859 27.2225L29.0383 34.7556L33.4799 27.649Z" fill="#E91E62"/>
<path d="M68.6159 66.7794L72.4805 68.7105L53.9915 72.0744C53.9915 72.0744 51.5125 75.7309 47.2277 73.7699L24.5103 80.137L8.7426 69.255L53.9915 60.6494L68.6159 66.7794Z" fill="#090814"/>
<path d="M34.5594 62.7493C34.5594 62.7493 37.1646 59.3725 42.3856 60.6495L53.9915 58.6166L68.6159 65.1866C68.6159 65.1866 69.7036 68.0336 70.3699 68.1447C70.3699 68.1447 53.0476 70.1395 51.6596 71.8626L47.7177 72.8084C47.7177 72.8084 44.6086 72.3642 42.1657 74.0298C39.7228 75.6954 25.1765 78.8045 25.1765 78.8045L9.74754 68.7106L12.339 66.5642L34.5594 62.7493Z" fill="#D6D6E3"/>
<path d="M27.0503 74.9265L27.0949 74.9137C34.8389 72.679 46.5805 69.4171 47.1824 69.5871L47.2803 69.3884C47.1563 69.3212 46.8654 69.1648 36.8909 71.918C32.2312 73.2043 27.5811 74.5425 27.0779 74.6875L12.3931 66.4672L12.2847 66.661L27.0503 74.9265Z" fill="#090814"/>
<path d="M49.7656 70.9617L49.8161 70.8584C49.8359 70.8179 51.8554 66.8095 57.6434 66.8905C63.5258 66.9673 68.6002 65.3088 68.6508 65.292L68.5809 65.0812C68.5306 65.0978 63.489 66.7422 57.6463 66.6684C54.5512 66.6272 52.533 67.7393 51.3865 68.6793C50.3529 69.5267 49.8301 70.372 49.6703 70.6594L34.6115 62.6514L34.5072 62.8474L49.7656 70.9617Z" fill="#090814"/>
<path d="M52.0482 51.1522L57.6558 53.3208C57.6558 53.3208 53.7384 62.0034 49.5498 62.9813L45.445 57.0667L52.0482 51.1522Z" fill="#E91E62"/>
<path d="M53.3971 53.4964L40.9195 44.3051L39.365 51.3006L49.9461 58.1486C50.1398 59.6101 50.9989 61.0932 52.4184 62.1461C54.9021 63.9885 58.1516 63.8158 59.6764 61.7602C61.2011 59.7047 60.4237 56.5449 57.9399 54.7025C56.5204 53.6496 54.8519 53.2577 53.3971 53.4964Z" fill="#ED9DA0"/>
<path d="M31.3836 10.2211C31.3836 10.2211 33.5883 12.6175 36.0806 12.8092C38.5729 13.0009 39.1808 12.8092 39.1808 12.8092C39.1808 12.8092 41.5444 14.0554 39.819 15.3974L39.3397 16.2601C39.3397 16.2601 39.6813 16.8352 40.0377 16.2601L40.0107 17.1228C40.0107 17.1228 41.832 16.3559 41.832 15.0139C41.832 15.0139 43.7281 15.9725 44.4576 13.6719C44.4576 13.6719 42.9619 14.6305 42.9242 13.6719C42.9242 13.6719 45.4746 12.1382 44.8994 9.83766C44.8994 9.83766 44.8036 10.7004 44.3243 10.7962C44.3243 10.7962 45.858 7.53709 43.7491 6.09923L43.4616 7.24952C43.4616 7.24952 43.4616 5.14066 41.3527 4.37381C41.3527 4.37381 41.6403 5.33238 41.2569 5.71581C41.2569 5.71581 40.6817 3.12767 39.6273 3.22352C39.6273 3.22352 40.2024 4.37381 39.4356 4.37381C38.6687 4.37381 37.6143 1.4981 37.6143 1.4981C37.6143 1.4981 36.0806 0.635384 35.5054 0.731241C35.5054 0.731241 37.4226 1.88152 36.2723 1.88152C35.122 1.88152 34.5469 1.01881 34.5469 1.01881C34.5469 1.01881 32.6297 -0.610757 30.425 0.251955C28.2203 1.11467 28.5079 1.11467 28.5079 1.11467C28.5079 1.11467 26.6866 -0.419044 25.2487 0.443669L25.728 1.01881C25.728 1.01881 21.031 2.07324 21.031 4.27795C21.031 4.27795 18.788 6.10582 19.4302 7.92381C19.4302 7.92381 18.347 8.59151 18.5387 9.45423C18.5387 9.45423 17.1009 15.9725 18.7305 18.1772L20.0725 19.7109C20.0725 19.7109 22.0855 14.0554 22.9482 16.3559C23.8109 18.6565 25.4404 15.7808 25.4404 15.7808C25.4404 15.7808 27.6452 14.1512 27.8369 11.8507C28.0286 9.55009 31.3836 10.2211 31.3836 10.2211Z" fill="#090814"/>
<path d="M40.8086 33.5341L42.9184 31.7574L47.36 47.5251L57.6558 53.3207C57.6558 53.3207 44.9972 52.6545 49.5498 62.9812L37.0333 60.7389L38.2237 51.322L40.8086 33.5341Z" fill="#E91E62"/>
<path d="M58.2664 45.4923L59.0046 45.992L58.6355 47.8022L52.3936 65.081L50.5859 64.3257L57.2671 46.8248L58.2664 45.4923Z" fill="#090814"/>
<path d="M51.3965 64.1718L52.0482 64.4804L51.8704 65.0812C51.8704 65.0812 52.1787 66.4757 50.892 67.0881L50.3826 67.8116L50.2716 66.9233C50.2716 66.9233 50.1896 64.8625 51.3965 64.1718Z" fill="#090814"/>
<path d="M25.2761 59.8346L4.24206 60.717L3.83232 67.0681L25.5066 65.6225C26.5742 66.6392 28.1736 67.2553 29.9395 67.185C33.0296 67.0619 35.4519 64.8891 35.3501 62.3318C35.2482 59.7746 32.6607 57.8013 29.5707 57.9244C27.8047 57.9947 26.2594 58.7362 25.2761 59.8346Z" fill="#ED9DA0"/>
<path d="M28.1501 46.3037C27.7208 46.3037 27.3728 45.9557 27.3728 45.5264C27.3728 45.0971 27.7208 44.7491 28.1501 44.7491C28.5794 44.7491 28.9274 45.0971 28.9274 45.5264C28.9274 45.9557 28.5794 46.3037 28.1501 46.3037Z" fill="#090814"/>
<path d="M28.1501 55.4091C27.7208 55.4091 27.3728 55.0611 27.3728 54.6318C27.3728 54.2025 27.7208 53.8545 28.1501 53.8545C28.5794 53.8545 28.9274 54.2025 28.9274 54.6318C28.9274 55.0611 28.5794 55.4091 28.1501 55.4091Z" fill="#090814"/>
<path d="M57.6558 15.1967C57.6558 15.1967 65.5951 11.7363 70.703 15.6227C70.703 15.6227 73.7027 29.7967 76.1448 31.0377C76.1448 31.0377 56.2406 29.1069 52.3123 31.8032C52.3123 31.8032 56.7119 24.4311 57.6558 15.1967Z" fill="#D6D6E3"/>
<path d="M66.1418 28.9928L66.2614 32.0565C66.2614 32.0565 64.9289 33.278 65.4841 35.3877L66.0393 35.6098L65.8051 35.9446L66.8166 36.7202L66.0827 37.3924C66.0827 37.3924 65.0157 38.6926 66.0827 39.0389L65.7062 39.8293C65.7062 39.8293 65.1267 41.8889 66.0827 43.5241C67.0387 45.1593 68.4579 47.1476 66.0827 50.7061L66.4835 51.5996L65.9283 52.3769C65.9283 52.3769 66.2614 54.2646 67.1497 54.7087H61.5977C61.5977 54.7087 63.1523 52.9321 62.8192 52.4879C62.486 52.0438 62.1529 51.7106 62.1529 51.7106L62.9302 50.8223C62.9302 50.8223 59.5201 48.0972 62.6131 43.9633C62.6131 43.9633 63.4854 40.4956 63.0412 39.8293L62.7081 39.1631C62.7081 39.1631 63.5964 38.4969 62.8192 37.2754L61.9308 36.9423L62.9302 36.165L62.5971 35.7209L63.3744 35.1657C63.3744 35.1657 63.8185 32.6117 62.486 32.0565L62.8192 29.9468L66.1418 28.9928Z" fill="#D6D6E3"/>
<path d="M5.85559 67.9192C5.24834 67.1206 21.2831 66.4764 21.7098 65.7357C24.0141 61.7358 22.8202 58.6291 22.8202 58.6291L4.05441 54.1875L12.407 45.4923L5.55969 50.6939C1.76904 53.5735 -0.281313 58.1949 0.127546 62.9376C0.380463 65.8715 2.91506 68.0757 5.85559 67.9192Z" fill="#E91E62"/>
<path d="M60.1595 60.9116L68.629 64.9812L68.5328 65.1814L60.0633 61.1118L60.1595 60.9116Z" fill="#090814"/>
</svg>
