<svg width="114" height="81" viewBox="0 0 114 81" fill="none" xmlns="http://www.w3.org/2000/svg">
<path d="M10.7306 45.2678H9.69983V46.1268H10.7306V45.2678Z" fill="#F0F0F0"/>
<path d="M90.9706 46.1265H89.3066V45.2676H90.9706V46.1265ZM87.6426 46.1265H85.9785V45.2676H87.6426V46.1265ZM84.3145 46.1265H82.6505V45.2676H84.3145V46.1265ZM80.9865 46.1265H79.3225V45.2676H80.9865V46.1265ZM77.6583 46.1265H75.9945V45.2676H77.6585L77.6583 46.1265ZM74.3302 46.1265H72.6662V45.2676H74.3302V46.1265ZM71.0022 46.1265H69.3382V45.2676H71.0022V46.1265ZM67.6741 46.1265H66.0101V45.2676H67.6741V46.1265ZM64.3461 46.1265H62.6821V45.2676H64.3465L64.3461 46.1265ZM61.0181 46.1265H59.3541V45.2676H61.0181V46.1265ZM57.6901 46.1265H56.0261V45.2676H57.6901V46.1265ZM54.3621 46.1265H52.6981V45.2676H54.3621V46.1265ZM51.0341 46.1265H49.3701V45.2676H51.0341V46.1265ZM47.706 46.1265H46.042V45.2676H47.7066L47.706 46.1265ZM44.378 46.1265H42.714V45.2676H44.378V46.1265ZM41.05 46.1265H39.386V45.2676H41.05V46.1265ZM37.722 46.1265H36.058V45.2676H37.722V46.1265ZM34.394 46.1265H32.73V45.2676H34.394V46.1265ZM31.0659 46.1265H29.4019V45.2676H31.0666L31.0659 46.1265ZM27.7379 46.1265H26.0739V45.2676H27.7379V46.1265ZM24.4099 46.1265H22.7459V45.2676H24.4099V46.1265ZM21.0819 46.1265H19.4172V45.2676H21.0812L21.0819 46.1265ZM17.7539 46.1265H16.09V45.2676H17.7539V46.1265ZM14.426 46.1265H12.762V45.2676H14.426V46.1265Z" fill="#E6E6E6"/>
<path d="M10.7306 23.45H9.69983V24.3089H10.7306V23.45Z" fill="#F0F0F0"/>
<path d="M90.9706 24.3088H89.3066V23.4498H90.9706V24.3088ZM87.6426 24.3088H85.9785V23.4498H87.6426V24.3088ZM84.3145 24.3088H82.6505V23.4498H84.3145V24.3088ZM80.9865 24.3088H79.3225V23.4498H80.9865V24.3088ZM77.6583 24.3088H75.9945V23.4498H77.6585L77.6583 24.3088ZM74.3302 24.3088H72.6662V23.4498H74.3302V24.3088ZM71.0022 24.3088H69.3382V23.4498H71.0022V24.3088ZM67.6741 24.3088H66.0101V23.4498H67.6741V24.3088ZM64.3461 24.3088H62.6821V23.4498H64.3465L64.3461 24.3088ZM61.0181 24.3088H59.3541V23.4498H61.0181V24.3088ZM57.6901 24.3088H56.0261V23.4498H57.6901V24.3088ZM54.3621 24.3088H52.6981V23.4498H54.3621V24.3088ZM51.0341 24.3088H49.3701V23.4498H51.0341V24.3088ZM47.706 24.3088H46.042V23.4498H47.7066L47.706 24.3088ZM44.378 24.3088H42.714V23.4498H44.378V24.3088ZM41.05 24.3088H39.386V23.4498H41.05V24.3088ZM37.722 24.3088H36.058V23.4498H37.722V24.3088ZM34.394 24.3088H32.73V23.4498H34.394V24.3088ZM31.0659 24.3088H29.4019V23.4498H31.0666L31.0659 24.3088ZM27.7379 24.3088H26.0739V23.4498H27.7379V24.3088ZM24.4099 24.3088H22.7459V23.4498H24.4099V24.3088ZM21.0819 24.3088H19.4172V23.4498H21.0812L21.0819 24.3088ZM17.7539 24.3088H16.09V23.4498H17.7539V24.3088ZM14.426 24.3088H12.762V23.4498H14.426V24.3088Z" fill="#E6E6E6"/>
<path d="M10.7306 1.63208H9.69983V2.49103H10.7306V1.63208Z" fill="#F0F0F0"/>
<path d="M90.9706 2.4909H89.3066V1.63196H90.9706V2.4909ZM87.6426 2.4909H85.9785V1.63196H87.6426V2.4909ZM84.3145 2.4909H82.6505V1.63196H84.3145V2.4909ZM80.9865 2.4909H79.3225V1.63196H80.9865V2.4909ZM77.6583 2.4909H75.9945V1.63196H77.6585L77.6583 2.4909ZM74.3302 2.4909H72.6662V1.63196H74.3302V2.4909ZM71.0022 2.4909H69.3382V1.63196H71.0022V2.4909ZM67.6741 2.4909H66.0101V1.63196H67.6741V2.4909ZM64.3461 2.4909H62.6821V1.63196H64.3465L64.3461 2.4909ZM61.0181 2.4909H59.3541V1.63196H61.0181V2.4909ZM57.6901 2.4909H56.0261V1.63196H57.6901V2.4909ZM54.3621 2.4909H52.6981V1.63196H54.3621V2.4909ZM51.0341 2.4909H49.3701V1.63196H51.0341V2.4909ZM47.706 2.4909H46.042V1.63196H47.7066L47.706 2.4909ZM44.378 2.4909H42.714V1.63196H44.378V2.4909ZM41.05 2.4909H39.386V1.63196H41.05V2.4909ZM37.722 2.4909H36.058V1.63196H37.722V2.4909ZM34.394 2.4909H32.73V1.63196H34.394V2.4909ZM31.0659 2.4909H29.4019V1.63196H31.0666L31.0659 2.4909ZM27.7379 2.4909H26.0739V1.63196H27.7379V2.4909ZM24.4099 2.4909H22.7459V1.63196H24.4099V2.4909ZM21.0819 2.4909H19.4172V1.63196H21.0812L21.0819 2.4909ZM17.7539 2.4909H16.09V1.63196H17.7539V2.4909ZM14.426 2.4909H12.762V1.63196H14.426V2.4909Z" fill="#E6E6E6"/>
<path d="M36.9077 45.5254H30.7712C30.1412 45.5254 29.6305 46.0361 29.6305 46.6661V75.3076C29.6305 75.9376 30.1412 76.4483 30.7712 76.4483H36.9077C37.5377 76.4483 38.0484 75.9376 38.0484 75.3076V46.6661C38.0484 46.0361 37.5377 45.5254 36.9077 45.5254Z" fill="#090814"/>
<path d="M38.4539 45.5254H32.3173C31.6873 45.5254 31.1766 46.0361 31.1766 46.6661V75.3076C31.1766 75.9376 31.6873 76.4483 32.3173 76.4483H38.4539C39.0839 76.4483 39.5946 75.9376 39.5946 75.3076V46.6661C39.5946 46.0361 39.0839 45.5254 38.4539 45.5254Z" fill="#F50057"/>
<path d="M56.8358 23.7076H50.6993C50.0693 23.7076 49.5586 24.2184 49.5586 24.8483V75.3077C49.5586 75.9377 50.0693 76.4484 50.6993 76.4484H56.8358C57.4658 76.4484 57.9765 75.9377 57.9765 75.3077V24.8483C57.9765 24.2184 57.4658 23.7076 56.8358 23.7076Z" fill="#090814"/>
<path d="M58.382 23.7076H52.2454C51.6154 23.7076 51.1047 24.2184 51.1047 24.8483V75.3077C51.1047 75.9377 51.6154 76.4484 52.2454 76.4484H58.382C59.012 76.4484 59.5227 75.9377 59.5227 75.3077V24.8483C59.5227 24.2184 59.012 23.7076 58.382 23.7076Z" fill="#F50057"/>
<path d="M76.7639 1.88965H70.6274C69.9974 1.88965 69.4867 2.40036 69.4867 3.03035V75.3076C69.4867 75.9376 69.9974 76.4483 70.6274 76.4483H76.7639C77.3939 76.4483 77.9046 75.9376 77.9046 75.3076V3.03035C77.9046 2.40036 77.3939 1.88965 76.7639 1.88965Z" fill="#090814"/>
<path d="M78.3102 1.88965H72.1737C71.5437 1.88965 71.033 2.40036 71.033 3.03035V75.3076C71.033 75.9376 71.5437 76.4483 72.1737 76.4483H78.3102C78.9402 76.4483 79.4509 75.9376 79.4509 75.3076V3.03035C79.4509 2.40036 78.9402 1.88965 78.3102 1.88965Z" fill="#F50057"/>
<path d="M9.78577 4.12306C10.9243 4.12306 11.8473 3.20008 11.8473 2.06153C11.8473 0.922978 10.9243 0 9.78577 0C8.64722 0 7.72424 0.922978 7.72424 2.06153C7.72424 3.20008 8.64722 4.12306 9.78577 4.12306Z" fill="#F50057"/>
<path d="M9.78577 25.9409C10.9243 25.9409 11.8473 25.018 11.8473 23.8794C11.8473 22.7408 10.9243 21.8179 9.78577 21.8179C8.64722 21.8179 7.72424 22.7408 7.72424 23.8794C7.72424 25.018 8.64722 25.9409 9.78577 25.9409Z" fill="#F50057"/>
<path d="M9.78577 47.7588C10.9243 47.7588 11.8473 46.8358 11.8473 45.6973C11.8473 44.5587 10.9243 43.6357 9.78577 43.6357C8.64722 43.6357 7.72424 44.5587 7.72424 45.6973C7.72424 46.8358 8.64722 47.7588 9.78577 47.7588Z" fill="#F50057"/>
<path d="M113.981 76.2562H0V76.6412H113.981V76.2562Z" fill="#E6E6E6"/>
<path d="M93.8266 9.09766L95.205 13.0027L92.9078 17.597L89.0024 10.9353L93.8266 9.09766Z" fill="#ED9DA0"/>
<path d="M105.427 56.3041C104.671 57.3631 98.8435 63.4918 94.9452 67.5624C93.8632 68.6903 92.9306 69.662 92.2966 70.3213C91.7405 70.898 91.4146 71.2356 91.4146 71.2356L89.653 67.5509L88.8881 65.952L88.8996 65.9378L89.3797 65.3247L93.9579 59.4669L98.7654 53.3172L94.8602 45.507L99.6842 44.8179L102.891 45.0062L103.59 45.0476C103.59 45.0476 106.576 54.6962 105.427 56.3041Z" fill="#2F2E41"/>
<path d="M91.874 75.1407C91.5754 75.4392 91.0562 75.058 90.4934 74.4056C89.3288 73.0549 87.9689 70.5465 87.9689 70.5465L86.361 67.1007C86.5332 66.0715 88.1091 65.9406 88.899 65.9384C89.1678 65.9384 89.347 65.9526 89.347 65.9526L89.4802 66.1501L92.2964 70.3216C92.2964 70.3216 92.7928 74.2217 91.874 75.1407Z" fill="#090814"/>
<path opacity="0.2" d="M92.2967 70.3213C92.2967 70.3213 92.7929 74.2219 91.874 75.1408C91.5755 75.4394 91.0563 75.0581 90.4935 74.4057L89.6522 67.551L89.48 66.1498L89.3789 65.3251L93.9572 59.4673L94.9451 67.5624C93.8633 68.6903 92.9306 69.662 92.2967 70.3213Z" fill="black"/>
<path opacity="0.2" d="M95.4782 46.7426L94.8602 45.5066L99.6843 44.8176L102.891 45.0061L102.9 45.0473L95.4782 46.7426Z" fill="black"/>
<path d="M89.3471 34.9405H87.739L88.1986 50.1017L91.4145 76.2891H96.6979L94.4008 57.4525L95.5495 46.8858L103.589 45.048L101.293 34.4811L89.3471 34.9405Z" fill="#2F2E41"/>
<path d="M91.874 75.6C91.874 75.6 91.4146 78.816 91.6443 79.0456C91.874 79.2752 92.1037 79.505 92.1037 79.9644C92.1037 80.4239 94.8603 81.5724 96.2387 80.6536C97.6171 79.7347 96.6981 78.3565 96.6981 78.3565L95.3199 75.6H91.874Z" fill="#090814"/>
<path d="M90.9552 11.9691C93.112 11.9691 94.8604 10.2206 94.8604 8.06388C94.8604 5.9071 93.112 4.15869 90.9552 4.15869C88.7985 4.15869 87.05 5.9071 87.05 8.06388C87.05 10.2206 88.7985 11.9691 90.9552 11.9691Z" fill="#ED9DA0"/>
<path d="M93.2522 14.2661L90.2476 13.0593L88.4282 35.6294L101.062 36.5484L96.6979 13.3473L94.7454 11.514L93.2522 14.2661Z" fill="#E6E6E6"/>
<path d="M89.8482 12.3773L87.5097 14.2658L83.1451 16.5629L84.7531 31.0356L84.9828 39.3056C84.9828 39.3056 81.9966 46.6564 84.2937 48.4942C86.5908 50.3321 89.1177 49.6428 88.6583 45.7376C88.1989 41.8324 87.28 39.0759 91.6446 34.941C96.0092 30.8061 92.1868 11.4077 89.8482 12.3773Z" fill="#2F2E41"/>
<path d="M94.508 11.0287L97.3872 12.8882L101.292 14.9557L104.279 48.0345L97.6169 50.1021C97.6169 50.1021 93.9261 11.9257 94.508 11.0287Z" fill="#2F2E41"/>
<path d="M87.7391 38.3865C87.7391 38.3865 91.1849 43.6699 88.658 43.6699C86.131 43.6699 85.4419 39.3053 85.4419 39.3053L87.7391 38.3865Z" fill="#ED9DA0"/>
<path d="M91.1849 2.3212L90.0364 1.63208L90.2661 2.0915L89.3472 1.86179L89.5769 2.0915L88.4284 1.86179L88.8878 2.3212C88.8878 2.3212 87.0502 2.3212 86.8203 4.15887L85.6718 4.38858L86.1312 5.0777V5.76683L86.5906 6.22624V6.91537L87.05 8.06391L87.5094 6.45596C87.5094 6.45596 89.5769 6.91537 90.4956 5.0777C90.4956 5.0777 90.7253 5.76683 91.8739 5.53712L93.712 8.75318C93.712 8.75318 93.9417 7.32731 94.7457 7.12141C95.5498 6.91551 95.0904 5.0777 95.0904 5.0777C95.0904 5.0777 94.4012 4.38858 94.4012 3.92916C94.4012 3.46975 93.7121 3.01033 93.2527 3.01033C92.7933 3.01033 91.6447 2.0915 91.6447 2.0915L91.1849 2.3212Z" fill="#090814"/>
<path d="M84.9831 16.7933L83.9137 16.1592L83.1453 16.5636C83.1453 16.5636 82.2264 17.023 81.9967 18.6311C81.767 20.2392 79.4699 30.1168 79.4699 30.1168C79.4699 30.1168 79.2402 31.7247 80.3888 34.4814C81.5373 37.238 85.9019 42.0619 85.9019 42.0619L90.0369 38.6161L83.8344 31.0356L85.4423 24.8331L84.9831 16.7933Z" fill="#2F2E41"/>
<path d="M102.293 45.1658L102.285 45.1628C100.763 44.473 98.9946 43.9989 96.8781 43.7131L96.8773 43.7129C96.8261 43.6998 96.778 43.6767 96.7358 43.645C96.6936 43.6132 96.658 43.5735 96.6312 43.5279C96.6044 43.4824 96.5869 43.432 96.5797 43.3797C96.5725 43.3273 96.5756 43.2741 96.5891 43.223L97.0859 41.37C97.1133 41.2677 97.1803 41.1805 97.272 41.1275C97.3637 41.0746 97.4727 41.0603 97.575 41.0877C99.4398 41.3357 101.265 41.825 103.003 42.5431L103.004 42.5433C103.105 42.572 103.19 42.6392 103.242 42.7304C103.293 42.8216 103.307 42.9294 103.279 43.0304L102.782 44.8835C102.755 44.9857 102.688 45.0729 102.596 45.1258C102.505 45.1788 102.396 45.1931 102.293 45.1658Z" fill="white"/>
<path d="M102.293 45.1658L102.285 45.1628C100.763 44.473 98.9946 43.9989 96.8781 43.7131L96.8773 43.7129C96.8261 43.6998 96.778 43.6767 96.7358 43.645C96.6936 43.6132 96.658 43.5735 96.6312 43.5279C96.6044 43.4824 96.5869 43.432 96.5797 43.3797C96.5725 43.3273 96.5756 43.2741 96.5891 43.223L97.0859 41.37C97.1133 41.2677 97.1803 41.1805 97.272 41.1275C97.3637 41.0746 97.4727 41.0603 97.575 41.0877C99.4398 41.3357 101.265 41.825 103.003 42.5431L103.004 42.5433C103.105 42.572 103.19 42.6392 103.242 42.7304C103.293 42.8216 103.307 42.9294 103.279 43.0304L102.782 44.8835C102.755 44.9857 102.688 45.0729 102.596 45.1258C102.505 45.1788 102.396 45.1931 102.293 45.1658ZM100.236 41.7253C99.3552 41.4874 98.459 41.3099 97.554 41.1941C97.5167 41.1835 97.4778 41.1804 97.4393 41.1849C97.4009 41.1894 97.3637 41.2015 97.3299 41.2205C97.2962 41.2394 97.2665 41.2649 97.2426 41.2954C97.2188 41.3259 97.2012 41.3608 97.1909 41.3981L96.694 43.2511C96.6742 43.3256 96.6846 43.4048 96.7231 43.4716C96.7617 43.5383 96.8251 43.5871 96.8995 43.6071C99.0181 43.8924 100.795 44.3689 102.326 45.0619C102.4 45.0805 102.478 45.0692 102.544 45.0306C102.609 44.9919 102.657 44.929 102.677 44.8553L103.174 43.0023C103.194 42.9279 103.183 42.8486 103.145 42.7819C103.106 42.7152 103.043 42.6665 102.969 42.6465C102.078 42.2836 101.165 41.9759 100.236 41.7253Z" fill="#F50057"/>
<path d="M99.7606 43.7734C100.166 43.8822 100.584 43.6414 100.692 43.2356C100.801 42.8297 100.56 42.4125 100.155 42.3037C99.7488 42.1949 99.3316 42.4357 99.2228 42.8415C99.114 43.2474 99.3548 43.6646 99.7606 43.7734Z" fill="#F50057"/>
<path d="M98.1712 42.1477L97.5414 41.9788C97.4997 41.9676 97.4641 41.9402 97.4425 41.9028C97.4209 41.8654 97.415 41.8209 97.4262 41.7792L97.4825 41.5693C97.4937 41.5276 97.521 41.492 97.5584 41.4704C97.5959 41.4488 97.6403 41.4429 97.6821 41.4541L98.3119 41.6229C98.3536 41.6342 98.3892 41.6615 98.4108 41.6989C98.4324 41.7363 98.4382 41.7808 98.4271 41.8226L98.3708 42.0324C98.3596 42.0742 98.3323 42.1097 98.2948 42.1313C98.2574 42.1529 98.2129 42.1588 98.1712 42.1477Z" fill="#F50057"/>
<path d="M102.186 44.7993L101.556 44.6304C101.514 44.6192 101.479 44.5919 101.457 44.5544C101.436 44.517 101.43 44.4725 101.441 44.4308L101.497 44.2209C101.508 44.1792 101.536 44.1436 101.573 44.122C101.611 44.1005 101.655 44.0946 101.697 44.1057L102.327 44.2745C102.368 44.2858 102.404 44.3131 102.426 44.3505C102.447 44.388 102.453 44.4324 102.442 44.4742L102.386 44.6841C102.374 44.7258 102.347 44.7614 102.31 44.783C102.272 44.8046 102.228 44.8104 102.186 44.7993Z" fill="#F50057"/>
<path d="M101.603 44.1592L101.596 44.1532C100.462 42.9262 99.0175 41.8015 97.1784 40.7153L97.1776 40.7151C97.1354 40.6831 97.0999 40.643 97.0733 40.5973C97.0467 40.5515 97.0294 40.5009 97.0224 40.4483C97.0155 40.3958 97.019 40.3425 97.0328 40.2913C97.0467 40.2402 97.0705 40.1923 97.1029 40.1504L98.2811 38.6372C98.3462 38.5536 98.4417 38.4993 98.5468 38.4862C98.6519 38.4731 98.7578 38.5023 98.8414 38.5673C100.463 39.5211 101.954 40.6816 103.276 42.0196C103.358 42.085 103.411 42.1802 103.423 42.2844C103.435 42.3886 103.406 42.4934 103.341 42.5759L102.163 44.0893C102.098 44.1728 102.002 44.2271 101.897 44.2402C101.792 44.2533 101.686 44.2242 101.603 44.1592Z" fill="white"/>
<path d="M101.603 44.1592L101.596 44.1532C100.462 42.9262 99.0175 41.8015 97.1784 40.7153L97.1776 40.7151C97.1354 40.6831 97.0999 40.643 97.0733 40.5973C97.0467 40.5515 97.0294 40.5009 97.0224 40.4483C97.0155 40.3958 97.019 40.3425 97.0328 40.2913C97.0467 40.2402 97.0705 40.1923 97.1029 40.1504L98.2811 38.6372C98.3462 38.5536 98.4417 38.4993 98.5468 38.4862C98.6519 38.4731 98.7578 38.5023 98.8414 38.5673C100.463 39.5211 101.954 40.6816 103.276 42.0196C103.358 42.085 103.411 42.1802 103.423 42.2844C103.435 42.3886 103.406 42.4934 103.341 42.5759L102.163 44.0893C102.098 44.1728 102.002 44.2271 101.897 44.2402C101.792 44.2533 101.686 44.2242 101.603 44.1592ZM101.045 40.1896C100.326 39.6279 99.5696 39.1159 98.7808 38.6572C98.7507 38.6329 98.716 38.6149 98.6788 38.6041C98.6416 38.5933 98.6026 38.59 98.5641 38.5943C98.5257 38.5986 98.4884 38.6106 98.4546 38.6294C98.4207 38.6482 98.3909 38.6735 98.3669 38.7039L97.1887 40.2177C97.1414 40.2785 97.1202 40.3555 97.1296 40.432C97.139 40.5084 97.1784 40.5779 97.239 40.6254C99.0802 41.7123 100.532 42.8423 101.673 44.0761C101.734 44.122 101.811 44.1421 101.886 44.132C101.962 44.1219 102.031 44.0825 102.078 44.0222L103.255 42.5087C103.303 42.4478 103.324 42.3707 103.314 42.2943C103.305 42.2179 103.265 42.1484 103.204 42.101C102.524 41.42 101.803 40.7816 101.045 40.1894L101.045 40.1896Z" fill="#F50057"/>
<path d="M100.081 42.0258C100.487 42.1346 100.904 41.8939 101.013 41.488C101.122 41.0822 100.881 40.665 100.475 40.5562C100.069 40.4473 99.6521 40.6881 99.5433 41.094C99.4345 41.4998 99.6753 41.917 100.081 42.0258Z" fill="#F50057"/>
<path d="M98.9785 39.7757L98.4643 39.3752C98.4473 39.362 98.4332 39.3457 98.4226 39.327C98.4119 39.3084 98.4051 39.2879 98.4025 39.2666C98.3998 39.2453 98.4014 39.2237 98.4071 39.203C98.4128 39.1824 98.4225 39.163 98.4357 39.1461L98.569 38.9752C98.5956 38.9411 98.6345 38.9189 98.6774 38.9135C98.7203 38.9081 98.7636 38.92 98.7977 38.9464L99.3123 39.3469C99.3463 39.3735 99.3684 39.4125 99.3737 39.4554C99.379 39.4983 99.3671 39.5415 99.3406 39.5756L99.2072 39.7465C99.1807 39.7807 99.1418 39.803 99.0989 39.8084C99.056 39.8139 99.0127 39.8021 98.9785 39.7757Z" fill="#F50057"/>
<path d="M101.646 43.7799L101.132 43.3794C101.115 43.3662 101.101 43.3499 101.09 43.3312C101.079 43.3126 101.073 43.2921 101.07 43.2708C101.067 43.2495 101.069 43.2279 101.075 43.2072C101.08 43.1866 101.09 43.1672 101.103 43.1503L101.236 42.9793C101.263 42.9452 101.302 42.923 101.345 42.9176C101.388 42.9122 101.431 42.9241 101.465 42.9506L101.98 43.3511C102.014 43.3777 102.036 43.4167 102.041 43.4596C102.047 43.5025 102.035 43.5457 102.008 43.5798L101.875 43.7507C101.848 43.7849 101.809 43.8071 101.766 43.8126C101.724 43.8181 101.68 43.8063 101.646 43.7799Z" fill="#F50057"/>
<path d="M101.981 38.3865C101.981 38.3865 98.5355 43.6699 101.062 43.6699C103.589 43.6699 104.279 39.3053 104.279 39.3053L101.981 38.3865Z" fill="#ED9DA0"/>
<path d="M99.4545 14.9553H101.292L104.278 26.2113L105.197 40.2238L100.833 38.6159V28.5085L99.4545 14.9553Z" fill="#2F2E41"/>
</svg>
