<svg width="26" height="21" viewBox="0 0 26 21" fill="none" xmlns="http://www.w3.org/2000/svg">
<path d="M21.1697 17.4536C20.6253 17.5467 20.2595 18.0635 20.3526 18.6078C20.4456 19.1522 20.9624 19.5181 21.5068 19.425L21.1697 17.4536ZM19.6869 10.0189C19.1347 10.0189 18.6869 10.4666 18.6869 11.0189C18.6869 11.5712 19.1347 12.0189 19.6869 12.0189V10.0189ZM18.4565 6.81217V7.81217C20.257 7.81217 21.6861 6.3311 21.6861 4.54213H20.6861H19.6861C19.6861 5.26058 19.1187 5.81217 18.4565 5.81217V6.81217ZM16.2269 4.54213H15.2269C15.2269 6.3311 16.656 7.81217 18.4565 7.81217V6.81217V5.81217C17.7943 5.81217 17.2269 5.26058 17.2269 4.54213H16.2269ZM18.4565 2.2721V1.2721C16.656 1.2721 15.2269 2.75317 15.2269 4.54213H16.2269H17.2269C17.2269 3.82369 17.7943 3.2721 18.4565 3.2721V2.2721ZM20.6861 4.54213H21.6861C21.6861 2.75317 20.257 1.2721 18.4565 1.2721V2.2721V3.2721C19.1187 3.2721 19.6861 3.82368 19.6861 4.54213H20.6861ZM25 14.7941H24C24 15.4409 23.7963 15.9907 23.39 16.4246C22.9762 16.8665 22.2799 17.2638 21.1697 17.4536L21.3383 18.4393L21.5068 19.425C22.932 19.1813 24.0666 18.628 24.8498 17.7917C25.6405 16.9473 26 15.8912 26 14.7941H25ZM19.6869 11.0189V12.0189C20.9709 12.0189 22.0912 12.3903 22.8646 12.9398C23.6403 13.491 24 14.1608 24 14.7941H25H26C26 13.3425 25.1703 12.1247 24.0231 11.3095C22.8736 10.4927 21.3374 10.0189 19.6869 10.0189V11.0189ZM12.0167 4.29698H11.0167C11.0167 5.89311 9.96823 6.82737 8.85577 6.82737V7.82737V8.82737C11.2348 8.82737 13.0167 6.82841 13.0167 4.29698H12.0167ZM8.85577 7.82737V6.82737C7.74331 6.82737 6.69483 5.89311 6.69483 4.29698H5.69483H4.69483C4.69483 6.82841 6.47675 8.82737 8.85577 8.82737V7.82737ZM5.69483 4.29698H6.69483C6.69483 3.5028 6.96171 2.94406 7.32418 2.58524C7.69145 2.22166 8.22066 2 8.85577 2V1V0C7.74514 0 6.69389 0.394941 5.91712 1.16391C5.13555 1.93763 4.69483 3.02738 4.69483 4.29698H5.69483ZM8.85577 1V2C9.49088 2 10.0201 2.22166 10.3874 2.58524C10.7498 2.94407 11.0167 3.5028 11.0167 4.29698H12.0167H13.0167C13.0167 3.02738 12.576 1.93763 11.7944 1.16391C11.0177 0.39494 9.9664 0 8.85577 0V1ZM17.0937 16.1564H16.0937C16.0937 16.7577 15.7764 17.4221 14.7047 17.9909C13.5977 18.5783 11.7715 19 9.04685 19L9.04685 20L9.04685 21C11.9306 21 14.1278 20.5612 15.6422 19.7576C17.1917 18.9352 18.0937 17.6778 18.0937 16.1564H17.0937ZM9.04685 20L9.04685 19C6.32214 19 4.49595 18.5783 3.38904 17.9909C2.31726 17.4221 2 16.7577 2 16.1564H1H0C0 17.6778 0.901963 18.9352 2.4515 19.7576C3.96592 20.5612 6.16314 21 9.04685 21L9.04685 20ZM1 16.1564H2C2 15.702 2.42011 14.9942 3.78788 14.3409C5.08204 13.7227 6.9402 13.3128 9.04685 13.3128V12.3128V11.3128C6.70934 11.3128 4.54408 11.7633 2.92586 12.5362C1.38123 13.274 0 14.488 0 16.1564H1ZM9.04685 12.3128V13.3128C11.1535 13.3128 13.0117 13.7227 14.3058 14.3409C15.6736 14.9942 16.0937 15.702 16.0937 16.1564H17.0937H18.0937C18.0937 14.488 16.7125 13.274 15.1678 12.5362C13.5496 11.7633 11.3843 11.3128 9.04685 11.3128V12.3128Z" fill="white"/>
</svg>
