<svg width="103" height="86" viewBox="0 0 103 86" fill="none" xmlns="http://www.w3.org/2000/svg">
<path d="M71.8197 85.2278C71.5899 85.2276 71.3641 85.1678 71.1643 85.0543L33.2738 63.6324C32.9658 63.4578 32.7396 63.1682 32.6449 62.827C32.5502 62.4859 32.5947 62.1211 32.7685 61.8127L62.6122 9.02606C62.6985 8.87337 62.814 8.73918 62.9521 8.63114C63.0903 8.52311 63.2484 8.44336 63.4173 8.39644C63.5863 8.34952 63.7629 8.33636 63.937 8.3577C64.111 8.37905 64.2792 8.43448 64.4318 8.52083L102.322 29.9427C102.63 30.1173 102.856 30.4069 102.951 30.7481C103.046 31.0892 103.002 31.454 102.828 31.7624L72.984 84.5489C72.8981 84.7019 72.7827 84.8363 72.6445 84.9444C72.5063 85.0525 72.348 85.1321 72.1788 85.1786C72.0619 85.2112 71.9411 85.2277 71.8197 85.2278Z" fill="#E6E6E6"/>
<path d="M61.5555 11.0941L61.4032 11.3634L101.448 34.0034L101.601 33.7341L61.5555 11.0941Z" fill="white"/>
<path d="M58.8147 15.9417L58.6625 16.2111L98.7075 38.8511L98.8598 38.5817L58.8147 15.9417Z" fill="white"/>
<path d="M56.0741 20.7895L55.9219 21.0588L95.9669 43.6988L96.1192 43.4295L56.0741 20.7895Z" fill="white"/>
<path d="M53.3332 25.6371L53.1809 25.9064L93.226 48.5464L93.3782 48.2771L53.3332 25.6371Z" fill="white"/>
<path d="M50.5926 30.4847L50.4403 30.754L90.4854 53.394L90.6376 53.1247L50.5926 30.4847Z" fill="white"/>
<path d="M47.8517 35.3326L47.6995 35.6019L87.7445 58.2419L87.8968 57.9726L47.8517 35.3326Z" fill="white"/>
<path d="M45.1111 40.1804L44.9589 40.4497L85.0039 63.0897L85.1562 62.8204L45.1111 40.1804Z" fill="white"/>
<path d="M42.3705 45.0279L42.2183 45.2972L82.2633 67.9372L82.4156 67.6679L42.3705 45.0279Z" fill="white"/>
<path d="M39.6297 49.8758L39.4774 50.1451L79.5225 72.7851L79.6747 72.5158L39.6297 49.8758Z" fill="white"/>
<path d="M36.8888 54.7235L36.7366 54.9928L76.7816 77.6328L76.9339 77.3635L36.8888 54.7235Z" fill="white"/>
<path d="M34.1482 59.5715L33.996 59.8408L74.041 82.4808L74.1933 82.2115L34.1482 59.5715Z" fill="white"/>
<path d="M68.295 77.199C68.0653 77.1988 67.8395 77.139 67.6397 77.0255L29.7491 55.6036C29.4411 55.429 29.215 55.1393 29.1203 54.7982C29.0256 54.457 29.07 54.0923 29.2439 53.7839L59.0875 0.997255C59.1738 0.844566 59.2893 0.710371 59.4275 0.602339C59.5656 0.494306 59.7237 0.414551 59.8927 0.367632C60.0617 0.320713 60.2382 0.30755 60.4123 0.328893C60.5864 0.350236 60.7545 0.405669 60.9072 0.492022L98.7976 21.9139C99.1056 22.0885 99.3318 22.3781 99.4266 22.7193C99.5213 23.0604 99.4769 23.4252 99.3031 23.7336L69.4593 76.5201C69.3734 76.6731 69.258 76.8075 69.1198 76.9156C68.9816 77.0237 68.8233 77.1033 68.6542 77.1498C68.5372 77.1824 68.4164 77.1989 68.295 77.199Z" fill="#F2F2F2"/>
<path d="M58.0306 3.06552L57.8783 3.33484L97.9233 25.9748L98.0756 25.7055L58.0306 3.06552Z" fill="white"/>
<path d="M55.2901 7.91294L55.1378 8.18225L95.1829 30.8223L95.3351 30.5529L55.2901 7.91294Z" fill="white"/>
<path d="M52.5495 12.7608L52.3972 13.0302L92.4423 35.6702L92.5945 35.4008L52.5495 12.7608Z" fill="white"/>
<path d="M49.8085 17.6084L49.6562 17.8777L89.7013 40.5177L89.8536 40.2484L49.8085 17.6084Z" fill="white"/>
<path d="M47.0678 22.4563L46.9155 22.7256L86.9606 45.3656L87.1128 45.0963L47.0678 22.4563Z" fill="white"/>
<path d="M44.3272 27.3039L44.1749 27.5732L84.22 50.2132L84.3722 49.9439L44.3272 27.3039Z" fill="white"/>
<path d="M41.5863 32.1517L41.4341 32.421L81.4791 55.061L81.6314 54.7917L41.5863 32.1517Z" fill="white"/>
<path d="M38.8456 36.9994L38.6934 37.2687L78.7384 59.9087L78.8907 59.6394L38.8456 36.9994Z" fill="white"/>
<path d="M36.1047 41.8469L35.9524 42.1162L75.9974 64.7562L76.1497 64.4869L36.1047 41.8469Z" fill="white"/>
<path d="M33.3641 46.6947L33.2118 46.964L73.2568 69.604L73.4091 69.3347L33.3641 46.6947Z" fill="white"/>
<path d="M30.6235 51.5429L30.4712 51.8123L70.5162 74.4523L70.6685 74.1829L30.6235 51.5429Z" fill="white"/>
<path d="M64.5192 0H3.96411V84.2029H64.5192C64.7367 84.2029 64.9453 84.1165 65.0991 83.9627C65.2529 83.8089 65.3393 83.6003 65.3393 83.3828V0.820158C65.3393 0.60264 65.2529 0.394034 65.0991 0.240225C64.9453 0.0864169 64.7367 4.67394e-06 64.5192 0ZM7.38143 81.8792C7.08405 81.8792 6.79334 81.791 6.54606 81.6258C6.29879 81.4605 6.10607 81.2257 5.99227 80.9509C5.87846 80.6762 5.84868 80.3739 5.9067 80.0822C5.96472 79.7905 6.10792 79.5226 6.31821 79.3123C6.5285 79.102 6.79642 78.9588 7.08809 78.9008C7.37977 78.8428 7.68209 78.8726 7.95685 78.9864C8.2316 79.1002 8.46643 79.2929 8.63165 79.5402C8.79687 79.7874 8.88506 80.0781 8.88506 80.3755C8.88506 80.573 8.84617 80.7685 8.7706 80.9509C8.69504 81.1334 8.58428 81.2991 8.44466 81.4388C8.30504 81.5784 8.13928 81.6891 7.95685 81.7647C7.77442 81.8403 7.57889 81.8792 7.38143 81.8792ZM7.38143 74.2244C7.08405 74.2244 6.79334 74.1362 6.54607 73.9709C6.2988 73.8057 6.10607 73.5709 5.99227 73.2961C5.87846 73.0214 5.84869 72.719 5.9067 72.4274C5.96472 72.1357 6.10793 71.8678 6.31821 71.6575C6.5285 71.4472 6.79642 71.304 7.0881 71.246C7.37977 71.188 7.6821 71.2178 7.95685 71.3316C8.2316 71.4454 8.46643 71.6381 8.63165 71.8854C8.79687 72.1326 8.88506 72.4233 8.88506 72.7207C8.88506 72.9182 8.84617 73.1137 8.77061 73.2961C8.69504 73.4786 8.58429 73.6443 8.44466 73.7839C8.30504 73.9236 8.13928 74.0343 7.95685 74.1099C7.77442 74.1855 7.57889 74.2244 7.38143 74.2244ZM7.38143 66.5695C7.08405 66.5695 6.79334 66.4813 6.54607 66.3161C6.2988 66.1509 6.10607 65.9161 5.99227 65.6413C5.87846 65.3666 5.84869 65.0642 5.9067 64.7726C5.96472 64.4809 6.10793 64.213 6.31821 64.0027C6.5285 63.7924 6.79642 63.6492 7.0881 63.5912C7.37977 63.5332 7.6821 63.5629 7.95685 63.6767C8.2316 63.7905 8.46643 63.9833 8.63165 64.2305C8.79687 64.4778 8.88506 64.7685 8.88506 65.0659C8.88506 65.2634 8.84617 65.4589 8.7706 65.6413C8.69504 65.8237 8.58428 65.9895 8.44466 66.1291C8.30504 66.2688 8.13928 66.3795 7.95685 66.4551C7.77442 66.5306 7.57889 66.5695 7.38143 66.5695ZM7.38143 58.9147C7.08405 58.9147 6.79334 58.8265 6.54607 58.6613C6.2988 58.4961 6.10607 58.2613 5.99227 57.9865C5.87846 57.7118 5.84869 57.4094 5.9067 57.1178C5.96472 56.8261 6.10793 56.5582 6.31821 56.3479C6.5285 56.1376 6.79642 55.9944 7.0881 55.9364C7.37977 55.8783 7.6821 55.9081 7.95685 56.0219C8.2316 56.1357 8.46643 56.3285 8.63165 56.5757C8.79687 56.823 8.88506 57.1137 8.88506 57.4111C8.88506 57.6086 8.84617 57.8041 8.7706 57.9865C8.69504 58.1689 8.58428 58.3347 8.44466 58.4743C8.30504 58.6139 8.13928 58.7247 7.95685 58.8003C7.77442 58.8758 7.57889 58.9147 7.38143 58.9147ZM7.38143 51.2599C7.08405 51.2599 6.79334 51.1717 6.54607 51.0065C6.2988 50.8413 6.10607 50.6065 5.99227 50.3317C5.87846 50.0569 5.84869 49.7546 5.9067 49.4629C5.96472 49.1713 6.10793 48.9033 6.31821 48.6931C6.5285 48.4828 6.79642 48.3396 7.0881 48.2816C7.37977 48.2235 7.6821 48.2533 7.95685 48.3671C8.2316 48.4809 8.46643 48.6736 8.63165 48.9209C8.79687 49.1682 8.88506 49.4589 8.88506 49.7563C8.88506 49.9537 8.84617 50.1493 8.7706 50.3317C8.69504 50.5141 8.58428 50.6799 8.44466 50.8195C8.30504 50.9591 8.13928 51.0699 7.95685 51.1455C7.77442 51.221 7.57889 51.2599 7.38143 51.2599ZM7.38143 43.6051C7.08405 43.6051 6.79334 43.5169 6.54607 43.3517C6.2988 43.1865 6.10607 42.9516 5.99227 42.6769C5.87846 42.4021 5.84869 42.0998 5.9067 41.8081C5.96472 41.5165 6.10793 41.2485 6.31821 41.0382C6.5285 40.828 6.79642 40.6848 7.0881 40.6267C7.37977 40.5687 7.6821 40.5985 7.95685 40.7123C8.2316 40.8261 8.46643 41.0188 8.63165 41.2661C8.79687 41.5134 8.88506 41.8041 8.88506 42.1015C8.88506 42.2989 8.84617 42.4945 8.7706 42.6769C8.69504 42.8593 8.58428 43.0251 8.44466 43.1647C8.30504 43.3043 8.13928 43.4151 7.95685 43.4906C7.77442 43.5662 7.57889 43.6051 7.38143 43.6051ZM7.38143 35.9503C7.08405 35.9503 6.79334 35.8621 6.54607 35.6969C6.2988 35.5317 6.10607 35.2968 5.99227 35.0221C5.87846 34.7473 5.84869 34.445 5.9067 34.1533C5.96472 33.8616 6.10793 33.5937 6.31821 33.3834C6.5285 33.1731 6.79642 33.0299 7.0881 32.9719C7.37977 32.9139 7.6821 32.9437 7.95685 33.0575C8.2316 33.1713 8.46643 33.364 8.63165 33.6113C8.79687 33.8586 8.88506 34.1493 8.88506 34.4467C8.88506 34.6441 8.84617 34.8396 8.7706 35.0221C8.69504 35.2045 8.58428 35.3703 8.44466 35.5099C8.30504 35.6495 8.13928 35.7603 7.95685 35.8358C7.77442 35.9114 7.57889 35.9503 7.38143 35.9503ZM7.38143 28.2955C7.08405 28.2955 6.79334 28.2073 6.54607 28.0421C6.2988 27.8768 6.10607 27.642 5.99227 27.3673C5.87846 27.0925 5.84869 26.7902 5.9067 26.4985C5.96472 26.2068 6.10793 25.9389 6.31821 25.7286C6.5285 25.5183 6.79642 25.3751 7.0881 25.3171C7.37977 25.2591 7.6821 25.2889 7.95685 25.4027C8.2316 25.5165 8.46643 25.7092 8.63165 25.9565C8.79687 26.2037 8.88506 26.4945 8.88506 26.7918C8.88506 26.9893 8.84617 27.1848 8.7706 27.3673C8.69504 27.5497 8.58428 27.7154 8.44466 27.8551C8.30504 27.9947 8.13928 28.1054 7.95685 28.181C7.77442 28.2566 7.57889 28.2955 7.38143 28.2955ZM7.38143 20.6407C7.08405 20.6407 6.79334 20.5525 6.54607 20.3873C6.2988 20.222 6.10607 19.9872 5.99227 19.7124C5.87846 19.4377 5.84869 19.1354 5.9067 18.8437C5.96472 18.552 6.10793 18.2841 6.31821 18.0738C6.5285 17.8635 6.79642 17.7203 7.0881 17.6623C7.37977 17.6043 7.6821 17.6341 7.95685 17.7479C8.2316 17.8617 8.46643 18.0544 8.63165 18.3017C8.79687 18.5489 8.88506 18.8396 8.88506 19.137C8.88506 19.3345 8.84617 19.53 8.7706 19.7124C8.69504 19.8949 8.58428 20.0606 8.44466 20.2003C8.30504 20.3399 8.13928 20.4506 7.95685 20.5262C7.77442 20.6018 7.57889 20.6407 7.38143 20.6407ZM7.38143 12.9858C7.08405 12.9858 6.79334 12.8977 6.54606 12.7324C6.29879 12.5672 6.10607 12.3324 5.99227 12.0576C5.87846 11.7829 5.84868 11.4806 5.9067 11.1889C5.96472 10.8972 6.10792 10.6293 6.31821 10.419C6.5285 10.2087 6.79642 10.0655 7.08809 10.0075C7.37977 9.94947 7.68209 9.97924 7.95685 10.093C8.2316 10.2069 8.46643 10.3996 8.63165 10.6468C8.79687 10.8941 8.88506 11.1848 8.88506 11.4822C8.88506 11.6797 8.84617 11.8752 8.7706 12.0576C8.69504 12.2401 8.58428 12.4058 8.44466 12.5454C8.30504 12.6851 8.13928 12.7958 7.95685 12.8714C7.77442 12.947 7.57889 12.9858 7.38143 12.9858ZM7.38143 5.33103C7.08405 5.33103 6.79334 5.24285 6.54606 5.07763C6.29879 4.91241 6.10607 4.67757 5.99227 4.40282C5.87846 4.12807 5.84868 3.82574 5.9067 3.53406C5.96472 3.24239 6.10792 2.97447 6.31821 2.76418C6.5285 2.5539 6.79642 2.41069 7.08809 2.35267C7.37977 2.29466 7.68209 2.32443 7.95685 2.43824C8.2316 2.55204 8.46643 2.74477 8.63165 2.99204C8.79687 3.23931 8.88506 3.53002 8.88506 3.82741C8.88506 4.02487 8.84617 4.22039 8.7706 4.40282C8.69504 4.58525 8.58428 4.75101 8.44466 4.89063C8.30504 5.03026 8.13928 5.14101 7.95685 5.21658C7.77442 5.29214 7.57889 5.33103 7.38143 5.33103Z" fill="#3F3D56"/>
<path d="M3.9641 4.64782C3.55836 4.64782 0 4.62866 0 3.96435C0 3.30004 3.55836 3.28088 3.9641 3.28088V3.55427C1.86827 3.55427 0.509294 3.78888 0.290438 3.96435C0.509294 4.13982 1.86827 4.37443 3.9641 4.37443C6.05526 4.37443 7.41283 4.14081 7.63626 3.96555C7.52993 3.89047 7.09558 3.73309 5.93053 3.63237L5.95406 3.36005C7.9282 3.53065 7.9282 3.84575 7.9282 3.96435C7.9282 4.62866 4.36984 4.64782 3.9641 4.64782Z" fill="#2F2E41"/>
<path d="M3.9641 12.1658C3.55836 12.1658 0 12.1466 0 11.4823C0 10.818 3.55836 10.7988 3.9641 10.7988V11.0722C1.86827 11.0722 0.509294 11.3068 0.290438 11.4823C0.509294 11.6578 1.86827 11.8924 3.9641 11.8924C6.05526 11.8924 7.41283 11.6588 7.63626 11.4835C7.52993 11.4084 7.09558 11.251 5.93053 11.1503L5.95406 10.878C7.9282 11.0486 7.9282 11.3637 7.9282 11.4823C7.9282 12.1466 4.36984 12.1658 3.9641 12.1658Z" fill="#2F2E41"/>
<path d="M3.9641 19.8203C3.55836 19.8203 0 19.8011 0 19.1368C0 18.4725 3.55836 18.4534 3.9641 18.4534V18.7268C1.86827 18.7268 0.509294 18.9614 0.290438 19.1368C0.509294 19.3123 1.86827 19.5469 3.9641 19.5469C6.05526 19.5469 7.41283 19.3133 7.63626 19.138C7.52993 19.0629 7.09558 18.9056 5.93053 18.8048L5.95406 18.5325C7.9282 18.7031 7.9282 19.0182 7.9282 19.1368C7.9282 19.8011 4.36984 19.8203 3.9641 19.8203Z" fill="#2F2E41"/>
<path d="M3.9641 27.4753C3.55836 27.4753 0 27.4562 0 26.7919C0 26.1276 3.55836 26.1084 3.9641 26.1084V26.3818C1.86827 26.3818 0.509294 26.6164 0.290438 26.7919C0.509294 26.9673 1.86827 27.2019 3.9641 27.2019C6.05526 27.2019 7.41283 26.9683 7.63626 26.7931C7.52993 26.718 7.09558 26.5606 5.93053 26.4599L5.95406 26.1876C7.9282 26.3582 7.9282 26.6733 7.9282 26.7919C7.9282 27.4562 4.36984 27.4753 3.9641 27.4753Z" fill="#2F2E41"/>
<path d="M3.9641 35.13C3.55836 35.13 0 35.1108 0 34.4465C0 33.7822 3.55836 33.7631 3.9641 33.7631V34.0365C1.86827 34.0365 0.509294 34.2711 0.290438 34.4465C0.509294 34.622 1.86827 34.8566 3.9641 34.8566C6.05526 34.8566 7.41283 34.623 7.63626 34.4477C7.52993 34.3726 7.09558 34.2153 5.93053 34.1145L5.95406 33.8422C7.9282 34.0128 7.9282 34.3279 7.9282 34.4465C7.9282 35.1108 4.36984 35.13 3.9641 35.13Z" fill="#2F2E41"/>
<path d="M3.9641 42.7849C3.55836 42.7849 0 42.7657 0 42.1014C0 41.4371 3.55836 41.418 3.9641 41.418V41.6914C1.86827 41.6914 0.509294 41.926 0.290438 42.1014C0.509294 42.2769 1.86827 42.5115 3.9641 42.5115C6.05526 42.5115 7.41283 42.2779 7.63626 42.1026C7.52993 42.0275 7.09558 41.8702 5.93053 41.7694L5.95406 41.4971C7.9282 41.6677 7.9282 41.9828 7.9282 42.1014C7.9282 42.7657 4.36984 42.7849 3.9641 42.7849Z" fill="#2F2E41"/>
<path d="M3.9641 50.4399C3.55836 50.4399 0 50.4208 0 49.7565C0 49.0922 3.55836 49.073 3.9641 49.073V49.3464C1.86827 49.3464 0.509294 49.581 0.290438 49.7565C0.509294 49.9319 1.86827 50.1665 3.9641 50.1665C6.05526 50.1665 7.41283 49.9329 7.63626 49.7577C7.52993 49.6826 7.09558 49.5252 5.93053 49.4245L5.95406 49.1522C7.9282 49.3228 7.9282 49.6379 7.9282 49.7565C7.9282 50.4208 4.36984 50.4399 3.9641 50.4399Z" fill="#2F2E41"/>
<path d="M3.9641 58.0947C3.55836 58.0947 0 58.0756 0 57.4112C0 56.7469 3.55836 56.7278 3.9641 56.7278V57.0012C1.86827 57.0012 0.509294 57.2358 0.290438 57.4112C0.509294 57.5867 1.86827 57.8213 3.9641 57.8213C6.05526 57.8213 7.41283 57.5877 7.63626 57.4125C7.52993 57.3374 7.09558 57.18 5.93053 57.0793L5.95406 56.8069C7.9282 56.9775 7.9282 57.2926 7.9282 57.4112C7.9282 58.0756 4.36984 58.0947 3.9641 58.0947Z" fill="#2F2E41"/>
<path d="M3.9641 65.7495C3.55836 65.7495 0 65.7303 0 65.066C0 64.4017 3.55836 64.3826 3.9641 64.3826V64.656C1.86827 64.656 0.509294 64.8906 0.290438 65.066C0.509294 65.2415 1.86827 65.4761 3.9641 65.4761C6.05526 65.4761 7.41283 65.2425 7.63626 65.0672C7.52993 64.9921 7.09558 64.8348 5.93053 64.7341L5.95406 64.4617C7.9282 64.6323 7.9282 64.9474 7.9282 65.066C7.9282 65.7303 4.36984 65.7495 3.9641 65.7495Z" fill="#2F2E41"/>
<path d="M3.9641 73.404C3.55836 73.404 0 73.3849 0 72.7206C0 72.0563 3.55836 72.0371 3.9641 72.0371V72.3105C1.86827 72.3105 0.509294 72.5451 0.290438 72.7206C0.509294 72.896 1.86827 73.1307 3.9641 73.1307C6.05526 73.1307 7.41283 72.897 7.63626 72.7218C7.52993 72.6467 7.09558 72.4893 5.93053 72.3886L5.95406 72.1163C7.9282 72.2869 7.9282 72.602 7.9282 72.7206C7.9282 73.3849 4.36984 73.404 3.9641 73.404Z" fill="#2F2E41"/>
<path d="M3.9641 81.0592C3.55836 81.0592 0 81.04 0 80.3757C0 79.7114 3.55836 79.6923 3.9641 79.6923V79.9656C1.86827 79.9656 0.509294 80.2002 0.290438 80.3757C0.509294 80.5512 1.86827 80.7858 3.9641 80.7858C6.05526 80.7858 7.41283 80.5522 7.63626 80.3769C7.52993 80.3018 7.09558 80.1445 5.93053 80.0437L5.95406 79.7714C7.9282 79.942 7.9282 80.2571 7.9282 80.3757C7.9282 81.04 4.36984 81.0592 3.9641 81.0592Z" fill="#2F2E41"/>
<path d="M52.1482 32.1909H22.0758C21.8402 32.1907 21.6144 32.097 21.4478 31.9304C21.2812 31.7638 21.1875 31.538 21.1873 31.3024V19.5468C21.1875 19.3113 21.2812 19.0854 21.4478 18.9189C21.6144 18.7523 21.8402 18.6586 22.0758 18.6583H52.1482C52.3838 18.6586 52.6096 18.7523 52.7762 18.9189C52.9428 19.0854 53.0365 19.3113 53.0367 19.5468V31.3024C53.0365 31.538 52.9428 31.7638 52.7762 31.9304C52.6096 32.097 52.3838 32.1907 52.1482 32.1909Z" fill="white"/>
<path d="M40.94 22.6911H33.2852C33.1039 22.6911 32.93 22.6191 32.8019 22.491C32.6737 22.3628 32.6017 22.1889 32.6017 22.0077C32.6017 21.8264 32.6737 21.6526 32.8019 21.5244C32.93 21.3962 33.1039 21.3242 33.2852 21.3242H40.94C41.1212 21.3242 41.2951 21.3962 41.4232 21.5244C41.5514 21.6526 41.6234 21.8264 41.6234 22.0077C41.6234 22.1889 41.5514 22.3628 41.4232 22.491C41.2951 22.6191 41.1212 22.6911 40.94 22.6911Z" fill="#F50057"/>
<path d="M45.1769 26.1084H29.0471C28.8658 26.1084 28.692 26.0364 28.5638 25.9082C28.4357 25.78 28.3636 25.6062 28.3636 25.4249C28.3636 25.2437 28.4357 25.0698 28.5638 24.9416C28.692 24.8135 28.8658 24.7415 29.0471 24.7415H45.1769C45.3582 24.7415 45.532 24.8135 45.6602 24.9416C45.7884 25.0698 45.8604 25.2437 45.8604 25.4249C45.8604 25.6062 45.7884 25.78 45.6602 25.9082C45.532 26.0364 45.3582 26.1084 45.1769 26.1084Z" fill="#F50057"/>
<path d="M45.1769 29.5257H29.0471C28.8658 29.5257 28.692 29.4537 28.5638 29.3256C28.4357 29.1974 28.3636 29.0235 28.3636 28.8423C28.3636 28.661 28.4357 28.4872 28.5638 28.359C28.692 28.2308 28.8658 28.1588 29.0471 28.1588H45.1769C45.3582 28.1588 45.532 28.2308 45.6602 28.359C45.7884 28.4872 45.8604 28.661 45.8604 28.8423C45.8604 29.0235 45.7884 29.1974 45.6602 29.3256C45.532 29.4537 45.3582 29.5257 45.1769 29.5257Z" fill="#F50057"/>
</svg>
