<svg width="356" height="99" viewBox="0 0 356 99" fill="none" xmlns="http://www.w3.org/2000/svg">
<circle cx="7" cy="7" r="7" fill="white" fill-opacity="0.25"/>
<circle cx="16" cy="24" r="7" fill="white" fill-opacity="0.25"/>
<circle cx="25" cy="41" r="7" fill="white" fill-opacity="0.25"/>
<circle cx="63" cy="41" r="7" fill="white" fill-opacity="0.25"/>
<circle cx="101" cy="41" r="7" fill="white" fill-opacity="0.25"/>
<circle cx="139" cy="41" r="7" fill="white" fill-opacity="0.25"/>
<circle cx="177" cy="41" r="7" fill="white" fill-opacity="0.25"/>
<circle cx="215" cy="41" r="7" fill="white" fill-opacity="0.25"/>
<circle cx="253" cy="41" r="7" fill="white" fill-opacity="0.25"/>
<circle cx="291" cy="41" r="7" fill="white" fill-opacity="0.25"/>
<circle cx="329" cy="41" r="7" fill="white" fill-opacity="0.25"/>
<circle cx="34" cy="58" r="7" fill="white" fill-opacity="0.25"/>
<circle cx="43" cy="75" r="7" fill="white" fill-opacity="0.25"/>
<circle cx="52" cy="92" r="7" fill="white" fill-opacity="0.25"/>
<circle cx="54" cy="24" r="7" fill="white" fill-opacity="0.25"/>
<circle cx="92" cy="24" r="7" fill="white" fill-opacity="0.25"/>
<circle cx="130" cy="24" r="7" fill="white" fill-opacity="0.25"/>
<circle cx="168" cy="24" r="7" fill="white" fill-opacity="0.25"/>
<circle cx="206" cy="24" r="7" fill="white" fill-opacity="0.25"/>
<circle cx="244" cy="24" r="7" fill="white" fill-opacity="0.25"/>
<circle cx="282" cy="24" r="7" fill="white" fill-opacity="0.25"/>
<circle cx="320" cy="24" r="7" fill="white" fill-opacity="0.25"/>
<circle cx="26" cy="7" r="7" fill="white" fill-opacity="0.25"/>
<circle cx="35" cy="24" r="7" fill="white" fill-opacity="0.25"/>
<circle cx="44" cy="41" r="7" fill="white" fill-opacity="0.25"/>
<circle cx="82" cy="41" r="7" fill="white" fill-opacity="0.25"/>
<circle cx="120" cy="41" r="7" fill="white" fill-opacity="0.25"/>
<circle cx="158" cy="41" r="7" fill="white" fill-opacity="0.25"/>
<circle cx="196" cy="41" r="7" fill="white" fill-opacity="0.25"/>
<circle cx="234" cy="41" r="7" fill="white" fill-opacity="0.25"/>
<circle cx="272" cy="41" r="7" fill="white" fill-opacity="0.25"/>
<circle cx="310" cy="41" r="7" fill="white" fill-opacity="0.25"/>
<circle cx="53" cy="58" r="7" fill="white" fill-opacity="0.25"/>
<circle cx="62" cy="75" r="7" fill="white" fill-opacity="0.25"/>
<circle cx="71" cy="92" r="7" fill="white" fill-opacity="0.25"/>
<circle cx="73" cy="24" r="7" fill="white" fill-opacity="0.25"/>
<circle cx="111" cy="24" r="7" fill="white" fill-opacity="0.25"/>
<circle cx="149" cy="24" r="7" fill="white" fill-opacity="0.25"/>
<circle cx="187" cy="24" r="7" fill="white" fill-opacity="0.25"/>
<circle cx="225" cy="24" r="7" fill="white" fill-opacity="0.25"/>
<circle cx="263" cy="24" r="7" fill="white" fill-opacity="0.25"/>
<circle cx="301" cy="24" r="7" fill="white" fill-opacity="0.25"/>
<circle cx="339" cy="24" r="7" fill="white" fill-opacity="0.25"/>
<circle cx="45" cy="7" r="7" fill="white" fill-opacity="0.25"/>
<circle cx="64" cy="7" r="7" fill="white" fill-opacity="0.25"/>
<circle cx="83" cy="7" r="7" fill="white" fill-opacity="0.25"/>
<circle cx="102" cy="7" r="7" fill="white" fill-opacity="0.25"/>
<circle cx="121" cy="7" r="7" fill="white" fill-opacity="0.25"/>
<circle cx="140" cy="7" r="7" fill="white" fill-opacity="0.25"/>
<circle cx="159" cy="7" r="7" fill="white" fill-opacity="0.25"/>
<circle cx="178" cy="7" r="7" fill="white" fill-opacity="0.25"/>
<circle cx="197" cy="7" r="7" fill="white" fill-opacity="0.25"/>
<circle cx="216" cy="7" r="7" fill="white" fill-opacity="0.25"/>
<circle cx="235" cy="7" r="7" fill="white" fill-opacity="0.25"/>
<circle cx="254" cy="7" r="7" fill="white" fill-opacity="0.25"/>
<circle cx="273" cy="7" r="7" fill="white" fill-opacity="0.25"/>
<circle cx="292" cy="7" r="7" fill="white" fill-opacity="0.25"/>
<circle cx="311" cy="7" r="7" fill="white" fill-opacity="0.25"/>
<circle cx="330" cy="7" r="7" fill="white" fill-opacity="0.25"/>
<circle cx="349" cy="7" r="7" fill="white" fill-opacity="0.25"/>
</svg>
