<svg width="26" height="26" viewBox="0 0 26 26" fill="none" xmlns="http://www.w3.org/2000/svg">
<path d="M8.7312 6.88933C7.86006 7.5948 7.15689 8.48999 6.67386 9.50845C6.19082 10.5269 5.94034 11.6426 5.941 12.7726C5.94448 15.5282 5.31911 18.2475 4.11376 20.7178M14.5098 25C16.2905 21.177 17.4618 14.4995 17.199 12.7726C16.8739 10.6365 15.8504 8.92966 13.3818 8.92966C10.5533 8.92966 9.69141 11.8037 9.69141 13.0247M24.3057 20.007C24.7662 17.6238 24.9987 15.201 25 12.7725C25 9.65029 23.7759 6.65585 21.597 4.44808C19.4181 2.24031 16.4629 1 13.3814 1C10.3 1 7.34474 2.24031 5.16584 4.44808C2.98693 6.65585 1.76283 9.65022 1.76283 12.7725C1.76405 14.3208 1.50612 15.8583 1 17.3193M6.96228 23.2652C8.13997 21.2176 8.97738 18.9877 9.44097 16.6647M20.5726 16.8911C20.7412 15.5252 20.8246 14.1487 20.8218 12.7722C20.8218 10.7728 20.0379 8.85539 18.6426 7.44162C17.2473 6.0279 15.355 5.23351 13.3818 5.23351C13.071 5.23135 12.7604 5.24934 12.4519 5.28739M19.7992 21.0081C19.6026 21.7649 19.3795 22.5226 19.144 23.2652M10.5688 24.4403C12.0507 21.7635 13.3875 17.328 13.3875 12.8135" stroke="white" stroke-width="2" stroke-linecap="round" stroke-linejoin="round"/>
</svg>
