<svg width="24" height="23" viewBox="0 0 24 23" fill="none" xmlns="http://www.w3.org/2000/svg">
<path d="M11.3979 0.376037C11.6442 -0.125346 12.3558 -0.125346 12.6021 0.376037L15.7901 6.8665C15.8879 7.0656 16.077 7.2036 16.2957 7.23553L23.4244 8.27632C23.9751 8.35672 24.195 9.03668 23.7965 9.42696L18.6381 14.4791C18.4799 14.6341 18.4076 14.8573 18.445 15.0762L19.6627 22.2099C19.7568 22.761 19.1811 23.1812 18.6886 22.921L12.3124 19.5529C12.1168 19.4496 11.8832 19.4496 11.6876 19.5529L5.31142 22.921C4.81886 23.1812 4.24319 22.761 4.33726 22.2099L5.555 15.0762C5.59235 14.8573 5.52014 14.6341 5.36191 14.4791L0.203487 9.42696C-0.194997 9.03668 0.0248914 8.35672 0.575582 8.27632L7.70434 7.23553C7.92302 7.2036 8.11206 7.0656 8.20986 6.8665L11.3979 0.376037Z" fill="white"/>
</svg>
