<svg width="24" height="19" viewBox="0 0 24 19" fill="none" xmlns="http://www.w3.org/2000/svg">
<path d="M1.27228 6.59777C0.491806 6.92196 0.00736826 7.49907 4.82857e-05 8.31607C-0.0049917 8.88725 0.384525 9.6544 1.165 9.9679C1.48648 10.0973 6.00027 10.6982 6.00027 10.6982C6.00027 10.6982 7.19498 14.4352 7.62554 15.7486C7.75022 16.1286 7.82126 16.315 8.09486 16.5632C8.55902 16.9836 9.3437 16.8518 9.68306 16.5146C10.5809 15.6239 12 14.25 12 14.25L12.5972 14.7309C12.5972 14.7309 15.2494 16.8245 16.6991 17.8101C17.5526 18.3908 18.1451 18.9964 19.1058 19C19.5951 19.0024 20.3801 18.7613 20.8989 18.1735C21.2418 17.7852 21.4617 17.1641 21.5468 16.6072C21.7403 15.3425 24.0096 1.66729 24 1.18873C23.9846 0.425171 23.3355 -0.00471104 22.796 3.895e-05C22.4571 0.00360144 22.1779 0.10099 21.5565 0.288614C16.7501 1.74092 1.59064 6.46596 1.27228 6.59777ZM19.2 3.56253C19.2 3.56253 12.8664 9.0179 10.3355 11.5283C9.52466 12.3322 9.46742 13.7121 9.46742 13.7121L8.15918 9.57006L19.2 3.56253Z" fill="#A8A8A8"/>
</svg>
