<svg width="120" height="129" viewBox="0 0 120 129" fill="none" xmlns="http://www.w3.org/2000/svg">
<path d="M5.26136 70.2074C5.28613 70.2074 5.30173 70.2074 5.30704 70.2065H8.26916V69.7698H5.29626C5.22743 69.7722 3.82317 69.8119 2.52989 68.2419C0.601786 65.902 -0.981642 60.1098 2.4247 45.803C7.00498 26.5654 3.18481 9.57022 1.32973 3.15608C1.23833 2.83875 1.22197 2.50451 1.28196 2.17977C1.34194 1.85503 1.47663 1.54869 1.67538 1.28495C1.87412 1.02122 2.13148 0.807314 2.42711 0.660148C2.72274 0.512983 3.04855 0.436584 3.37878 0.436991H47.6151C47.9514 0.437498 48.2829 0.51731 48.5826 0.669948C48.8823 0.822585 49.1418 1.04375 49.34 1.31548C50.1259 2.39646 51.2043 4.47317 51.8792 8.22804L52.3089 8.15084C51.6194 4.31426 50.5059 2.17659 49.6932 1.05798C49.4544 0.730657 49.1417 0.46427 48.7806 0.280446C48.4195 0.0966211 48.0201 0.0005397 47.6149 1.28266e-06H3.3783C2.9803 -0.00039659 2.58767 0.0917744 2.23142 0.26923C1.87518 0.446686 1.56508 0.704564 1.32565 1.02248C1.08622 1.3404 0.923999 1.70965 0.851825 2.10105C0.779651 2.49244 0.799494 2.89527 0.909787 3.27767C2.75522 9.65835 6.55513 26.5656 1.99929 45.7022C-1.45498 60.2095 0.205648 66.1283 2.20693 68.5376C3.52691 70.127 4.98135 70.2074 5.26136 70.2074Z" fill="#E6E6E6"/>
<path d="M13.2317 78.1779C13.2564 78.1779 13.272 78.1779 13.2773 78.1769H16.2395V77.7403H13.2667C13.1976 77.7423 11.7936 77.7824 10.5003 76.2123C8.57225 73.8725 6.98882 68.0803 10.3952 53.7735C14.9754 34.5359 11.1553 17.5407 9.30019 11.1265C9.20879 10.8092 9.19243 10.475 9.25241 10.1502C9.3124 9.82548 9.44709 9.51914 9.64584 9.2554C9.84458 8.99167 10.1019 8.77777 10.3976 8.6306C10.6932 8.48344 11.019 8.40704 11.3492 8.40745H55.5855C55.9219 8.40787 56.2533 8.4876 56.5531 8.64015C56.8528 8.7927 57.1124 9.01378 57.3107 9.28545C58.0965 10.3664 59.1749 12.4431 59.8498 16.198L60.2797 16.1208C59.5902 12.2842 58.4767 10.1466 57.664 9.02795C57.4252 8.70063 57.1125 8.43424 56.7514 8.25042C56.3903 8.06659 55.9909 7.97051 55.5857 7.96997H11.3488C10.9507 7.96955 10.558 8.06173 10.2017 8.23921C9.84543 8.41669 9.5353 8.67462 9.29586 8.9926C9.05641 9.31058 8.89421 9.6799 8.82208 10.0714C8.74995 10.4628 8.76986 10.8657 8.88025 11.2481C10.7257 17.6288 14.5256 34.536 9.96975 53.6726C6.51548 68.18 8.17611 74.0988 10.1774 76.5081C11.4974 78.0975 12.9518 78.1779 13.2317 78.1779Z" fill="#CCCCCC"/>
<path d="M21.2022 86.1486C21.2269 86.1486 21.2425 86.1486 21.2478 86.1477H64.8022C65.2215 86.1482 65.6346 86.0459 66.0053 85.8498C66.3759 85.6537 66.6929 85.3697 66.9284 85.0228C67.1639 84.6758 67.3107 84.2764 67.3561 83.8595C67.4015 83.4426 67.344 83.021 67.1887 82.6315C65.6083 78.6831 63.4806 69.2105 66.9852 50.1293C71.1237 27.5978 67.4187 19.4548 65.6342 16.9995C65.3954 16.6722 65.0827 16.4058 64.7216 16.222C64.3605 16.0381 63.9611 15.9421 63.5559 15.9415H19.3193C18.9213 15.9411 18.5287 16.0333 18.1725 16.2108C17.8163 16.3882 17.5062 16.646 17.2668 16.9639C17.0274 17.2818 16.8651 17.651 16.7929 18.0424C16.7207 18.4337 16.7405 18.8365 16.8508 19.2189C18.6962 25.5996 22.4961 42.5068 17.9403 61.6434C14.486 76.1508 16.1465 82.0695 18.1479 84.4788C19.4679 86.0682 20.9223 86.1486 21.2022 86.1486ZM63.5557 16.378C63.8921 16.3785 64.2237 16.4583 64.5235 16.611C64.8232 16.7637 65.0828 16.9849 65.281 17.2567C67.033 19.6663 70.6642 27.6854 66.5563 50.0511C63.2082 68.2793 64.832 77.9183 66.7839 82.7946C66.9154 83.1163 66.9647 83.4657 66.9275 83.8113C66.8902 84.1568 66.7675 84.4877 66.5704 84.774C66.375 85.063 66.1117 85.2996 65.8035 85.4631C65.4953 85.6266 65.1517 85.712 64.8028 85.7118H21.2372C21.1684 85.7152 19.7641 85.7541 18.4709 84.1839C16.5428 81.844 14.9593 76.0518 18.3657 61.745C22.946 42.5074 19.1258 25.5122 17.2707 19.0981C17.1793 18.7808 17.1629 18.4465 17.2229 18.1218C17.2829 17.797 17.4176 17.4907 17.6163 17.227C17.8151 16.9632 18.0724 16.7493 18.3681 16.6022C18.6637 16.455 18.9895 16.3786 19.3197 16.379L63.5557 16.378Z" fill="#3F3D56"/>
<path d="M59.2215 35.5952H24.5004C24.0371 35.5952 23.5927 35.4111 23.2651 35.0835C22.9375 34.7559 22.7534 34.3115 22.7534 33.8482C22.7534 33.3849 22.9375 32.9405 23.2651 32.6129C23.5927 32.2853 24.0371 32.1012 24.5004 32.1012H59.2215C59.6848 32.1012 60.1292 32.2853 60.4568 32.6129C60.7844 32.9405 60.9685 33.3849 60.9685 33.8482C60.9685 34.3115 60.7844 34.7559 60.4568 35.0835C60.1292 35.4111 59.6848 35.5952 59.2215 35.5952Z" fill="#E91E62"/>
<path d="M59.2215 43.0199H24.5004C24.0371 43.0199 23.5927 42.8358 23.2651 42.5082C22.9375 42.1806 22.7534 41.7362 22.7534 41.2729C22.7534 40.8095 22.9375 40.3652 23.2651 40.0376C23.5927 39.7099 24.0371 39.5259 24.5004 39.5259H59.2215C59.6848 39.5259 60.1292 39.7099 60.4568 40.0376C60.7844 40.3652 60.9685 40.8095 60.9685 41.2729C60.9685 41.7362 60.7844 42.1806 60.4568 42.5082C60.1292 42.8358 59.6848 43.0199 59.2215 43.0199Z" fill="#CCCCCC"/>
<path d="M59.2215 50.4446H24.5004C24.0371 50.4446 23.5927 50.2605 23.2651 49.9329C22.9375 49.6052 22.7534 49.1609 22.7534 48.6976C22.7534 48.2342 22.9375 47.7899 23.2651 47.4622C23.5927 47.1346 24.0371 46.9506 24.5004 46.9506H59.2215C59.6848 46.9506 60.1292 47.1346 60.4568 47.4622C60.7844 47.7899 60.9685 48.2342 60.9685 48.6976C60.9685 49.1609 60.7844 49.6052 60.4568 49.9329C60.1292 50.2605 59.6848 50.4446 59.2215 50.4446Z" fill="#CCCCCC"/>
<path d="M61.8419 57.869H27.1208C26.6574 57.869 26.2131 57.6849 25.8855 57.3573C25.5578 57.0297 25.3738 56.5853 25.3738 56.122C25.3738 55.6587 25.5578 55.2143 25.8855 54.8867C26.2131 54.5591 26.6574 54.375 27.1208 54.375H61.8419C62.3052 54.375 62.7496 54.5591 63.0772 54.8867C63.4048 55.2143 63.5889 55.6587 63.5889 56.122C63.5889 56.5853 63.4048 57.0297 63.0772 57.3573C62.7496 57.6849 62.3052 57.869 61.8419 57.869Z" fill="#CCCCCC"/>
<path d="M61.8419 65.2937H27.1208C26.8914 65.2937 26.6642 65.2485 26.4522 65.1607C26.2403 65.0729 26.0477 64.9442 25.8855 64.782C25.7232 64.6198 25.5946 64.4272 25.5068 64.2152C25.419 64.0033 25.3738 63.7761 25.3738 63.5467C25.3738 63.3173 25.419 63.0901 25.5068 62.8781C25.5946 62.6662 25.7232 62.4736 25.8855 62.3114C26.0477 62.1491 26.2403 62.0205 26.4522 61.9327C26.6642 61.8449 26.8914 61.7997 27.1208 61.7997H61.8419C62.0713 61.7997 62.2985 61.8449 62.5104 61.9327C62.7224 62.0205 62.915 62.1491 63.0772 62.3114C63.2394 62.4736 63.3681 62.6662 63.4559 62.8781C63.5437 63.0901 63.5889 63.3173 63.5889 63.5467C63.5889 63.7761 63.5437 64.0033 63.4559 64.2152C63.3681 64.4272 63.2394 64.6198 63.0772 64.782C62.915 64.9442 62.7224 65.0729 62.5104 65.1607C62.2985 65.2485 62.0713 65.2937 61.8419 65.2937Z" fill="#CCCCCC"/>
<path d="M40.8783 28.1706H24.5004C24.0371 28.1706 23.5927 27.9866 23.2651 27.6589C22.9375 27.3313 22.7534 26.887 22.7534 26.4236C22.7534 25.9603 22.9375 25.5159 23.2651 25.1883C23.5927 24.8607 24.0371 24.6766 24.5004 24.6766H40.8783C41.3417 24.6766 41.786 24.8607 42.1136 25.1883C42.4413 25.5159 42.6253 25.9603 42.6253 26.4236C42.6253 26.887 42.4413 27.3313 42.1136 27.6589C41.786 27.9866 41.3417 28.1706 40.8783 28.1706Z" fill="#E91E62"/>
<path d="M38.7633 77.265C39.1159 75.7725 40.7719 75.2832 42.1259 75.3379C42.9814 75.3957 43.8299 75.53 44.6614 75.7392C45.5313 75.9338 46.3929 76.1643 47.2508 76.4088C48.8228 76.857 50.3784 77.3992 51.9763 77.7496C53.3066 78.0414 54.752 78.2125 56.0786 77.8098C57.3537 77.4225 58.4355 76.472 58.7826 75.1578C59.1096 73.9193 58.6607 72.5651 57.4605 71.9991C56.3668 71.483 54.9836 71.7455 54.4411 72.9127C53.83 74.2288 54.4411 75.6639 55.4091 76.6164C55.9595 77.1335 56.5624 77.5917 57.208 77.9835C57.8632 78.4301 58.5925 78.7569 59.3619 78.9485C60.6251 79.2184 62.1301 78.8208 62.7814 77.6136C62.9263 77.3404 63.0134 77.0403 63.0373 76.732C63.0759 76.3124 62.4205 76.315 62.3823 76.732C62.2718 77.9338 60.8645 78.4966 59.8119 78.3648C59.1015 78.2471 58.423 77.9838 57.8192 77.5914C57.2364 77.2516 56.6842 76.8619 56.1687 76.4268C55.276 75.6548 54.4392 74.383 55.0388 73.1779C55.5269 72.1968 56.7996 72.2061 57.5736 72.8392C58.5109 73.6059 58.3438 74.9973 57.7256 75.9076C57.0411 76.9157 55.8002 77.339 54.6303 77.3838C53.3597 77.4333 52.0986 77.1415 50.8838 76.7965C49.3743 76.3679 47.8798 75.8881 46.363 75.4846C45.5019 75.2556 44.6342 75.0487 43.7575 74.8879C42.9286 74.7053 42.0772 74.6463 41.2311 74.7131C39.8639 74.871 38.4687 75.6667 38.1321 77.092C38.0356 77.502 38.6668 77.677 38.7638 77.2662L38.7633 77.265Z" fill="#3F3D56"/>
<path d="M62.8341 77.4197C62.7512 77.3508 62.6907 77.2588 62.66 77.1555C62.6293 77.0522 62.63 76.9421 62.6618 76.8391C62.6936 76.7362 62.7551 76.6449 62.8387 76.5769C62.9223 76.5088 63.0242 76.4671 63.1314 76.4568C64.3225 76.3418 65.5245 76.4649 66.6674 76.8192L78.31 80.4148C78.4607 80.4614 78.6008 80.5371 78.7222 80.6378C78.8436 80.7385 78.944 80.8621 79.0177 81.0015C79.0913 81.141 79.1368 81.2936 79.1514 81.4507C79.1661 81.6077 79.1497 81.7661 79.1032 81.9168C79.0566 82.0675 78.9809 82.2075 78.8802 82.329C78.7795 82.4504 78.6559 82.5508 78.5165 82.6244C78.377 82.6981 78.2244 82.7435 78.0673 82.7582C77.9103 82.7729 77.7519 82.7565 77.6012 82.71L65.9588 79.1149C64.815 78.7628 63.7528 78.1866 62.8341 77.4197Z" fill="#3F3D56"/>
<path d="M88.9937 42.3752C88.9937 42.3752 91.3082 47.2821 90.938 48.7634C90.7213 49.6638 90.8193 50.6113 91.2158 51.4483L95.4745 51.263L99.4557 47.4672C99.4557 47.4672 93.438 43.3016 93.8081 41.2641C94.1782 39.2267 88.9937 42.3752 88.9937 42.3752Z" fill="#ED9DA0"/>
<path d="M99.7335 50.152L101.585 61.6324C101.585 61.6324 101.585 72.0017 101.029 72.187C100.474 72.3723 98.0669 72.187 98.0669 72.187V60.5215L98.8077 50.3373L99.7335 50.152Z" fill="#E91E62"/>
<path opacity="0.1" d="M99.7335 50.152L101.585 61.6324C101.585 61.6324 101.585 72.0017 101.029 72.187C100.474 72.3723 98.0669 72.187 98.0669 72.187V60.5215L98.8077 50.3373L99.7335 50.152Z" fill="black"/>
<path d="M110.843 117.553L112.325 123.293L114.547 121.627L116.583 116.997L113.991 113.85L110.843 117.553Z" fill="#ED9DA0"/>
<path d="M116.584 116.257C116.584 116.257 114.177 118.108 114.177 119.96C114.177 119.96 112.881 121.997 111.399 121.812V125.7C111.399 125.7 106.77 128.107 110.288 128.663C113.806 129.218 116.398 124.774 116.398 124.774C116.398 124.774 119.731 119.404 119.176 118.664C118.62 117.923 116.584 116.257 116.584 116.257Z" fill="#090814"/>
<path d="M99.7198 71.3117C99.7198 71.3117 103.252 75.1495 101.585 81.0744C101.585 81.0744 99.7338 94.4064 105.659 99.4058C111.584 104.405 115.473 115.33 115.473 115.33L111.029 119.404C111.029 119.404 106.215 108.479 101.215 104.221C96.2155 99.9628 95.6601 95.1477 95.6601 95.1477V78.2979L94.7339 71.261L99.7198 71.3117Z" fill="#090814"/>
<path opacity="0.1" d="M99.7198 71.3117C99.7198 71.3117 103.252 75.1495 101.585 81.0744C101.585 81.0744 99.7338 94.4064 105.659 99.4058C111.584 104.405 115.473 115.33 115.473 115.33L111.029 119.404C111.029 119.404 106.215 108.479 101.215 104.221C96.2155 99.9628 95.6601 95.1477 95.6601 95.1477V78.2979L94.7339 71.261L99.7198 71.3117Z" fill="#6F6F6F"/>
<path d="M95.104 121.812L93.2524 123.849L93.9933 125.515L96.2154 126.256L100.104 124.775L99.5484 122.553L95.104 121.812Z" fill="#ED9DA0"/>
<path d="M100.104 123.848C100.104 123.848 95.8192 126.071 94.7478 125.145C94.4358 124.883 94.1802 124.561 93.9966 124.197C93.813 123.834 93.7052 123.437 93.6797 123.03C93.6797 123.03 91.5345 123.293 90.1063 124.218C88.678 125.143 86.9204 125.465 85.8218 126.255C84.7231 127.045 84.7506 128.477 88.1426 128.662C91.5347 128.847 100.104 128.477 100.104 127.551L100.104 123.848Z" fill="#090814"/>
<path d="M88.0679 73.6683C88.0679 73.6683 85.6608 84.4076 89.9194 96.6296C89.9194 96.6296 91.9562 103.481 92.882 105.518C93.8078 107.554 94.7339 121.997 94.3639 122.553C94.3639 122.553 97.3265 124.96 99.9189 123.294C99.9189 123.294 99.7336 114.776 100.104 114.035C100.475 113.295 100.845 106.814 98.6229 101.444C96.4008 96.0742 98.2529 83.1126 98.2529 83.1126C98.2529 83.1126 102.695 76.4463 99.3629 72.5573L88.0679 73.6683Z" fill="#090814"/>
<path d="M90.8453 43.6714C93.7088 43.6714 96.0301 41.3501 96.0301 38.4867C96.0301 35.6233 93.7088 33.302 90.8453 33.302C87.9819 33.302 85.6606 35.6233 85.6606 38.4867C85.6606 41.3501 87.9819 43.6714 90.8453 43.6714Z" fill="#ED9DA0"/>
<path d="M100.474 72.3721C100.474 72.3721 98.9926 74.5942 97.8816 73.4831C97.0983 72.6999 92.0841 74.4015 89.191 75.4737C87.9799 75.9217 87.1411 76.2606 87.1411 76.2606C87.1411 76.2606 87.0615 73.6943 86.8264 70.4445C86.556 66.7152 86.082 62.0821 85.2894 59.4111C83.8081 54.4116 87.5115 52.3747 87.5115 52.3747C87.5115 52.3747 90.6596 48.6716 90.4749 48.116C90.2903 47.5603 98.8074 44.783 98.8074 44.783C99.7331 44.9682 100.474 53.3007 100.474 53.3007C100.474 53.3007 98.8074 59.9667 97.8816 64.0405C96.9558 68.1143 100.474 72.3721 100.474 72.3721Z" fill="#E91E62"/>
<path d="M84.5497 72.5573C84.5497 72.5573 80.476 76.6309 78.4392 77.742C76.4024 78.853 75.2913 82.5561 76.9579 83.2969C78.6245 84.0377 82.3277 79.2233 82.3277 79.2233L87.6975 74.7792L84.5497 72.5573Z" fill="#ED9DA0"/>
<path d="M85.3198 35.3896C84.8461 35.4317 84.5754 36.0282 84.7284 36.4786C84.8813 36.9289 85.3206 37.2234 85.7693 37.3807C86.218 37.538 86.6978 37.5921 87.147 37.7481C87.5938 37.9115 88.0083 38.1522 88.3716 38.4593C89.6514 39.5075 90.4094 41.1046 90.6505 42.7412C90.8916 44.3779 90.6505 46.0544 90.1965 47.6456C89.9552 48.4882 89.5618 49.4119 88.7383 49.711C89.6386 49.4887 90.5184 49.1904 91.3681 48.8192C91.9909 48.5258 92.5754 48.1546 93.2049 47.8759C94.1365 47.4958 95.1139 47.2395 96.1122 47.1134C96.8131 47.004 97.5541 46.9204 98.2124 47.1854C98.6161 47.3733 98.9876 47.6238 99.3131 47.9277L101.431 49.707C101.468 48.9335 101.492 48.1595 101.504 47.385C101.514 46.7119 101.512 46.0194 101.264 45.3937C101.019 44.7758 100.554 44.2722 100.243 43.685C99.4727 42.2314 99.7236 40.4816 99.7379 38.8374C99.7527 37.135 99.4788 35.3997 98.6907 33.8906C97.9026 32.3815 96.5567 31.1178 94.9151 30.6658C92.7026 30.0563 90.37 30.9627 88.3369 32.0257C87.8583 32.2533 87.4122 32.5437 87.0103 32.8892C86.5829 33.3258 86.2198 33.8209 85.9317 34.3597L84.9244 36.0469" fill="#090814"/>
<path opacity="0.1" d="M98.4373 55.1514C98.4373 55.1514 94.9192 68.4834 94.549 69.4093C94.2823 70.0741 91.1455 73.6109 89.1922 75.474C87.9811 75.9216 87.1423 76.2602 87.1423 76.2602C87.1423 76.2602 87.0627 73.693 86.8274 70.4442C88.3346 68.7715 89.9198 67.1871 89.9198 67.1871C89.9198 67.1871 91.5864 57.0028 91.4011 53.1139C91.2158 49.2251 95.1045 48.2998 95.1045 48.2998C99.5482 48.8558 98.4373 55.1514 98.4373 55.1514Z" fill="black"/>
<path d="M94.5487 47.5597C94.5487 47.5597 90.6602 48.4855 90.8453 52.3738C91.0305 56.2622 89.364 66.447 89.364 66.447C89.364 66.447 83.0684 72.7426 83.6238 73.4834C84.1792 74.2242 86.5594 75.6801 87.1284 75.8779C87.6975 76.0757 93.6233 69.594 93.9932 68.6686C94.3631 67.7431 97.8817 54.4108 97.8817 54.4108C97.8817 54.4108 98.9926 48.1152 94.5487 47.5597Z" fill="#E91E62"/>
</svg>
