<svg width="167" height="99" viewBox="0 0 167 99" fill="none" xmlns="http://www.w3.org/2000/svg">
<path d="M85.0156 12.4164C83.4611 9.84533 81.6191 7.10024 78.7343 6.26073C75.3936 5.28853 71.9618 7.21986 69.0508 9.12568C60.3454 14.8254 51.9619 21.0022 43.9387 27.628L43.9475 27.7278C50.1938 27.297 56.4402 26.8662 62.6865 26.4355C67.1995 26.1243 71.8675 25.7701 75.8557 23.6352C77.3691 22.8251 78.8444 21.7429 80.5593 21.6675C82.6899 21.5738 84.5477 23.0619 86.0077 24.6165C94.6438 33.8128 97.1429 47.8762 106.832 55.9558C100.722 40.8887 93.4274 26.3299 85.0156 12.4164Z" fill="#F2F2F2"/>
<path d="M23.2191 11.2958C23.1175 11.3691 23.0159 11.4424 22.9143 11.5141C22.1663 11.8906 21.4316 12.2921 20.7003 12.6969C19.3275 13.4566 17.9726 14.2495 16.6354 15.0758C13.9749 16.7201 11.3977 18.4899 8.90384 20.3851C7.61103 21.368 6.34492 22.3831 5.10547 23.4305C5.01559 23.3322 4.92888 23.2305 4.84395 23.1273C4.82394 23.1023 4.8023 23.0773 4.784 23.0506C3.83161 21.8623 3.13642 20.4892 2.74248 19.0182C2.34853 17.5472 2.26442 16.0104 2.49546 14.5052C2.72651 13 3.26768 11.5591 4.08469 10.274C4.9017 8.98889 5.97673 7.88747 7.24167 7.03954C8.50661 6.19161 9.93388 5.61567 11.4331 5.34819C12.9322 5.08072 14.4706 5.12755 15.9507 5.48571C17.4309 5.84388 18.8205 6.50557 20.0315 7.42886C21.2425 8.35216 22.2486 9.51693 22.9859 10.8494C22.9976 10.8694 23.0092 10.891 23.0192 10.911C23.0892 11.0376 23.1558 11.1659 23.2191 11.2958Z" fill="#E91E62"/>
<path d="M24.2871 74.6868C28.8106 74.8102 33.3209 75.2356 37.7877 75.9602C51.2228 78.1459 64.1041 82.9257 75.7129 90.033C79.5737 92.3954 83.2725 95.0129 86.7845 97.8681C87.2152 98.2187 87.6429 98.5728 88.0677 98.9304C88.3405 99.1599 88.7368 98.7675 88.4618 98.5362C84.9751 95.6037 81.2972 92.9062 77.4525 90.4618C73.612 88.0216 69.6162 85.8347 65.4906 83.9153C61.3593 81.9918 57.1084 80.3363 52.7643 78.9591C48.4267 77.5839 44.004 76.493 39.5245 75.6932C35.0563 74.8943 30.5401 74.3923 26.0056 74.1903C25.4329 74.1651 24.8601 74.1448 24.2871 74.1294C23.9283 74.1196 23.9285 74.677 24.2871 74.6868Z" fill="#E4E4E4"/>
<path d="M23.2181 57.067C31.3156 57.6335 39.4162 58.2092 47.4816 59.1405C55.5552 60.0727 63.6005 61.3674 71.483 63.3682C78.4516 65.137 85.2784 67.4659 91.7752 70.5572C97.8495 73.4474 103.644 76.9721 108.875 81.21C114.033 85.3885 118.645 90.2661 122.335 95.7937C122.8 96.4902 123.25 97.1961 123.685 97.9114C123.872 98.2172 124.354 97.9375 124.166 97.6301C120.648 91.9244 116.271 86.7957 111.189 82.425C106.094 78.0043 100.405 74.2913 94.4007 71.2306C88.1188 68.0642 81.538 65.5295 74.7551 63.6638C66.9087 61.4679 58.872 60.0251 50.7963 58.987C42.6484 57.9396 34.4549 57.3046 26.2627 56.7237C25.2479 56.6517 24.233 56.5804 23.2181 56.5096C22.8601 56.4846 22.8617 57.0421 23.2181 57.067Z" fill="#E4E4E4"/>
<path d="M138.658 91.3466C137.703 90.1407 136.755 88.9292 135.813 87.7121C128.143 77.7916 120.933 67.5359 114.184 56.9452C109.6 49.7523 105.244 42.4214 101.114 34.9523C99.1484 31.4014 97.2364 27.8226 95.3783 24.216C93.9364 21.4195 92.5267 18.6063 91.1492 15.7764C90.7553 14.9681 90.3725 14.1561 89.9916 13.3422C89.0941 11.4283 88.2133 9.50515 87.2675 7.61729C86.1898 5.46557 84.878 3.20979 82.899 1.76416C81.9984 1.07926 80.9215 0.664857 79.7941 0.569383C78.1831 0.465328 76.6966 1.13054 75.2993 1.85707C65.0758 7.18806 55.5046 13.8718 46.8476 21.4771C38.1684 29.0995 30.4106 37.711 23.7323 47.1361C23.528 47.4278 23.0449 47.1491 23.2511 46.8555C24.0631 45.7072 24.8912 44.5712 25.7354 43.4477C36.2326 29.4868 49.1036 17.4812 63.7602 7.97962C66.2261 6.38163 68.7383 4.85858 71.2968 3.41047C72.5864 2.68023 73.8815 1.95927 75.1989 1.28291C76.4904 0.619555 77.8616 0.0230925 79.337 0.000794874C84.3577 -0.0772467 86.9572 5.60864 88.7429 9.43454C89.304 10.6386 89.872 11.839 90.4468 13.0356C92.6189 17.5787 94.8747 22.0804 97.2141 26.5405C98.6578 29.2943 100.133 32.0319 101.64 34.7535C106.33 43.2284 111.315 51.5318 116.594 59.6636C123.589 70.4352 131.074 80.8649 139.052 90.9527C139.271 91.2314 138.879 91.6291 138.658 91.3466Z" fill="#E4E4E4"/>
<path d="M46.3519 18.6695C46.0602 18.3443 45.7703 18.0191 45.4767 17.6939C43.1615 15.1334 40.6772 12.6027 37.4979 11.1347C35.982 10.4127 34.3271 10.0291 32.6482 10.0106C30.9127 10.0161 29.2162 10.4714 27.6127 11.1087C26.8545 11.4116 26.1131 11.7554 25.3829 12.1214C24.5486 12.5413 23.7291 12.9892 22.9135 13.4407C21.3823 14.288 19.871 15.1725 18.3796 16.0941C15.4122 17.9281 12.5376 19.902 9.75601 22.016C8.31405 23.1123 6.90185 24.2445 5.51941 25.4126C4.23359 26.4978 2.97379 27.612 1.73999 28.7554C1.47615 28.9988 1.08221 28.6049 1.34605 28.3615C1.67122 28.0586 2.00011 27.7576 2.329 27.4603C3.25807 26.6204 4.20201 25.7966 5.16084 24.989C6.90928 23.5136 8.703 22.0952 10.542 20.7339C13.4017 18.6156 16.3598 16.641 19.4164 14.8101C20.9438 13.8959 22.4923 13.0201 24.0617 12.1827C24.5356 11.93 25.015 11.6829 25.5 11.4488C26.6004 10.8937 27.7437 10.4283 28.9189 10.057C30.5836 9.51848 32.345 9.34545 34.0827 9.54975C35.7605 9.7938 37.377 10.353 38.847 11.1979C41.9686 12.9427 44.3897 15.6407 46.7458 18.2737C46.9837 18.5413 46.5916 18.937 46.3519 18.6695Z" fill="#E4E4E4"/>
<path d="M110.313 45.2032L117.793 42.4673L121.507 41.1089C122.717 40.6665 123.924 40.1629 125.174 39.8461C126.279 39.566 127.403 39.5202 128.493 39.8884C129.454 40.2443 130.335 40.79 131.081 41.493C131.844 42.1954 132.554 42.9532 133.204 43.7604C134.013 44.7321 134.81 45.7141 135.61 46.6927C138.913 50.7318 142.194 54.7884 145.453 58.8626C148.713 62.9367 151.95 67.0281 155.166 71.1367C158.39 75.2555 161.591 79.3915 164.771 83.5446C165.16 84.0534 165.549 84.5625 165.938 85.0717C166.153 85.3531 166.637 85.0757 166.42 84.7904C163.217 80.5954 159.992 76.4177 156.744 72.257C153.489 68.0865 150.211 63.9336 146.91 59.7985C143.61 55.6634 140.287 51.5462 136.942 47.447C136.109 46.4257 135.274 45.4056 134.438 44.3866C133.733 43.5271 133.035 42.6583 132.262 41.8582C130.842 40.3897 129.068 39.0919 126.944 39.0567C125.696 39.036 124.488 39.4322 123.328 39.8518C122.077 40.3042 120.83 40.7651 119.581 41.2219L112.048 43.977L110.165 44.6657C109.831 44.788 109.975 45.3269 110.313 45.2032Z" fill="#E4E4E4"/>
<path d="M25.2293 8.07455L24.7847 8.41072C23.0063 6.05432 20.5032 4.34724 17.6602 3.55192C14.8172 2.7566 11.7917 2.91707 9.04873 4.00866C6.3058 5.10025 3.99732 7.06253 2.47819 9.59383C0.959064 12.1251 0.313376 15.0853 0.640398 18.0193C0.964144 21.019 2.29562 23.8203 4.41731 25.9655L4.01982 26.3564C1.81023 24.1224 0.423567 21.2051 0.0863773 18.0811C-0.254192 15.0258 0.418173 11.9431 2.00011 9.30712C3.58204 6.6711 5.98597 4.62762 8.84233 3.49082C11.6987 2.35402 14.8494 2.18684 17.81 3.01498C20.7706 3.84312 23.3773 5.62074 25.2293 8.07455Z" fill="#E4E4E4"/>
<path d="M67.7774 43.7717C67.6174 43.6756 67.4805 43.5455 67.3762 43.3907C67.2719 43.2359 67.2028 43.0601 67.1739 42.8758C67.1449 42.6914 67.1567 42.5029 67.2084 42.3235C67.2601 42.1442 67.3506 41.9784 67.4733 41.8378L65.8142 25.1887L68.5846 25.3726L69.3521 41.7668C69.5746 41.9887 69.7081 42.2845 69.7271 42.5982C69.7461 42.9119 69.6494 43.2216 69.4553 43.4687C69.2612 43.7159 68.9831 43.8832 68.6739 43.9391C68.3646 43.9949 68.0457 43.9354 67.7774 43.7717Z" fill="#9E616A"/>
<path d="M69.7071 24.572L68.9808 30.0923L69.0816 33.4756L66.0346 33.7546L65.4239 30.9407L65.0875 23.491C65.0621 22.9291 65.2506 22.3785 65.6151 21.9501C65.9796 21.5218 66.4929 21.2474 67.0516 21.1825C67.6312 21.1151 68.2141 21.2783 68.6745 21.6369C69.1348 21.9955 69.4357 22.5207 69.5123 23.0992L69.7071 24.572Z" fill="#2F2E41"/>
<path d="M58.0383 73.1439H56.1901L55.3108 66.0146L58.0387 66.0148L58.0383 73.1439Z" fill="#9E616A"/>
<path d="M58.5098 74.9358L52.55 74.9356V74.8602C52.5501 74.245 52.7945 73.655 53.2295 73.22C53.6645 72.785 54.2545 72.5406 54.8697 72.5405L58.5099 72.5407L58.5098 74.9358Z" fill="#2F2E41"/>
<path d="M73.3 73.1439H71.4517L70.5723 66.0146L73.3002 66.0148L73.3 73.1439Z" fill="#9E616A"/>
<path d="M73.7717 74.9358L67.812 74.9356V74.8602C67.8121 74.245 68.0565 73.655 68.4915 73.22C68.9265 72.785 69.5165 72.5406 70.1317 72.5405L73.7719 72.5407L73.7717 74.9358Z" fill="#2F2E41"/>
<path d="M66.1128 18.5584C68.326 18.5584 70.1201 16.7643 70.1201 14.5511C70.1201 12.338 68.326 10.5438 66.1128 10.5438C63.8996 10.5438 62.1055 12.338 62.1055 14.5511C62.1055 16.7643 63.8996 18.5584 66.1128 18.5584Z" fill="#9E616A"/>
<path d="M65.5949 20.1854L68.3759 20.5033C69.0522 21.4623 69.4907 22.5684 69.6552 23.7303C69.8197 24.8922 69.7056 26.0766 69.3222 27.1857L67.2238 33.256C67.2238 33.256 70.1367 39.0957 70.1367 44.5175C70.1367 49.9393 75.6842 69.2923 75.6842 69.2923L67.8756 70.1069L64.4684 49.4904L59.7732 70.0238L54.4131 69.1512L57.3653 42.2297L59.3161 33.3686L59.3992 29.0473C59.3992 29.0473 58.5697 25.8048 60.6457 23.7288L63.1803 20.197L65.5949 20.1854Z" fill="#2F2E41"/>
<path d="M61.4414 13.12H67.33V10.5531C66.0375 10.0397 64.7728 9.60297 64.0082 10.5531C63.3275 10.5531 62.6746 10.8236 62.1932 11.305C61.7118 11.7863 61.4414 12.4392 61.4414 13.12Z" fill="#2F2E41"/>
<path d="M67.6562 10.1003C71.1765 10.1003 72.1619 14.5129 72.1619 17.0023C72.1619 18.3906 71.534 18.8871 70.5474 19.0551L70.199 17.1969L69.383 19.1351C69.1058 19.1365 68.8147 19.1311 68.5128 19.1255L68.2362 18.5558L67.6191 19.1153C65.1479 19.119 63.1506 19.4792 63.1506 17.0023C63.1506 14.5129 64.0148 10.1003 67.6562 10.1003Z" fill="#2F2E41"/>
<path opacity="0.2" d="M62.4499 34.4728L62.3011 28.0089L61.9063 25.1394L60.9302 27.982L62.4499 34.4728Z" fill="black"/>
<path d="M69.856 33.6108H65.4309V20.6039H69.856C70.7027 20.6048 71.5143 20.9416 72.1129 21.5402C72.7116 22.1388 73.0483 22.9505 73.0493 23.7971V30.4176C73.0483 31.2642 72.7116 32.0759 72.1129 32.6745C71.5143 33.2731 70.7026 33.6099 69.856 33.6108Z" fill="#E91E62"/>
<path d="M69.2403 26.6426C69.0925 26.6425 68.9508 26.5837 68.8463 26.4792C68.7418 26.3747 68.683 26.233 68.6829 26.0852V21.254H69.7977V26.0852C69.7976 26.233 69.7388 26.3747 69.6343 26.4792C69.5298 26.5837 69.3881 26.6425 69.2403 26.6426Z" fill="#3F3D56"/>
<path d="M70.5803 32.5888H67.3424C67.1558 32.5886 66.9769 32.5143 66.845 32.3824C66.7131 32.2505 66.6389 32.0716 66.6387 31.885V29.9479C66.6389 29.7613 66.7131 29.5825 66.845 29.4505C66.9769 29.3186 67.1558 29.2444 67.3424 29.2441H70.5803C70.7668 29.2444 70.9457 29.3186 71.0777 29.4505C71.2096 29.5825 71.2838 29.7613 71.284 29.9479V31.885C71.2838 32.0716 71.2096 32.2505 71.0777 32.3824C70.9457 32.5143 70.7668 32.5886 70.5803 32.5888Z" fill="#3F3D56"/>
<path d="M61.3615 28.6322C60.5234 27.6434 60.0427 26.2071 60.0427 24.6917C60.0427 21.8228 61.7515 19.4889 63.8519 19.4889C64.9795 19.4889 66.0419 20.1628 66.7666 21.3379L66.4503 21.5329C65.7948 20.4701 64.8477 19.8605 63.8519 19.8605C61.9564 19.8605 60.4143 22.0278 60.4143 24.6917C60.4143 26.1206 60.8629 27.4692 61.645 28.392L61.3615 28.6322Z" fill="#E91E62"/>
<path d="M63.1673 44.4444C62.998 44.3297 62.8559 44.1793 62.7511 44.0037C62.6462 43.8282 62.5811 43.6317 62.5603 43.4283C62.5396 43.2248 62.5637 43.0193 62.631 42.8262C62.6982 42.6331 62.807 42.457 62.9497 42.3105L62.1243 23.9968L65.1443 24.3627L65.0094 42.3446C65.2396 42.6005 65.368 42.9321 65.3702 43.2764C65.3723 43.6207 65.2481 43.9538 65.021 44.2127C64.794 44.4715 64.4799 44.638 64.1382 44.6808C63.7966 44.7235 63.4511 44.6394 63.1673 44.4444Z" fill="#9E616A"/>
<path d="M66.4199 23.5537L65.297 29.55L65.2062 33.2575L61.8561 33.3816L61.3552 30.2667L61.43 22.0964C61.4357 21.4801 61.6747 20.8889 62.0989 20.4419C62.5231 19.9949 63.101 19.7253 63.7161 19.6875C64.3543 19.6482 64.9823 19.8614 65.4646 20.2811C65.947 20.7008 66.2449 21.2933 66.2943 21.9308L66.4199 23.5537Z" fill="#2F2E41"/>
<path d="M73.7158 80.332C73.9647 79.6581 72.6057 78.5354 70.6804 77.8243C68.7551 77.1131 66.9925 77.0829 66.7436 77.7568C66.4947 78.4307 67.8537 79.5534 69.7791 80.2645C71.7044 80.9756 73.4669 81.0058 73.7158 80.332Z" fill="#E6E6E6"/>
<path d="M85.7119 80.9023C86.071 80.2802 84.9213 78.944 83.1438 77.9178C81.3664 76.8915 79.6343 76.564 79.2751 77.1861C78.9159 77.8082 80.0657 79.1444 81.8431 80.1706C83.6206 81.1969 85.3527 81.5244 85.7119 80.9023Z" fill="#E6E6E6"/>
<path d="M91.553 88.9306C91.8836 88.2929 90.6746 87.01 88.8525 86.0653C87.0305 85.1205 85.2853 84.8716 84.9547 85.5094C84.624 86.1471 85.833 87.4299 87.6551 88.3747C89.4772 89.3194 91.2223 89.5683 91.553 88.9306Z" fill="#E6E6E6"/>
<path d="M103.445 91.718C103.775 91.0802 102.566 89.7974 100.744 88.8526C98.9223 87.9079 97.1772 87.659 96.8465 88.2967C96.5159 88.9344 97.7249 90.2173 99.547 91.162C101.369 92.1068 103.114 92.3557 103.445 91.718Z" fill="#E6E6E6"/>
<path d="M36.5133 14.3568C32.712 12.4031 27.8439 12.7857 24.3508 15.2265C31.0137 16.3761 37.6037 17.9141 44.087 19.8329C41.3947 18.2551 39.2887 15.7832 36.5133 14.3568Z" fill="#F2F2F2"/>
<path d="M24.3136 15.2198L23.5818 15.8147C23.8293 15.6065 24.0866 15.4113 24.351 15.2266C24.3385 15.2244 24.3261 15.222 24.3136 15.2198Z" fill="#F2F2F2"/>
<path d="M130.8 45.2306C130.063 44.3343 129.267 43.3958 128.166 43.0317L127.138 43.0723C134.965 56.9037 145.537 68.9895 158.204 78.588C149.069 67.4688 139.934 56.3497 130.8 45.2306Z" fill="#F2F2F2"/>
</svg>
