<svg width="77" height="93" viewBox="0 0 77 93" fill="none" xmlns="http://www.w3.org/2000/svg">
<path d="M76.4491 44.3611C76.1662 44.8335 75.7831 45.2381 75.3268 45.5465C74.8706 45.8549 74.3522 46.0595 73.8083 46.1459C73.2644 46.2324 72.7082 46.1985 72.1788 46.0467C71.6494 45.895 71.1597 45.629 70.7442 45.2675L59.1316 51.9268L59.5644 44.9847L70.5256 39.7253C71.1792 39.0677 72.0513 38.6726 72.9767 38.615C73.9022 38.5574 74.8166 38.8411 75.5467 39.4126C76.2769 39.984 76.772 40.8033 76.9383 41.7154C77.1046 42.6274 76.9306 43.5688 76.4491 44.3611Z" fill="#FFB8B8"/>
<path d="M42.8292 71.0379C46.2739 75.8585 46.1506 83.9233 45.1896 92.7501H28.9029L28.1948 91.0981L27.2506 92.7501H11.9081C11.9081 92.7501 13.0883 70.3299 15.2127 69.6219C17.337 68.9139 42.8292 71.0379 42.8292 71.0379Z" fill="#2F2E41"/>
<path d="M28.9031 20.6734C24.3405 20.6734 20.6417 16.9753 20.6417 12.4134C20.6417 7.85147 24.3405 4.15332 28.9031 4.15332C33.4657 4.15332 37.1644 7.85147 37.1644 12.4134C37.1644 16.9753 33.4657 20.6734 28.9031 20.6734Z" fill="#FFB8B8"/>
<path d="M22.932 22.8164L21.3164 25.9124L10.1422 30.8929L13.0794 59.3135L14.3157 62.2565L13.6478 64.8124L15.2581 66.6986C13.6416 68.161 13.4363 69.6918 14.3157 71.2753L19.4614 72.4538C19.4614 72.4538 48.073 74.9976 45.6617 70.5658C43.0271 65.7235 42.3561 51.4225 48.1724 43.7805C53.1102 37.2925 49.3193 28.8738 49.3193 28.8738L37.6065 25.374L33.2984 22.8164L22.932 22.8164Z" fill="#3F3D56"/>
<path d="M25.2354 0.313653C25.1966 0.231527 25.1341 0.162876 25.056 0.116519C24.9778 0.0701616 24.8876 0.0482131 24.7969 0.0534934C28.5791 -0.172711 32.563 0.268045 35.7272 2.35197C36.4937 2.85683 37.2165 3.45902 38.0507 3.82526C38.09 3.84295 38.1242 3.87052 38.1497 3.90529C38.1753 3.94006 38.1914 3.98085 38.1966 4.0237C38.2017 4.06655 38.1957 4.11 38.1791 4.14983C38.1625 4.18966 38.1358 4.22452 38.1018 4.25103L38.0101 4.32286C37.974 4.35121 37.9463 4.38892 37.9301 4.43189C37.9139 4.47487 37.9098 4.52147 37.9182 4.56662C37.9266 4.61177 37.9473 4.65375 37.9779 4.68798C38.0086 4.72221 38.048 4.7474 38.0919 4.76079C38.1377 4.77475 38.1786 4.80151 38.2097 4.83791C38.2408 4.87432 38.2608 4.91885 38.2675 4.96627C38.2741 5.01369 38.267 5.06201 38.2471 5.10555C38.2272 5.14909 38.1953 5.18603 38.155 5.21202L37.4529 5.66575C37.4175 5.6882 37.3884 5.71916 37.3681 5.75581C37.3478 5.79246 37.3371 5.83361 37.3369 5.87549C37.3366 5.91738 37.3469 5.95864 37.3668 5.99551C37.3867 6.03238 37.4155 6.06366 37.4506 6.0865C37.5101 6.12322 37.5725 6.15488 37.6373 6.18115C37.6776 6.19629 37.7134 6.22155 37.7411 6.25451C37.7688 6.28746 37.7875 6.327 37.7955 6.3693C37.8035 6.41161 37.8004 6.45526 37.7866 6.49604C37.7728 6.53682 37.7488 6.57336 37.7167 6.60214C37.4127 6.87278 37.1795 7.21367 37.0374 7.59509C36.8034 8.20349 36.7614 8.86608 36.7218 9.51672C36.48 8.57792 35.4552 8.0253 34.4873 7.96915C33.5193 7.913 32.5753 8.23233 31.6333 8.46187C29.5815 8.9604 27.4505 9.04236 25.3665 8.70291C26.0742 10.1229 25.4773 11.8166 24.8766 13.2849L22.9321 12.4516C20.2616 10.9444 22.1218 17.3201 23.1201 18.1954C21.0817 18.902 15.7462 11.0593 17.4626 8.08438C18.3555 6.53687 17.7217 4.54096 19.477 3.07326C20.3374 2.16774 22.055 2.57021 22.9321 1.81761C23.2773 1.5214 22.7511 0.728925 23.2255 0.556219C23.3831 0.498856 25.2093 0.255839 25.2354 0.313653Z" fill="#2F2E41"/>
<path d="M39.2289 26.1736C40.7448 32.9026 44.6329 48.6141 48.5775 51.8999C48.8277 52.1361 49.1277 52.3131 49.4553 52.4181C63.3208 55.7954 67.7635 47.1805 67.7635 47.1805C67.7635 47.1805 64.0478 45.37 63.9535 41.8312L56.4601 44.1559L49.9279 29.458L48.9666 28.5615L48.9612 28.5562L39.2289 26.1736Z" fill="#3F3D56"/>
<path d="M9.66548 88.313C9.26844 87.9314 8.95993 87.4674 8.76165 86.9537C8.56337 86.4399 8.48016 85.889 8.51787 85.3397C8.55559 84.7903 8.71331 84.2559 8.97994 83.7741C9.24656 83.2923 9.6156 82.8748 10.0611 82.551L6.17407 69.7427L12.8434 71.7209L15.5121 83.5806C16.0065 84.3649 16.196 85.3033 16.0447 86.2179C15.8934 87.1326 15.4117 87.96 14.6911 88.5433C13.9704 89.1266 13.0608 89.4253 12.1345 89.3829C11.2083 89.3405 10.3298 88.9598 9.66548 88.313Z" fill="#FFB8B8"/>
<path d="M13.2231 30.1764L10.1423 30.8929C10.1423 30.8929 -2.59146 55.6646 0.47704 60.3846C3.54554 65.1046 7.3047 80.7314 7.3047 80.7314C7.3047 80.7314 12.8646 79.6263 14.989 76.7943L11.0988 58.2606L15.1115 42.6845L13.2231 30.1764Z" fill="#3F3D56"/>
<path d="M71.6709 66.9614L71.5603 27.0651C71.5571 26.2576 71.2337 25.4844 70.6611 24.915C70.0884 24.3455 69.3132 24.0265 68.5056 24.0278L38.3703 24.1114C37.5627 24.1145 36.7893 24.4379 36.2198 25.0104C35.6503 25.583 35.3312 26.3581 35.3326 27.1656L35.4432 67.0618C35.4463 67.8693 35.7697 68.6426 36.3424 69.212C36.915 69.7814 37.6902 70.1004 38.4978 70.0991L68.6331 70.0156C69.4407 70.0124 70.2141 69.6891 70.7836 69.1165C71.3531 68.544 71.6722 67.7689 71.6709 66.9614Z" fill="#E6E6E6"/>
<path d="M69.3259 54.9175L69.2548 29.2686C69.2519 28.5123 68.949 27.7881 68.4127 27.2549C67.8764 26.7216 67.1504 26.4228 66.394 26.4241L40.4953 26.4959C39.7389 26.4988 39.0146 26.8016 38.4812 27.3378C37.9478 27.8741 37.6489 28.5999 37.6502 29.3562L37.7486 64.8585C37.7516 65.6147 38.0545 66.3389 38.5908 66.8722C39.1271 67.4055 39.8531 67.7042 40.6095 67.703L56.6533 67.6585C60.0224 67.6454 63.2488 66.2966 65.6245 63.908C68.0003 61.5194 69.3314 58.2862 69.3259 54.9175Z" fill="white"/>
<path d="M43.4629 37.691H63.6572C63.9786 37.691 64.2868 37.5634 64.514 37.3361C64.7412 37.1089 64.8689 36.8007 64.8689 36.4794C64.8689 36.158 64.7412 35.8498 64.514 35.6226C64.2868 35.3954 63.9786 35.2677 63.6572 35.2677H43.4629C43.1415 35.2677 42.8333 35.3954 42.6061 35.6226C42.3789 35.8498 42.2512 36.158 42.2512 36.4794C42.2512 36.8007 42.3789 37.1089 42.6061 37.3361C42.8333 37.5634 43.1415 37.691 43.4629 37.691Z" fill="#E91E62"/>
<path d="M59.2145 32.1047H63.6572C63.9786 32.1047 64.2868 31.9771 64.514 31.7498C64.7412 31.5226 64.8689 31.2144 64.8689 30.8931C64.8689 30.5717 64.7412 30.2635 64.514 30.0363C64.2868 29.8091 63.9786 29.6814 63.6572 29.6814H59.2145C58.8931 29.6814 58.5849 29.8091 58.3577 30.0363C58.1305 30.2635 58.0028 30.5717 58.0028 30.8931C58.0028 31.2144 58.1305 31.5226 58.3577 31.7498C58.5849 31.9771 58.8931 32.1047 59.2145 32.1047Z" fill="#E91E62"/>
<path d="M43.4629 43.2772H63.6572C63.9786 43.2772 64.2868 43.1496 64.514 42.9223C64.7412 42.6951 64.8689 42.3869 64.8689 42.0655C64.8689 41.7442 64.7412 41.436 64.514 41.2088C64.2868 40.9815 63.9786 40.8539 63.6572 40.8539H43.4629C43.1415 40.8539 42.8333 40.9815 42.6061 41.2088C42.3789 41.436 42.2512 41.7442 42.2512 42.0655C42.2512 42.3869 42.3789 42.6951 42.6061 42.9223C42.8333 43.1496 43.1415 43.2772 43.4629 43.2772Z" fill="#E91E62"/>
<path d="M43.4629 48.8635H63.6572C63.9786 48.8635 64.2868 48.7359 64.514 48.5086C64.7412 48.2814 64.8689 47.9732 64.8689 47.6518C64.8689 47.3305 64.7412 47.0223 64.514 46.7951C64.2868 46.5678 63.9786 46.4402 63.6572 46.4402H43.4629C43.1415 46.4402 42.8333 46.5678 42.6061 46.7951C42.3789 47.0223 42.2512 47.3305 42.2512 47.6518C42.2512 47.9732 42.3789 48.2814 42.6061 48.5086C42.8333 48.7359 43.1415 48.8635 43.4629 48.8635Z" fill="#E91E62"/>
<path d="M45.0969 63.5827C42.4342 63.5827 40.2757 61.4245 40.2757 58.7622C40.2757 56.1 42.4342 53.9418 45.0969 53.9418C47.7596 53.9418 49.9181 56.1 49.9181 58.7622C49.9181 61.4245 47.7596 63.5827 45.0969 63.5827Z" fill="#E91E62"/>
<path d="M44.4386 61.2716C44.3553 61.2716 44.2732 61.2522 44.1988 61.215C44.1243 61.1777 44.0595 61.1237 44.0096 61.0571L42.6943 59.3033C42.652 59.247 42.6211 59.1828 42.6036 59.1146C42.586 59.0463 42.5821 58.9753 42.592 58.9055C42.6019 58.8357 42.6255 58.7686 42.6614 58.7079C42.6973 58.6473 42.7448 58.5943 42.8012 58.552C42.8576 58.5097 42.9217 58.4789 42.99 58.4615C43.0583 58.444 43.1294 58.4402 43.1991 58.4502C43.2689 58.4602 43.336 58.4839 43.3966 58.5198C43.4572 58.5558 43.5102 58.6034 43.5524 58.6598L44.4129 59.8071L46.623 56.4919C46.662 56.4331 46.7122 56.3825 46.7707 56.3431C46.8292 56.3037 46.895 56.2762 46.9642 56.2623C47.0333 56.2483 47.1046 56.2482 47.1738 56.2618C47.2431 56.2755 47.3089 56.3026 47.3677 56.3418C47.4264 56.3809 47.4768 56.4313 47.516 56.4899C47.5552 56.5486 47.5825 56.6144 47.5962 56.6837C47.61 56.7529 47.6099 56.8241 47.596 56.8933C47.5822 56.9625 47.5548 57.0283 47.5155 57.0869L44.8849 61.0328C44.8373 61.1042 44.7733 61.1631 44.6982 61.2046C44.6232 61.2461 44.5393 61.269 44.4535 61.2714C44.4486 61.2715 44.4436 61.2716 44.4386 61.2716Z" fill="white"/>
<path d="M55.3776 14.7406C54.1136 14.7406 53.0889 13.7159 53.0889 12.4519C53.0889 11.1879 54.1136 10.1632 55.3776 10.1632C56.6416 10.1632 57.6663 11.1879 57.6663 12.4519C57.6663 13.7159 56.6416 14.7406 55.3776 14.7406Z" fill="#F2F2F2"/>
<path d="M63.7246 80.564C62.4606 80.564 61.4359 79.5393 61.4359 78.2753C61.4359 77.0113 62.4606 75.9866 63.7246 75.9866C64.9886 75.9866 66.0133 77.0113 66.0133 78.2753C66.0133 79.5393 64.9886 80.564 63.7246 80.564Z" fill="#F2F2F2"/>
<path d="M11.0845 23.6248C9.82046 23.6248 8.79578 22.6001 8.79578 21.3361C8.79578 20.072 9.82046 19.0474 11.0845 19.0474C12.3485 19.0474 13.3732 20.072 13.3732 21.3361C13.3732 22.6001 12.3485 23.6248 11.0845 23.6248Z" fill="#F2F2F2"/>
</svg>
