<svg width="116" height="77" viewBox="0 0 116 77" fill="none" xmlns="http://www.w3.org/2000/svg">
<g clip-path="url(#clip0_397_368)">
<path d="M4.25588 40.7613C3.61623 41.0634 2.89 41.1284 2.20688 40.9445C1.52376 40.7607 0.928228 40.34 0.526648 39.7576C0.445835 39.6394 0.6255 39.5082 0.706457 39.6266C1.07939 40.1696 1.63417 40.5615 2.27066 40.7314C2.90714 40.9013 3.5834 40.8381 4.17738 40.5532C4.30654 40.4914 4.38432 40.6999 4.25588 40.7614V40.7613Z" fill="white"/>
<path d="M2.11158 34.6464C2.38336 34.5811 2.63467 34.4493 2.84296 34.2629C3.05126 34.0765 3.21002 33.8413 3.30501 33.5785C3.35321 33.4434 3.55568 33.536 3.50705 33.6701C3.40087 33.9602 3.22526 34.2199 2.99556 34.4265C2.76586 34.6331 2.48907 34.7802 2.18936 34.8552C2.16171 34.8645 2.13156 34.863 2.10497 34.8509C2.07839 34.8389 2.05734 34.8173 2.04606 34.7904C2.0409 34.7766 2.03851 34.762 2.03901 34.7473C2.03951 34.7326 2.04289 34.7182 2.04898 34.7048C2.05506 34.6914 2.06372 34.6794 2.07446 34.6693C2.08521 34.6593 2.09782 34.6515 2.11158 34.6464Z" fill="white"/>
<path d="M83.1788 69.1416H31.1232C30.1775 69.1427 29.2709 69.5189 28.6022 70.1876C27.9335 70.8562 27.5574 71.7629 27.5563 72.7085C27.5558 73.1633 27.6432 73.6138 27.8136 74.0354C28.0784 74.6968 28.5351 75.2636 29.125 75.6631C29.7149 76.0625 30.4108 76.2762 31.1232 76.2766H83.1788C83.8015 76.2763 84.4133 76.1131 84.9533 75.8032C85.4934 75.4932 85.9429 75.0472 86.2571 74.5096C86.3467 74.3577 86.4244 74.1991 86.4896 74.0353C86.66 73.6137 86.7474 73.1631 86.7469 72.7084C86.7456 71.7626 86.3692 70.856 85.7003 70.1873C85.0314 69.5186 84.1247 69.1425 83.1789 69.1415L83.1788 69.1416Z" fill="#CCCCCC"/>
<path d="M61.1545 36.6458H53.5718V45.5587H61.1545V36.6458Z" fill="#ED9DA0"/>
<path d="M56.2264 30.8928H57.0191C57.4045 30.8929 57.774 31.0461 58.0465 31.3186C58.3189 31.5912 58.472 31.9608 58.472 32.3462H54.7731C54.7731 31.9607 54.9262 31.591 55.1987 31.3185C55.4713 31.0459 55.841 30.8928 56.2264 30.8928Z" fill="#CCCCCC"/>
<path d="M57.3849 39.1378C61.9068 39.1378 65.5726 35.472 65.5726 30.9501C65.5726 26.4282 61.9068 22.7625 57.3849 22.7625C52.863 22.7625 49.1973 26.4282 49.1973 30.9501C49.1973 35.472 52.863 39.1378 57.3849 39.1378Z" fill="#ED9DA0"/>
<path d="M48.2514 23.0735C48.3133 22.1331 48.9351 21.171 50.9106 20.6683C50.9106 20.6683 54.301 16.3329 58.908 18.6064C58.908 18.6064 61.1415 18.2221 62.7977 20.5401C62.7977 20.5401 64.4398 19.5717 65.1325 21.2882C65.1325 21.2882 67.0583 24.7896 66.3493 28.3611C65.6403 31.9326 65.2774 32.3782 65.2774 32.3782C65.2774 32.3782 66.1811 24.9908 60.9758 25.503C55.7706 26.0153 51.5799 24.1848 50.401 28.1927C49.4222 31.5206 49.5455 33.249 49.5455 33.249C49.5455 33.249 46.2723 29.929 47.3852 27.3148C47.9547 25.9771 48.1558 24.5235 48.2514 23.0735Z" fill="#090814"/>
<path d="M35.1194 75.6956H80.4077C80.1047 72.2409 79.9073 59.0355 79.9073 58.1665C79.9073 54.3331 76.7706 50.1498 76.7706 50.1498L75.6479 49.5293L66.2717 46.604L63.8451 43.4519C63.591 43.1209 63.2636 42.8533 62.8886 42.6702C62.5137 42.4872 62.1014 42.3935 61.6841 42.3967L54.0191 42.4544C53.3444 42.4595 52.6959 42.7164 52.2008 43.1748L47.4543 47.578L40.4932 50.9021L40.4813 50.8903L40.4092 50.9444L39.3761 51.6885L38.7122 52.1687C38.7122 52.1687 36.9677 54.2603 35.5742 60.5337C35.3646 61.4774 35.2175 73.6918 35.1194 75.6956Z" fill="#F50057"/>
<path d="M90.8901 74.0355C90.781 74.1351 90.6707 74.2335 90.5605 74.3319C90.143 74.7031 89.7197 75.0679 89.2906 75.4264C88.6419 75.967 87.9799 76.4914 87.3043 76.9993H26.3373C25.0963 76.0673 23.9006 75.0791 22.7502 74.0348L90.8901 74.0355Z" fill="#CCCCCC"/>
<path d="M68.5424 74.7471H46.1304L46.6046 72.4941H68.0677L68.5424 74.7471Z" fill="#090814"/>
<path d="M88.8184 65.0241H82.9866C82.855 65.0237 82.7248 65.0522 82.6054 65.1075C82.4859 65.1628 82.3801 65.2436 82.2952 65.3443C82.214 65.3286 82.1314 65.3207 82.0486 65.3206C81.6818 65.3206 81.3299 65.4664 81.0705 65.7258C80.8111 65.9852 80.6654 66.337 80.6654 66.7038C80.6654 67.0707 80.8111 67.4225 81.0705 67.6819C81.3299 67.9413 81.6818 68.087 82.0486 68.087C82.2574 68.087 82.4634 68.0392 82.6508 67.9472L82.7482 69.1424L83.1348 73.8666C83.1532 73.9256 83.1778 73.9824 83.2083 74.0362C83.2864 74.1796 83.4017 74.2994 83.5422 74.3829C83.6826 74.4664 83.8429 74.5104 84.0063 74.5105H87.7989C87.9624 74.5103 88.1228 74.4662 88.2634 74.3827C88.404 74.2993 88.5196 74.1796 88.5981 74.0362C88.6276 73.9822 88.6518 73.9254 88.6702 73.8666L89.6901 66.2038C89.732 66.0674 89.7413 65.9231 89.7173 65.7824C89.6933 65.6418 89.6367 65.5087 89.5519 65.394C89.4671 65.2792 89.3566 65.1859 89.2292 65.1217C89.1018 65.0574 88.9611 65.0239 88.8184 65.0239V65.0241ZM82.0488 67.6922C81.7866 67.6922 81.5351 67.5881 81.3498 67.4027C81.1644 67.2173 81.0602 66.9659 81.0602 66.7037C81.0602 66.4415 81.1644 66.1901 81.3498 66.0047C81.5351 65.8193 81.7866 65.7152 82.0488 65.7152C82.0665 65.7152 82.0831 65.7199 82.101 65.7211C82.062 65.8803 82.067 66.0471 82.1154 66.2037L82.5328 67.5602C82.3857 67.6456 82.2189 67.691 82.0489 67.6918L82.0488 67.6922Z" fill="#090814"/>
<path d="M75.6466 39.952H38.7302C38.4129 39.9524 38.1088 40.0785 37.8845 40.3028C37.6602 40.5271 37.534 40.8313 37.5337 41.1485V66.0597C37.534 66.3769 37.6602 66.681 37.8845 66.9053C38.1088 67.1297 38.4129 67.2558 38.7302 67.2562H75.6466C75.9638 67.2558 76.2679 67.1297 76.4922 66.9053C76.7165 66.681 76.8427 66.3769 76.843 66.0597V41.1485C76.8427 40.8313 76.7165 40.5271 76.4922 40.3028C76.2679 40.0785 75.9638 39.9524 75.6466 39.952Z" fill="#3F3D56"/>
<path d="M61.3457 59.9127H52.7096C52.649 59.9128 52.5891 59.9248 52.5332 59.9481C52.4773 59.9713 52.4266 60.0054 52.3839 60.0483C52.3411 60.0911 52.3073 60.142 52.2842 60.198C52.2612 60.254 52.2494 60.3139 52.2495 60.3745V74.0172H61.8071V60.3739C61.8072 60.3132 61.7953 60.2531 61.7721 60.1971C61.749 60.141 61.715 60.0901 61.6721 60.0472C61.6292 60.0043 61.5782 59.9702 61.5221 59.9471C61.4661 59.9239 61.406 59.912 61.3453 59.9121L61.3457 59.9127ZM57.0567 67.6642C56.7866 67.663 56.528 67.5551 56.337 67.3642C56.146 67.1732 56.0382 66.9145 56.0369 66.6444V65.0714C56.0401 64.8031 56.1489 64.5468 56.3398 64.3582C56.5307 64.1695 56.7883 64.0637 57.0567 64.0637C57.325 64.0637 57.5826 64.1695 57.7735 64.3582C57.9644 64.5468 58.0732 64.8031 58.0764 65.0714V66.6444C58.0752 66.9145 57.9673 67.1732 57.7763 67.3642C57.5854 67.5551 57.3267 67.663 57.0566 67.6642H57.0567Z" fill="#090814"/>
<path d="M52.2198 73.5801V74.8963C52.22 74.9645 52.2472 75.0299 52.2954 75.0781C52.3436 75.1263 52.409 75.1535 52.4772 75.1536H61.5799C61.648 75.1533 61.7133 75.1261 61.7614 75.0779C61.8096 75.0297 61.8368 74.9645 61.8372 74.8963V73.5801H52.2198Z" fill="#3F3D56"/>
<path d="M74.8617 65.7995C75.1836 65.7995 75.4445 65.5386 75.4445 65.2167C75.4445 64.8947 75.1836 64.6338 74.8617 64.6338C74.5398 64.6338 74.2788 64.8947 74.2788 65.2167C74.2788 65.5386 74.5398 65.7995 74.8617 65.7995Z" fill="#2F2E41"/>
<path d="M43.3904 64.3712C43.3363 64.3712 43.2845 64.3927 43.2462 64.4309C43.208 64.4692 43.1865 64.521 43.1865 64.5751V65.6245C43.1865 65.6786 43.208 65.7305 43.2463 65.7688C43.2845 65.807 43.3364 65.8285 43.3905 65.8285C43.4446 65.8285 43.4965 65.807 43.5347 65.7688C43.573 65.7305 43.5945 65.6786 43.5945 65.6245V64.5751C43.5945 64.521 43.573 64.4692 43.5348 64.4309C43.4965 64.3927 43.4447 64.3712 43.3906 64.3712H43.3904Z" fill="#2F2E41"/>
<path d="M44.4979 64.3712C44.4438 64.3712 44.3919 64.3927 44.3537 64.4309C44.3154 64.4692 44.2939 64.521 44.2939 64.5751V65.6245C44.2939 65.6786 44.3154 65.7305 44.3537 65.7688C44.392 65.807 44.4438 65.8285 44.4979 65.8285C44.552 65.8285 44.6039 65.807 44.6422 65.7688C44.6804 65.7305 44.7019 65.6786 44.7019 65.6245V64.5751C44.7019 64.521 44.6804 64.4692 44.6422 64.4309C44.6039 64.3927 44.5519 64.3712 44.4979 64.3712Z" fill="#2F2E41"/>
<path d="M45.6059 64.3712C45.5518 64.3712 45.4999 64.3927 45.4617 64.4309C45.4235 64.4692 45.402 64.521 45.402 64.5751V65.6245C45.402 65.6786 45.4235 65.7305 45.4617 65.7688C45.5 65.807 45.5519 65.8285 45.606 65.8285C45.6601 65.8285 45.7119 65.807 45.7502 65.7688C45.7885 65.7305 45.8099 65.6786 45.8099 65.6245V64.5751C45.8099 64.5483 45.8047 64.5218 45.7944 64.4971C45.7841 64.4723 45.7691 64.4498 45.7502 64.4309C45.7312 64.412 45.7087 64.3969 45.684 64.3867C45.6592 64.3765 45.6327 64.3712 45.6059 64.3712Z" fill="#2F2E41"/>
<path d="M46.7129 64.3712C46.6589 64.3712 46.607 64.3927 46.5688 64.4309C46.5305 64.4692 46.509 64.521 46.509 64.5751V65.6245C46.509 65.6786 46.5305 65.7305 46.5688 65.7688C46.607 65.807 46.6589 65.8285 46.713 65.8285C46.7671 65.8285 46.819 65.807 46.8573 65.7688C46.8955 65.7305 46.917 65.6786 46.917 65.6245V64.5751C46.917 64.521 46.8955 64.4692 46.8573 64.4309C46.819 64.3927 46.767 64.3712 46.7129 64.3712Z" fill="#2F2E41"/>
<path d="M47.5966 74.154C49.2993 74.154 50.6796 72.7736 50.6796 71.0709C50.6796 69.3682 49.2993 67.9879 47.5966 67.9879C45.8939 67.9879 44.5135 69.3682 44.5135 71.0709C44.5135 72.7736 45.8939 74.154 47.5966 74.154Z" fill="#ED9DA0"/>
<path d="M69.1353 74.747C70.838 74.747 72.2183 73.3667 72.2183 71.664C72.2183 69.9612 70.838 68.5809 69.1353 68.5809C67.4326 68.5809 66.0522 69.9612 66.0522 71.664C66.0522 73.3667 67.4326 74.747 69.1353 74.747Z" fill="#ED9DA0"/>
<path d="M109.871 26.9665C109.567 26.4626 109.206 25.9246 108.64 25.7601C107.986 25.5696 107.313 25.9477 106.742 26.3216C105.037 27.4387 103.394 28.6492 101.822 29.9478L101.823 29.9674C103.047 29.883 104.064 33.1382 105.288 33.0537C106.172 32.9927 107.295 29.5838 108.077 29.1653C108.373 29.0066 108.663 28.7945 108.999 28.7797C109.416 28.7614 109.78 29.0531 110.067 29.3577C111.759 31.1601 112.249 33.9163 114.148 35.4998C112.95 32.5468 111.521 29.6935 109.872 26.9666L109.871 26.9665Z" fill="#F50057"/>
<path d="M113.129 31.3441C114.022 32.9568 114.969 34.5375 115.97 36.0861V36.0873C115.964 36.1418 115.956 36.1964 115.948 36.2509C115.827 36.0659 115.707 35.8801 115.588 35.6936C114.69 34.2837 113.835 32.8469 113.026 31.3832C112.642 30.6872 112.267 29.9856 111.902 29.2785C111.619 28.7307 111.343 28.1797 111.073 27.6254C110.996 27.4667 110.921 27.3079 110.846 27.1476C110.671 26.7724 110.498 26.3957 110.312 26.0259C110.101 25.6038 109.844 25.1626 109.456 24.8792C109.28 24.7447 109.069 24.6633 108.848 24.6444C108.536 24.6463 108.232 24.7337 107.967 24.897C105.961 25.9513 104.088 27.2424 102.39 28.7425C100.689 30.2368 99.1694 31.9246 97.8607 33.7717C97.8205 33.8285 97.7255 33.774 97.7659 33.716C97.9259 33.4907 98.0873 33.2686 98.2532 33.0484C100.311 30.3123 102.833 27.9594 105.706 26.0972C106.189 25.7841 106.681 25.4859 107.182 25.2025C107.435 25.059 107.689 24.9179 107.947 24.7851C108.195 24.6401 108.472 24.554 108.758 24.5337C109.742 24.5183 110.252 25.6329 110.602 26.3825C110.711 26.6185 110.822 26.8542 110.935 27.0896C111.361 27.9789 111.803 28.8612 112.262 29.7364C112.545 30.275 112.834 30.8109 113.129 31.3441Z" fill="#3F3D56"/>
<path d="M102.294 28.1919C102.236 28.1281 102.18 28.0645 102.122 28.0007C101.668 27.4989 101.181 27.0029 100.558 26.7152C100.261 26.5737 99.9369 26.4985 99.6079 26.4948C99.2683 26.5041 98.9335 26.5771 98.6209 26.71C98.4723 26.7693 98.3271 26.8367 98.184 26.9084C98.0205 26.9907 97.8599 27.0784 97.7 27.167C97.3999 27.3331 97.1037 27.5062 96.8115 27.6865C96.2299 28.046 95.6665 28.4329 95.1213 28.8472C94.8388 29.062 94.562 29.2839 94.2909 29.5129C94.039 29.7256 93.7921 29.944 93.5502 30.1681C93.4985 30.2158 93.4213 30.1392 93.473 30.0909C93.5368 30.0316 93.6012 29.9725 93.6657 29.9142C93.8478 29.7496 94.0328 29.5882 94.2207 29.4299C94.5634 29.1407 94.9149 28.8628 95.2753 28.596C95.8358 28.1808 96.4155 27.7939 97.0145 27.435C97.3139 27.2559 97.6174 27.0842 97.9249 26.9201C98.0179 26.8706 98.1118 26.8221 98.2068 26.7758C98.4224 26.667 98.6465 26.5758 98.8768 26.5031C99.2031 26.3975 99.5483 26.3636 99.8888 26.4036C100.218 26.4515 100.534 26.561 100.823 26.7266C101.434 27.0686 101.909 27.5974 102.371 28.1134C102.417 28.1668 102.341 28.2444 102.294 28.1919Z" fill="#3F3D56"/>
<path d="M97.8166 30.6064C97.6611 30.6141 97.5074 30.5701 97.3796 30.4813C97.041 30.2249 97.0499 29.6087 97.4067 28.5978C97.5039 28.3239 97.6561 28.0728 97.8541 27.86C98.052 27.6473 98.2915 27.4773 98.5577 27.3608C98.8072 27.2492 99.0772 27.1907 99.3504 27.1891C99.6237 27.1875 99.8944 27.2428 100.145 27.3514C100.189 27.3706 100.232 27.391 100.275 27.4126C100.565 27.575 100.837 27.768 101.086 27.9882C101.298 28.172 101.524 28.3389 101.762 28.4874L101.842 28.534L101.766 28.5871C99.8444 29.9387 98.5421 30.6064 97.8166 30.6064Z" fill="#F50057"/>
<path d="M105.203 22.5586C104.572 22.5585 103.96 22.3393 103.472 21.9383C102.984 21.5374 102.65 20.9795 102.528 20.3599C101.999 20.4668 101.515 20.7278 101.135 21.1099C100.755 21.492 100.497 21.9781 100.393 22.5069C100.289 23.0357 100.344 23.5834 100.551 24.0809C100.758 24.5784 101.107 25.0035 101.556 25.3024C102.004 25.6013 102.531 25.7607 103.07 25.7605C103.609 25.7603 104.136 25.6004 104.584 25.3011C105.032 25.0018 105.381 24.5764 105.588 24.0787C105.794 23.581 105.849 23.0333 105.745 22.5046C105.566 22.5405 105.385 22.5586 105.203 22.5586Z" fill="#3F3D56"/>
<path opacity="0.74" d="M22.9171 22.7623C25.1649 22.7623 26.9871 20.9402 26.9871 18.6924C26.9871 16.4446 25.1649 14.6224 22.9171 14.6224C20.6693 14.6224 18.8472 16.4446 18.8472 18.6924C18.8472 20.9402 20.6693 22.7623 22.9171 22.7623Z" fill="#3F3D56"/>
<path opacity="0.74" d="M26.9871 22.7623C29.2348 22.7623 31.057 20.9402 31.057 18.6924C31.057 16.4446 29.2348 14.6224 26.9871 14.6224C24.7393 14.6224 22.9171 16.4446 22.9171 18.6924C22.9171 20.9402 24.7393 22.7623 26.9871 22.7623Z" fill="#FF6584"/>
<path opacity="0.74" d="M24.9866 19.5186C27.2343 19.5186 29.0565 17.6964 29.0565 15.4486C29.0565 13.2008 27.2343 11.3787 24.9866 11.3787C22.7388 11.3787 20.9166 13.2008 20.9166 15.4486C20.9166 17.6964 22.7388 19.5186 24.9866 19.5186Z" fill="#F50057"/>
<path d="M35.6292 14.2824L25.175 17.5668L25.2461 17.793L35.7003 14.5086L35.6292 14.2824Z" fill="#3F3D56"/>
<path d="M91.4188 3.14233H91.3513C91.5617 3.14249 91.7692 3.19155 91.9574 3.28563H91.6499C91.3185 3.28602 91.0009 3.4178 90.7666 3.65209C90.5323 3.88637 90.4005 4.20402 90.4001 4.53535V7.84623C90.4005 8.17756 90.5323 8.49521 90.7666 8.72949C91.0009 8.96378 91.3185 9.09557 91.6499 9.09595H91.8458C91.6883 9.15772 91.5206 9.18953 91.3514 9.18975H91.419C91.7817 9.18933 92.1295 9.04503 92.3861 8.78851C92.6426 8.53199 92.7869 8.18419 92.7873 7.82141V4.51067C92.7869 4.1479 92.6426 3.8001 92.3861 3.54358C92.1295 3.28705 91.7816 3.14275 91.4188 3.14233Z" fill="#FF6584"/>
<path opacity="0.21" d="M91.4188 3.14233H91.3513C91.5617 3.14249 91.7692 3.19155 91.9574 3.28563H91.6499C91.3185 3.28602 91.0009 3.4178 90.7666 3.65209C90.5323 3.88637 90.4005 4.20402 90.4001 4.53535V7.84623C90.4005 8.17756 90.5323 8.49521 90.7666 8.72949C91.0009 8.96378 91.3185 9.09557 91.6499 9.09595H91.8458C91.6883 9.15772 91.5206 9.18953 91.3514 9.18975H91.419C91.7817 9.18933 92.1295 9.04503 92.3861 8.78851C92.6426 8.53199 92.7869 8.18419 92.7873 7.82141V4.51067C92.7869 4.1479 92.6426 3.8001 92.3861 3.54358C92.1295 3.28705 91.7816 3.14275 91.4188 3.14233Z" fill="black"/>
<path d="M91.6628 9.10632C91.3315 9.10594 91.0138 8.97416 90.7795 8.73987C90.5453 8.50559 90.4135 8.18794 90.4131 7.85661V4.54573C90.4135 4.2144 90.5453 3.89675 90.7795 3.66246C91.0138 3.42818 91.3315 3.29639 91.6628 3.29601H91.9703C91.7821 3.20193 91.5746 3.15287 91.3642 3.15271H88.0536C87.6909 3.15313 87.3431 3.29743 87.0865 3.55395C86.83 3.81047 86.6857 4.15827 86.6853 4.52105V7.83193C86.6857 8.19471 86.83 8.54251 87.0865 8.79903C87.3431 9.05555 87.6909 9.19985 88.0536 9.20027H91.3645C91.5337 9.20005 91.7014 9.16824 91.8589 9.10647L91.6628 9.10632Z" fill="#F50057"/>
<path d="M91.6628 9.10632C91.3315 9.10594 91.0138 8.97416 90.7795 8.73987C90.5453 8.50559 90.4135 8.18794 90.4131 7.85661V4.54573C90.4135 4.2144 90.5453 3.89675 90.7795 3.66246C91.0138 3.42818 91.3315 3.29639 91.6628 3.29601H91.9703C91.7821 3.20193 91.5746 3.15287 91.3642 3.15271H88.0536C87.6909 3.15313 87.3431 3.29743 87.0865 3.55395C86.83 3.81047 86.6857 4.15827 86.6853 4.52105V7.83193C86.6857 8.19471 86.83 8.54251 87.0865 8.79903C87.3431 9.05555 87.6909 9.19985 88.0536 9.20027H91.3645C91.5337 9.20005 91.7014 9.16824 91.8589 9.10647L91.6628 9.10632Z" fill="#FF6584"/>
<path d="M35.6958 14.832C35.9578 14.832 36.1701 14.6196 36.1701 14.3576C36.1701 14.0957 35.9578 13.8833 35.6958 13.8833C35.4338 13.8833 35.2214 14.0957 35.2214 14.3576C35.2214 14.6196 35.4338 14.832 35.6958 14.832Z" fill="#3F3D56"/>
<path d="M112.842 37.5517C113.537 38.0415 114.205 38.5407 114.968 38.9178C114.954 38.9755 114.939 39.0351 114.925 39.0933C114.831 39.05 114.74 39.0031 114.649 38.9557C113.874 38.5502 113.208 37.9988 112.481 37.5197C112.121 37.2707 111.727 37.0735 111.312 36.934C110.879 36.8039 110.427 36.7509 109.976 36.7774C108.094 36.8699 106.481 37.9929 104.732 38.5584C103.876 38.8359 102.965 38.9841 102.072 38.8098C101.179 38.6355 100.386 38.1612 99.5975 37.732C98.8197 37.3074 97.9717 36.8806 97.0634 36.8806C96.3236 36.8817 95.5456 37.1781 95.1496 37.833C95.1377 37.8533 95.1182 37.868 95.0954 37.8739C95.0726 37.8798 95.0484 37.8764 95.0281 37.8645C95.0078 37.8525 94.9931 37.833 94.9872 37.8102C94.9813 37.7874 94.9847 37.7632 94.9966 37.743C95.0852 37.5939 95.1942 37.4579 95.3203 37.3389C95.8374 36.8491 96.5975 36.6559 97.2959 36.7127C98.1994 36.7862 99.0236 37.2132 99.805 37.6424C100.634 38.0977 101.483 38.5874 102.441 38.687C103.387 38.7866 104.324 38.5388 105.202 38.2056C106.901 37.5594 108.578 36.4827 110.468 36.6023C111.359 36.6589 112.122 37.0454 112.842 37.5517Z" fill="#3F3D56"/>
<path d="M49.4347 1.91739V2.1581C49.355 2.14237 49.274 2.13444 49.1928 2.13443H47.9517V4.7978C47.9514 5.1919 47.7946 5.56974 47.516 5.84841C47.2373 6.12708 46.8595 6.28381 46.4654 6.28419H44.6321V6.69446C44.6321 6.85895 44.6647 7.0218 44.7282 7.17356H44.4745C44.4214 7.01942 44.3945 6.85748 44.395 6.69446V6.28419H43.387V6.04709H44.395V3.3843C44.3953 2.9902 44.5521 2.61236 44.8307 2.33369C45.1094 2.05502 45.4872 1.89829 45.8813 1.89791H47.7141V1.4823H47.9512V1.89733H49.1922C49.2733 1.89744 49.3542 1.9042 49.4341 1.91754L49.4347 1.91739Z" fill="#F50057"/>
<path d="M46.4653 -0.00012207H43.1546C42.7605 0.000259991 42.3827 0.156982 42.104 0.43565C41.8253 0.714318 41.6686 1.09216 41.6682 1.48626V4.797C41.6686 5.1911 41.8253 5.56894 42.104 5.84761C42.3827 6.12628 42.7605 6.283 43.1546 6.28338H46.4653C46.8594 6.283 47.2373 6.12628 47.5159 5.84761C47.7946 5.56894 47.9513 5.1911 47.9517 4.797V1.48222C47.9503 1.08881 47.7931 0.711983 47.5146 0.434179C47.236 0.156375 46.8587 0.000218852 46.4653 -0.00012207ZM47.7152 4.79758C47.7148 5.12893 47.583 5.44659 47.3487 5.6809C47.1144 5.9152 46.7967 6.04702 46.4653 6.04744H43.1546C42.8232 6.04702 42.5056 5.9152 42.2713 5.6809C42.037 5.44659 41.9052 5.12893 41.9047 4.79758V1.48698C41.9052 1.15564 42.037 0.837996 42.2713 0.603701C42.5056 0.369406 42.8233 0.237578 43.1546 0.237119H46.4653C46.7959 0.237497 47.1128 0.368647 47.347 0.601931C47.5812 0.835214 47.7136 1.15168 47.7152 1.48222V4.79758Z" fill="#3F3D56"/>
<path d="M44.3951 6.04755V6.28464H44.6322V6.04755H44.3951ZM44.3951 6.04755V6.28464H44.6322V6.04755H44.3951ZM49.4348 1.91742C49.3549 1.90408 49.274 1.89732 49.193 1.89722H45.8821C45.488 1.8976 45.1102 2.05432 44.8315 2.33299C44.5528 2.61166 44.3961 2.9895 44.3957 3.3836V6.69434C44.3953 6.85736 44.4222 7.0193 44.4752 7.17344C44.5753 7.46734 44.7649 7.72255 45.0173 7.90332C45.2697 8.08408 45.5724 8.18133 45.8828 8.18144H49.1934C49.5875 8.18106 49.9654 8.02434 50.244 7.74567C50.5227 7.467 50.6794 7.08916 50.6798 6.69506V3.38432C50.6799 3.03189 50.5547 2.69091 50.3266 2.42223C50.0986 2.15354 49.7825 1.97463 49.4347 1.91742H49.4348ZM50.4428 6.69506C50.4424 7.02642 50.3106 7.34408 50.0763 7.57838C49.842 7.81269 49.5243 7.9445 49.193 7.94492H45.8821C45.5508 7.94446 45.2331 7.81263 44.9988 7.57834C44.7645 7.34404 44.6327 7.0264 44.6322 6.69506V3.38432C44.6327 3.05297 44.7645 2.7353 44.9988 2.501C45.2331 2.2667 45.5507 2.13488 45.8821 2.13446H49.1934C49.5249 2.13457 49.8427 2.26629 50.0771 2.50066C50.3114 2.73503 50.4432 3.05287 50.4433 3.38432L50.4428 6.69506ZM44.3953 6.04755V6.28464H44.6324V6.04755H44.3953Z" fill="#3F3D56"/>
<path d="M18.9027 30.6039H7.30021C7.21945 30.6039 7.14199 30.636 7.08479 30.693C7.02759 30.75 6.9953 30.8273 6.995 30.9081V31.5959C7.37776 33.0619 7.84117 34.5057 8.38311 35.9207H18.9022C18.9422 35.9207 18.9818 35.9129 19.0187 35.8976C19.0556 35.8823 19.0892 35.8599 19.1174 35.8317C19.1457 35.8034 19.1681 35.7698 19.1834 35.7329C19.1986 35.696 19.2065 35.6564 19.2064 35.6165V30.9084C19.2064 30.8277 19.1744 30.7504 19.1175 30.6933C19.0606 30.6362 18.9833 30.6041 18.9027 30.6039Z" fill="#F50057"/>
<path d="M17.7972 37.448H9.00269C9.10731 37.6934 9.21396 37.9371 9.3245 38.1797H17.797C18.2745 38.1866 18.2696 37.4413 17.7972 37.448Z" fill="#E4E4E4"/>
<path d="M17.7972 39.1247H9.76587C9.88324 39.3702 10.0039 39.6141 10.1278 39.8565H17.7972C18.2746 39.8632 18.2697 39.1188 17.7972 39.1247Z" fill="#E4E4E4"/>
<path d="M17.7972 40.8024H10.6217C10.7527 41.0477 10.8878 41.2915 11.0248 41.5341H17.7972C18.2746 41.5408 18.2696 40.7955 17.7972 40.8024Z" fill="#E4E4E4"/>
<path d="M82.6437 3.14233H82.5762C82.7866 3.14249 82.9941 3.19155 83.1823 3.28563H82.8745C82.5431 3.28598 82.2255 3.41775 81.9911 3.65204C81.7568 3.88633 81.625 4.204 81.6246 4.53535V7.84623C81.625 8.17756 81.7568 8.49521 81.9911 8.72949C82.2254 8.96378 82.543 9.09557 82.8744 9.09595H83.0708C82.9132 9.15772 82.7456 9.18954 82.5764 9.18975H82.6439C83.0067 9.18933 83.3545 9.04503 83.611 8.78851C83.8675 8.53199 84.0118 8.18419 84.0122 7.82141V4.51067C84.0118 4.1479 83.8675 3.8001 83.611 3.54358C83.3545 3.28705 83.0065 3.14275 82.6437 3.14233Z" fill="#3F3D56"/>
<path opacity="0.21" d="M82.6437 3.14233H82.5762C82.7866 3.14249 82.9941 3.19155 83.1823 3.28563H82.8745C82.5431 3.28598 82.2255 3.41775 81.9911 3.65204C81.7568 3.88633 81.625 4.204 81.6246 4.53535V7.84623C81.625 8.17756 81.7568 8.49521 81.9911 8.72949C82.2254 8.96378 82.543 9.09557 82.8744 9.09595H83.0708C82.9132 9.15772 82.7456 9.18954 82.5764 9.18975H82.6439C83.0067 9.18933 83.3545 9.04503 83.611 8.78851C83.8675 8.53199 84.0118 8.18419 84.0122 7.82141V4.51067C84.0118 4.1479 83.8675 3.8001 83.611 3.54358C83.3545 3.28705 83.0065 3.14275 82.6437 3.14233Z" fill="black"/>
<path d="M73.8689 3.14233H73.8014C74.0118 3.14249 74.2193 3.19155 74.4075 3.28563H74.0999C73.7686 3.28602 73.451 3.4178 73.2167 3.65209C72.9824 3.88637 72.8506 4.20402 72.8502 4.53535V7.84623C72.8506 8.17756 72.9824 8.49521 73.2167 8.72949C73.451 8.96378 73.7686 9.09557 74.0999 9.09595H74.2959C74.1384 9.15772 73.9707 9.18953 73.8015 9.18975H73.869C74.2318 9.18933 74.5796 9.04503 74.8361 8.78851C75.0927 8.53199 75.237 8.18419 75.2374 7.82141V4.51067C75.237 4.1479 75.0927 3.8001 74.8361 3.54358C74.5796 3.28705 74.2317 3.14275 73.8689 3.14233Z" fill="#F50057"/>
<path opacity="0.21" d="M73.8689 3.14233H73.8014C74.0118 3.14249 74.2193 3.19155 74.4075 3.28563H74.0999C73.7686 3.28602 73.451 3.4178 73.2167 3.65209C72.9824 3.88637 72.8506 4.20402 72.8502 4.53535V7.84623C72.8506 8.17756 72.9824 8.49521 73.2167 8.72949C73.451 8.96378 73.7686 9.09557 74.0999 9.09595H74.2959C74.1384 9.15772 73.9707 9.18953 73.8015 9.18975H73.869C74.2318 9.18933 74.5796 9.04503 74.8361 8.78851C75.0927 8.53199 75.237 8.18419 75.2374 7.82141V4.51067C75.237 4.1479 75.0927 3.8001 74.8361 3.54358C74.5796 3.28705 74.2317 3.14275 73.8689 3.14233Z" fill="black"/>
<path d="M74.113 9.10632C73.7817 9.10594 73.464 8.97416 73.2297 8.73987C72.9955 8.50559 72.8637 8.18794 72.8633 7.85661V4.54573C72.8637 4.2144 72.9955 3.89675 73.2297 3.66246C73.464 3.42818 73.7817 3.29639 74.113 3.29601H74.4205C74.2323 3.20193 74.0248 3.15287 73.8144 3.15271H70.5038C70.1411 3.15313 69.7933 3.29743 69.5367 3.55395C69.2802 3.81047 69.1359 4.15827 69.1355 4.52105V7.83193C69.1359 8.19471 69.2802 8.54251 69.5367 8.79903C69.7933 9.05555 70.1411 9.19985 70.5038 9.20027H73.8147C73.9839 9.20005 74.1516 9.16824 74.3091 9.10647L74.113 9.10632Z" fill="#F50057"/>
<path d="M82.8878 9.10632C82.5564 9.10598 82.2387 8.97421 82.0044 8.73992C81.7701 8.50563 81.6383 8.18796 81.6379 7.85661V4.54573C81.6383 4.21437 81.7701 3.8967 82.0044 3.66241C82.2387 3.42812 82.5564 3.29635 82.8878 3.29601H83.1953C83.0071 3.20192 82.7996 3.15287 82.5892 3.15271H79.2786C78.9158 3.15313 78.568 3.29743 78.3115 3.55395C78.055 3.81047 77.9107 4.15827 77.9103 4.52105V7.83193C77.9107 8.19471 78.055 8.54251 78.3115 8.79903C78.568 9.05555 78.9158 9.19985 79.2786 9.20027H82.5895C82.7587 9.20005 82.9264 9.16824 83.0839 9.10647L82.8878 9.10632Z" fill="#3F3D56"/>
<path d="M82.641 10.9373L81.4815 9.20012L80.6337 7.9302C80.5842 7.85603 80.5147 7.7974 80.4333 7.7611C80.3519 7.72479 80.2618 7.71231 80.1736 7.72509C80.0854 7.73786 80.0026 7.77538 79.9348 7.83329C79.867 7.8912 79.817 7.96713 79.7906 8.05228L79.4336 9.20012L78.7149 11.5065C78.6865 11.5984 78.6868 11.6967 78.7158 11.7884C78.7448 11.8801 78.801 11.9608 78.8771 12.0197C78.9531 12.0786 79.0453 12.1129 79.1413 12.118C79.2374 12.1231 79.3327 12.0988 79.4146 12.0483L79.6695 11.8906C79.7209 11.859 79.7794 11.8409 79.8396 11.8382C79.8999 11.8355 79.9598 11.8483 80.0137 11.8752C80.0676 11.9022 80.1138 11.9425 80.1478 11.9923C80.1818 12.0421 80.2025 12.0997 80.208 12.1598L80.4416 14.7093C80.4525 14.8264 80.5067 14.9352 80.5935 15.0146C80.6803 15.094 80.7936 15.1382 80.9112 15.1386C80.9256 15.1386 80.94 15.1374 80.9545 15.1363L81.3127 15.1042C81.3744 15.0986 81.4345 15.0809 81.4894 15.052C81.5443 15.0232 81.5929 14.9838 81.6326 14.9361C81.6723 14.8884 81.7021 14.8333 81.7205 14.7741C81.7388 14.7148 81.7453 14.6525 81.7395 14.5908L81.4988 11.9583C81.4931 11.8964 81.5038 11.8342 81.5298 11.7778C81.5558 11.7214 81.5962 11.6728 81.6469 11.637C81.6977 11.6012 81.7569 11.5793 81.8188 11.5737C81.8806 11.5681 81.9429 11.5788 81.9993 11.6049L82.0515 11.6286C82.1449 11.6716 82.2499 11.6829 82.3503 11.6608C82.4508 11.6387 82.5413 11.5843 82.608 11.5061C82.6748 11.4278 82.7141 11.3298 82.72 11.2271C82.7259 11.1244 82.6982 11.0226 82.6409 10.9372L82.641 10.9373Z" fill="#CCCCCC"/>
<path d="M74.113 9.10632C73.7817 9.10594 73.464 8.97416 73.2297 8.73987C72.9955 8.50559 72.8637 8.18794 72.8633 7.85661V4.54573C72.8637 4.2144 72.9955 3.89675 73.2297 3.66246C73.464 3.42818 73.7817 3.29639 74.113 3.29601H74.4205C74.2323 3.20193 74.0248 3.15287 73.8144 3.15271H70.5038C70.1411 3.15313 69.7933 3.29743 69.5367 3.55395C69.2802 3.81047 69.1359 4.15827 69.1355 4.52105V7.83193C69.1359 8.19471 69.2802 8.54251 69.5367 8.79903C69.7933 9.05555 70.1411 9.19985 70.5038 9.20027H73.8147C73.9839 9.20005 74.1516 9.16824 74.3091 9.10647L74.113 9.10632Z" fill="#F50057"/>
</g>
<defs>
<clipPath id="clip0_397_368">
<rect width="115.464" height="77" fill="white" transform="translate(0.506104)"/>
</clipPath>
</defs>
</svg>
