<svg width="159" height="165" viewBox="0 0 159 165" fill="none" xmlns="http://www.w3.org/2000/svg">
<g clip-path="url(#clip0_221_241)">
<path d="M158.757 85.6218C158.775 96.679 156.471 107.617 151.995 117.727C151.807 118.151 151.617 118.573 151.421 118.992C151.393 119.058 151.361 119.123 151.332 119.188C151.256 119.349 151.181 119.511 151.104 119.671C151.049 119.788 150.993 119.903 150.936 120.02C150.799 120.305 150.661 120.589 150.52 120.871C150.366 121.182 150.209 121.492 150.051 121.801C149.893 122.11 149.732 122.418 149.57 122.726C149.427 122.993 149.284 123.26 149.14 123.525C148.954 123.868 148.765 124.21 148.572 124.553C148.406 124.846 148.239 125.137 148.071 125.426C147.891 125.735 147.709 126.043 147.525 126.352L147.507 126.382C147.468 126.449 147.428 126.516 147.386 126.584C147.349 126.645 147.313 126.705 147.276 126.766C147.238 126.827 147.202 126.887 147.165 126.946V126.948C147.044 127.146 146.923 127.34 146.803 127.536L146.801 127.538C146.529 127.973 146.252 128.407 145.973 128.836C145.454 129.636 144.922 130.424 144.376 131.2C144.376 131.202 144.374 131.202 144.372 131.204C144.045 131.671 143.711 132.134 143.374 132.594C143.158 132.887 142.941 133.178 142.721 133.469C142.501 133.759 142.279 134.048 142.056 134.334C142.006 134.399 141.955 134.464 141.903 134.53C141.618 134.894 141.329 135.258 141.036 135.616C140.973 135.695 140.91 135.773 140.848 135.85C140.751 135.967 140.656 136.083 140.561 136.198C140.529 136.238 140.498 136.275 140.464 136.315C140.302 136.509 140.139 136.703 139.973 136.897V136.899C139.813 137.089 139.651 137.279 139.486 137.469C139.451 137.511 139.415 137.552 139.377 137.594C139.324 137.657 139.268 137.718 139.213 137.782C139.076 137.942 138.936 138.101 138.793 138.259C138.791 138.261 138.791 138.263 138.789 138.265L138.784 138.271V138.273C134.528 143.074 129.707 147.342 124.426 150.985C124.408 150.999 124.39 151.011 124.371 151.023C124.305 151.07 124.24 151.114 124.175 151.159C123.702 151.484 123.225 151.805 122.744 152.117C122.508 152.272 122.272 152.424 122.035 152.575V152.577C122.033 152.577 122.033 152.577 122.031 152.579H122.027L122.023 152.583L122.011 152.589C122.005 152.593 122.001 152.595 121.995 152.598C121.813 152.715 121.633 152.83 121.449 152.945C121.394 152.982 121.338 153.016 121.283 153.05C121.186 153.111 121.087 153.173 120.988 153.234C120.891 153.293 120.792 153.355 120.693 153.414C120.568 153.489 120.443 153.566 120.319 153.64C120.047 153.804 119.776 153.966 119.503 154.127C119.404 154.186 119.303 154.243 119.202 154.303C119.103 154.36 119.002 154.418 118.901 154.475C118.9 154.477 118.898 154.479 118.896 154.48C118.894 154.482 118.892 154.483 118.889 154.483L118.885 154.485L118.882 154.489H118.88C118.602 154.647 118.327 154.806 118.048 154.96L118.046 154.962C117.822 155.087 117.599 155.209 117.373 155.332C116.839 155.623 116.301 155.909 115.76 156.189C115.384 156.385 115.006 156.575 114.626 156.763C114.396 156.878 114.164 156.991 113.933 157.104C113.741 157.197 113.547 157.29 113.355 157.381C113.301 157.407 113.25 157.432 113.196 157.456C113.109 157.498 113.02 157.539 112.933 157.579C112.86 157.613 112.789 157.646 112.715 157.68C112.541 157.763 112.365 157.842 112.191 157.921C111.995 158.01 111.801 158.098 111.605 158.185C110.868 158.513 110.124 158.83 109.378 159.135C106.712 160.226 103.987 161.169 101.216 161.958C101.088 161.995 100.957 162.033 100.826 162.068C99.6407 162.401 98.4464 162.705 97.2435 162.981C95.1432 163.464 93.0238 163.861 90.8853 164.171C90.8813 164.171 90.8754 164.173 90.8714 164.173C90.6161 164.21 90.3587 164.246 90.1034 164.282C90.0816 164.285 90.0578 164.289 90.0341 164.291C90.0321 164.293 90.0302 164.293 90.0262 164.291H90.0242C89.7411 164.329 89.4581 164.367 89.173 164.402C89.1532 164.406 89.1334 164.408 89.1136 164.41C88.8484 164.442 88.5812 164.474 88.3139 164.503C88.0269 164.535 87.7399 164.565 87.4509 164.594H87.4489C87.0094 164.638 86.57 164.679 86.1305 164.715C86.1226 164.715 86.1147 164.717 86.1068 164.717C85.9326 164.733 85.7584 164.745 85.5842 164.759H85.5822C83.5334 164.921 81.4655 165.001 79.3784 165C77.1119 165 74.8685 164.906 72.6481 164.717C72.6402 164.717 72.6322 164.715 72.6243 164.715C72.1512 164.675 71.6788 164.632 71.207 164.584C71.0823 164.573 70.9596 164.559 70.8349 164.547C70.8111 164.545 70.7874 164.543 70.7636 164.539C70.726 164.535 70.6884 164.531 70.6488 164.527C70.629 164.525 70.6072 164.523 70.5874 164.519C70.4231 164.501 70.2588 164.483 70.0926 164.464C69.9085 164.442 69.7224 164.42 69.5383 164.396C69.3542 164.375 69.1681 164.351 68.984 164.325C68.9445 164.321 68.9029 164.317 68.8633 164.309C68.7287 164.293 68.5941 164.276 68.4614 164.256C68.3961 164.248 68.3328 164.238 68.2694 164.228C68.1408 164.21 68.0141 164.192 67.8854 164.173C67.8814 164.173 67.8755 164.171 67.8716 164.171C63.8293 163.587 59.8389 162.687 55.9371 161.481H55.9351C55.7233 161.415 55.5115 161.348 55.2997 161.281C55.2364 161.263 55.173 161.243 55.1097 161.221C54.5593 161.045 54.0123 160.863 53.4686 160.675C52.7184 160.418 51.9735 160.148 51.2338 159.867C51.0319 159.79 50.8319 159.713 50.63 159.636C50.2282 159.477 49.8283 159.319 49.4304 159.157C48.7515 158.879 48.0771 158.594 47.4074 158.299H47.4054V158.298C46.8769 158.064 46.3503 157.826 45.8277 157.579C45.7327 157.535 45.6377 157.492 45.5427 157.446C45.5245 157.441 45.5071 157.433 45.4912 157.423C45.4892 157.423 45.4892 157.421 45.4873 157.421C45.3507 157.357 45.2141 157.292 45.0775 157.227L45.0735 157.225C44.3748 156.89 43.6819 156.545 42.995 156.189C42.1439 155.75 41.2999 155.295 40.4633 154.823C39.7704 154.433 39.0842 154.033 38.4046 153.622C37.5989 153.135 36.8018 152.633 36.0133 152.117C35.7679 151.957 35.5224 151.795 35.2769 151.631C35.0553 151.482 34.8355 151.334 34.6158 151.183C33.8398 150.653 33.0737 150.108 32.3176 149.55C31.5357 148.974 30.765 148.383 30.0055 147.778C29.0158 146.991 28.0458 146.18 27.0956 145.348C25.3239 143.8 23.6249 142.174 21.9984 140.47C21.9469 140.417 21.8954 140.363 21.844 140.308C21.6817 140.137 21.5213 139.967 21.361 139.795C21.1274 139.546 20.8958 139.292 20.6662 139.039C20.2861 138.625 19.9126 138.207 19.5458 137.784H19.5438V137.782C19.3201 137.527 19.1024 137.273 18.8807 137.016V137.014C18.849 136.978 18.8193 136.943 18.7896 136.907C18.649 136.743 18.5125 136.58 18.3759 136.414V136.412C18.1898 136.192 18.0077 135.973 17.8296 135.751C17.7899 135.703 17.7523 135.658 17.7147 135.61H17.7128V135.608C17.5663 135.43 17.4218 135.25 17.2792 135.07C17.206 134.981 17.1347 134.89 17.0635 134.799H17.0615V134.797C16.63 134.252 16.207 133.703 15.7926 133.148V133.146C15.6778 132.993 15.565 132.841 15.4541 132.687H15.4522C14.9216 131.97 14.405 131.245 13.9022 130.511V130.509C13.7122 130.234 13.5241 129.957 13.338 129.678C13.1519 129.399 12.9679 129.119 12.7858 128.838H12.7838C12.5957 128.549 12.4096 128.259 12.2255 127.967C12.2157 127.952 12.2058 127.938 12.1978 127.924C12.0157 127.637 11.8362 127.348 11.6594 127.057C11.5169 126.825 11.3763 126.596 11.2398 126.364C11.1447 126.208 11.0517 126.053 10.9606 125.895C10.927 125.841 10.8973 125.788 10.8676 125.737C10.6578 125.378 10.4519 125.02 10.246 124.66C10.0065 124.236 9.76898 123.809 9.53736 123.381C9.44234 123.205 9.34733 123.027 9.2543 122.848C9.22067 122.791 9.19095 122.734 9.16127 122.674C9.0504 122.464 8.93956 122.255 8.83068 122.043C8.72182 121.833 8.61293 121.621 8.50604 121.409C8.39915 121.197 8.29225 120.986 8.18734 120.772C8.10816 120.612 8.02899 120.449 7.95177 120.289C7.94376 120.275 7.9365 120.262 7.93002 120.247C7.89437 120.172 7.85675 120.099 7.82313 120.024C7.81521 120.012 7.80919 119.999 7.80529 119.986C7.72415 119.82 7.64496 119.655 7.56775 119.489C7.46481 119.275 7.36584 119.06 7.26687 118.844C7.1956 118.693 7.1283 118.541 7.05903 118.389C6.96006 118.175 6.86305 117.959 6.76803 117.741C6.66707 117.518 6.57007 117.292 6.47308 117.066C6.44737 117.009 6.42359 116.953 6.39986 116.896C6.35431 116.793 6.31077 116.69 6.26723 116.587C6.15044 116.314 6.03563 116.037 5.92278 115.762C5.79413 115.451 5.66877 115.14 5.54669 114.827C5.42988 114.536 5.31639 114.245 5.20621 113.953L5.16464 113.846V113.844C3.44465 109.323 2.14326 104.654 1.27686 99.896V99.894C0.782846 97.1773 0.431331 94.4365 0.22376 91.683C0.211895 91.5326 0.201988 91.3821 0.19209 91.2317C0.0614596 89.369 -0.00254479 87.499 7.74002e-05 85.6218C7.74002e-05 84.7884 0.0132735 83.959 0.039667 83.1335C0.552928 65.8759 6.70478 49.2615 17.5544 35.8311C18.0315 35.2393 18.5171 34.6547 19.0113 34.0773C19.5537 33.4439 20.1053 32.819 20.6662 32.2027C21.0542 31.7752 21.4468 31.3529 21.844 30.9358C21.8514 30.9274 21.8593 30.9195 21.8677 30.9121C21.9093 30.8666 21.9529 30.821 21.9984 30.7755C24.4212 28.2381 27.0102 25.8647 29.7482 23.671C30.0609 23.4176 30.3737 23.1702 30.6904 22.9267C30.9715 22.707 31.2526 22.4893 31.5357 22.2774C31.8642 22.028 32.1948 21.7819 32.5274 21.5391C34.2595 20.2702 36.043 19.072 37.878 17.9443C38.6441 17.4732 39.4187 17.0153 40.202 16.5706C40.487 16.4062 40.776 16.2459 41.065 16.0855C41.4569 15.8698 41.8489 15.656 42.2448 15.4481C54.0095 9.23328 67.1459 6.07083 80.45 6.25067C93.7541 6.43051 106.8 9.94688 118.393 16.4775C118.448 16.5072 118.503 16.5388 118.557 16.5705C118.897 16.7645 119.236 16.9585 119.572 17.1585C120.012 17.4158 120.448 17.6778 120.881 17.9443C123.066 19.2884 125.18 20.7328 127.223 22.2774C127.54 22.517 127.857 22.7585 128.169 23.004C128.452 23.2237 128.734 23.4474 129.013 23.671C129.165 23.7938 129.32 23.9185 129.472 24.0432C132.814 26.7647 135.93 29.753 138.789 32.9787L138.793 32.9826C138.837 33.0321 138.881 33.0796 138.922 33.1291C139.059 33.2835 139.195 33.4399 139.33 33.5943C139.348 33.6141 139.366 33.6359 139.383 33.6557C139.581 33.8833 139.778 34.113 139.973 34.3446C142.353 37.154 144.535 40.1251 146.504 43.2365C147.236 44.3886 147.937 45.5618 148.606 46.7561C155.282 58.6202 158.779 72.0083 158.757 85.6218Z" fill="#3F3D56"/>
<path d="M135.222 4.88595L139.973 133.492V133.495C139.813 133.716 139.65 133.937 139.486 134.159C139.397 134.281 139.306 134.401 139.213 134.523C139.076 134.71 138.936 134.894 138.793 135.079C138.791 135.081 138.791 135.083 138.789 135.085L138.783 135.092V135.095C134.617 140.595 129.795 145.566 124.426 149.9V149.951L124.371 149.944C124.305 149.999 124.24 150.05 124.175 150.103C123.701 150.481 123.224 150.855 122.743 151.219C122.508 151.399 122.272 151.576 122.035 151.751V151.754C122.033 151.754 122.033 151.754 122.031 151.756H122.027L122.023 151.761L122.011 151.768C122.005 151.772 122.001 151.775 121.995 151.779C121.813 151.915 121.633 152.049 121.449 152.183C121.393 152.226 121.338 152.266 121.283 152.305C121.186 152.376 121.087 152.448 120.988 152.519C120.891 152.588 120.792 152.66 120.693 152.729C120.299 153.01 119.901 153.287 119.503 153.559C119.404 153.628 119.303 153.695 119.202 153.764C119.103 153.831 119.002 153.898 118.901 153.965V153.972L118.889 153.974L118.885 153.976L118.881 153.981H118.879C118.602 154.165 118.327 154.35 118.048 154.53L118.046 154.532C117.822 154.677 117.599 154.82 117.373 154.963C116.839 155.302 116.3 155.636 115.76 155.961C115.384 156.189 115.005 156.411 114.625 156.63C114.396 156.763 114.164 156.895 113.933 157.026C113.741 157.135 113.547 157.243 113.355 157.349C113.301 157.379 113.25 157.409 113.196 157.437C113.109 157.485 113.02 157.533 112.933 157.58H45.8276C45.7326 157.529 45.6375 157.478 45.5425 157.425C45.524 157.419 45.5066 157.409 45.491 157.397C45.4891 157.397 45.4891 157.395 45.4871 157.395C45.3505 157.321 45.2139 157.245 45.0773 157.169L45.0734 157.167C44.3746 156.777 43.6818 156.375 42.9949 155.961C41.437 155.025 39.9069 154.028 38.4044 152.971C37.5987 152.404 36.8017 151.82 36.0132 151.219C35.7677 151.032 35.5222 150.843 35.2768 150.652C35.0551 150.479 34.8353 150.306 34.6156 150.131C33.8397 149.513 33.0736 148.879 32.3174 148.229C31.5355 147.558 30.7648 146.87 30.0053 146.165C29.0156 145.248 28.0456 144.304 27.0955 143.334C25.3238 141.531 23.6247 139.638 21.9982 137.654C21.9468 137.591 21.8953 137.529 21.8438 137.465C21.446 136.978 21.0533 136.486 20.666 135.987L24.625 4.88594C24.6214 4.08974 24.7671 3.29991 25.0546 2.55743C25.6564 1.03587 26.8302 0.000732422 28.1783 0.000732422H131.669C133.035 0.000732422 134.221 1.06125 134.814 2.61507C134.834 2.66584 134.852 2.71655 134.87 2.76726C135.106 3.44859 135.225 4.16491 135.222 4.88595Z" fill="#3F3D56"/>
<path d="M37.7313 14.8615C40.6831 14.8615 43.0759 12.0746 43.0759 8.63679C43.0759 5.19899 40.6831 2.41211 37.7313 2.41211C34.7795 2.41211 32.3866 5.19899 32.3866 8.63679C32.3866 12.0746 34.7795 14.8615 37.7313 14.8615Z" fill="white"/>
<path d="M94.3445 25.3196C85.3339 27.6897 75.3501 29.1315 65.1985 29.5263C63.7107 29.6073 62.2194 29.5972 60.7329 29.4959C57.4662 29.2212 54.668 28.1944 51.5517 27.6334C50.0535 27.3644 48.3847 27.1677 46.8765 26.877C47.225 26.4447 47.5798 26.0176 47.9408 25.5958C51.1931 25.8706 54.4959 26.77 57.7872 27.188C63.3822 27.8994 69.651 27.1055 73.8924 25.1475C75.9502 24.1974 77.5264 23.0116 79.577 22.0572C79.8559 21.914 80.158 21.8215 80.4692 21.7839C81.1185 21.7246 81.6883 21.9864 82.1525 22.2206C85.5927 23.9574 90.5876 25.3688 95.2237 24.5922C95.5694 24.8626 94.9128 25.1706 94.3445 25.3196Z" fill="white"/>
<path d="M92.6002 47.0146C92.6581 47.004 92.7162 46.9957 92.7742 46.9857C92.5304 46.8346 92.3009 46.6617 92.0884 46.469L92.6002 47.0146Z" fill="white"/>
<path d="M130.591 51.705C127.94 51.9168 125.276 52.0745 122.598 52.1781C120.561 52.288 118.52 52.2741 116.485 52.1365C112.013 51.7584 108.183 50.3549 103.917 49.5869C100.008 48.8842 95.2567 48.5457 92.7744 46.9858C99.19 45.8753 105.837 48.1359 112.453 48.9772C117.804 49.6352 123.228 49.3674 128.489 48.1854C129.221 49.3375 129.922 50.5107 130.591 51.705Z" fill="white"/>
<path d="M75.3798 99.3436V97.4474C75.3794 96.723 75.1022 96.026 74.6048 95.4992C74.1075 94.9724 73.4276 94.6557 72.7043 94.6137V87.2085H72.0748V94.6053H69.242V99.3267H55.8647V153.623H85.452V109.988C85.4519 107.263 84.408 104.641 82.5347 102.661C80.6614 100.681 78.1011 99.4942 75.3798 99.3436Z" fill="#2F2E41"/>
<path d="M64.6779 107.038H60.7434V110.186H64.6779V107.038Z" fill="white"/>
<path d="M71.1305 107.038H67.196V110.186H71.1305V107.038Z" fill="white"/>
<path d="M77.5832 107.038H73.6487V110.186H77.5832V107.038Z" fill="white"/>
<path d="M64.6779 115.064H60.7434V118.212H64.6779V115.064Z" fill="white"/>
<path d="M71.1305 115.064H67.196V118.212H71.1305V115.064Z" fill="white"/>
<path d="M77.5832 115.064H73.6487V118.212H77.5832V115.064Z" fill="white"/>
<path d="M64.6779 123.091H60.7434V126.238H64.6779V123.091Z" fill="white"/>
<path d="M71.1305 123.091H67.196V126.238H71.1305V123.091Z" fill="white"/>
<path d="M77.5832 123.091H73.6487V126.238H77.5832V123.091Z" fill="white"/>
<path d="M64.6779 131.117H60.7434V134.265H64.6779V131.117Z" fill="white"/>
<path d="M71.1305 131.117H67.196V134.265H71.1305V131.117Z" fill="white"/>
<path d="M77.5832 131.117H73.6487V134.265H77.5832V131.117Z" fill="white"/>
<path d="M64.6779 139.144H60.7434V142.291H64.6779V139.144Z" fill="white"/>
<path d="M71.1305 139.144H67.196V142.291H71.1305V139.144Z" fill="white"/>
<path d="M77.5832 139.144H73.6487V142.291H77.5832V139.144Z" fill="white"/>
<path d="M64.6779 147.17H60.7434V150.318H64.6779V147.17Z" fill="white"/>
<path d="M71.1305 147.17H67.196V150.318H71.1305V147.17Z" fill="white"/>
<path d="M77.5832 147.17H73.6487V150.318H77.5832V147.17Z" fill="white"/>
<path d="M56.6814 83.5471V153.622H38.4045C37.5989 153.135 36.8018 152.633 36.0133 152.117C35.7678 151.957 35.5224 151.795 35.2769 151.63C35.0552 151.482 34.8355 151.333 34.6157 151.183C33.8398 150.652 33.0737 150.108 32.3175 149.55C31.5356 148.974 30.7649 148.383 30.0055 147.778C29.0157 146.99 28.0458 146.18 27.0956 145.347V72.8855H32.367V64.4666H37.7176V56.4397H38.3471V64.4666H42.2725C43.0264 64.4667 43.7493 64.7662 44.2824 65.2992C44.8155 65.8323 45.115 66.5553 45.1151 67.3092V72.8855H46.0197C48.3184 72.8856 50.5556 73.6283 52.398 75.003C54.2404 76.3777 55.5893 78.3109 56.2439 80.5145C56.3578 80.9023 56.4503 81.2962 56.521 81.6943C56.6277 82.3061 56.6814 82.926 56.6814 83.5471Z" fill="#2F2E41"/>
<path d="M48.2622 79.2607H35.5145V80.205H48.2622V79.2607Z" fill="white"/>
<path d="M48.2622 85.0837H35.5145V86.028H48.2622V85.0837Z" fill="white"/>
<path d="M48.2622 90.9067H35.5145V91.851H48.2622V90.9067Z" fill="white"/>
<path d="M48.2622 96.73H35.5145V97.6743H48.2622V96.73Z" fill="white"/>
<path d="M48.2622 102.553H35.5145V103.497H48.2622V102.553Z" fill="white"/>
<path d="M48.2622 108.376H35.5145V109.32H48.2622V108.376Z" fill="white"/>
<path d="M48.2622 114.199H35.5145V115.143H48.2622V114.199Z" fill="white"/>
<path d="M48.2622 120.022H35.5145V120.966H48.2622V120.022Z" fill="white"/>
<path d="M48.2622 125.845H35.5145V126.789H48.2622V125.845Z" fill="white"/>
<path d="M48.2622 131.668H35.5145V132.612H48.2622V131.668Z" fill="white"/>
<path d="M48.2622 137.491H35.5145V138.435H48.2622V137.491Z" fill="white"/>
<path d="M48.2622 143.314H35.5145V144.258H48.2622V143.314Z" fill="white"/>
<path d="M40.708 66.1982H36.7736V69.3458H40.708V66.1982Z" fill="white"/>
<path d="M134.87 2.76735C134.852 2.71584 134.834 2.66635 134.815 2.61493C134.221 1.061 133.035 0 131.669 0H28.1784C26.8303 0 25.6565 1.03528 25.0547 2.55751C24.7673 3.29982 24.6216 4.08942 24.6252 4.88541L20.6661 139.039C20.8958 139.292 21.1274 139.546 21.3609 139.795C21.5213 139.967 21.6816 140.137 21.8439 140.308L25.8029 4.88542C25.802 4.50164 25.8526 4.11948 25.9534 3.74918C25.9538 3.74307 25.9551 3.73705 25.9574 3.73135C26.2978 2.50009 27.1649 1.62319 28.1784 1.62319H131.669C131.912 1.62352 132.152 1.67406 132.374 1.77165C133.3 2.16756 133.983 3.31964 134.039 4.70327C134.041 4.76465 134.043 4.82404 134.043 4.88542L138.793 135.078C138.936 134.894 139.076 134.71 139.213 134.524C139.265 134.456 139.314 134.389 139.363 134.324C139.405 134.268 139.447 134.215 139.486 134.159C139.651 133.938 139.813 133.716 139.973 133.494V133.492L135.222 4.88543C135.225 4.16459 135.106 3.44848 134.87 2.76735ZM42.995 156.189C43.6819 156.546 44.3747 156.891 45.0735 157.224L45.0774 157.227C45.214 157.292 45.3506 157.357 45.4872 157.421C45.4892 157.421 45.4892 157.422 45.4912 157.422C45.5071 157.433 45.5244 157.441 45.5426 157.446C45.6376 157.492 45.7327 157.535 45.8277 157.579H112.933C113.02 157.539 113.109 157.498 113.196 157.456C113.25 157.432 113.301 157.407 113.355 157.381C113.547 157.29 113.741 157.197 113.933 157.104C114.164 156.991 114.396 156.878 114.626 156.763C115.006 156.575 115.384 156.385 115.76 156.189H42.995Z" fill="#2F2E41"/>
<path d="M134.632 16.5698H25.214V17.9436H134.632V16.5698Z" fill="#2F2E41"/>
<path d="M136.139 33.5938H24.0986V34.9676H136.139V33.5938Z" fill="#2F2E41"/>
<path d="M42.2445 60.2522H41.0649L45.024 0.616699H46.2036L42.2445 60.2522Z" fill="#2F2E41"/>
<path d="M119.573 60.6481H118.393L113.642 0.616699H114.822L119.573 60.6481Z" fill="#2F2E41"/>
<path d="M136.733 58.6443H24.2965V62.5763H136.733V58.6443Z" fill="#2F2E41"/>
<path d="M80.7173 56.4749H81.8969C82.1809 56.4749 82.4621 56.5308 82.7244 56.6395C82.9868 56.7481 83.2252 56.9074 83.426 57.1083C83.6268 57.3091 83.7861 57.5475 83.8948 57.8099C84.0035 58.0722 84.0594 58.3534 84.0594 58.6374H78.5547C78.5547 58.0639 78.7825 57.5138 79.1881 57.1083C79.5937 56.7027 80.1437 56.4749 80.7173 56.4749Z" fill="#2F2E41"/>
<path d="M40.7265 151.508C38.9449 153.289 39.0835 154.032 38.4045 153.622C37.5989 153.135 36.8018 152.633 36.0133 152.117C35.7678 151.957 35.5224 151.795 35.2769 151.63C35.0552 151.482 34.8355 151.333 34.6158 151.183C33.8398 150.652 33.0737 150.108 32.3175 149.55C31.5356 148.974 30.765 148.383 30.0055 147.778C29.0157 146.99 28.0458 146.18 27.0956 145.347C25.3239 143.799 23.6248 142.174 21.9984 140.47C21.9469 140.416 21.8954 140.363 21.844 140.308C21.6816 140.137 21.5213 139.967 21.361 139.795L22.1666 136.885L23.1564 94.474L23.2158 81.6943L23.2197 80.5145L24.0986 62.0338L24.1046 60.854L24.6153 35.9379L24.6192 34.968L24.6271 33.5942L21.8677 30.912L25.8861 17.9442L25.8921 16.5704L25.9534 3.74914L25.9574 2.70198C28.0537 0.79371 31.021 0.419608 34.6494 0.756111C34.8295 0.773943 35.0136 0.791776 35.1977 0.811537L35.2472 1.62315L35.3383 3.07014V3.07217L36.0509 14.5454V14.5494L36.1776 16.5704L36.2627 17.9442L36.4864 21.539L33.2756 33.5942L33.3607 34.968L33.9803 44.9289L34.0654 46.3027L34.2416 49.1373L34.9701 60.854L35.0433 62.0338L35.1937 64.4667L35.3818 67.4755L35.4036 67.8259L35.4887 69.1996L35.7342 73.1468L35.8015 74.2474L36.1122 79.2615L36.1538 79.9306L36.1716 80.2057L36.1915 80.5145L36.2231 81.0292L36.2647 81.6943L36.4131 84.0816L36.4745 85.0832L36.5339 86.0275L36.5755 86.7104L36.6448 87.811L36.6982 88.6622L36.8368 90.9069L36.8962 91.8512L36.9971 93.4922L37.0585 94.474L37.0664 94.5928L37.199 96.7307L37.2584 97.6749L37.3019 98.4053L37.4187 100.276L37.488 101.375L37.5613 102.552L37.6187 103.497L37.8404 107.056L37.9077 108.156L37.9215 108.376L37.9809 109.32L38.262 113.838L38.2838 114.2L38.3293 114.938L38.3412 115.144L38.646 120.022L38.6836 120.619L38.7054 120.966L38.751 121.72L39.0083 125.845L39.0677 126.789L39.1053 127.401L39.1726 128.502L39.3686 131.669L39.4279 132.613L39.5249 134.185L39.5942 135.284L39.7308 137.491L39.7902 138.435L39.9466 140.965L40.0159 142.063L40.0594 143.314L40.0931 144.259L40.7265 151.508Z" fill="#CCCCCC"/>
<path d="M139.377 137.594C139.324 137.657 139.268 137.718 139.213 137.782C139.076 137.942 138.936 138.101 138.793 138.259C138.791 138.261 138.791 138.263 138.789 138.265L138.783 138.271V138.273C134.528 143.074 129.707 147.342 124.426 150.985C124.408 150.999 124.39 151.011 124.371 151.023C124.305 151.07 124.24 151.114 124.175 151.159C123.702 151.484 123.225 151.805 122.743 152.117C122.508 152.272 122.272 152.424 122.035 152.575V152.577C122.033 152.577 122.033 152.577 122.031 152.579H122.027L122.023 152.583L122.011 152.589C122.005 152.592 122.001 152.594 121.995 152.598C121.813 152.715 121.633 152.83 121.449 152.945C121.393 152.982 121.338 153.016 121.283 153.05C121.186 153.111 121.087 153.172 120.988 153.234C120.891 153.293 120.792 153.355 120.693 153.414C120.568 153.489 120.443 153.566 120.319 153.64L120.327 152.986L120.338 152.117L120.396 148.123L120.594 144.932L121.768 126.045L121.954 123.056L121.995 122.383L122.524 113.885L122.704 110.967L123.114 104.395L123.298 101.406L123.478 98.5183L123.486 98.4054L123.502 98.1362L123.512 97.9719V97.9699L123.721 94.6167L123.729 94.4741L123.878 92.1026V92.0987L124.09 88.6623L124.224 86.5046L124.375 84.0817L124.495 82.1398L124.523 81.6944L124.596 80.5146L124.6 80.4671L125.056 73.1231L125.174 71.209V71.2069L125.299 69.1997L125.384 67.826L125.56 65.019L125.746 62.0339L125.82 60.8541L126.079 56.6654V56.6635L126.223 54.3316L126.368 51.9958L126.582 48.5792L126.722 46.3027L126.807 44.9289L127.425 34.9681L127.453 34.5365L127.512 33.5943L127.712 30.3717L123.419 23.0039L123.733 17.9443L123.818 16.5705L124.721 2.05675L124.749 1.62325L124.798 0.81163C128.674 0.386054 131.835 0.698784 134.039 2.70206L134.1 16.5705L134.106 17.9443L135.359 33.1291L135.361 33.5943L135.367 34.9681L135.876 60.8541L135.882 62.0339L136.752 80.5146L136.758 81.6944L137.21 94.4741L137.228 98.4054L139.363 134.324L139.377 137.594Z" fill="#CCCCCC"/>
<path d="M122.744 152.117C122.508 152.272 122.272 152.424 122.035 152.575V152.577C122.033 152.577 122.033 152.577 122.031 152.579H122.027L122.023 152.583L122.011 152.589C122.005 152.592 122.001 152.594 121.995 152.598C121.813 152.715 121.633 152.83 121.449 152.945C121.394 152.982 121.338 153.016 121.283 153.05C121.186 153.111 121.087 153.172 120.988 153.234C120.891 153.293 120.792 153.355 120.693 153.414C120.568 153.489 120.443 153.566 120.319 153.64C120.047 153.804 119.776 153.966 119.503 154.127C119.404 154.186 119.303 154.243 119.202 154.303C119.103 154.36 119.002 154.418 118.901 154.475V154.481L118.889 154.483L118.885 154.485L118.882 154.489H118.88C118.602 154.647 118.327 154.806 118.048 154.96L118.046 154.962C117.822 155.087 117.599 155.209 117.373 155.332C116.839 155.623 116.301 155.909 115.76 156.189C115.384 156.385 115.006 156.575 114.626 156.763C114.396 156.878 114.164 156.991 113.933 157.104C113.741 157.197 113.547 157.29 113.355 157.381C113.301 157.407 113.25 157.432 113.196 157.456C113.109 157.498 113.02 157.539 112.933 157.579C112.86 157.612 112.789 157.646 112.715 157.68C112.541 157.763 112.365 157.842 112.191 157.921C111.995 158.01 111.801 158.098 111.605 158.185C110.868 158.513 110.124 158.83 109.378 159.135C106.712 160.226 103.987 161.169 101.216 161.958C101.088 161.995 100.957 162.033 100.826 162.068C99.6407 162.401 98.4464 162.705 97.2435 162.981C95.1432 163.464 93.0238 163.86 90.8853 164.171C90.8813 164.171 90.8754 164.173 90.8714 164.173C90.6161 164.21 90.3587 164.246 90.1034 164.281C90.0816 164.285 90.0578 164.289 90.0341 164.291C90.0321 164.293 90.0302 164.293 90.0262 164.291H90.0242C89.7411 164.329 89.4581 164.367 89.173 164.402C89.1532 164.406 89.1334 164.408 89.1136 164.41C88.8484 164.442 88.5812 164.473 88.3139 164.503C88.0269 164.535 87.7399 164.565 87.4509 164.594H87.4489C87.0094 164.638 86.57 164.679 86.1305 164.715C86.1226 164.715 86.1147 164.717 86.1068 164.717C85.9326 164.733 85.7584 164.745 85.5842 164.759H85.5822C83.5334 164.921 81.4655 165.001 79.3784 165C77.1119 165 74.8685 164.906 72.6481 164.717C72.6402 164.717 72.6322 164.715 72.6243 164.715C72.1512 164.675 71.6788 164.632 71.207 164.584C71.0823 164.572 70.9596 164.559 70.8349 164.547C70.8111 164.545 70.7874 164.543 70.7636 164.539C70.726 164.535 70.6884 164.531 70.6488 164.527C70.629 164.525 70.6072 164.523 70.5874 164.519C70.4231 164.501 70.2588 164.483 70.0926 164.464C69.9085 164.442 69.7224 164.42 69.5383 164.396C69.3542 164.375 69.1681 164.351 68.984 164.325C68.9444 164.321 68.9029 164.317 68.8633 164.309C68.7287 164.293 68.5941 164.276 68.4614 164.256C68.3961 164.248 68.3328 164.238 68.2694 164.228C68.1408 164.21 68.0141 164.192 67.8854 164.173C67.8814 164.173 67.8755 164.171 67.8716 164.171C63.8293 163.587 59.8389 162.687 55.9371 161.48H55.9351C55.7233 161.415 55.5115 161.348 55.2997 161.281C55.2364 161.263 55.173 161.243 55.1096 161.221C54.5593 161.045 54.0123 160.863 53.4686 160.675C52.7184 160.418 51.9735 160.148 51.2338 159.867C51.0319 159.79 50.8319 159.713 50.63 159.636C50.2282 159.477 49.8283 159.319 49.4304 159.157C48.7515 158.879 48.0771 158.594 47.4074 158.299H47.4054V158.297C46.8769 158.064 46.3503 157.826 45.8277 157.579C45.7327 157.535 45.6377 157.492 45.5427 157.446C45.5245 157.441 45.5071 157.433 45.4912 157.422C45.4892 157.422 45.4892 157.421 45.4873 157.421C45.3507 157.357 45.2141 157.292 45.0775 157.227L45.0735 157.225C44.3748 156.89 43.6819 156.545 42.995 156.189C42.1439 155.75 41.2999 155.295 40.4633 154.823C39.7704 154.433 39.0842 154.033 38.4046 153.622C37.5989 153.135 36.8018 152.633 36.0133 152.117H122.744Z" fill="#2F2E41"/>
<path d="M50.994 10.7117C51.2127 10.7117 51.3899 10.5053 51.3899 10.2506C51.3899 9.99599 51.2127 9.78955 50.994 9.78955C50.7754 9.78955 50.5981 9.99599 50.5981 10.2506C50.5981 10.5053 50.7754 10.7117 50.994 10.7117Z" fill="white"/>
<path d="M75.0485 11.2835C75.2671 11.2835 75.4444 11.0771 75.4444 10.8224C75.4444 10.5678 75.2671 10.3613 75.0485 10.3613C74.8298 10.3613 74.6526 10.5678 74.6526 10.8224C74.6526 11.0771 74.8298 11.2835 75.0485 11.2835Z" fill="white"/>
<path d="M89.8949 11.7447C90.1136 11.7447 90.2908 11.5382 90.2908 11.2836C90.2908 11.0289 90.1136 10.8225 89.8949 10.8225C89.6763 10.8225 89.499 11.0289 89.499 11.2836C89.499 11.5382 89.6763 11.7447 89.8949 11.7447Z" fill="white"/>
<path d="M110.775 70.0753C110.994 70.0753 111.171 69.898 111.171 69.6793C111.171 69.4607 110.994 69.2834 110.775 69.2834C110.557 69.2834 110.379 69.4607 110.379 69.6793C110.379 69.898 110.557 70.0753 110.775 70.0753Z" fill="white"/>
<path d="M86.7277 47.8021C86.9463 47.8021 87.1236 47.6248 87.1236 47.4062C87.1236 47.1875 86.9463 47.0103 86.7277 47.0103C86.509 47.0103 86.3318 47.1875 86.3318 47.4062C86.3318 47.6248 86.509 47.8021 86.7277 47.8021Z" fill="white"/>
<path d="M66.8302 68.0958C67.0489 68.0958 67.2261 67.9185 67.2261 67.6999C67.2261 67.4812 67.0489 67.304 66.8302 67.304C66.6116 67.304 66.4343 67.4812 66.4343 67.6999C66.4343 67.9185 66.6116 68.0958 66.8302 68.0958Z" fill="white"/>
<path d="M63.465 47.3111C63.6836 47.3111 63.8609 47.1338 63.8609 46.9152C63.8609 46.6965 63.6836 46.5193 63.465 46.5193C63.2463 46.5193 63.0691 46.6965 63.0691 46.9152C63.0691 47.1338 63.2463 47.3111 63.465 47.3111Z" fill="white"/>
<path d="M36.9395 43.1541C37.1581 43.1541 37.3354 42.9769 37.3354 42.7582C37.3354 42.5396 37.1581 42.3623 36.9395 42.3623C36.7208 42.3623 36.5436 42.5396 36.5436 42.7582C36.5436 42.9769 36.7208 43.1541 36.9395 43.1541Z" fill="white"/>
<path d="M127.429 123.987L127.033 123.998L127.627 145.757L128.023 145.746L127.429 123.987Z" fill="#B3B3B3"/>
<path d="M133.566 38.6726L133.17 38.6785L133.764 78.6493L134.159 78.6434L133.566 38.6726Z" fill="#B3B3B3"/>
<path d="M119.966 79.9729H114.377C114.251 79.9725 114.126 79.9998 114.011 80.0528C113.897 80.1058 113.796 80.1833 113.714 80.2798C113.636 80.2647 113.557 80.2571 113.478 80.257C113.126 80.257 112.789 80.3967 112.54 80.6453C112.292 80.8939 112.152 81.2312 112.152 81.5828C112.152 81.9344 112.292 82.2716 112.54 82.5202C112.789 82.7688 113.126 82.9085 113.478 82.9085C113.678 82.9085 113.875 82.8626 114.055 82.7744L114.148 83.92L114.519 88.4478C114.536 88.5044 114.56 88.5589 114.589 88.6104C114.664 88.7479 114.775 88.8626 114.909 88.9426C115.044 89.0226 115.198 89.0649 115.354 89.065H118.989C119.145 89.0648 119.299 89.0225 119.434 88.9425C119.569 88.8625 119.68 88.7478 119.755 88.6104C119.783 88.5586 119.806 88.5042 119.824 88.4478L120.801 81.1037C120.842 80.973 120.851 80.8347 120.828 80.6999C120.805 80.5651 120.75 80.4376 120.669 80.3276C120.588 80.2176 120.482 80.1282 120.36 80.0666C120.238 80.005 120.103 79.9729 119.966 79.9729ZM113.478 82.53C113.227 82.5297 112.986 82.4297 112.809 82.2521C112.632 82.0745 112.532 81.8338 112.532 81.5828C112.532 81.3318 112.632 81.091 112.809 80.9134C112.986 80.7358 113.227 80.6358 113.478 80.6355C113.495 80.6355 113.511 80.64 113.528 80.6412C113.49 80.7937 113.495 80.9536 113.541 81.1037L113.942 82.4039C113.801 82.4858 113.641 82.5292 113.478 82.53Z" fill="#F2F2F2"/>
<path d="M118.048 154.961L117.115 153.262L117.575 153.047L117.941 152.872L119.538 152.118L120.498 151.665L120.894 151.477L121.209 151.328L121.732 152.118L121.995 152.516L122.035 152.575V152.577C122.026 152.581 122.018 152.585 122.011 152.589C122.005 152.593 122.001 152.595 121.995 152.599C121.813 152.716 121.633 152.831 121.449 152.946C121.393 152.983 121.338 153.017 121.282 153.051C121.185 153.112 121.086 153.173 120.987 153.235C120.89 153.294 120.791 153.355 120.692 153.415C120.299 153.656 119.901 153.894 119.503 154.127C119.404 154.187 119.303 154.244 119.202 154.304C119.103 154.361 119.002 154.418 118.901 154.476V154.482L118.889 154.484L118.885 154.486L118.881 154.49H118.879C118.602 154.648 118.327 154.806 118.048 154.961Z" fill="#2F2E41"/>
<g opacity="0.49">
<path d="M117.106 76.9971C117.151 76.9373 117.192 76.8744 117.228 76.8088C117.158 76.8379 117.086 76.8607 117.011 76.877L117.106 76.9971Z" fill="white"/>
<path d="M117.617 72.9586C117.261 72.2764 116.861 71.5983 116.718 70.8421C116.575 70.0845 116.701 69.306 116.744 68.5363C116.788 67.7665 116.733 66.9437 116.288 66.3142C115.681 68.2371 115.079 70.3558 115.856 72.2166C116.193 73.0238 116.767 73.7112 117.138 74.5036C117.476 75.2273 117.613 76.1293 117.229 76.8088C117.855 76.5555 118.248 75.8371 118.272 75.1451C118.299 74.3758 117.974 73.6408 117.617 72.9586Z" fill="white"/>
</g>
<g opacity="0.49">
<path d="M116.434 79.5704C116.452 79.5472 116.468 79.5228 116.482 79.4973C116.455 79.5086 116.426 79.5175 116.397 79.5238L116.434 79.5704Z" fill="white"/>
<path d="M116.633 78.0014C116.477 77.7459 116.359 77.4688 116.284 77.1791C116.251 76.8811 116.254 76.5803 116.294 76.2832C116.333 75.9837 116.27 75.6798 116.116 75.4199C115.88 76.167 115.647 76.9901 115.949 77.7131C116.079 78.0267 116.303 78.2937 116.447 78.6016C116.521 78.7381 116.563 78.8899 116.569 79.0453C116.575 79.2006 116.545 79.3553 116.482 79.4972C116.603 79.4377 116.705 79.3458 116.776 79.2316C116.848 79.1174 116.886 78.9856 116.887 78.8508C116.877 78.5505 116.789 78.2579 116.633 78.0014Z" fill="white"/>
</g>
<path d="M38.8459 18.7816H26.375C26.0075 18.7816 25.6551 18.6356 25.3952 18.3757C25.1354 18.1159 24.9894 17.7634 24.9894 17.3959C24.9894 17.0284 25.1354 16.676 25.3952 16.4161C25.6551 16.1562 26.0075 16.0103 26.375 16.0103H38.8459C39.2134 16.0103 39.5659 16.1562 39.8258 16.4161C40.0856 16.676 40.2316 17.0284 40.2316 17.3959C40.2316 17.7634 40.0856 18.1159 39.8258 18.3757C39.5659 18.6356 39.2134 18.7816 38.8459 18.7816Z" fill="#2F2E41"/>
<path d="M145.742 2.84651H14.8968C14.5293 2.84651 14.1768 2.70052 13.917 2.44066C13.6571 2.1808 13.5111 1.82835 13.5111 1.46085C13.5111 1.09335 13.6571 0.740906 13.917 0.481044C14.1768 0.221183 14.5293 0.0751953 14.8968 0.0751953H145.742C146.11 0.0751953 146.462 0.221183 146.722 0.481044C146.982 0.740906 147.128 1.09335 147.128 1.46085C147.128 1.82835 146.982 2.1808 146.722 2.44066C146.462 2.70052 146.11 2.84651 145.742 2.84651Z" fill="#2F2E41"/>
<path d="M34.491 32.638H22.0201C21.6526 32.638 21.3001 32.492 21.0403 32.2322C20.7804 31.9723 20.6344 31.6199 20.6344 31.2524C20.6344 30.8849 20.7804 30.5324 21.0403 30.2725C21.3001 30.0127 21.6526 29.8667 22.0201 29.8667H34.491C34.8585 29.8667 35.2109 30.0127 35.4708 30.2725C35.7306 30.5324 35.8766 30.8849 35.8766 31.2524C35.8766 31.6199 35.7306 31.9723 35.4708 32.2322C35.2109 32.492 34.8585 32.638 34.491 32.638Z" fill="#2F2E41"/>
<path d="M133.862 18.7816H121.392C121.024 18.7816 120.672 18.6356 120.412 18.3757C120.152 18.1159 120.006 17.7634 120.006 17.3959C120.006 17.0284 120.152 16.676 120.412 16.4161C120.672 16.1562 121.024 16.0103 121.392 16.0103H133.862C134.23 16.0103 134.582 16.1562 134.842 16.4161C135.102 16.676 135.248 17.0284 135.248 17.3959C135.248 17.7634 135.102 18.1159 134.842 18.3757C134.582 18.6356 134.23 18.7816 133.862 18.7816Z" fill="#2F2E41"/>
<path d="M138.811 32.0443H126.34C125.973 32.0443 125.62 31.8983 125.36 31.6384C125.101 31.3786 124.955 31.0261 124.955 30.6586C124.955 30.2911 125.101 29.9387 125.36 29.6788C125.62 29.4189 125.973 29.2729 126.34 29.2729H138.811C139.179 29.2729 139.531 29.4189 139.791 29.6788C140.051 29.9387 140.197 30.2911 140.197 30.6586C140.197 31.0261 140.051 31.3786 139.791 31.6384C139.531 31.8983 139.179 32.0443 138.811 32.0443Z" fill="#2F2E41"/>
<path d="M27.0679 36.8911L26.672 36.897L27.2659 76.8678L27.6618 76.8619L27.0679 36.8911Z" fill="#B3B3B3"/>
<path d="M31.0269 82.8157L30.631 82.8215L31.2248 122.792L31.6207 122.786L31.0269 82.8157Z" fill="#B3B3B3"/>
<path d="M26.6718 116.663L26.2761 116.674L26.87 138.433L27.2657 138.422L26.6718 116.663Z" fill="#B3B3B3"/>
<path d="M105.523 130.595V129.839C105.523 129.551 105.413 129.273 105.215 129.063C105.016 128.853 104.746 128.727 104.457 128.71V125.76H104.207V128.707H103.078V130.588H97.748V152.221H109.536V134.836C109.536 133.75 109.12 132.705 108.374 131.916C107.628 131.128 106.608 130.655 105.523 130.595Z" fill="#2F2E41"/>
<path d="M101.259 133.66H99.6919V134.914H101.259V133.66Z" fill="white"/>
<path d="M103.83 133.66H102.263V134.914H103.83V133.66Z" fill="white"/>
<path d="M106.401 133.66H104.833V134.914H106.401V133.66Z" fill="white"/>
<path d="M101.259 136.858H99.6919V138.112H101.259V136.858Z" fill="white"/>
<path d="M103.83 136.858H102.263V138.112H103.83V136.858Z" fill="white"/>
<path d="M106.401 136.858H104.833V138.112H106.401V136.858Z" fill="white"/>
<path d="M101.259 140.056H99.6919V141.31H101.259V140.056Z" fill="white"/>
<path d="M103.83 140.056H102.263V141.31H103.83V140.056Z" fill="white"/>
<path d="M106.401 140.056H104.833V141.31H106.401V140.056Z" fill="white"/>
<path d="M101.259 143.254H99.6919V144.508H101.259V143.254Z" fill="white"/>
<path d="M103.83 143.254H102.263V144.508H103.83V143.254Z" fill="white"/>
<path d="M106.401 143.254H104.833V144.508H106.401V143.254Z" fill="white"/>
<path d="M101.259 146.452H99.6919V147.706H101.259V146.452Z" fill="white"/>
<path d="M103.83 146.452H102.263V147.706H103.83V146.452Z" fill="white"/>
<path d="M106.401 146.452H104.833V147.706H106.401V146.452Z" fill="white"/>
<path d="M101.259 149.65H99.6919V150.904H101.259V149.65Z" fill="white"/>
<path d="M103.83 149.65H102.263V150.904H103.83V149.65Z" fill="white"/>
<path d="M106.401 149.65H104.833V150.904H106.401V149.65Z" fill="white"/>
<path d="M93.8257 120.054H93.4648V117.831C93.4648 117.531 93.3455 117.243 93.1331 117.031C92.9208 116.818 92.6327 116.699 92.3324 116.699H90.7685V113.501H90.5177V116.699H88.3858V120.054H86.2852V152.221H98.0735V124.301C98.0735 123.744 97.9637 123.191 97.7502 122.676C97.5367 122.16 97.2238 121.692 96.8294 121.298C96.4349 120.903 95.9667 120.59 95.4513 120.377C94.9359 120.163 94.3835 120.054 93.8257 120.054Z" fill="#2F2E41"/>
<path d="M94.7189 122.593H89.6399V122.969H94.7189V122.593Z" fill="white"/>
<path d="M94.7189 124.913H89.6399V125.29H94.7189V124.913Z" fill="white"/>
<path d="M94.7189 127.233H89.6399V127.61H94.7189V127.233Z" fill="white"/>
<path d="M94.7189 129.553H89.6399V129.93H94.7189V129.553Z" fill="white"/>
<path d="M94.7189 131.874H89.6399V132.25H94.7189V131.874Z" fill="white"/>
<path d="M94.7189 134.193H89.6399V134.57H94.7189V134.193Z" fill="white"/>
<path d="M94.7189 136.513H89.6399V136.89H94.7189V136.513Z" fill="white"/>
<path d="M94.7189 138.833H89.6399V139.21H94.7189V138.833Z" fill="white"/>
<path d="M94.7189 141.154H89.6399V141.53H94.7189V141.154Z" fill="white"/>
<path d="M94.7189 143.474H89.6399V143.85H94.7189V143.474Z" fill="white"/>
<path d="M94.7189 145.794H89.6399V146.17H94.7189V145.794Z" fill="white"/>
<path d="M94.7189 148.114H89.6399V148.49H94.7189V148.114Z" fill="white"/>
<path d="M91.7092 117.389H90.1416V118.643H91.7092V117.389Z" fill="white"/>
<path d="M141.903 132.685V134.53C141.618 134.894 141.329 135.259 141.036 135.617C140.973 135.696 140.909 135.773 140.848 135.851C140.751 135.967 140.656 136.084 140.561 136.199C140.529 136.239 140.497 136.276 140.464 136.316C140.301 136.51 140.139 136.704 139.973 136.898C139.973 136.898 139.975 136.9 139.973 136.9C139.813 137.09 139.65 137.28 139.486 137.47C139.397 137.575 139.306 137.678 139.213 137.783C139.076 137.943 138.936 138.101 138.793 138.26C138.791 138.262 138.791 138.264 138.789 138.266L138.783 138.271V132.685L141.903 132.685Z" fill="#2F2E41"/>
<path d="M145.973 128.837C145.454 129.637 144.922 130.425 144.375 131.201C144.375 131.203 144.373 131.203 144.371 131.205C144.045 131.672 143.71 132.135 143.374 132.594C143.158 132.887 142.94 133.179 142.721 133.469C142.501 133.76 142.279 134.049 142.055 134.334C142.006 134.4 141.954 134.465 141.903 134.53C141.618 134.894 141.329 135.259 141.036 135.617C140.973 135.696 140.909 135.773 140.848 135.851C140.751 135.967 140.656 136.084 140.561 136.199C140.527 136.239 140.496 136.276 140.464 136.316C140.302 136.51 140.139 136.704 139.973 136.898C139.973 136.898 139.975 136.9 139.973 136.9C139.813 137.09 139.65 137.28 139.486 137.47C139.397 137.575 139.306 137.678 139.213 137.783H132.75C132.06 137.782 131.399 137.508 130.911 137.02C130.423 136.532 130.149 135.871 130.149 135.181V131.438C130.149 130.749 130.424 130.087 130.911 129.6C131.399 129.112 132.06 128.838 132.75 128.837H145.973Z" fill="#2F2E41"/>
<path d="M149.391 96.7972C148.994 96.66 148.576 96.5904 148.156 96.5913H147.093C146.706 96.5916 146.321 96.6496 145.951 96.7635C145.17 97.0088 144.488 97.4965 144.004 98.1557C143.519 98.815 143.258 99.6115 143.257 100.43V131.656C143.257 131.773 143.263 131.888 143.272 132.001C143.29 132.201 143.323 132.4 143.373 132.595C143.71 132.135 144.044 131.672 144.371 131.205C144.373 131.203 144.375 131.203 144.375 131.201C144.921 130.425 145.454 129.637 145.972 128.838C146.252 128.408 146.529 127.974 146.8 127.539C148.76 124.395 150.495 121.117 151.994 117.729V100.43C151.993 99.6283 151.742 98.8473 151.275 98.196C150.808 97.5446 150.15 97.0555 149.391 96.7972Z" fill="#2F2E41"/>
<path d="M103.215 154.866L100.52 153.577L104.222 142.313L108.2 144.215L103.215 154.866Z" fill="#FFB6B6"/>
<path d="M121.282 153.05C121.086 153.173 120.89 153.294 120.693 153.415C120.299 153.656 119.901 153.894 119.503 154.127C119.303 154.244 119.101 154.361 118.901 154.476V154.482L118.889 154.484L118.885 154.486L118.58 154.561L118.143 153.405L117.941 152.872L117.656 152.118L117.133 150.738L114.382 143.474L118.66 142.418L118.82 143.074H118.822L118.901 143.398L120.396 149.46L120.7 150.699L120.71 150.736L120.894 151.477L121.053 152.118L121.229 152.835L121.282 153.05Z" fill="#FFB6B6"/>
<path d="M110.372 105.906C110.756 106.531 111.369 106.98 112.08 107.158C112.792 107.337 113.544 107.23 114.178 106.861C114.305 106.784 114.426 106.697 114.539 106.599L123.059 111.489L122.689 106.47L114.655 102.596C114.218 102.157 113.647 101.875 113.033 101.795C112.418 101.715 111.795 101.841 111.26 102.154C110.647 102.522 110.206 103.118 110.033 103.811C109.86 104.504 109.969 105.237 110.337 105.85C110.348 105.869 110.36 105.888 110.372 105.906Z" fill="#FFB6B6"/>
<path d="M119.396 109.648L120.902 110.566L127.666 114.69C128.11 114.968 128.604 115.156 129.121 115.242C129.637 115.329 130.166 115.313 130.676 115.196C131.186 115.078 131.669 114.861 132.095 114.557C132.522 114.254 132.884 113.869 133.162 113.425L133.164 113.421C133.665 112.596 133.842 111.615 133.662 110.666L130.655 95.6472C130.544 95.0576 130.307 94.499 129.961 94.0094C129.614 93.5199 129.165 93.111 128.646 92.8107C128.126 92.5104 127.548 92.3259 126.951 92.2696C126.354 92.2133 125.751 92.2867 125.185 92.4847C124.233 92.8192 123.444 93.5038 122.979 94.3993C122.514 95.2948 122.407 96.3338 122.681 97.305L125.825 107.964L121.006 105.717L119.396 109.648Z" fill="#F50057"/>
<path d="M147.131 124.457C147.129 124.451 147.125 124.429 147.119 124.395L147.113 124.374C147.099 124.302 147.083 124.223 147.065 124.136C146.661 122.13 146.142 120.15 145.511 118.204C145.137 117.012 144.642 115.862 144.033 114.771C144.013 114.735 143.991 114.7 143.969 114.664L143.896 114.545L143.28 114.771L143.257 114.779L133.898 118.209L131.192 119.201L131.106 119.233L130.645 121.113L124.174 120.276L118.901 119.593L117.386 119.397C116.73 119.312 116.063 119.358 115.424 119.532C114.786 119.707 114.188 120.007 113.667 120.415C113.123 120.837 112.668 121.363 112.329 121.962C111.99 122.562 111.774 123.223 111.693 123.907C111.674 124.057 111.662 124.209 111.656 124.36L111.198 141.417V141.439L111.41 141.863L115.834 150.739H118.901L120.71 150.737H122.181L119.122 142.999L119.192 142.894C119.479 142.453 119.661 141.951 119.722 141.428C119.783 140.905 119.721 140.375 119.542 139.879L119.887 138.882C120.601 136.821 120.263 135.831 119.835 134.58C119.451 133.563 119.225 132.493 119.166 131.407L119.095 129.995C120.89 130.31 122.563 130.661 124.174 131.013C124.713 131.13 125.246 131.248 125.774 131.367C127.276 131.702 128.727 132.024 130.148 132.294C133.027 132.842 135.784 133.177 138.617 132.969C138.672 132.965 138.728 132.961 138.783 132.955C139.472 132.899 140.165 132.81 140.865 132.686C141.259 132.614 141.655 132.533 142.055 132.438C142.166 132.41 142.279 132.383 142.39 132.355C142.697 132.274 142.994 132.155 143.272 132.001C143.669 131.78 144.037 131.512 144.371 131.205C144.373 131.203 144.375 131.203 144.375 131.201C144.921 130.425 145.454 129.637 145.973 128.837C146.252 128.408 146.529 127.974 146.8 127.539C147.196 126.452 147.346 125.355 147.131 124.457Z" fill="#2F2E41"/>
<path d="M147.196 121.252C147.166 121.125 147.129 120.997 147.089 120.872C146.775 119.927 146.409 119.001 145.992 118.097C145.525 117.067 144.965 115.965 144.298 114.771C143.975 114.193 143.628 113.592 143.257 112.968C143.071 112.655 142.877 112.336 142.677 112.012C142.669 111.997 142.66 111.982 142.651 111.968L142.593 111.873L133.333 113.112L129.885 113.573L129.679 115.292L129.63 115.717C129.628 115.717 129.628 115.717 129.63 115.719L129.491 116.879V116.881L129.307 118.413L129.291 118.411L124.174 117.748L118.901 117.065L116.068 116.699C115.412 116.614 114.745 116.659 114.106 116.834C113.467 117.009 112.87 117.309 112.349 117.717C111.804 118.139 111.35 118.665 111.011 119.264C110.672 119.864 110.456 120.525 110.375 121.208C110.357 121.347 110.345 121.49 110.339 121.63L107.667 127.963C106.068 131.75 105.049 135.756 104.646 139.847L102.687 146.113L102.966 146.138L107.119 146.524L108.215 146.627L110.63 143.102C110.905 142.7 111.167 142.286 111.41 141.863C111.811 141.171 112.167 140.454 112.477 139.717L117.701 127.286C118.105 127.355 118.505 127.421 118.901 127.483C120.732 127.78 122.49 128.023 124.174 128.21C129.651 128.822 134.394 128.869 138.617 128.35C139.802 128.206 140.948 128.016 142.055 127.78C142.461 127.695 142.861 127.604 143.257 127.505C143.35 127.483 143.441 127.462 143.532 127.438C144.35 127.227 145.102 126.814 145.719 126.237C146.337 125.66 146.799 124.938 147.065 124.136C147.383 123.207 147.428 122.206 147.196 121.252Z" fill="#2F2E41"/>
<path d="M127.505 83.8651C131.042 83.8651 133.91 80.9334 133.91 77.3169C133.91 73.7005 131.042 70.7688 127.505 70.7688C123.967 70.7688 121.099 73.7005 121.099 77.3169C121.099 80.9334 123.967 83.8651 127.505 83.8651Z" fill="#FFB6B6"/>
<path d="M142.714 112.231C142.704 112.158 142.692 112.085 142.677 112.011C142.524 111.208 142.128 110.42 141.746 109.656C141.382 108.927 141.036 108.239 140.893 107.554C140.752 106.879 140.836 106.202 140.917 105.548C141.004 104.84 141.095 104.107 140.891 103.397C139.857 99.7674 138.437 96.2595 136.655 92.933C136.205 91.4703 135.343 90.1682 134.172 89.1831C133.001 88.1979 131.571 87.5713 130.053 87.3785C130.23 87.0475 130.304 86.671 130.265 86.2976C130.24 86.0564 130.168 85.8225 130.052 85.6094C129.936 85.3964 129.779 85.2084 129.59 85.0565C129.408 84.9102 129.2 84.8013 128.976 84.7361C128.752 84.6708 128.517 84.6506 128.286 84.6764L125.308 85.011C124.831 85.0709 124.397 85.3168 124.1 85.6953C123.803 86.0738 123.667 86.5542 123.723 87.032C123.739 87.1791 123.773 87.3239 123.822 87.4636C121.058 90.9831 119.639 94.19 119.508 97.2226V97.2245C119.493 97.5748 119.495 97.9256 119.514 98.2757C119.577 99.4078 119.823 100.522 120.243 101.576C120.738 102.792 121.402 103.934 122.214 104.966C122.381 105.176 122.553 105.382 122.731 105.584C122.897 105.782 123.083 105.99 123.289 106.208L123.81 107.023L124.295 107.785L126.888 113.769L128.208 113.726L128.392 115.042L128.436 115.349L129.291 118.411L129.354 118.641L130.524 118.085L137.504 114.771L142.722 112.293L142.714 112.231Z" fill="#F50057"/>
<path opacity="0.2" d="M120.321 101.544C120.916 103.002 121.753 104.349 122.796 105.528C122.974 105.742 123.163 105.951 123.361 106.161L124.374 107.751C128.109 104.951 131.135 93.9275 131.135 93.9275L126.921 93.1077L120.321 101.544Z" fill="black"/>
<path d="M117.77 84.4767C118.139 85.1106 118.246 85.8635 118.068 86.5752C117.891 87.2869 117.442 87.9012 116.819 88.2874C116.691 88.3639 116.557 88.4297 116.418 88.484L116.716 98.303L112.464 95.6263L112.833 86.7124C112.652 86.1192 112.672 85.4828 112.891 84.9025C113.11 84.3223 113.515 83.8307 114.042 83.5047C114.652 83.1358 115.383 83.0242 116.075 83.1946C116.767 83.365 117.363 83.8033 117.732 84.4131C117.745 84.4341 117.758 84.4553 117.77 84.4767Z" fill="#FFB6B6"/>
<path d="M117.09 94.5968L112.414 95.2618L112.615 104.945C112.627 105.636 112.815 106.312 113.161 106.91C113.508 107.508 114.002 108.007 114.596 108.36C115.321 108.786 116.166 108.966 117.002 108.871C117.839 108.776 118.621 108.412 119.233 107.833L130.273 97.2145C131.049 96.4776 131.514 95.4711 131.572 94.402C131.629 93.3329 131.274 92.2825 130.581 91.4667C129.902 90.6625 128.93 90.1611 127.881 90.0728C126.832 89.9846 125.791 90.3167 124.987 90.9961C124.955 91.0227 124.924 91.0498 124.894 91.0773C124.784 91.1749 124.681 91.2782 124.583 91.3869L117.293 99.7729L117.09 94.5968Z" fill="#F50057"/>
<path d="M104.076 153.027L101.16 151.629L100.703 151.41L99.9727 153.203L94.8735 154.325C94.6213 154.381 94.3935 154.515 94.2232 154.709C94.0529 154.903 93.9492 155.147 93.9271 155.404C93.9049 155.661 93.9657 155.918 94.1003 156.139C94.235 156.359 94.4365 156.53 94.6755 156.628L99.658 158.661L101.24 157.237L100.852 159.148L102.728 159.914L104.785 153.367L104.076 153.027Z" fill="#2F2E41"/>
<path d="M144.645 74.4771C143.556 73.2074 143.038 71.5228 142.168 70.081C141.297 68.6392 139.783 67.3488 138.183 67.6843C137.08 67.9156 136.227 68.8889 135.795 69.9741C135.364 71.0593 135.283 72.256 135.207 73.4284C135.234 71.0191 133.647 68.6835 131.46 67.9147C129.274 67.1459 126.657 68.0034 125.283 69.939C124.684 69.3833 123.901 69.0669 123.084 69.0497C122.266 69.0326 121.471 69.3159 120.849 69.8459C119.62 70.9443 119.348 73.0349 120.252 74.4359C121.156 75.8369 123.113 76.3588 124.549 75.5818L125.057 76.0489C124.771 77.0486 125.325 78.2294 126.257 78.6058C127.013 78.911 128.079 78.8602 128.362 79.653C128.56 80.2071 128.19 80.7984 127.798 81.2241C127.405 81.6499 126.938 82.0895 126.891 82.6786C126.82 83.5675 127.739 84.1902 128.574 84.3777C130.587 84.8299 132.821 83.8975 133.982 82.1206C134.004 82.0864 134.028 82.0521 134.054 82.0177C134.706 81.1851 135.18 80.2285 135.449 79.2063C135.718 78.1841 135.775 77.1178 135.618 76.0726C135.553 75.6619 135.619 75.3564 135.902 75.2592C137.126 74.8388 140.555 75.7211 141.592 76.5185C142.63 77.3159 143.461 78.3712 144.461 79.2201C145.46 80.069 146.734 80.7238 148.003 80.4926C149.02 80.3075 149.885 79.5695 150.466 78.6794C151.048 77.7893 151.383 76.7517 151.682 75.7205C149.435 77.019 146.358 76.4755 144.645 74.4771Z" fill="#2F2E41"/>
<path d="M124.426 150.986V151.029L124.371 151.023C124.305 151.071 124.24 151.114 124.175 151.16C123.701 151.485 123.224 151.804 122.743 152.118C122.508 152.272 122.272 152.425 122.035 152.575V152.577C122.033 152.577 122.031 152.579 122.029 152.579H122.027L122.023 152.583L122.011 152.589C122.005 152.593 122.001 152.595 121.995 152.599V116.006C121.995 114.945 121.639 114.084 121.201 114.082H88.2445C87.805 114.084 87.4507 114.945 87.4487 116.006V164.595C87.0092 164.638 86.5698 164.68 86.1303 164.716C86.1224 164.716 86.1145 164.718 86.1066 164.718C85.9324 164.733 85.7582 164.745 85.584 164.759H85.582C85.4771 164.565 85.3742 164.369 85.2712 164.171V113.51C85.2712 113.217 85.2831 112.922 85.3029 112.631C85.3312 112.231 85.3807 111.833 85.4514 111.439C85.7859 109.6 86.5421 108.355 87.4012 108.351H122.043C122.168 108.352 122.292 108.378 122.407 108.428C122.576 108.503 122.728 108.61 122.856 108.743C123.03 108.924 123.178 109.127 123.298 109.347C123.721 110.093 124.024 111.206 124.131 112.5C124.131 112.512 124.133 112.524 124.133 112.536C124.161 112.856 124.175 113.183 124.173 113.51L124.2 117.752L124.218 120.282L124.272 128.219L124.291 131.038L124.426 150.986Z" fill="#2F2E41"/>
<path d="M98.5029 96.5825L96.2104 106.669L94.7456 108.274H93.6887L98.0444 89.9343L98.2598 93.0499V93.0521L98.5029 96.5825Z" fill="#2F2E41"/>
<path d="M109.536 106.891L96.0868 106.805L94.8931 106.798L94.0419 106.792L93.0502 106.786H93.0423C92.8984 106.786 92.7605 106.843 92.6583 106.944L90.9836 108.619C90.9465 108.655 90.9163 108.698 90.8945 108.745C90.8841 108.759 90.8754 108.773 90.8688 108.789C90.8325 108.873 90.8176 108.965 90.8252 109.056C90.8328 109.148 90.8628 109.236 90.9124 109.313C90.9621 109.39 91.03 109.454 91.11 109.498C91.1901 109.543 91.2799 109.567 91.3716 109.569H108.793C108.898 109.568 109 109.539 109.088 109.482C109.177 109.426 109.247 109.347 109.292 109.252L109.429 108.955L109.71 108.351L110.028 107.67C110.062 107.598 110.08 107.519 110.08 107.439C110.079 107.294 110.022 107.156 109.92 107.053C109.818 106.951 109.68 106.892 109.536 106.891Z" fill="#2F2E41"/>
<path opacity="0.17" d="M109.429 108.955L109.291 109.253C109.246 109.347 109.176 109.427 109.088 109.483C109 109.539 108.898 109.569 108.794 109.569H91.3714C91.2797 109.567 91.1899 109.543 91.1099 109.499C91.0298 109.454 90.962 109.39 90.9124 109.313C90.8628 109.236 90.8329 109.148 90.8254 109.057C90.8179 108.966 90.833 108.874 90.8693 108.79C90.8755 108.774 90.884 108.759 90.8946 108.746L109.429 108.955Z" fill="black"/>
<path opacity="0.17" d="M98.2598 93.0499V93.0521L94.53 108.274H93.6887L98.0444 89.9343L98.2598 93.0499Z" fill="black"/>
<path d="M102.837 95.8389L97.5575 55.6727C97.5381 55.5221 97.4598 55.3854 97.3397 55.2926L93.7053 50.7437L93.3787 50.4923C93.2577 50.4007 93.1056 50.3602 92.9551 50.3795L92.4088 50.4527C92.2581 50.4721 92.1213 50.5506 92.0285 50.6709C91.9357 50.7912 91.8945 50.9434 91.9139 51.0941L97.3853 92.7113V92.7132L97.7198 95.2589L98.1177 98.2816V98.2856L98.7353 102.989C98.7451 103.069 98.7723 103.147 98.815 103.216C98.8578 103.285 98.915 103.344 98.9827 103.389C99.0493 103.435 99.1248 103.466 99.2044 103.48C99.2839 103.494 99.3656 103.492 99.4439 103.472L99.7904 103.385C99.9231 103.351 100.039 103.271 100.119 103.159L100.273 102.939L100.345 102.836L102.736 96.2447C102.82 96.1271 102.856 95.9821 102.837 95.8389Z" fill="#2F2E41"/>
<path opacity="0.17" d="M93.7045 50.7439L100.345 102.837L100.273 102.939L100.119 103.158C100.04 103.27 99.9234 103.35 99.7906 103.384L99.4437 103.471C99.3651 103.491 99.2834 103.494 99.2038 103.479C99.1241 103.465 99.0484 103.434 98.9815 103.389C98.9147 103.343 98.8582 103.284 98.8157 103.215C98.7733 103.146 98.7458 103.069 98.7352 102.989L91.9148 51.0947C91.895 50.944 91.9359 50.7917 92.0285 50.6711C92.121 50.5506 92.2576 50.4717 92.4083 50.4518L92.9561 50.3798C93.0304 50.3698 93.106 50.3747 93.1784 50.3941C93.2508 50.4136 93.3186 50.4473 93.3779 50.4932L93.7045 50.7439Z" fill="black"/>
<path d="M93.9001 52.2336L97.4243 57.2638L101.613 89.1341L99.342 93.6392L93.9001 52.2336Z" fill="#F50057"/>
<path d="M147.097 116.489C147.097 116.837 146.992 117.177 146.795 117.464C146.597 117.751 146.318 117.971 145.993 118.096C145.839 118.155 145.677 118.191 145.512 118.203C145.468 118.207 145.423 118.209 145.379 118.209H142.056V134.334C142.006 134.4 141.955 134.465 141.903 134.53C141.618 134.894 141.329 135.259 141.036 135.617C140.973 135.696 140.909 135.773 140.848 135.851C140.751 135.967 140.656 136.084 140.561 136.199C140.527 136.239 140.496 136.276 140.464 136.316C140.302 136.51 140.139 136.704 139.973 136.898C139.973 136.898 139.975 136.9 139.973 136.9C139.813 137.09 139.65 137.28 139.486 137.47C139.186 137.302 138.945 137.048 138.793 136.739C138.791 136.737 138.791 136.735 138.789 136.731C138.787 136.727 138.785 136.722 138.783 136.718C138.672 136.486 138.615 136.232 138.617 135.975V118.209H131.166C130.946 118.21 130.728 118.168 130.525 118.084C130.268 117.982 130.04 117.819 129.86 117.61C129.681 117.4 129.554 117.15 129.492 116.881V116.879C129.399 116.488 129.448 116.077 129.63 115.719C129.628 115.717 129.628 115.717 129.63 115.717C129.708 115.56 129.81 115.417 129.933 115.293C129.933 115.291 129.933 115.291 129.935 115.289C130.095 115.125 130.287 114.995 130.498 114.906C130.71 114.817 130.937 114.771 131.166 114.771H145.379C145.835 114.771 146.272 114.952 146.594 115.274C146.916 115.596 147.097 116.033 147.097 116.489Z" fill="#2F2E41"/>
<path d="M146.983 83.3645C146.276 83.3645 145.575 83.5038 144.922 83.7746C144.268 84.0453 143.674 84.4421 143.174 84.9424C142.674 85.4426 142.277 86.0365 142.006 86.6901C141.735 87.3437 141.596 88.0442 141.596 88.7517C141.596 90.0013 142.031 91.2121 142.825 92.1767C143.62 93.1412 144.725 93.7996 145.952 94.0391V102.85H149.39V83.3645H146.983Z" fill="#2F2E41"/>
<path d="M125.213 69.6489C126.685 71.6034 128.61 76.3239 127.91 78.6684Z" fill="#FD6584"/>
</g>
<defs>
<clipPath id="clip0_221_241">
<rect width="158.757" height="165" fill="white"/>
</clipPath>
</defs>
</svg>
